<?xml version="1.0" encoding="UTF-8"?> <svg xmlns="http://www.w3.org/2000/svg" id="Layer_1" data-name="Layer 1" width="3.49cm" height="3.56cm" viewBox="0 0 98.84 100.77"><path d="M99.7,53A48.42,48.42,0,1,1,51.28,4.62,48.42,48.42,0,0,1,99.7,53" transform="translate(-1.86 -1.68)" style="fill:#fff"></path><path d="M99.7,53A48.42,48.42,0,1,1,51.28,4.62,48.42,48.42,0,0,1,99.7,53Z" transform="translate(-1.86 -1.68)" style="fill:none;stroke:#32473c;stroke-miterlimit:10;stroke-width:2px"></path><path d="M87.55,53.08A35.6,35.6,0,1,1,52,17.48a35.6,35.6,0,0,1,35.6,35.6" transform="translate(-1.86 -1.68)" style="fill:#f4e000"></path><path d="M87.55,53.08A35.6,35.6,0,1,1,52,17.48,35.6,35.6,0,0,1,87.55,53.08Z" transform="translate(-1.86 -1.68)" style="fill:none;stroke:#a34736;stroke-miterlimit:10"></path><path d="M28.22,85.62a.85.85,0,0,1,.34-.11.89.89,0,0,1,.36,0,1.25,1.25,0,0,1,.33.16,1,1,0,0,1,.31.3,1.16,1.16,0,0,1,.15.38.89.89,0,0,1,0,.28.79.79,0,0,1-.08.26,1.65,1.65,0,0,1-.14.26l-.19.29c-.06.1-.13.19-.19.28a1.45,1.45,0,0,1-.19.23.83.83,0,0,1-.21.17.79.79,0,0,1-.27.1,1,1,0,0,1-.41,0,1.11,1.11,0,0,1-.39-.17,1.35,1.35,0,0,1-.28-.25,1,1,0,0,1-.16-.32,1,1,0,0,1,0-.35,1.27,1.27,0,0,1,.11-.4l.47.31a.6.6,0,0,0,0,.32.42.42,0,0,0,.2.28.52.52,0,0,0,.19.08h.19l.11-.05.11-.09.14-.17c.06-.07.12-.17.2-.28l.18-.28a.92.92,0,0,0,.1-.2.48.48,0,0,0,.05-.14.49.49,0,0,0,0-.12.27.27,0,0,0-.06-.17.43.43,0,0,0-.15-.15.45.45,0,0,0-.33-.08.55.55,0,0,0-.28.15l-.47-.31a1.11,1.11,0,0,1,.33-.25" transform="translate(-1.86 -1.68)" style="fill:#32473c"></path><path d="M25.79,83.09l-.18.49.77.63.45-.27.44.36-2.59,1.53-.33-.27,1-2.84ZM25,85l.92-.57L25.42,84Z" transform="translate(-1.86 -1.68)" style="fill:#32473c"></path><polygon points="22.2 79.86 20.2 81.86 19.81 81.47 21.46 79.82 20.55 78.91 20.9 78.56 22.2 79.86" style="fill:#32473c"></polygon><polygon points="19.82 77.3 17.68 79.14 17.32 78.72 19.46 76.88 19.82 77.3" style="fill:#32473c"></polygon><path d="M18.15,75.83a1.06,1.06,0,0,1,.32-.16.81.81,0,0,1,.31,0,.69.69,0,0,1,.29.13,1.18,1.18,0,0,1,.25.25L20,77l-2.28,1.66-.67-.92a1,1,0,0,1-.21-.65.78.78,0,0,1,.34-.53.87.87,0,0,1,.19-.1.65.65,0,0,1,.19,0,.47.47,0,0,1,.17,0,.4.4,0,0,1,.13,0,.71.71,0,0,1,0-.15,1.1,1.1,0,0,1,0-.18A.76.76,0,0,1,18,76a1,1,0,0,1,.18-.17M17.53,77a.36.36,0,0,0-.13.22.32.32,0,0,0,.08.27l.32.44.53-.38L18,77.11a.37.37,0,0,0-.23-.17.39.39,0,0,0-.25.06m.92-.71a.41.41,0,0,0-.14.21.37.37,0,0,0,.08.29l.34.47.56-.41L19,76.38a.31.31,0,0,0-.24-.16.36.36,0,0,0-.26.07" transform="translate(-1.86 -1.68)" style="fill:#32473c"></path><path d="M17.05,72.4l-.7,1,.2.34,1-.57.28.48-2.44,1.42-.56-1a1.21,1.21,0,0,1-.14-.37,1,1,0,0,1,0-.34.83.83,0,0,1,.14-.3.93.93,0,0,1,.52-.32,1,1,0,0,1,.24,0,.9.9,0,0,1,.22.06A.81.81,0,0,1,16,73l.74-1.16Zm-1.68,1a.32.32,0,0,0-.18.23.42.42,0,0,0,.06.3l.26.45.65-.38-.27-.44a.39.39,0,0,0-.23-.21.38.38,0,0,0-.29,0" transform="translate(-1.86 -1.68)" style="fill:#32473c"></path><path d="M15.21,68.76l-.39.36.42.92.53-.06.24.53-3,.24-.18-.39L15,68.24Zm-1.54,1.43,1.09-.1-.3-.64Z" transform="translate(-1.86 -1.68)" style="fill:#32473c"></path><polygon points="9.96 64.86 12.17 64.09 12.35 64.61 10.15 65.38 10.39 66.07 9.93 66.23 9.26 64.32 9.72 64.16 9.96 64.86" style="fill:#32473c"></polygon><polygon points="11.43 61.63 8.68 62.3 8.24 60.5 8.71 60.38 9.03 61.65 9.67 61.49 9.4 60.41 9.88 60.29 10.15 61.37 10.82 61.21 10.5 59.94 10.98 59.82 11.43 61.63" style="fill:#32473c"></polygon><path d="M10.76,57.9l.31,0a1.67,1.67,0,0,1,.31,0,1,1,0,0,1,.29,0,.86.86,0,0,1,.53.44,1.25,1.25,0,0,1,.12.4l.15,1-2.8.4-.15-1a1.4,1.4,0,0,1,0-.41.83.83,0,0,1,.15-.36.9.9,0,0,1,.23-.21.79.79,0,0,1,.26-.13,1.27,1.27,0,0,1,.28-.06l.31-.05m.08.55-.27,0-.2,0a.46.46,0,0,0-.14.05l-.1.08a.5.5,0,0,0-.1.19.67.67,0,0,0,0,.25l.06.41,1.82-.27-.06-.41a.52.52,0,0,0-.08-.23.54.54,0,0,0-.15-.15.55.55,0,0,0-.28-.06,4,4,0,0,0-.49.05" transform="translate(-1.86 -1.68)" style="fill:#32473c"></path><path d="M10,51.5a1.28,1.28,0,0,1,.34.07,1.07,1.07,0,0,1,.28.19.75.75,0,0,1,.18.3.94.94,0,0,1,.07.39V53l1.06,0v.55l-2.83,0,0-1.09A.94.94,0,0,1,9.17,52a.77.77,0,0,1,.19-.29.91.91,0,0,1,.29-.19A1,1,0,0,1,10,51.5m0,.56a.39.39,0,0,0-.28.1.41.41,0,0,0-.11.3V53h.78v-.52a.41.41,0,0,0-.11-.3.38.38,0,0,0-.28-.11" transform="translate(-1.86 -1.68)" style="fill:#32473c"></path><polygon points="10.18 48.02 7.37 47.72 7.43 47.18 9.75 47.42 9.88 46.15 10.37 46.2 10.18 48.02" style="fill:#32473c"></polygon><polygon points="9.8 43.27 10.94 43.49 10.83 44.03 9.69 43.81 7.89 44.32 8.01 43.73 9.23 43.43 8.21 42.7 8.33 42.11 9.8 43.27" style="fill:#32473c"></polygon><polygon points="12.21 38.69 12.07 39.13 10.28 39.12 11.77 40.13 11.63 40.57 8.71 40.44 8.88 39.89 10.71 40.01 9.16 38.99 9.29 38.59 11.14 38.63 9.57 37.68 9.74 37.13 12.21 38.69" style="fill:#32473c"></polygon><path d="M14.36,35.7l.31.14a1.1,1.1,0,0,1,.26.15.91.91,0,0,1,.21.18.89.89,0,0,1,.14.24,1.09,1.09,0,0,1,.07.4,1,1,0,0,1-.1.42,1,1,0,0,1-.24.36,1,1,0,0,1-.35.22,1.31,1.31,0,0,1-.27.06l-.27,0-.29-.1-.31-.13-.31-.14a1.61,1.61,0,0,1-.26-.15.91.91,0,0,1-.21-.18.69.69,0,0,1-.14-.24.92.92,0,0,1-.07-.4,1.09,1.09,0,0,1,.68-1l.28-.06.27,0a1.52,1.52,0,0,1,.28.09l.32.14m-.22.5-.31-.13L13.62,36h-.15l-.11,0a.42.42,0,0,0-.16.09.76.76,0,0,0-.13.17.52.52,0,0,0,0,.21.34.34,0,0,0,0,.18l.06.1.11.09a1.2,1.2,0,0,0,.2.11l.3.14.31.13a1.28,1.28,0,0,0,.21.07l.15,0,.11,0a.39.39,0,0,0,.16-.1.59.59,0,0,0,.13-.17.51.51,0,0,0,0-.2.48.48,0,0,0,0-.18l-.06-.1a.63.63,0,0,0-.12-.1l-.19-.11-.3-.14" transform="translate(-1.86 -1.68)" style="fill:#32473c"></path><path d="M16.21,32.17l.29.17a1.8,1.8,0,0,1,.25.17,1.12,1.12,0,0,1,.18.2.62.62,0,0,1,.12.26,1.09,1.09,0,0,1,0,.4,1,1,0,0,1-.14.41,1.06,1.06,0,0,1-.28.34,1.16,1.16,0,0,1-.37.18.67.67,0,0,1-.28,0,.65.65,0,0,1-.26-.06,1.59,1.59,0,0,1-.27-.12l-.3-.16-.3-.17-.25-.17a1.12,1.12,0,0,1-.18-.2.89.89,0,0,1-.12-.26,1.09,1.09,0,0,1,0-.4,1.14,1.14,0,0,1,.15-.41,1,1,0,0,1,.27-.34,1.16,1.16,0,0,1,.37-.18l.28,0a1.31,1.31,0,0,1,.27.06l.27.12.3.16m-.27.48-.3-.16-.2-.09-.14,0h-.12a.53.53,0,0,0-.17.08.56.56,0,0,0-.14.16.66.66,0,0,0-.06.2.36.36,0,0,0,0,.18.54.54,0,0,0,.05.11.57.57,0,0,0,.11.1,1.06,1.06,0,0,0,.18.13l.29.17.29.16.2.09.15,0h.11a.38.38,0,0,0,.17-.08.44.44,0,0,0,.14-.16.36.36,0,0,0,.06-.2.37.37,0,0,0,0-.18.54.54,0,0,0,0-.11l-.1-.1-.18-.13-.29-.17" transform="translate(-1.86 -1.68)" style="fill:#32473c"></path><path d="M18.45,28.74l.26.19a2.23,2.23,0,0,1,.24.19,1.3,1.3,0,0,1,.18.23.83.83,0,0,1,.1.29.74.74,0,0,1,0,.39,1.46,1.46,0,0,1-.18.38l-.59.83-2.31-1.62.59-.84a1.18,1.18,0,0,1,.29-.3.78.78,0,0,1,.35-.15.81.81,0,0,1,.31,0,.86.86,0,0,1,.27.09,1.74,1.74,0,0,1,.26.15l.25.17m-.31.46L17.91,29l-.18-.1-.14-.06h-.12a.48.48,0,0,0-.21.07.46.46,0,0,0-.17.17l-.24.34,1.5,1.06.24-.34A.75.75,0,0,0,18.7,30a.45.45,0,0,0-.17-.45,4.65,4.65,0,0,0-.39-.3" transform="translate(-1.86 -1.68)" style="fill:#32473c"></path><path d="M83.63,29.82a.87.87,0,0,1-.36,0,1,1,0,0,1-.32-.15,1.33,1.33,0,0,1-.27-.26,1.09,1.09,0,0,1-.19-.39,1.12,1.12,0,0,1,0-.41.66.66,0,0,1,.08-.26,1.19,1.19,0,0,1,.16-.23l.22-.2.27-.21.28-.2.25-.16a1.14,1.14,0,0,1,.26-.09.87.87,0,0,1,.28,0,1,1,0,0,1,.7.42,1.35,1.35,0,0,1,.18.33,1,1,0,0,1,.06.35,1.13,1.13,0,0,1-.09.35,1.2,1.2,0,0,1-.23.34l-.34-.45a.58.58,0,0,0,.13-.3.38.38,0,0,0-.1-.32.4.4,0,0,0-.15-.14.41.41,0,0,0-.18,0,.21.21,0,0,0-.11,0,.48.48,0,0,0-.14,0l-.19.12-.27.19-.27.21-.17.15-.08.12a.56.56,0,0,0,0,.12.37.37,0,0,0,0,.18.41.41,0,0,0,.09.19.4.4,0,0,0,.28.18.51.51,0,0,0,.32-.05l.34.45a1,1,0,0,1-.39.13" transform="translate(-1.86 -1.68)" style="fill:#32473c"></path><path d="M85.05,33.1l.34-.4-.52-.86-.52.12-.3-.49,3-.6.22.37-1.87,2.35Zm1.36-1.6-1.06.23.36.6Z" transform="translate(-1.86 -1.68)" style="fill:#32473c"></path><polygon points="84.33 33.36 86.87 32.12 87.11 32.62 85.02 33.64 85.58 34.79 85.14 35.01 84.33 33.36" style="fill:#32473c"></polygon><rect x="87.72" y="37.87" width="2.82" height="0.55" transform="translate(-9.65 33.8) rotate(-21.6)" style="fill:#32473c"></rect><path d="M90,42.5a.9.9,0,0,1-.35,0,.76.76,0,0,1-.3-.1.8.8,0,0,1-.23-.22A1.19,1.19,0,0,1,89,41.9l-.34-1.13,2.7-.82L91.69,41a.92.92,0,0,1,0,.68.79.79,0,0,1-.49.39.82.82,0,0,1-.21,0l-.19,0a.52.52,0,0,1-.15-.07.53.53,0,0,1-.11-.09.83.83,0,0,1,0,.15.4.4,0,0,1-.08.16,1,1,0,0,1-.15.14.9.9,0,0,1-.22.11M89.9,42a.32.32,0,0,0,.2-.16.32.32,0,0,0,0-.29L90,41l-.66.2.16.55a.39.39,0,0,0,.18.24.42.42,0,0,0,.27,0m1.1-.38a.31.31,0,0,0,.2-.15.41.41,0,0,0,0-.29l-.16-.52-.63.19.16.52a.37.37,0,0,0,.16.23.29.29,0,0,0,.26,0" transform="translate(-1.86 -1.68)" style="fill:#32473c"></path><path d="M90,46.07l1-.76-.08-.39-1.1.22-.11-.54,2.77-.54.21,1.08a1,1,0,0,1,0,.39.83.83,0,0,1-.13.32.63.63,0,0,1-.23.23,1,1,0,0,1-.32.13.83.83,0,0,1-.27,0,.88.88,0,0,1-.23-.07L91.29,46a.59.59,0,0,1-.13-.18l-1.08.86Zm1.92-.4a.38.38,0,0,0,.24-.16.46.46,0,0,0,0-.31l-.1-.51-.74.14.1.51a.46.46,0,0,0,.16.27.36.36,0,0,0,.29.06" transform="translate(-1.86 -1.68)" style="fill:#32473c"></path><path d="M90.51,50l.48-.22-.09-1-.51-.13-.06-.57,2.91.76,0,.43-2.71,1.29Zm1.92-.84-1.05-.26.06.7Z" transform="translate(-1.86 -1.68)" style="fill:#32473c"></path><polygon points="90.97 51.55 88.64 51.55 88.64 51 90.97 51 90.97 50.27 91.47 50.27 91.47 52.29 90.97 52.29 90.97 51.55" style="fill:#32473c"></polygon><polygon points="88.57 54.03 91.38 54.29 91.21 56.14 90.72 56.1 90.84 54.8 90.18 54.73 90.08 55.84 89.59 55.8 89.69 54.69 89.01 54.62 88.89 55.93 88.4 55.88 88.57 54.03" style="fill:#32473c"></polygon><path d="M91.12,61.8l-.31-.06-.29-.08a1.26,1.26,0,0,1-.26-.13.78.78,0,0,1-.21-.23.7.7,0,0,1-.14-.36,1.2,1.2,0,0,1,0-.42l.19-1,2.77.53-.19,1a1,1,0,0,1-.14.39.73.73,0,0,1-.26.29.88.88,0,0,1-.28.13,1.33,1.33,0,0,1-.28,0,1.53,1.53,0,0,1-.3,0l-.31-.06m.11-.54.27.05.2,0h.15l.12,0a.56.56,0,0,0,.16-.14.69.69,0,0,0,.09-.23l.08-.41-1.81-.35-.08.41a.53.53,0,0,0,0,.25.5.5,0,0,0,.1.19.46.46,0,0,0,.24.14,3.3,3.3,0,0,0,.48.12" transform="translate(-1.86 -1.68)" style="fill:#32473c"></path><path d="M89.72,68a1.11,1.11,0,0,1-.3-.17,1.05,1.05,0,0,1-.2-.27,1,1,0,0,1-.08-.34,1.16,1.16,0,0,1,.07-.4l.18-.51-1-.35.19-.52,2.66,1-.37,1a1,1,0,0,1-.2.34.83.83,0,0,1-.28.22,1.14,1.14,0,0,1-.33.08,1.06,1.06,0,0,1-.34-.06m.19-.52a.35.35,0,0,0,.3,0,.38.38,0,0,0,.2-.24l.18-.49-.74-.26-.17.49a.41.41,0,0,0,0,.31.38.38,0,0,0,.23.2" transform="translate(-1.86 -1.68)" style="fill:#32473c"></path><polygon points="85.25 67.29 87.81 68.49 87.58 68.99 85.46 68 84.92 69.16 84.48 68.94 85.25 67.29" style="fill:#32473c"></polygon><polygon points="84.16 72.07 83.16 71.48 83.44 71.01 84.43 71.59 86.3 71.71 86 72.22 84.75 72.1 85.47 73.13 85.16 73.64 84.16 72.07" style="fill:#32473c"></polygon><polygon points="80.35 75.52 80.62 75.15 82.31 75.75 81.24 74.31 81.51 73.94 84.23 75.02 83.89 75.48 82.2 74.77 83.32 76.25 83.08 76.58 81.34 75.93 82.5 77.35 82.16 77.81 80.35 75.52" style="fill:#32473c"></polygon><path d="M80.34,81.49l-.25-.23a2.05,2.05,0,0,1-.2-.23,1,1,0,0,1-.13-.23,1.27,1.27,0,0,1-.06-.28,1.29,1.29,0,0,1,.06-.4,1.17,1.17,0,0,1,.58-.63,1.11,1.11,0,0,1,.4-.09,1.2,1.2,0,0,1,.28,0,1.15,1.15,0,0,1,.25.12,1.3,1.3,0,0,1,.23.18l.26.23a2.72,2.72,0,0,1,.24.24,1.33,1.33,0,0,1,.2.22.84.84,0,0,1,.14.24.76.76,0,0,1,0,.27.93.93,0,0,1-.06.41,1,1,0,0,1-.23.36,1,1,0,0,1-.35.26.86.86,0,0,1-.39.09.8.8,0,0,1-.28,0,1.15,1.15,0,0,1-.25-.12,1.88,1.88,0,0,1-.24-.18l-.25-.23m.37-.4.25.22.18.14.13.06.12,0a.39.39,0,0,0,.18,0,.38.38,0,0,0,.17-.12.58.58,0,0,0,.11-.18.39.39,0,0,0,0-.18.5.5,0,0,0,0-.12.42.42,0,0,0-.08-.12.73.73,0,0,0-.15-.17l-.24-.23-.25-.23L81,80,80.83,80a.25.25,0,0,0-.12,0,.38.38,0,0,0-.18,0,.52.52,0,0,0-.17.13.36.36,0,0,0-.11.17.53.53,0,0,0,0,.3l.07.13.15.17.24.23" transform="translate(-1.86 -1.68)" style="fill:#32473c"></path><path d="M77.45,84.27,77.23,84a1.88,1.88,0,0,1-.18-.24,1.36,1.36,0,0,1-.11-.25,1.27,1.27,0,0,1,0-.28,1.24,1.24,0,0,1,.1-.4,1.19,1.19,0,0,1,.27-.34,1,1,0,0,1,.78-.27.6.6,0,0,1,.27.06.84.84,0,0,1,.24.14l.21.2a3,3,0,0,1,.23.26l.23.25.17.25a.74.74,0,0,1,.11.24.65.65,0,0,1,0,.28,1,1,0,0,1-.1.4,1.07,1.07,0,0,1-.27.34,1.13,1.13,0,0,1-.37.23,1.33,1.33,0,0,1-.4.05.77.77,0,0,1-.28-.07.79.79,0,0,1-.23-.14,1,1,0,0,1-.22-.2l-.23-.25m.41-.37.23.25.16.15.13.08.11,0a.37.37,0,0,0,.18,0,.41.41,0,0,0,.19-.11.45.45,0,0,0,.12-.16.46.46,0,0,0,0-.19.45.45,0,0,0,0-.11.49.49,0,0,0-.06-.13,1.58,1.58,0,0,0-.13-.18l-.22-.26L78.37,83l-.16-.15-.12-.08-.12,0a.37.37,0,0,0-.18,0,.42.42,0,0,0-.18.11.52.52,0,0,0-.13.17.39.39,0,0,0,0,.18s0,.07,0,.11a1.47,1.47,0,0,0,.06.14l.14.18a3.1,3.1,0,0,0,.21.25" transform="translate(-1.86 -1.68)" style="fill:#32473c"></path><path d="M74.27,86.7l-.19-.26-.16-.26a2.31,2.31,0,0,1-.1-.28.81.81,0,0,1,0-.31.82.82,0,0,1,.15-.36,1.18,1.18,0,0,1,.3-.29l.82-.6,1.66,2.29-.83.6a1.44,1.44,0,0,1-.37.19.86.86,0,0,1-.39,0,.82.82,0,0,1-.29-.09,1,1,0,0,1-.23-.18,1.37,1.37,0,0,1-.19-.22l-.18-.25m.44-.33a2.46,2.46,0,0,0,.17.22.75.75,0,0,0,.13.16l.11.1.12.05a.37.37,0,0,0,.21,0,.54.54,0,0,0,.22-.1l.34-.25-1.08-1.49-.33.24a.56.56,0,0,0-.17.18.48.48,0,0,0-.07.21.63.63,0,0,0,.08.27c.06.1.15.24.27.41" transform="translate(-1.86 -1.68)" style="fill:#32473c"></path><path d="M52.12,88.2s-2.66,0-4.24-.17a34,34,0,0,1-4.24-.84V19.74h8.48Z" transform="translate(-1.86 -1.68)" style="fill:#a34736"></path><path d="M50.51,88.44s-.77-.14-.53-.22a3.69,3.69,0,0,1-.54.14V20.45h1.07Z" transform="translate(-1.86 -1.68)" style="fill:#b75b4d"></path><path d="M46.63,88.44s-.77-.14-.54-.22a3.37,3.37,0,0,1-.54.14V20.45h1.08Z" transform="translate(-1.86 -1.68)" style="fill:#b75b4d"></path><rect x="37.3" y="36.37" width="21.44" height="32.04" style="fill:#f4e000"></rect><path d="M27,50.06v1.36c0,1.63-.82,2.56-2.39,2.56s-2.39-.93-2.39-2.56V46.11c0-1.63.81-2.56,2.39-2.56S27,44.48,27,46.11v1H25.46V46c0-.73-.32-1-.83-1s-.83.28-.83,1v5.51c0,.73.32,1,.83,1s.83-.26.83-1V50.06Z" transform="translate(-1.86 -1.68)" style="fill:#32473c"></path><path d="M34,53.86H32.39L32.11,52h-2l-.28,1.85H28.39L30,43.66h2.34Zm-3.65-3.23h1.54l-.77-5.16Z" transform="translate(-1.86 -1.68)" style="fill:#32473c"></path><polygon points="33.74 41.98 35.35 41.98 35.35 50.72 37.98 50.72 37.98 52.18 33.74 52.18 33.74 41.98" style="fill:#32473c"></polygon><rect x="39.55" y="41.98" width="1.6" height="10.2" style="fill:#32473c"></rect><path d="M49.84,46v.36a2,2,0,0,1-1,2.06A2.06,2.06,0,0,1,50,50.61v.83a2.17,2.17,0,0,1-2.44,2.42H45V43.66h2.42c1.66,0,2.38.78,2.38,2.35m-3.2-.89v2.7h.63c.6,0,1-.27,1-1.08v-.57c0-.73-.25-1.05-.81-1.05Zm0,4.15v3.14h.92c.54,0,.83-.25.83-1v-.89c0-.94-.3-1.24-1-1.24Z" transform="translate(-1.86 -1.68)" style="fill:#32473c"></path><path d="M55.17,53.86A3.11,3.11,0,0,1,55,52.61V51c0-.95-.32-1.3-1.05-1.3h-.56v4.15h-1.6V43.66h2.42c1.66,0,2.37.78,2.37,2.35v.8a2,2,0,0,1-1,2.07c.8.34,1.06,1.11,1.06,2.17v1.57a3,3,0,0,0,.17,1.24Zm-1.75-8.74v3.13h.63c.6,0,1-.26,1-1.07v-1c0-.73-.25-1.05-.81-1.05Z" transform="translate(-1.86 -1.68)" style="fill:#32473c"></path><path d="M63.73,53.86H62.11L61.84,52h-2l-.28,1.85H58.12l1.63-10.2H62.1Zm-3.66-3.23h1.55l-.78-5.16Z" transform="translate(-1.86 -1.68)" style="fill:#32473c"></path><polygon points="62.44 41.98 67.39 41.98 67.39 43.44 65.71 43.44 65.71 52.18 64.11 52.18 64.11 43.44 62.44 43.44 62.44 41.98" style="fill:#32473c"></polygon><polygon points="70.56 46.28 72.75 46.28 72.75 47.74 70.56 47.74 70.56 50.72 73.32 50.72 73.32 52.18 68.95 52.18 68.95 41.98 73.32 41.98 73.32 43.44 70.56 43.44 70.56 46.28" style="fill:#32473c"></polygon><path d="M77,43.66h2.54c1.6,0,2.39.89,2.39,2.52v5.16c0,1.63-.79,2.52-2.39,2.52H77Zm1.6,1.46v7.29h.91c.51,0,.81-.27.81-1v-5.3c0-.73-.3-1-.81-1Z" transform="translate(-1.86 -1.68)" style="fill:#32473c"></path><path d="M37.71,59.07v1.24c0,1.52-.74,2.35-2.23,2.35h-.71v3.57H33.28V56.72h2.2c1.49,0,2.23.83,2.23,2.35m-2.94-1V61.3h.71c.47,0,.73-.22.73-.9V59c0-.68-.26-.9-.73-.9Z" transform="translate(-1.86 -1.68)" style="fill:#32473c"></path><polygon points="37.33 55.04 38.83 55.04 38.83 63.19 41.29 63.19 41.29 64.55 37.33 64.55 37.33 55.04" style="fill:#32473c"></polygon><polygon points="43.3 61.4 41.41 55.04 42.97 55.04 44.11 59.37 45.25 55.04 46.68 55.04 44.79 61.4 44.79 64.55 43.3 64.55 43.3 61.4" style="fill:#32473c"></polygon><polygon points="51.38 59.48 50.83 64.55 48.78 64.55 47.72 55.04 49.18 55.04 49.98 62.54 50.7 55.04 52.14 55.04 52.89 62.59 53.66 55.04 54.97 55.04 53.91 64.55 51.92 64.55 51.38 59.48" style="fill:#32473c"></polygon><path d="M58.25,59a2.27,2.27,0,1,1,4.54,0V64a2.27,2.27,0,1,1-4.54,0Zm1.5,5c0,.67.3.93.77.93s.78-.26.78-.93V58.91c0-.68-.3-.94-.78-.94s-.77.26-.77.94Z" transform="translate(-1.86 -1.68)" style="fill:#32473c"></path><path d="M64.43,59A2.27,2.27,0,1,1,69,59V64a2.27,2.27,0,1,1-4.54,0Zm1.5,5c0,.67.3.93.77.93s.78-.26.78-.93V58.91c0-.68-.3-.94-.78-.94s-.77.26-.77.94Z" transform="translate(-1.86 -1.68)" style="fill:#32473c"></path><path d="M70.72,56.72h2.36c1.5,0,2.23.83,2.23,2.35v4.81c0,1.52-.73,2.35-2.23,2.35H70.72Zm1.49,1.36v6.79h.85c.47,0,.76-.24.76-.92V59c0-.68-.29-.93-.76-.93Z" transform="translate(-1.86 -1.68)" style="fill:#32473c"></path><path d="M35.64,90.87s-.07.06-.09.07.11-.09.09-.07" transform="translate(-1.86 -1.68)" style="fill:#32473c"></path><polygon points="34.61 89.45 34.58 89.48 34.73 89.46 34.61 89.45" style="fill:#32473c"></polygon><path d="M37.14,91.54c0-.18-.25-.12-.34-.25v0l-.13.09c.16.06.39.1.47.2" transform="translate(-1.86 -1.68)" style="fill:#32473c"></path><path d="M37.33,92.06c0-.07.1,0-.08-.06,0,0,0,0,0,0l.07,0" transform="translate(-1.86 -1.68)" style="fill:#32473c"></path><path d="M37.26,92c-.08,0,0,.08,0,0" transform="translate(-1.86 -1.68)" style="fill:#32473c"></path><path d="M37.61,92.17h-.12s.08.1,0,.11.11,0,.08-.11" transform="translate(-1.86 -1.68)" style="fill:#32473c"></path><path d="M37.76,92.12H37.7s0,0,.06,0" transform="translate(-1.86 -1.68)" style="fill:#32473c"></path><path d="M37.57,92.1h.13s0-.08-.06,0,0,0-.07,0" transform="translate(-1.86 -1.68)" style="fill:#32473c"></path><path d="M37.52,92c0-.06-.09-.11,0-.11-.19-.08-.22,0,0,.11" transform="translate(-1.86 -1.68)" style="fill:#32473c"></path><path d="M37.26,91.41l0-.09-.09,0s.11.11.13.07" transform="translate(-1.86 -1.68)" style="fill:#32473c"></path><path d="M38.17,92.58s0-.11,0-.15h-.09s.08.09.06.15" transform="translate(-1.86 -1.68)" style="fill:#32473c"></path><path d="M38.2,92.43h.14c-.1-.06-.13,0-.14,0" transform="translate(-1.86 -1.68)" style="fill:#32473c"></path><polygon points="36.01 90.28 35.77 90.3 36.04 90.29 36.01 90.28" style="fill:#32473c"></polygon><polygon points="36.72 91.1 36.63 91.15 36.79 91.09 36.72 91.1" style="fill:#32473c"></polygon><path d="M38.87,92.91c-.08,0,0,.13,0,.15a.43.43,0,0,0,.25,0,.23.23,0,0,1-.2-.13" transform="translate(-1.86 -1.68)" style="fill:#32473c"></path><path d="M39.2,93l-.13,0,.13,0" transform="translate(-1.86 -1.68)" style="fill:#32473c"></path><path d="M38.51,92.54a.16.16,0,0,0,0,.13v-.11Z" transform="translate(-1.86 -1.68)" style="fill:#32473c"></path><path d="M38.55,92.55h0l.09,0-.09-.06" transform="translate(-1.86 -1.68)" style="fill:#32473c"></path><path d="M38.5,92.53h0s0,0,0,0" transform="translate(-1.86 -1.68)" style="fill:#32473c"></path><path d="M38.1,92.19c.09,0,.25,0,.17-.14-.08,0,0,.12-.17.14" transform="translate(-1.86 -1.68)" style="fill:#32473c"></path><path d="M38.51,92.39l-.11-.07s0,.06,0,.08Z" transform="translate(-1.86 -1.68)" style="fill:#32473c"></path><polygon points="36.71 90.71 36.64 90.71 36.68 90.74 36.71 90.71" style="fill:#32473c"></polygon><path d="M39,92.84a.4.4,0,0,1,.19,0,.76.76,0,0,0-.19-.12s-.07.06,0,.09" transform="translate(-1.86 -1.68)" style="fill:#32473c"></path><path d="M38.81,92.69h0" transform="translate(-1.86 -1.68)" style="fill:#32473c"></path><polygon points="37.98 91.47 37.98 91.44 37.97 91.46 37.98 91.47" style="fill:#32473c"></polygon><path d="M39,92.73a.11.11,0,0,0-.12,0l.12,0s0,0,0,0" transform="translate(-1.86 -1.68)" style="fill:#32473c"></path><path d="M39.39,93.06l-.06-.1c0,.05,0,.12.06.1" transform="translate(-1.86 -1.68)" style="fill:#32473c"></path><path d="M38.83,92.73h0s0,0,0,0" transform="translate(-1.86 -1.68)" style="fill:#32473c"></path><path d="M38.83,92.73a.32.32,0,0,0,.09,0h-.1s0,0,0,0" transform="translate(-1.86 -1.68)" style="fill:#32473c"></path><path d="M40.29,92.64a.16.16,0,0,1-.28,0c-.14,0-.2.33-.17.53,0,0,0-.07.18-.07,0-.07-.21-.22-.08-.26s.11.09.16.17c0-.14.26-.07.3-.25h-.16s.07,0,0-.08" transform="translate(-1.86 -1.68)" style="fill:#32473c"></path><path d="M39.63,93h-.06a.41.41,0,0,1,.12.19c.09,0,.12,0,.14-.06L39.6,93Z" transform="translate(-1.86 -1.68)" style="fill:#32473c"></path><path d="M39.36,92.91c.08-.07.21-.06.19-.19s-.13,0-.24,0c.24.08-.09,0,0,.15a.28.28,0,0,1-.13,0l.1.09h0s0,0,0,0h0l0,0c.06,0,0,0,0,0v0h0l.26.05a1.2,1.2,0,0,0-.22-.1" transform="translate(-1.86 -1.68)" style="fill:#32473c"></path><path d="M38.48,91.92v0s0,0,0,0" transform="translate(-1.86 -1.68)" style="fill:#32473c"></path><path d="M38.54,92s0,0-.1,0,0,0,0-.07-.15,0-.07.1h0c.07.07.13.24.11.25a.82.82,0,0,0,0-.27" transform="translate(-1.86 -1.68)" style="fill:#32473c"></path><path d="M39,92.45l.21,0-.06-.12v0c-.1-.07-.11,0-.14,0" transform="translate(-1.86 -1.68)" style="fill:#32473c"></path><polygon points="37.98 91.52 37.91 91.61 38.08 91.52 37.98 91.52" style="fill:#32473c"></polygon><polygon points="38.23 91.62 38.18 91.7 38.27 91.68 38.23 91.62" style="fill:#32473c"></polygon><path d="M54.76,94.25l.06,0-.06,0" transform="translate(-1.86 -1.68)" style="fill:#32473c"></path><path d="M54.34,94.29v0s0,0,0,0" transform="translate(-1.86 -1.68)" style="fill:#32473c"></path><path d="M46.4,95.17c.07.1.14.25.15.14v-.1a.16.16,0,0,1-.14,0" transform="translate(-1.86 -1.68)" style="fill:#32473c"></path><path d="M50.89,95l0,0a.86.86,0,0,1-.07.1l.09-.06" transform="translate(-1.86 -1.68)" style="fill:#32473c"></path><path d="M51,94.56l.11.07a.35.35,0,0,0-.11-.07" transform="translate(-1.86 -1.68)" style="fill:#32473c"></path><path d="M57,93.76l.05-.11c-.11,0-.05.06-.05.11" transform="translate(-1.86 -1.68)" style="fill:#32473c"></path><path d="M42.68,94.23a.46.46,0,0,0,.16.11c-.07-.08-.11-.19-.16-.11" transform="translate(-1.86 -1.68)" style="fill:#32473c"></path><path d="M54.73,95.34s.05,0,0-.06-.05,0,0,.06" transform="translate(-1.86 -1.68)" style="fill:#32473c"></path><path d="M43.05,94.41l0,0a.42.42,0,0,1-.18,0c0,.07.12.12.21.07" transform="translate(-1.86 -1.68)" style="fill:#32473c"></path><path d="M64.8,90.92h0s0,0,0,0" transform="translate(-1.86 -1.68)" style="fill:#32473c"></path><path d="M67.44,90.48l-.08.06s0,0,.08-.06" transform="translate(-1.86 -1.68)" style="fill:#32473c"></path><path d="M41.08,93.75c-.06,0,0,0,0,0" transform="translate(-1.86 -1.68)" style="fill:#32473c"></path><path d="M41,93.27s0,0,0,0a.05.05,0,0,1,0,0" transform="translate(-1.86 -1.68)" style="fill:#32473c"></path><path d="M43.77,94h0s0,0,0,0" transform="translate(-1.86 -1.68)" style="fill:#32473c"></path><path d="M41,93.68a.12.12,0,0,0,0,0s0,0,0,0" transform="translate(-1.86 -1.68)" style="fill:#32473c"></path><path d="M41,93.73l0,0s0,0,0,0" transform="translate(-1.86 -1.68)" style="fill:#32473c"></path><path d="M41.16,93.77a.18.18,0,0,1-.09,0,0,0,0,0,1,0,0l.08,0" transform="translate(-1.86 -1.68)" style="fill:#32473c"></path><path d="M60.84,93h0c0-.05,0,0,0,0" transform="translate(-1.86 -1.68)" style="fill:#32473c"></path><polygon points="46.12 92.65 46.12 92.65 46.13 92.66 46.12 92.65" style="fill:#32473c"></polygon><path d="M48.19,94.28c-.1.12-.14.09-.2.06l0,.3Z" transform="translate(-1.86 -1.68)" style="fill:#32473c"></path><path d="M55.76,94.08,55.61,94c.14-.17.26-.14.12-.24,0,.32-.52.1-.5.42l-.09-.05s0,0,0,0c-.2-.13-.1.25-.33.24-.08,0-.14-.06-.09-.1l-.17.1c-.05,0-.05-.06,0-.06l-.26,0h0a.9.9,0,0,1-.15.18c-.07,0,0,0,0-.08l-.14.1c-.07-.08,0-.17.15-.17-.17-.3-.12.09-.44-.06l.14-.06c-.11-.17-.21-.09-.37-.19,0,.06.33.25.18.35a.16.16,0,0,0-.19,0c0-.11-.09-.08-.2-.07v-.15c-.11,0-.1.13-.16.2S53,94.3,53,94.2c-.21,0,.15.18-.09.23s-.29,0-.49.12,0-.1,0-.14l-.1.12s0,0,0-.06,0,.16-.14.2-.3-.24-.47,0c0,0,0-.09,0-.15a1.46,1.46,0,0,0-.4.26l-.17-.1c.12.12,0,.25-.18.36a.68.68,0,0,0,.11.12l-.23.08s0-.08,0-.14l-.05,0c-.07-.06,0-.15,0-.23l.07.09a.55.55,0,0,0,.11-.28.12.12,0,0,1-.08,0s0,0,0-.06,0,0-.07.06l0-.17,0,.06-.28-.1a1.72,1.72,0,0,1-.74.45c.09-.12,0-.2,0-.35.08.16.26,0,.42,0a.07.07,0,0,1,0-.11l-.31.12c0-.12,0-.09-.13-.15,0,.24-.23.15-.37.21s0-.16.19-.13c-.16-.18-.24.27-.39.11,0,0,.06,0,.07,0s-.29,0-.24-.07h0c-.24-.05-.74-.08-.8.12a2.05,2.05,0,0,1,.08-.28L47.8,95c.06-.17,0-.59.18-.66a.27.27,0,0,0-.25,0s.07.26,0,.27c-.12-.21-.09-.12-.25-.3.06,0-.05.3-.14.28s0-.26.07-.29l-.27.23c.06,0,0-.22,0-.3s-.19,0-.26,0l.09.08c-.25-.09-.32.32-.58.26,0,0,.14-.32,0-.37-.08.12-.39.59-.64.64l0-.08-.19.05a5.27,5.27,0,0,1,.74-.67c-.09-.08,0-.09-.16-.11s.1-.1.14-.09L46,93.77c0,.16-.29.11-.3.24l.39-.09a.46.46,0,0,1-.53.32c0-.07.1-.26.11-.32s-.25.06-.26,0l.12-.07c-.12-.08-.27.16-.39,0-.05,0-.12-.24-.15-.15a1.72,1.72,0,0,1-.15.86,1.79,1.79,0,0,1-.3-.34c-.05-.16.22-.3.17-.43a.18.18,0,0,1-.1.09c-.05,0,.06-.13-.07-.14-.06.15-.25-.07-.09.12-.14,0-.13-.06-.27-.1,0,.12-.22.31-.36.32a.19.19,0,0,0,0-.13c-.25-.09-.36-.19-.59-.26,0,0-.11-.13,0-.18a.2.2,0,0,1-.16,0c-.1-.17.16,0,.11-.16,0,.09-.22.06-.34.09s.22.1.34.08a.58.58,0,0,1-.57.33c-.21,0,0-.14-.09-.13-.35-.15-.42.23-.67,0-.08-.16.08-.24.08-.33.17,0,.21.16.32.19l-.11-.1c.06,0,.18,0,.22,0-.06-.14-.59-.24-.83-.44-.07,0-.17,0-.14.09l.09,0c0,.12-.22.07-.12.16-.15,0-.32.07-.46-.05l0-.14s.08.12.14.09-.18-.28-.32-.14l.07.14c-.14,0-.35.11-.48,0,0,.16,0,0,.08.2,0-.23.38.16.32-.1,0,.22.15.15.23.36,0,0,0-.11.1,0l0,0h0a.26.26,0,0,1,0-.1c.1-.07.3,0,.38,0s0,0,0,.1l.13,0c0,.1.13.23-.06.23l.15.06a.33.33,0,0,0,.29.14c.06,0,.22,0,.13,0l.27,0v0c.24.1.56,0,.78.27a.6.6,0,0,1,.32.07v.09c.12,0,.3.18.37.1.06.28.52.2.7.29l0-.12a1.24,1.24,0,0,0,.44,0l0-.1c.16,0,.34.15.57.19,0,0-.08,0-.11,0,.22.29.59-.05.81.16a.14.14,0,0,1,.14,0h0l.08.07a.22.22,0,0,0-.06-.07.42.42,0,0,0,.19,0v.12h0c.06.05.06,0,0-.14a.31.31,0,0,0,.1,0c0,.19.19,0,.24.18.06-.09.36,0,.43-.21,0,0,0,0,0,0a.24.24,0,0,0,.23,0v.15l.19-.17c.1.1.13.16,0,.25.26-.14.21,0,.44-.18l0,.1c.07,0,.2-.11.24,0s.83.11,1.26.29c-.07-.29.2.13.23-.08,0,.06.08.11,0,.15.23,0,.34.13.5,0,0,.07-.05.09,0,.14s.07-.06.09,0,0,0-.07.08c.23,0,.26-.21.28-.39.11.09.17.08.26,0,0,.07.1.13,0,.15.08,0,.49.1.49,0,0,0,.12,0,.14,0a2.28,2.28,0,0,0,.37,0l-.06,0c.07-.19.15,0,.29-.07v0c.32.12.13-.06.46.07l0-.11c0-.25.29.12.47,0L53,95.17c.1-.09.3.31.41.34s0,0-.06,0c.28.13,0-.15.22-.19,0,.07,0,.2.1.21s.37-.3.56-.16c0-.06-.09-.12,0-.18s.4.2.51,0c0,0,0,0,0,0s.34-.13.39-.25c.15.38.64-.28.69.08l.32-.08v0a.35.35,0,0,0,.33-.21s0,.06,0,.07c.32,0,.35,0,.57-.23l0,.11c0-.08.48.08.74-.12a.07.07,0,0,1,0,.06c.31-.2.88.11.9-.33l.19-.16c-.29,0,0-.19-.14-.23.1,0,.32,0,.19.11h0c0,.23.37,0,.4.12.55-.18,1.12-.23,1.63-.41l-.11-.14.18,0c.06,0,.11.1,0,.14.1.07.18-.15.17-.19.27,0,0,.23.05.2l.1,0h0c.06-.1,0-.17.19-.22s.09.08.13.07,0,0,.06,0L62,93.5l-.14-.09c.07-.1.21-.08,0-.18.24.17.85-.26,1-.24a.76.76,0,0,1,.4-.27.09.09,0,0,1,0-.17c.08.31.31,0,.52.14-.17-.08.38-.22.13-.34.12,0,.06.1.18.13.22-.24.64-.25,1-.46,0,0-.1-.07-.06-.16l.27.08c.06,0,0-.23.14-.18,0,0-.09-.05-.05-.09.75-.2,1.22-.91,2.05-1-.13,0-.07,0,0-.1s-.06-.08-.1-.12l.35,0c0-.16.28-.21.21-.35l-.06.08c0-.22-.38-.21-.49-.41,0,.25-.48,0-.52.35-.07,0,0-.08-.06-.11s0,.17-.18.21v0a3.64,3.64,0,0,1-.89.4l.08.08a.21.21,0,0,1-.17,0c0,.2.23-.12.24.09-.22-.13-.56.33-.76.14-.12.08.1.09,0,.17l-.07,0,0,.1a.17.17,0,0,1-.21-.07s0,0,.07-.06c-.15,0-.28.18-.33.18l.14,0a10.24,10.24,0,0,0-1,.67l0,0c-.21.21-.23,0-.49.22h0a.35.35,0,0,1-.18.16c0-.09-.19-.05-.12-.15-.24.22-.1.13-.21.4l-.08-.07c0,.11,0,.15-.15.23.08-.12-.15-.08-.06-.23-.37,0-.37.37-.62.17,0,.28.32,0,.26.1.1,0,0,.21-.15.22s-.28-.22-.52-.12c0,0,0,0,0,0s-.15.15-.3.1c0,.16-.15,0-.1.23l.21-.13c-.11.1-.16.34-.41.32a.4.4,0,0,1,.09-.15c-.08,0-.11.07-.19,0s.26-.13.35-.31c-.1,0-.22.22-.22,0,0,.28-.25.06-.35.3l0-.11s-.06.1-.11.11l.05-.17c-.1.17-.3,0-.41.1.27-.1.11.11.25.15-.29.26-.29-.22-.65-.05,0,0,.21,0,.15.08a.51.51,0,0,1-.25-.05c-.24.1.07.1,0,.19-.13-.1-.11.1-.21.17l0-.11c-.31,0,0,.26-.3.24l.07-.18-.13.08v-.13c-.12.13-.18.12-.33.12a.16.16,0,0,1-.1.24c-.1,0,0-.12-.15,0,0-.08,0-.18.15-.1s0-.08,0-.12-.24,0-.31.07a.08.08,0,0,1,.08,0l-.23.22c-.05,0,0-.07,0-.12s-.07.09-.15.12,0-.19.07-.26l-.23.16s-.15-.08-.13-.12c-.15,0-.3.25-.5.22a.17.17,0,0,1-.06.07c-.18,0-.36-.07-.54.09l-.15-.14c-.16.06.2.18-.07.29S56.1,94,56,93.93s-.22.3-.42.19c0,0,.11,0,.16,0m-2,.32s.12-.11.15,0-.07.07-.15,0m-3.13.36s.08,0,.13,0a.21.21,0,0,1-.13,0m-8.89-.88h0c.07.07,0,0,0,0m-.17-.11s0,0,0,0,.06,0,.11,0,0,0-.09,0m20.14-.23h-.05c.07-.06.06,0,.05,0" transform="translate(-1.86 -1.68)" style="fill:#32473c"></path><path d="M51,94.61s0,0,0,.06,0,0,0-.06" transform="translate(-1.86 -1.68)" style="fill:#32473c"></path><polygon points="55.14 92.1 55.14 92.1 55.15 92.08 55.14 92.1" style="fill:#32473c"></polygon><path d="M44.61,93.71s0,.05,0,.08,0-.06,0-.08" transform="translate(-1.86 -1.68)" style="fill:#32473c"></path><path d="M40.51,93.58l.13,0a.15.15,0,0,1-.09-.08s0,.07,0,.06" transform="translate(-1.86 -1.68)" style="fill:#32473c"></path><path d="M39.82,92.51s0,0-.06,0v0c.06,0,.13,0,.07,0" transform="translate(-1.86 -1.68)" style="fill:#32473c"></path><path d="M40.55,93.19c0-.09,0-.09-.14-.11h0c-.07.12,0,.11.13.11" transform="translate(-1.86 -1.68)" style="fill:#32473c"></path><path d="M40.39,93.07l-.07,0s0,0,.07,0" transform="translate(-1.86 -1.68)" style="fill:#32473c"></path><path d="M41.28,93.74s-.06.11-.07.07.31,0,.07-.07" transform="translate(-1.86 -1.68)" style="fill:#32473c"></path><polygon points="38.74 91.19 38.73 91.31 38.81 91.24 38.74 91.19" style="fill:#32473c"></polygon><path d="M41.19,93.2l-.11-.08s0,0,0,0,.15.1.16.06" transform="translate(-1.86 -1.68)" style="fill:#32473c"></path><path d="M41,93.15s-.08,0-.1,0l.1,0" transform="translate(-1.86 -1.68)" style="fill:#32473c"></path><polygon points="38.93 91.22 38.95 91.26 39.04 91.3 38.93 91.22" style="fill:#32473c"></polygon><path d="M42.56,93.71l.15,0s0-.07-.06-.08-.1,0-.09.06" transform="translate(-1.86 -1.68)" style="fill:#32473c"></path><path d="M42.24,93.27a.12.12,0,0,1,0,.1l.06-.13Z" transform="translate(-1.86 -1.68)" style="fill:#32473c"></path><path d="M42.66,93.37s.23-.05.06-.1-.18,0-.06.1" transform="translate(-1.86 -1.68)" style="fill:#32473c"></path><polygon points="42.86 92.47 42.83 92.47 42.77 92.7 42.86 92.47" style="fill:#32473c"></polygon><path d="M46.74,94c-.16-.09-.07.13-.21,0s.12.08.07.12c.11,0,.16,0,.14-.16" transform="translate(-1.86 -1.68)" style="fill:#32473c"></path><path d="M46.6,94.15s0,0-.06,0l.06,0" transform="translate(-1.86 -1.68)" style="fill:#32473c"></path><polygon points="65.99 88.66 66.12 88.64 66.01 88.61 65.99 88.66" style="fill:#32473c"></polygon><path d="M67.93,90.08l.12.1L68,90s0,.06-.09,0" transform="translate(-1.86 -1.68)" style="fill:#32473c"></path><path d="M53.4,94.12v0s0,0,.1,0Z" transform="translate(-1.86 -1.68)" style="fill:#32473c"></path><polygon points="53.02 92.4 52.99 92.4 53.06 92.53 53.02 92.4" style="fill:#32473c"></polygon><path d="M56.08,93.72s-.1,0-.15,0,.2.11.15,0" transform="translate(-1.86 -1.68)" style="fill:#32473c"></path><path d="M51.86,12.58V20H43.72a.34.34,0,0,0-.36.47v5.73l.64.44V39.11L43.33,39,40,36,37.39,23V11.45c0-1.22.91-1.14.91-1.14h2.06V8.62c0-.89.61-.89.61-.89V2.62s1.39.94,2.22,4.08a12.28,12.28,0,0,1,.14,5.61c0,.81.64.64.64.64h1.61l1-.36Z" transform="translate(-1.86 -1.68)" style="fill:#f4e000"></path><path d="M51.86,12.58V20H43.72a.34.34,0,0,0-.36.47v5.73l.64.44V39.11L43.33,39,40,36,37.39,23V11.45c0-1.22.91-1.14.91-1.14h2.06V8.62c0-.89.61-.89.61-.89V2.62s1.39.94,2.22,4.08a12.28,12.28,0,0,1,.14,5.61c0,.81.64.64.64.64h1.61l1-.36Z" transform="translate(-1.86 -1.68)" style="fill:none;stroke:#32473c;stroke-miterlimit:10"></path><path d="M46.52,9.53v3.05h5.33V10H50s-.41.19-.41-.81V2.61a3.8,3.8,0,0,0-2.28,3,25.78,25.78,0,0,1-.75,3.95" transform="translate(-1.86 -1.68)" style="fill:#f4e000"></path><path d="M46.52,9.53v3.05h5.33V10H50s-.41.19-.41-.81V2.61a3.8,3.8,0,0,0-2.28,3A25.78,25.78,0,0,1,46.52,9.53Z" transform="translate(-1.86 -1.68)" style="fill:none;stroke:#32473c;stroke-miterlimit:10"></path><path d="M52.57,23.47a21.22,21.22,0,0,1-.16,2.61A11.07,11.07,0,0,0,52,28.56V33.7h.58v5.4l3.23-2.93,2.8-12.7Z" transform="translate(-1.86 -1.68)" style="fill:#f4e000"></path><path d="M52.57,23.47a21.22,21.22,0,0,1-.16,2.61A11.07,11.07,0,0,0,52,28.56V33.7h.58v5.4l3.23-2.93,2.8-12.7Z" transform="translate(-1.86 -1.68)" style="fill:none;stroke:#32473c;stroke-miterlimit:10"></path><path d="M72,8.41H53.49L51.85,9.55V22.69l.72.78H69.3l3,2.28v.69s4.94,1.26,7.53-1.86l1.86-1.77V9.47L79.52,7.6H72.61Z" transform="translate(-1.86 -1.68)" style="fill:#f4e000"></path><path d="M72,8.41H53.49L51.85,9.55V22.69l.72.78H69.3l3,2.28v.69s4.94,1.26,7.53-1.86l1.86-1.77V9.47L79.52,7.6H72.61Z" transform="translate(-1.86 -1.68)" style="fill:none;stroke:#32473c;stroke-miterlimit:10"></path><path d="M65.77,4.61h1.61a2.63,2.63,0,0,1,.81.47V7.33s0,.54-.46.54h-.48s0,.18,0,.53h-1v-.5H65.6a.61.61,0,0,1-.44-.61V5.16Z" transform="translate(-1.86 -1.68)" style="fill:#f4e000"></path><path d="M65.77,4.61h1.61a2.63,2.63,0,0,1,.81.47V7.33s0,.54-.46.54h-.48s0,.18,0,.53h-1v-.5H65.6a.61.61,0,0,1-.44-.61V5.16Z" transform="translate(-1.86 -1.68)" style="fill:none;stroke:#32473c;stroke-miterlimit:10"></path><polyline points="68.85 11.7 63.42 17.13 60.77 14.48" style="fill:none;stroke:#32473c;stroke-linecap:round;stroke-miterlimit:10"></polyline></svg> 