<?xml version="1.0" encoding="UTF-8"?> <!-- Generator: Adobe Illustrator 24.1.3, SVG Export Plug-In . SVG Version: 6.00 Build 0) --> <svg xmlns="http://www.w3.org/2000/svg" xmlns:xlink="http://www.w3.org/1999/xlink" version="1.1" id="Layer_1" x="0px" y="0px" viewBox="0 0 1000 1000" style="enable-background:new 0 0 1000 1000;" xml:space="preserve"> <style type="text/css"> .st0{fill:#231F20;} </style> <g> <path class="st0" d="M456.2,211.8C297,210.1,166.6,337.8,164.9,497S291,786.6,450.2,788.2c2,0,4,0,6,0h38.9v-77.8h-38.9 c-116.2,0-210.4-94.2-210.4-210.4S340,289.6,456.2,289.6h38.9v-77.8H456.2z"></path> <path class="st0" d="M796.3,289.5h38.8v-77.8h-38.8C637.1,210.1,506.7,337.8,505.1,497c-1.7,159.2,126.1,289.6,285.2,291.2 c2,0,4,0,6,0h38.8v-77.9h-38.8c-101.2-0.1-187.9-72.2-206.7-171.6h168.8V461H589.6C608.4,361.7,695.1,289.7,796.3,289.5"></path> </g> </svg> 