<?xml version="1.0" encoding="UTF-8"?> <svg xmlns="http://www.w3.org/2000/svg" id="Layer_1" data-name="Layer 1" width="300" height="157.08" viewBox="0 0 300 157.08"><polygon points="59.99 7.71 0 122.54 226.9 95.48 251.17 7.44 59.99 7.71" style="fill:#fce900"></polygon><path d="M133.09,47.45h0l0-20.56V25.35l1.16,1a33.26,33.26,0,0,1,11.38,21l.1.8H143.4l-.08-.62a32.18,32.18,0,0,0-.78-3.86,30,30,0,0,0-1.07-3.29h-6.12v7.78h-2.27Zm2.23-16.89,0,7.54,5.13,0a31,31,0,0,0-2.47-4.2,30.4,30.4,0,0,0-2.68-3.32" style="fill:#1d1d1b"></path><path d="M78,26.5a10.71,10.71,0,0,1,7,2.54l.54.46L85,30l-.56.66-.45.54-.54-.46a8.32,8.32,0,0,0-2.38-1.41,8.72,8.72,0,0,0-2-.52l0,18.73v.71H76.9v-.71l0-18.72a8.8,8.8,0,0,0-2,.52,8.23,8.23,0,0,0-2.36,1.44l-.54.46-.46-.54L71,30.08l-.46-.53.54-.46A10.64,10.64,0,0,1,78,26.5" style="fill:#1d1d1b"></path><path d="M158.6,42.36a16.49,16.49,0,0,0-8.77-13.11l0,18.16v.71h-2.27v-.71l-.05-20.55v-1l.95.34a18.81,18.81,0,0,1,10.08,8.58l0-7.94v-.71h2.27v.71l0,20.55v.71h-2.27v-.71Z" style="fill:#1d1d1b"></path><path d="M128.59,46.12a8.55,8.55,0,0,1-5.51,2.53l-.7.05,0-.71-.06-.85,0-.71.71,0a6.28,6.28,0,0,0,5.85-5.86l0-13.62v-.71H131v.71l0,13.65v0a8.57,8.57,0,0,1-2.46,5.54" style="fill:#1d1d1b"></path><path d="M89.64,40.39h0l0,7.15v.71H87.39v-.71l0-20.25v-.61L88,26.6a7,7,0,0,1,7.67,4.68h0A7,7,0,0,1,91.88,40a12.09,12.09,0,0,0,2,3.57,11.81,11.81,0,0,0,3.64,3l.62.33-.33.63-.4.75-.34.62-.62-.33a14.35,14.35,0,0,1-4.63-3.94,14.5,14.5,0,0,1-2.19-4.2m0-11.55,0,9.42.21,0h0a4.81,4.81,0,0,0,3-2,4.75,4.75,0,0,0,.75-3.55h0a4.78,4.78,0,0,0-4-3.84" style="fill:#1d1d1b"></path><path d="M100.12,37.24a10.88,10.88,0,0,1,8-10.48h0l.14,0v2.39a8.59,8.59,0,0,0-5.88,8.54,9.13,9.13,0,0,0,.27,1.78l.29.72-.06,0a8.58,8.58,0,0,0,9.64,5.52l.66-.18a8.61,8.61,0,0,0,6.34-8.67,8.73,8.73,0,0,0-.23-1.58h2.32a11.17,11.17,0,0,1,.19,2,10.93,10.93,0,0,1-1.45,5.41,10.81,10.81,0,0,1-6.57,5.06h0a10.85,10.85,0,0,1-13.1-7h0l-.08-.26c0-.13-.07-.25-.11-.39a11.15,11.15,0,0,1-.38-2.84" style="fill:#1d1d1b"></path><polygon points="114.04 32.71 114.04 32.71 114.04 32.71 114.04 32.71" style="fill:#1d1d1b"></polygon><path d="M114.71,32.32h0c0-.28.41-.41.42-.53,0,.07-.26,0-.28-.09s.14-.76,0-.9a1,1,0,0,1-.36.41.18.18,0,0,1-.24,0c-.08,0-.22.46-.27.49s-.07-.09,0-.15a.69.69,0,0,0,0-.62c-.08.27-.22.22-.22.22a3,3,0,0,1-.75-.71l-.08-.13,0,.15a3,3,0,0,1-.18,1s-.08.13-.31,0a.68.68,0,0,0,.35.51c.06,0,.12.14.07.14a1.1,1.1,0,0,1-.52-.23c0,.06,0,.16-.17.18a1.19,1.19,0,0,1-.53-.1c0,.06.21.22.36.39,0,0,.22.23.16.33s-.1.28-.17.25c.09.09.52-.08.66.17,0,0-.2.54-.46.49a1.23,1.23,0,0,0,.75,0c.2-.09.28-.13.37-.06s-.09.23-.1.24a1,1,0,0,0,.62-.53l0,0,0,0a.92.92,0,0,0,.82,0s-.27,0-.24-.13.13-.12.34-.17a1.28,1.28,0,0,0,.62-.43c-.18.2-.66-.11-.66-.11m-.61-6.09h0c-.17-.37.42-.74.4-.92,0,.11-.39.07-.45,0a6.59,6.59,0,0,0-.31-1.2.76.76,0,0,1-.37.68c-.18.08-.36.08-.43,0-.08.12-.13.76-.18.82s-.14-.12-.11-.21a1,1,0,0,0-.29-.87c0,.43-.23.41-.23.41a8.46,8.46,0,0,1-1.36-.71s-.25-.13-.25-.12l.19.16a2.85,2.85,0,0,1,.16,1.52s-.07.22-.46.07a1.12,1.12,0,0,0,.69.59c.28.11.23.14.16.17a1.42,1.42,0,0,1-.83-.12.25.25,0,0,1-.16.32.65.65,0,0,1-.46.09c0,.09.62.44.69.8,0,.11,0,.43-.16.42.16.09.72-.31,1,0,0,0,.2.79-.35.85.33.13.7-.12,1-.32s.35-.3.51-.24,0,.37,0,.38a1.32,1.32,0,0,0,.66-.91,4.31,4.31,0,0,1,.48.92c0,.18.3.07.25-.06a7.09,7.09,0,0,0-.62-1,1.33,1.33,0,0,0,1.17-.26s-.39.07-.38-.1.13-.21.41-.38a1.8,1.8,0,0,0,.72-.85c-.18.36-1,.1-1,.1m7.3,5.42h0c-.5,0-.62,0-.69-.15a.32.32,0,0,1,0-.4,1.38,1.38,0,0,1-.85-.07c-.06-.05.1-.16.2-.14a1,1,0,0,0,.83-.4c-.43.05-.44-.18-.44-.18A2.37,2.37,0,0,1,120.9,29s.28-.25.3-.28h-.3c-.7,0-1.2.5-1.48.46,0,0-.22,0-.13-.45a1,1,0,0,0-.49.78c0,.1-.11.25-.15.18a1,1,0,0,1,0-.85.33.33,0,0,1-.4,0c-.12-.08-.22-.21-.09-.58a4.67,4.67,0,0,0-.72.85c-.08.07-.43,0-.43-.1-.08.17.4.67.15,1,0,0-.85.06-.94-.34a1.94,1.94,0,0,0,.49,1c.24.23.35.31.32.47s-.39,0-.4,0a1.36,1.36,0,0,0,1,.54,4.29,4.29,0,0,1-.85.61c-.17,0,0,.31.09.24a6.15,6.15,0,0,0,.92-.76,1.41,1.41,0,0,0,.42,1.14s-.13-.38,0-.39.24.1.44.36a1.91,1.91,0,0,0,1,.6c-.38-.13-.23-1-.23-1,.35-.22.79.32,1,.27-.12,0-.13-.38,0-.45a3.24,3.24,0,0,0,1.06-.63m-.19-3h0m2.26-4.49c-.06.13-.9.49-.93.59s-.4.45-.48.57.06.59.22.58c-.22.12-1-.43-1.38,0,0,0,.1,1.17.65,1.21a2.6,2.6,0,0,1-1.46-.46c-.36-.28-.49-.41-.71-.33s.05.51.08.53a1.86,1.86,0,0,1-.95-1.35,9.69,9.69,0,0,1-.94,1.32c-.13.14-.42-.17-.21-.28a6.57,6.57,0,0,0,.91-1.1,1.88,1.88,0,0,1-1.51-.36s.54.09.52-.14-.18-.3-.57-.52a2.51,2.51,0,0,1-1-1.15c.25.48,1.36.11,1.36.11.22-.51-.59-1-.56-1.26,0,.16.53.1.61,0a2.22,2.22,0,0,0,.33-.66c.14-.47.08-1,.18-1.09a2.29,2.29,0,0,0,.51,1,.34.34,0,0,0,.5,0,1.19,1.19,0,0,0,.27,1.12c.08.08.19-.16.14-.3a1.37,1.37,0,0,1,.38-1.19c0,.58.33.55.33.55a5.91,5.91,0,0,0,1.85-1,2.28,2.28,0,0,1,.22-.22s-.13.28-.13.28a6.13,6.13,0,0,0-.19,2.1s.1.29.64.08a1.4,1.4,0,0,1-.94.82c-.33.2-.33.2-.22.25a1.63,1.63,0,0,0,1.14-.2.35.35,0,0,0,.23.45,2.33,2.33,0,0,0,1.11.07" style="fill:#1d1d1b"></path><path d="M113.72,32.9h0Z" style="fill:#1d1d1b"></path><path d="M113.72,32.9h0Z" style="fill:#1d1d1b"></path><path d="M113.72,32.9h0Z" style="fill:#1d1d1b"></path><path d="M113.72,32.9Z" style="fill:#1d1d1b"></path><path d="M113.72,32.9Z" style="fill:#1d1d1b"></path><path d="M113.72,32.9Z" style="fill:#1d1d1b"></path><polygon points="217.04 56.86 233.72 0 161.25 57.54 0.47 59.51 59.59 79.91 43.06 109.41 46.64 125.23 63.4 123.23 15.32 157.08 127.88 118.83 190.34 147.91 202.44 106.64 250.73 100.88 257.68 70.94 300 55.84 217.04 56.86" style="fill:#1d245d"></polygon><path d="M138.58,66.46l-18.64,41.59a.4.4,0,0,1-.29.21l-8.92,1.06a.36.36,0,0,1-.37-.51L118,92.38a.36.36,0,0,0-.36-.51l-9,.69a.35.35,0,0,0-.29.21l-8.49,17.68a.4.4,0,0,1-.29.21l-9.93,1.18a.36.36,0,0,1-.36-.52l22.27-44.81a.35.35,0,0,1,.32-.2l8.66-.12a.37.37,0,0,1,.33.52l-8.23,17.14a.36.36,0,0,0,.34.52l8.77-.51a.35.35,0,0,0,.3-.21l8.06-17.38a.36.36,0,0,1,.33-.21l7.82-.11A.36.36,0,0,1,138.58,66.46Zm75.47-1.27L203.89,97.68a.36.36,0,0,0,.38.47l5-.6a.37.37,0,0,0,.3-.25l9.68-32a.35.35,0,0,0-.35-.46l-4.55.06A.34.34,0,0,0,214.05,65.19Zm-27.82.25-9.67,11.68a.37.37,0,0,1-.64-.2l-1.16-11.13a.37.37,0,0,0-.37-.32l-6.47.09a.37.37,0,0,0-.33.23l-15.06,38a.36.36,0,0,0,.38.49l7-.84a.34.34,0,0,0,.29-.23L168,83a.36.36,0,0,1,.7.09l1,10.45a.36.36,0,0,0,.64.19l9-11.18a.35.35,0,0,1,.61.34l-6.7,18.48a.37.37,0,0,0,.39.48l6.19-.74a.36.36,0,0,0,.29-.24l12.34-35.12a.36.36,0,0,0-.34-.48l-5.64.08A.37.37,0,0,0,186.23,65.44Zm-22.79,4.31L149.51,104.5a.35.35,0,0,1-.29.22l-7.52.9a.36.36,0,0,1-.38-.49l6.24-15.07a.35.35,0,0,0-.36-.49l-7.59.59a.36.36,0,0,0-.31.22l-6.93,16.18a.36.36,0,0,1-.29.21l-8.31,1a.36.36,0,0,1-.38-.5l16.35-36.89a.5.5,0,0,1,.08-.12L144.51,66a.36.36,0,0,1,.24-.09l17.52-.24a.38.38,0,0,1,.36.28l.83,3.63A.38.38,0,0,1,163.44,69.75Zm-9.21,2.9-7.21.23a.35.35,0,0,0-.31.22l-3.86,9a.36.36,0,0,0,.35.5l7.41-.43a.37.37,0,0,0,.31-.22l3.65-8.81A.36.36,0,0,0,154.23,72.65Zm-70.77,22-5,9.63a.36.36,0,0,1-.28.19l-11.11,1.1a.36.36,0,0,1-.35-.53L82.88,75.14a.38.38,0,0,1,.31-.19l10.13-.33a.37.37,0,0,1,.33.53l-5.27,10.1a.36.36,0,0,0,.34.53l9.85-.57a.39.39,0,0,0,.3-.2l7-13.84a.34.34,0,0,0,0-.24l-1-4.25a.36.36,0,0,0-.35-.28l-58.87.79,26.05,6.88a.37.37,0,0,1,.22.53L51.7,110.7a.39.39,0,0,0,0,.26l1.12,5a.36.36,0,0,0,.39.28l27.88-3.33a.4.4,0,0,0,.2-.09L87.77,107a.31.31,0,0,0,.08-.11l6.38-12.67a.36.36,0,0,0-.35-.52l-10.13.79A.37.37,0,0,0,83.46,94.69ZM207,81.38l-3,3.67a.38.38,0,0,1-.25.13l-9.66.75a.36.36,0,0,0-.31.24l-4.57,13.58a.37.37,0,0,1-.3.24l-5.82.7a.37.37,0,0,1-.39-.48l12.09-34.77a.34.34,0,0,1,.33-.24l10.07-.14L210,65a.35.35,0,0,1,.36.28l.71,3.1a.41.41,0,0,1,0,.19l-4,12.69A.35.35,0,0,1,207,81.38ZM204.16,71,199,71.2a.35.35,0,0,0-.33.24L196.12,79a.36.36,0,0,0,.36.48l5.28-.31a.38.38,0,0,0,.33-.25l2.43-7.45A.36.36,0,0,0,204.16,71ZM235.05,68l-6.5,23.79a.24.24,0,0,1-.06.11l-2.6,3.58a.41.41,0,0,1-.25.15L213.79,97a.36.36,0,0,1-.39-.28l-.72-3.12a.37.37,0,0,1,0-.18l7.52-25.12a.54.54,0,0,1,.07-.13L222.92,65a.37.37,0,0,1,.28-.13L234,64.68a.36.36,0,0,1,.36.27l.65,2.84A.37.37,0,0,1,235.05,68Zm-5.86,2.25-4.24.13a.38.38,0,0,0-.34.26L219,90a.37.37,0,0,0,.38.46l4.51-.45a.35.35,0,0,0,.31-.26l5.37-19.07A.35.35,0,0,0,229.19,70.22Zm34-5.81L249,64.48a.36.36,0,0,0-.35.27L245,79.37a.36.36,0,0,1-.71,0l-2-14.45a.37.37,0,0,0-.37-.31l-4,.05a.38.38,0,0,0-.34.27l-8,29.75a.36.36,0,0,0,.39.45L234,94.6a.36.36,0,0,0,.3-.27l4.11-15.68a.36.36,0,0,1,.71,0l2,14.7a.37.37,0,0,0,.4.31l4.11-.49a.37.37,0,0,0,.31-.28l6.25-25.75a.37.37,0,0,1,.27-.27Z" style="fill:#fff"></path><polygon points="207.94 56.98 220.26 21.46 190.89 57.19 207.94 56.98" style="fill:#fff"></polygon><polygon points="134.59 114.74 182.22 137.94 155.87 112.17 134.59 114.74" style="fill:#fff"></polygon><polygon points="75.76 121.83 46.73 141.25 94.53 119.59 75.76 121.83" style="fill:#fff"></polygon><path d="M209.36,117v-1.54h6.82V117h-2.5v6.78h-1.83V117Z" style="fill:#1d245d"></path><path d="M219.71,115.43l1.95,5.72h0l1.84-5.72h2.58v8.32h-1.71v-5.89h0l-2,5.89h-1.41l-2-5.84h0v5.84h-1.71v-8.32Z" style="fill:#1d245d"></path></svg> 