<?xml version="1.0" encoding="UTF-8"?> <!-- Generator: Adobe Illustrator 24.1.3, SVG Export Plug-In . SVG Version: 6.00 Build 0) --> <svg xmlns="http://www.w3.org/2000/svg" xmlns:xlink="http://www.w3.org/1999/xlink" version="1.1" id="Layer_1" x="0px" y="0px" viewBox="0 0 1000 1000" style="enable-background:new 0 0 1000 1000;" xml:space="preserve"> <style type="text/css"> .st0{fill:#58B862;} .st1{fill:#4D995D;} .st2{fill:#2B3B44;} .st3{fill:#231F20;} </style> <rect x="215.6" y="9.1" class="st0" width="553.9" height="732.8"></rect> <polygon class="st1" points="484.2,47.6 382.2,229.1 459.2,229.1 321.8,419.3 449.6,419.3 256.1,602.9 459.9,602.9 459.9,678.9 530.7,678.9 530.7,601 729.8,601 543,414.2 664,414.2 527.3,227.4 594.9,227.4 "></polygon> <path class="st2" d="M483.6,27l-8.5,15.6L373.4,224.3l-8.8,15.2h74.5L313.3,413.2l-11.8,16.5h122L248.8,595.1l-19,18.1h219.7v76 h91.6v-78.1h213.7L737,593.7L568,424.6h116.4l-12-16.5L548.1,237.6h65.3l-9.5-15.5L493,42L483.6,27z M484.2,47.7l110.7,179.7h-67.7 L664,414.2H543l186.8,186.9H530.7v77.8h-70.8V603H256.1l193.5-183.6H321.8l137.3-190.2h-76.8L484.2,47.7z"></path> <polygon class="st3" points="376.5,796.2 376.5,878.4 440.1,878.4 440.1,861.4 397.5,861.4 397.5,843.9 435.2,843.9 435.2,827.6 397.5,827.6 397.5,813 438.8,813 438.8,796.2 "></polygon> <path class="st3" d="M525.5,849.6c-1.6,18.5-17.7,32.3-36.3,31c-10.9,0.3-21.5-3.9-29.2-11.7c-7.5-8.5-11.4-19.6-10.9-30.9 c-0.5-11.7,3.6-23.2,11.3-31.9c7.9-8.2,19-12.6,30.3-12c8.7-0.2,17.1,2.6,23.9,8.1c6.6,5.3,10.6,13.2,10.9,21.6h-19.8 c-0.6-3.7-2.7-7.1-5.7-9.3c-3.1-2-6.8-2.9-10.4-2.8c-5.5-0.1-10.8,2.5-14.1,6.9c-3.5,5.7-5.3,12.3-5,19c0,8.1,1.5,14.5,4.8,19 c6.3,7.3,17.1,8.6,24.9,3.1c3-2.5,5-6,5.5-9.9L525.5,849.6z"></path> <path class="st3" d="M555.8,837.4c0,8.3,1.5,14.7,5.2,19.2c3.3,4.6,8.7,7.1,14.3,6.6c5.7,0.4,11.3-2.1,14.9-6.6 c6.8-11.9,6.8-26.5,0-38.3c-3.6-4.5-9.1-7-14.9-6.6c-5.6-0.4-11,2.1-14.3,6.6C557.3,822.7,555.8,828.9,555.8,837.4 M534.4,837.4 c0-13.5,3.7-23.8,10.9-31.7s17.3-11.4,30-11.4s22.6,3.6,30.3,11.4c7.7,7.8,11.2,18.2,11.2,31.7c0,13.5-3.7,23.8-11.2,31.5 c-8,7.9-19,12.2-30.3,11.7c-11.2,0.5-22.1-3.7-30-11.7C538.2,861.2,534.4,850.5,534.4,837.4L534.4,837.4z"></path> <polygon class="st3" points="216.8,907.7 216.8,989.9 237.5,989.9 237.5,958.7 270.6,958.7 270.6,941.4 237.5,941.4 237.5,924.7 275.6,924.7 275.6,907.7 "></polygon> <path class="st3" d="M306.9,943.1h15.9c3.3,0.2,6.6-0.8,9.3-2.7c2.2-1.9,3.3-4.7,3-7.5c0.2-2.5-0.9-4.9-2.8-6.6 c-2.6-1.7-5.7-2.4-8.8-2.2h-16.5L306.9,943.1z M286.2,989.7v-82.2h39.3c10.2,0,18,2,23.1,5.9s7.3,9.3,7.3,17.1c0.1,4.2-1,8.4-3.3,12 c-2.5,3.6-5.9,6.3-9.9,8c3.2,1,5.9,3.1,7.7,5.8c1.7,3.9,2.6,8.2,2.4,12.5c0.3,2.2,0.5,4.4,0.4,6.6c0.3,6.9,1.5,10.7,3.3,11.5v2.9 h-21.7c-1.4-3.8-2-7.8-1.8-11.8c-0.3-5.1-0.3-8.4-0.6-9.6c-0.1-2.7-1.3-5.2-3.3-6.9c-2.3-1.7-5.2-2.5-8-2.3h-14.3v30.6L286.2,989.7z "></path> <rect x="370.6" y="907.5" class="st3" width="20.9" height="82.2"></rect> <polygon class="st3" points="408.1,907.7 408.1,989.9 471.7,989.9 471.7,972.9 429.3,972.9 429.3,955.5 466.7,955.5 466.7,939 429.3,939 429.3,924.4 470.5,924.4 470.5,907.7 "></polygon> <path class="st3" d="M484.2,989.7v-82.2h22.9l15.4,27.2c2.4,4.4,4.7,8.7,7.3,13s4.4,8.7,6.3,12.7c-0.4-6.1-0.6-12.1-0.9-17.3v-35.6 h20.4v82.2h-22.7l-16.2-27.7c-2-3.3-4-6.9-6.2-11c-2.2-4.2-4.7-8.5-7.1-13.2c0.2,5.2,0.6,10.2,1,14.9v36.9L484.2,989.7z"></path> <path class="st3" d="M592.8,972.4h11.5c6.6,0,11.2-1.6,14.3-5.7c3-3.5,4.5-9.9,4.5-17.9c0-8-1.5-14.3-4.5-18.1 c-3.6-4-8.9-6.1-14.3-5.7h-11.5V972.4z M571.7,989.7v-82.2h34.9c12.2,0,21.4,3.7,28,10.7s9.9,17.4,9.9,30.6c0,14-3.5,24-9.9,30.7 s-17.1,10.3-30.5,10.3L571.7,989.7z"></path> <polygon class="st3" points="657.7,907.7 657.7,989.9 718.5,989.9 718.5,971.9 678.7,971.9 678.7,907.7 "></polygon> <polygon class="st3" points="758.6,907.7 743.5,940.7 728.4,907.7 704.7,907.7 733.3,958.7 733.3,989.9 753.6,989.9 753.6,958.7 782.4,907.7 "></polygon> </svg> 