<?xml version="1.0" encoding="UTF-8"?> <!-- Generator: Adobe Illustrator 24.1.3, SVG Export Plug-In . SVG Version: 6.00 Build 0) --> <svg xmlns="http://www.w3.org/2000/svg" xmlns:xlink="http://www.w3.org/1999/xlink" version="1.1" id="Layer_1" x="0px" y="0px" viewBox="0 0 1000 1000" style="enable-background:new 0 0 1000 1000;" xml:space="preserve"> <style type="text/css"> .st0{fill:#FFFFFF;} .st1{fill:#236A44;} </style> <g> <path class="st0" d="M193.9,11.8h612.1c18.7,0,34,15.1,34,33.9v727.9c0,18.7-15.3,33.9-34,33.9H193.9c-18.7,0-34-15.2-34-33.9V45.7 C159.9,26.8,175.2,11.8,193.9,11.8z"></path> <path class="st1" d="M789.1,804h-578c-26.3,0-47.6-21.3-47.6-47.3V62.5c0-26.2,21.4-47.4,47.6-47.4h578c26.2,0,47.5,21.3,47.5,47.4 v694.2C836.7,782.8,815.3,804,789.1,804z M211.1,21.9c-22.5,0-40.9,18.2-40.9,40.7v694.2c0,22.2,18.3,40.6,40.9,40.6h578 c22.4,0,40.8-18.3,40.8-40.6V62.5c0-22.4-18.3-40.7-40.8-40.7H211.1z"></path> <path class="st1" d="M345.7,644l-10.6-32.8h6.1l5.5,18.9l2.1,7.2c0,0,0.7-2.6,1.8-6.9l5.5-19.2h5.9l5.1,19l1.8,6.3l2-6.3l6-19h5.7 L371.3,644h-5.8l-5.4-19.7l-1.3-5.6l-7.2,25.3H345.7z"></path> <path class="st1" d="M394.7,644l-10.6-32.8h6.2l5.4,18.9l2.1,7.2c0.1-0.3,0.7-2.6,1.9-6.9l5.4-19.2h5.9l5.2,19l1.8,6.3l2-6.3l6-19 h5.7L420.4,644h-5.9l-5.3-19.7l-1.5-5.6l-7,25.3H394.7z"></path> <path class="st1" d="M443.7,644l-10.6-32.8h6.1l5.6,18.9l2.1,7.2c0,0,0.6-2.6,1.8-6.9l5.5-19.2h5.9l5.2,19l1.6,6.3l2.1-6.3l6-19 h5.7l-11,32.8h-5.9l-5.3-19.7l-1.5-5.6l-7,25.3H443.7z"></path> <rect x="481.8" y="637.6" class="st1" width="6.6" height="6.4"></rect> <path class="st1" d="M498.2,644v-28.5h-4.9v-4.3h4.9v-3.4c0-2.3,0.3-4,0.7-5c0.5-1.5,1.6-2.6,2.9-3.4c1.5-1,3.3-1.5,6.1-1.5 c1.6,0,3.2,0.1,5.3,0.6l-0.9,4.8c-1.2-0.2-2.4-0.2-3.4-0.2c-1.8,0-2.9,0.2-3.7,1c-0.8,0.7-1.1,2.1-1.1,4.1v3h6.8v4.1h-6.8V644 H498.2L498.2,644z"></path> <path class="st1" d="M513.7,634.1l5.8-0.8c0.4,2.3,1.3,3.9,2.8,5.1c1.5,1.2,3.4,1.8,6,1.8c2.6,0,4.7-0.5,5.9-1.6 c1.4-1.1,2.1-2.3,2.1-3.7c0-1.2-0.6-2.3-1.8-3c-0.7-0.4-2.7-1-5.9-1.8c-4.1-1.1-7.1-2-8.8-2.7c-1.6-0.7-2.8-1.8-3.6-3 c-1-1.4-1.4-2.8-1.4-4.4c0-1.6,0.4-2.8,1.1-4.1s1.6-2.3,2.8-3.1c0.9-0.6,2.1-1.1,3.6-1.6c1.6-0.4,3.2-0.7,5-0.7 c2.7,0,5.1,0.3,7.1,1.2c2.2,0.7,3.5,1.7,4.5,2.9c0.9,1.3,1.6,3,2,5.2l-5.6,0.7c-0.3-1.7-1.1-3-2.3-3.9c-1.3-1-3-1.6-5.1-1.6 c-2.7,0-4.7,0.4-5.7,1.3c-1.3,1-1.7,1.9-1.7,3c0,0.8,0.1,1.4,0.6,2c0.5,0.6,1.2,1.1,2.3,1.5c0.5,0.3,2.3,0.7,5,1.4 c4.1,1.2,7,2,8.5,2.6c1.7,0.7,2.9,1.7,3.8,2.8c1,1.4,1.5,2.9,1.5,4.9c0,1.8-0.6,3.4-1.8,5.2c-1.1,1.7-2.7,2.9-4.8,3.7 c-2.3,1-4.6,1.4-7.4,1.4c-4.4,0-7.7-0.9-10.1-2.5C515.9,640.4,514.4,637.5,513.7,634.1z"></path> <path class="st1" d="M571.1,631.9l5.7,0.9c-0.7,3.7-2.4,6.6-4.8,8.7c-2.5,2.2-5.8,3.1-9.4,3.1c-4.7,0-8.4-1.4-11.3-4.2 c-2.8-3-4.2-7.3-4.2-12.7c0-3.6,0.6-6.8,1.8-9.4c1.3-2.6,3-4.6,5.6-6c2.5-1.4,5.3-2,8.1-2c3.7,0,6.8,0.9,9.1,2.7 c2.4,1.8,3.9,4.4,4.6,7.7l-5.8,0.8c-0.4-2.3-1.5-3.9-2.8-5.1c-1.4-1.1-2.8-1.7-4.9-1.7c-2.9,0-5.3,1.1-7.2,3 c-1.8,2.2-2.6,5.2-2.6,9.6c0,4.3,0.9,7.6,2.6,9.7c1.8,2,4.1,2.9,6.9,2.9c2.4,0,4.1-0.7,5.8-2.1 C569.7,636.9,570.7,634.7,571.1,631.9z"></path> <rect x="582.9" y="637.6" class="st1" width="6.6" height="6.4"></rect> <path class="st1" d="M600.9,627.5c0,4.3,1,7.4,2.9,9.5c2,2.1,4.3,3.1,7.3,3.1c2.8,0,5.3-1.1,7.2-3.1c2.1-2.2,2.9-5.3,2.9-9.7 c0-4.1-0.9-7.2-2.9-9.3c-1.9-2.1-4.3-3.1-7.2-3.1c-2.9,0-5.3,1.1-7.3,3.1C601.8,620.2,600.9,623.3,600.9,627.5z M594.9,627.5 c0-6.1,1.9-10.6,5.3-13.5c3-2.4,6.6-3.6,10.9-3.6c4.6,0,8.5,1.5,11.6,4.3c2.9,3,4.4,7.2,4.4,12.3c0,4.3-0.6,7.6-2,10.2 c-1.4,2.3-3.2,4.1-5.8,5.5c-2.4,1.4-5.2,2-8.2,2c-4.9,0-8.6-1.4-11.7-4.3C596.3,637.3,594.9,633.1,594.9,627.5z"></path> <path class="st1" d="M633.8,644v-32.8h5.1v5c1.4-2.3,2.5-3.9,3.7-4.6c1.2-0.9,2.4-1.2,3.7-1.2c2.1,0,4,0.6,6,1.8l-2,5.2 c-1.5-0.8-2.8-1.2-4.2-1.2s-2.4,0.4-3.5,1.2c-0.9,0.7-1.7,1.7-2.2,2.9c-0.6,2.1-0.9,4.2-0.9,6.5V644H633.8L633.8,644z"></path> <path class="st1" d="M658.9,626.9c0,4.4,1,7.5,2.7,9.5c1.8,2,4.1,2.9,6.8,2.9c2.6,0,5-1,6.8-2.9c1.9-2,2.7-5,2.7-9.3 c0-4-0.9-7.1-2.8-9.1c-1.9-2.1-4.1-3.1-6.7-3.1c-2.6,0-4.9,1.1-6.8,3C659.8,620.1,658.9,623,658.9,626.9z M654.2,646.7l5.8,0.8 c0.3,1.7,0.9,2.8,2,3.7c1.5,1,3.4,1.6,5.9,1.6c2.6,0,4.7-0.6,6.3-1.6c1.4-1,2.5-2.4,2.9-4.4c0.2-1.1,0.4-3.5,0.4-7.1 c-2.5,2.8-5.7,4.2-9.6,4.2c-4.7,0-8.3-1.5-10.9-4.8c-2.6-3.4-3.9-7.3-3.9-11.9c0-3,0.6-6,1.8-8.6c1.3-2.6,2.8-4.7,5.2-6.3 c2.3-1.3,4.8-2.1,7.8-2.1c4.1,0,7.4,1.6,10.1,4.8v-4h5.3v28.4c0,5.1-0.5,8.8-1.7,10.8c-1.1,2.2-2.8,3.9-5.1,5.1 c-2.4,1.3-5.4,1.9-8.7,1.9c-4.1,0-7.4-0.9-9.9-2.5C655.2,652.9,654.1,650.3,654.2,646.7z"></path> <path class="st1" d="M512.3,70.3c-105,0-141.9,156.1-176.4,281.8c-12.4-12.1-50.8-48.7-50.9-48.7c-7.7-7.4-16.5-5-22,0.1 c-5.6,5.3-6.3,15,0,20.8c0.2,0.3,51.9,49.8,69.8,66.8c5,4.5,12.1,7.3,19.2,3.2c7.4-4.3,8.4-12.1,8.6-12.1 C421.8,119.4,476.5,99.8,512.1,99.8c29.9,0,64.3,21.2,64.3,63.5c44.6,0,72.5,56.1,36.7,90.7c29.7,13.7,43,30.7,43,52.1 c0,21.4-18.8,43.4-46.2,43.3c-27.1,0-41-16.8-62.1-16.9c-9.6,0-15.5,7.5-15.5,14.8v53.2h-39.9v-53c0-8.3-6.5-14.8-14.3-14.8 c-0.3,0-3.5,0.1-3.4,0.2l-53.4,6.4c-6.6,0.9-12.4,7.5-12.4,14.6c0,8.1,6.9,14.9,16.4,14.7c1.3,0,2.8,0,2.6-0.2 c-0.1,0,33.9-4.1,33.9-4.1v52.4c0,6.7,7.8,13.1,14.8,13.1h71.2c8.2,0,15.5-6.8,15.5-14.9v-47.8c14.8,8.6,35.5,12.2,46.1,12.2 c39.9,0,78-30.1,77.7-74.1c-0.1-40-31.9-59.9-31.9-59.9c18.7-47.8-11.6-93.9-50.8-106.6C590.1,89.4,546.2,70.3,512.3,70.3z"></path> <path class="st1" d="M512.3,70.3c-105,0-141.9,156.1-176.4,281.8c-12.4-12.1-50.8-48.7-50.9-48.7c-7.7-7.4-16.5-5-22,0.1 c-5.6,5.3-6.3,15,0,20.8c0.2,0.3,51.9,49.8,69.8,66.8c5,4.5,12.1,7.3,19.2,3.2c7.4-4.3,8.4-12.1,8.6-12.1 C421.8,119.4,476.5,99.8,512.1,99.8c29.9,0,64.3,21.2,64.3,63.5c44.6,0,72.5,56.1,36.7,90.7c29.7,13.7,43,30.7,43,52.1 c0,21.4-18.8,43.4-46.2,43.3c-27.1,0-41-16.8-62.1-16.9c-9.6,0-15.5,7.5-15.5,14.8v53.2h-39.9v-53c0-8.3-6.5-14.8-14.3-14.8 c-0.3,0-3.5,0.1-3.4,0.2l-53.4,6.4c-6.6,0.9-12.4,7.5-12.4,14.6c0,8.1,6.9,14.9,16.4,14.7c1.3,0,2.8,0,2.6-0.2 c-0.1,0,33.9-4.1,33.9-4.1v52.4c0,6.7,7.8,13.1,14.8,13.1h71.2c8.2,0,15.5-6.8,15.5-14.9v-47.8c14.8,8.6,35.5,12.2,46.1,12.2 c39.9,0,78-30.1,77.7-74.1c-0.1-40-31.9-59.9-31.9-59.9c18.7-47.8-11.6-93.9-50.8-106.6C590.1,89.4,546.2,70.3,512.3,70.3z"></path> <path class="st1" d="M467.5,488.3c0,12.3,14.4,19.7,38,30.6c18.8,8.4,29.7,17.3,29.7,24.4c0,11.7-13.1,15.8-25.2,15.8 c-19,0-30.1-7.3-36.4-23.3l-0.4-1.5h-1.6c-3.3,0-6,0.2-7.4,2c-1.3,1.6-0.9,3.7-0.3,5.9c-0.1,0,4.1,16.7,4.1,16.7 c1.1,4,2.6,4.6,9.3,6c2.9,0.5,18.2,3,31.2,3c36,0,52.1-14,52.1-28c0-10.1-10.5-19.9-33-30.6l-10.4-4.7 c-15.4-7.2-24.7-11.3-24.7-18.7c0-7.3,9.6-12.2,23.5-12.2c18,0,22.8,9.6,25,18l0.5,1.7h1.7c4,0,6.5-0.4,8-2c0.9-0.8,1.3-2.1,1-3.4 l-1.4-14.4c-0.4-4.6-4.1-5.3-9.2-6.3c-6-1-13.3-2.3-24.2-2.3C486.2,464.7,467.5,473.6,467.5,488.3z"></path> <path class="st1" d="M571.3,517.4c0,25,22.6,50.4,66,50.4c21.9,0,34.2-4.9,43.3-9.5l2.5-1.4l-4.1-4.1l0.2,0.2 c-1-1.4-1.7-1.7-3.1-1.7l-2.2,0.8c-3.2,1.5-13.2,6-31.5,6c-22.3,0-46.6-14.1-46.6-44.9c0-29.3,26.2-39.8,48.4-39.8 c16.2,0,24.7,5.6,26.3,17l0.3,1.9h2c1.9,0,7,0,7-3.6v-17.2c0-4.1-5-4.8-7.2-5.1l-2.1-0.2c-5.2-0.8-10.1-1.4-23.2-1.4 C603.3,464.7,571.3,486.9,571.3,517.4z"></path> <path class="st1" d="M408,466l-38.9,0.3l-26.1-0.4l-4-0.1c-2.3,0-3.9,1.7-3.9,3.9c0,1.1,0,4.4,4.3,4.4c15.7,0,16.3,1.4,16.4,7.1 l0.2,3.6l0.2,15.3v33.2c0,5.5-0.1,14.3-0.6,21.3c-0.1,2.1-0.2,3.9-14.1,3.9c-3.8,0-6.2,0.8-6.2,4.3c0,1.2,0,4,3.7,4h1 c1.6,0,6-0.3,27.7-0.3c23.1,0,27.7,0.3,29.3,0.3h0.9c2.9,0,5.6-0.3,5.6-4c0-3.9-3.5-4.3-9.3-4.3c-14,0-14-1.9-14.2-3.9 c-0.3-6.4-0.6-15.1-0.6-21.3c0,0,0-8.7,0-12c3.1,0,11.7,0,11.7,0c17.9,0,19.9,0.5,22.4,13.7c0.8,2.8,3.1,3.1,5.2,3.1 c4.1,0,4.6-2.1,4.6-3.1l-0.3-4.9c-0.3-2.8-0.6-6.4-0.6-11.2v-20.3c0-3.1-3.7-3.1-5.9-3.1c-3.4,0-4.2,2.2-6.4,11.7 c-0.9,3.6-8.3,5.9-20.3,5.9c0,0-7.5,0-10.5,0c0-3.8,0-29.9,0-29.9c0-8.1,1.6-8.1,3.3-8.3c6.9-0.2,23.4-0.8,28.5-0.8 c4.6,0,9,1.1,11.8,2.7c8.9,5.3,13.4,8.9,16.2,11c2.7,2.2,4.2,3.3,6.5,3.3c1.3,0,5,0,5-3.1c0-0.6-0.3-1.4-1.6-4c-1.4-3-3.9-8-7-15.9 c-0.9-2.4-3.7-2.4-9.3-2.4L408,466z"></path> <path class="st1" d="M634.6,105.3h4.5c2,0,3.5-0.3,4.3-0.9c0.8-0.6,1.1-1.4,1.1-2.6c0-0.9-0.3-1.9-1.1-2.4 c-0.8-0.6-2.4-0.9-4.7-0.9h-4.1V105.3z M650,117.9h-4.4c-2.8-5-4.7-7.8-5.6-8.6c-0.8-0.6-1.9-0.9-3.2-0.9h-2.2v9.5h-3.7V95.4h7.8 c2.4,0,4.3,0.3,5.5,0.6c1.3,0.3,2.3,1,3.1,2.1c0.7,1,1.2,2.3,1.2,3.5c0,1.5-0.6,3-1.8,4.1c-1.1,1.4-2.7,2-4.8,2.2v0.1 c1.5,0.3,3.1,2.3,5.3,5.7L650,117.9z M640.2,123.9c4.9,0,8.9-1.7,12.3-5.1c3.5-3.4,5.3-7.6,5.3-12.4c0-4.8-1.8-8.9-5.3-12.3 c-3.4-3.4-7.5-5.1-12.3-5.2c-4.9,0-8.9,1.8-12.4,5.2c-3.4,3.4-5.1,7.5-5.1,12.3c0,4.8,1.7,9,5.1,12.4 C631.1,122.1,635.3,123.9,640.2,123.9z M640.2,85.4c5.8,0,10.8,2.1,14.8,6.2c4.2,4.1,6.3,9,6.3,14.8c0,5.8-2.1,10.7-6.2,14.9 c-4.1,4.1-9,6.2-14.9,6.2c-5.7,0-10.8-2.1-14.9-6.2c-4.1-4.1-6.3-9.1-6.3-14.9c0-5.8,2.2-10.7,6.3-14.8 C629.4,87.4,634.5,85.4,640.2,85.4z"></path> <path class="st1" d="M640.2,128.5c-6,0-11.4-2.2-15.7-6.6c-4.3-4.2-6.6-9.4-6.6-15.6c0-6.1,2.3-11.3,6.6-15.6 c4.3-4.3,9.6-6.5,15.7-6.5c6.1,0,11.4,2.2,15.7,6.4c4.4,4.4,6.5,9.6,6.5,15.7c0,6.1-2.1,11.4-6.5,15.6 C651.6,126.3,646.2,128.5,640.2,128.5z M640.2,86.5c-5.4,0-10.2,1.9-14.1,5.8c-3.9,3.8-5.8,8.6-5.8,14c0,5.4,1.9,10.2,5.8,14.1 c3.9,3.8,8.7,5.8,14.1,5.8c5.6,0,10.2-1.9,14.1-5.9c3.9-3.8,5.9-8.6,5.9-14c0-5.5-2-10.2-5.9-14C650.3,88.4,645.6,86.5,640.2,86.5z M640.2,125c-5.2-0.1-9.6-1.9-13.3-5.6c-3.5-3.5-5.4-7.9-5.4-13.1c0-5.1,1.9-9.5,5.6-13.2c3.5-3.5,7.9-5.4,13.1-5.4l0,0 c5.1,0,9.6,1.9,13.2,5.5c3.6,3.6,5.5,8,5.5,13.1c-0.1,5.2-1.9,9.6-5.5,13.1C649.7,123.2,645.2,125,640.2,125z M640.2,90 c-4.5,0-8.4,1.6-11.7,4.8c-3.2,3.2-4.8,7-4.8,11.6c0,4.5,1.6,8.4,4.8,11.6c3.2,3.3,7,4.8,11.7,4.9c4,0,7.4-1.2,10.4-3.7h-5.7 l-0.4-0.6c-3.5-6.5-4.7-8-5.2-8.2c-0.7-0.5-1.5-0.8-2.5-0.8h-1v9.6h-5.9V94.3h8.8c2.4,0,4.5,0.2,5.8,0.6c1.6,0.4,2.7,1.2,3.7,2.4 c0.9,1.4,1.4,2.6,1.4,4.2c0,1.8-0.6,3.4-2,4.9c-0.8,0.9-1.7,1.5-2.8,2c1,1.1,2.1,2.4,3.4,4.6l3.2,5.3c0.2-0.1,0.3-0.2,0.4-0.4 c3.1-3.1,4.8-7.1,4.8-11.6c0-4.6-1.7-8.3-4.8-11.6C648.5,91.5,644.8,90,640.2,90z M646.1,116.8h1.9l-1.8-2.7 c-2.6-4.1-4-4.9-4.5-5.1l-0.6-0.1C641.9,109.8,643.4,111.7,646.1,116.8z M632,116.8h1.4v-9.6h3.3c1.6,0,2.8,0.4,3.9,1.2 c0,0.1,0.1,0.1,0.2,0.2v-1.7l1.1-0.2c1.7-0.1,3.1-0.7,4-1.9c0.9-1,1.4-2.2,1.4-3.3c0-1.1-0.3-2-1-2.8c-0.6-0.9-1.4-1.4-2.4-1.8 c-1.2-0.3-2.8-0.4-5.2-0.4H632V116.8z M639.1,106.3h-5.7v-9h5.3c2.7,0,4.4,0.4,5.3,1.2c1.2,0.8,1.7,2,1.7,3.2 c0,1.6-0.6,2.8-1.7,3.5C643,106,641.4,106.3,639.1,106.3z M635.7,104.2h3.3c2.2,0,3.2-0.4,3.6-0.7c0.5-0.4,0.7-1,0.7-1.8 c0-0.6-0.2-1.2-0.7-1.5c-0.3-0.3-1.3-0.7-4-0.7h-2.9V104.2z"></path> <polygon class="st1" points="328.3,717.3 306,717.3 306,729.8 325.3,729.8 325.3,734.7 306,734.7 306,753.3 300.6,753.3 300.6,712.5 328.3,712.5 "></polygon> <path class="st1" d="M307.1,754.3h-7.6v-43h29.9v7.1h-22.2v10.4h19.3v7.2h-19.3V754.3z M301.7,752.1h3.2v-18.4h19.2V731H305v-14.8 h22.1v-2.7h-25.4V752.1z"></path> <path class="st1" d="M362,724.5c-0.3-2.7-1.1-4.6-2.8-6c-1.6-1.2-4-1.9-7.2-1.9c-2.8,0-5.1,0.5-6.9,1.6c-1.7,1-2.6,2.6-2.6,4.5 c0,1.8,0.8,3,2.1,3.9c1.4,0.8,4,1.7,7.8,2.6c3.3,0.6,6.1,1.4,8.2,2.3c2.2,0.8,4,2,5.6,3.6c1.5,1.6,2.3,3.8,2.3,6.6 c0,3.5-1.4,6.5-4.3,8.7c-2.7,2.4-6.4,3.5-10.9,3.5c-5.8,0-10-1.3-12.8-3.9c-2.8-2.5-4.5-5.9-4.6-9.9l5.1-0.4 c0.3,3.2,1.6,5.6,3.8,7.2c2.3,1.4,5,2.2,8.3,2.2c3,0,5.4-0.6,7.3-1.9c1.9-1.3,2.7-2.9,2.7-5.1s-0.9-3.7-2.8-4.8s-5.2-2.1-9.9-2.9 c-4.6-1-7.9-2.4-9.9-4.3c-2.2-1.8-3.1-4.1-3-7.1c0-3.2,1.2-5.9,3.7-7.9c2.5-2.3,6.2-3.2,10.5-3.2c4.7,0,8.3,0.9,11,3.1 c2.8,2.2,4.2,5.1,4.4,9L362,724.5z"></path> <path class="st1" d="M353.3,755.1c-6.2,0-10.6-1.5-13.6-4.1c-3.1-2.8-4.8-6.5-4.9-10.9l-0.1-1.1l7.4-0.6l0.1,1.2 c0.2,2.8,1.3,4.9,3.3,6.3c2,1.3,4.6,2.1,7.6,2.1c2.8,0,5.1-0.6,6.7-1.7c1.6-1.1,2.4-2.4,2.4-4.2c0-1.8-0.8-3-2.4-3.7 c-1.9-1.1-5-2.1-9.5-2.9c-4.7-1.1-8.3-2.6-10.5-4.5c-2.3-2.1-3.4-4.7-3.4-7.9c0-3.5,1.5-6.6,4.2-8.9c2.8-2.3,6.5-3.4,11.2-3.4 c4.8,0,8.8,1.2,11.8,3.3c3,2.4,4.6,5.8,4.8,10v1l-7.3,0.7l-0.1-1.2c-0.3-2.3-1.1-3.9-2.4-5c-1.5-1.2-3.6-1.7-6.5-1.8 c-2.5,0-4.6,0.5-6.3,1.4c-1.4,0.9-2,2.1-2,3.6c0,1.4,0.4,2.4,1.4,3c0.9,0.5,2.8,1.3,7.3,2.4c3.6,0.9,6.4,1.7,8.5,2.3 c2.3,0.9,4.3,2.3,5.9,4c1.9,1.9,2.7,4.3,2.7,7.4c0,3.9-1.6,7.1-4.6,9.7C362,753.8,358.1,755.1,353.3,755.1z M337,741.2 c0.4,3.2,1.8,5.9,4,8c2.7,2.3,6.8,3.5,12.3,3.5c4.3,0,7.7-1,10.3-3.1c2.5-2.2,3.8-4.7,3.8-7.9c0-2.5-0.7-4.4-2-5.9 c-1.6-1.5-3.2-2.6-5.1-3.2c-2.2-0.8-4.8-1.6-8.2-2.3c-4-0.8-6.7-1.7-8.2-2.7c-1.6-0.9-2.5-2.6-2.5-4.8c0-2.4,1.1-4.3,3.2-5.5 c2-1.2,4.4-1.8,7.4-1.8c3.3,0,6.1,0.8,7.8,2.3c1.7,1.3,2.7,3.2,3.1,5.6l2.9-0.3c-0.4-3-1.7-5.4-3.8-7.3c-2.5-1.9-6-2.8-10.4-2.8 c-4.1,0-7.4,1-9.7,2.8c-2.4,2.1-3.5,4.4-3.5,7.3c0,2.6,0.9,4.7,2.7,6.3c1.9,1.8,5.1,3,9.5,3.9c4.6,1,8,2.1,10.1,3.1 c2.3,1.2,3.4,3.2,3.4,5.8c0,2.5-1.1,4.6-3.2,6.1c-2.1,1.4-4.7,2.1-7.9,2.1c-3.5,0-6.5-0.9-8.9-2.4c-2.4-1.5-3.7-3.7-4.2-6.9 L337,741.2z"></path> <path class="st1" d="M412.8,740.3c-1.2,4.6-3.2,7.9-6.2,10.2c-3,2.3-6.7,3.4-10.8,3.4c-6.7,0-11.6-2.1-14.6-6.3 c-3-4.2-4.6-9.2-4.6-15.1c0-6.5,1.8-11.6,5.3-15.3c3.6-3.7,8.2-5.5,13.9-5.5c4.1,0,7.5,0.9,10.3,2.9c2.8,2.1,4.8,5,6,8.9l-5.3,1.3 c-0.9-2.8-2.4-4.9-4.1-6.6c-1.9-1.3-4.1-2.1-6.9-2.1c-4.5,0-7.8,1.6-10.2,4.5c-2.3,2.8-3.4,6.7-3.4,11.8c0,5.7,1.3,9.8,3.6,12.6 c2.4,2.7,5.6,4.1,9.6,4.1c3.1,0,5.8-0.9,7.7-2.5c2-1.9,3.4-4.4,4.1-7.8L412.8,740.3z"></path> <path class="st1" d="M395.8,755.1c-7.1,0-12.2-2.4-15.5-6.8c-3.2-4.3-4.9-9.7-4.9-15.8c0-6.8,2-12.1,5.8-16.1 c3.8-3.9,8.7-5.9,14.6-5.9c4.3,0,7.9,1.1,11,3.2c3,2.1,5.1,5.3,6.3,9.5l0.4,1.1l-7.5,1.8l-0.3-1c-0.8-2.5-2.1-4.4-3.7-5.9 c-1.7-1.2-3.7-1.9-6.2-1.9c-4,0-7.2,1.3-9.3,3.8c-2.2,2.7-3.2,6.5-3.2,11.3c0,5.4,1.2,9.3,3.4,11.9c2.2,2.5,5.1,3.8,8.7,3.8 c2.8,0,5.3-0.9,7-2.3c1.9-1.7,3.1-4,3.9-7.3l0.3-1.1l7.5,2l-0.3,1.1c-1.3,4.8-3.5,8.4-6.7,10.8 C404.1,753.9,400.2,755.1,395.8,755.1z M395.8,712.9c-5.3,0-9.7,1.8-13.1,5.2c-3.3,3.4-5,8.4-5,14.5c0.1,5.8,1.5,10.5,4.3,14.4 c2.8,4,7.5,5.8,13.8,5.8c3.9,0,7.3-1,10.1-3.1c2.4-1.9,4.2-4.7,5.5-8.4l-3.2-0.9c-0.9,3.1-2.4,5.6-4.2,7.2 c-2.3,2.1-5.2,2.8-8.5,2.8c-4.3,0-7.8-1.4-10.4-4.4c-2.6-2.9-3.9-7.5-3.9-13.3c0-5.3,1.2-9.4,3.6-12.5c2.5-3.2,6.3-4.8,11.1-4.8 c2.9,0,5.6,0.8,7.5,2.5c1.9,1.4,3.2,3.4,4.1,5.9l3.1-0.8c-1.1-3-2.8-5.5-5.1-7.1C402.9,713.9,399.6,712.9,395.8,712.9z"></path> <path class="st1" d="M429.4,722.1h2.3c1.1,0,1.8-0.1,2.2-0.5c0.4-0.3,0.7-0.6,0.7-1.2c0-0.5-0.3-1-0.7-1.3 c-0.3-0.3-1.1-0.4-2.3-0.4h-2.2V722.1z M437.2,728.6H435c-1.5-2.5-2.5-4.1-2.8-4.4c-0.4-0.3-0.9-0.4-1.7-0.4h-1.1v4.8h-1.8v-11.4 h3.9c1.2,0,2.1,0.1,2.6,0.3c0.6,0.1,1.2,0.5,1.7,0.9c0.3,0.7,0.5,1.3,0.5,1.9c0,0.8-0.3,1.5-0.8,2.2c-0.6,0.6-1.4,1-2.4,1.1v0.1 c0.7,0.1,1.6,1,2.7,2.7L437.2,728.6z M432.3,731.4c2.4,0,4.4-0.8,6.2-2.4c1.7-1.9,2.6-3.9,2.6-6.3c0-2.5-1-4.5-2.6-6.2 c-1.7-1.7-3.8-2.5-6.2-2.5c-2.4,0-4.5,0.8-6.2,2.5c-1.8,1.8-2.5,3.8-2.6,6.3c0,2.4,0.9,4.4,2.5,6.2 C427.8,730.6,429.8,731.4,432.3,731.4z M432.3,712.2c2.8,0,5.4,1,7.4,3.1c2,2,3.1,4.4,3.1,7.4s-1.2,5.4-3.1,7.4 c-2.1,2.2-4.6,3.1-7.4,3.1c-2.8,0-5.4-1-7.5-3c-2.1-2.1-3.1-4.5-3.1-7.4s1.1-5.4,3.1-7.4C426.9,713.2,429.4,712.2,432.3,712.2z"></path> <path class="st1" d="M432.3,733.8c-3,0-5.7-1.2-7.8-3.3c-2.2-2.1-3.2-4.7-3.2-7.7c0-3,1.1-5.6,3.2-7.7c2.2-2.3,4.8-3.2,7.8-3.2 c3,0,5.7,1,7.8,3.2c2.2,2.1,3.2,4.7,3.2,7.7c0,3-1.1,5.6-3.2,7.7C438,732.6,435.3,733.8,432.3,733.8z M432.3,712.7 c-2.7,0-5.1,1.1-7.1,3c-2,1.9-2.9,4.3-2.9,7c0,2.7,0.9,5.1,2.9,7.1c2,1.9,4.3,2.8,7.1,2.8c2.7,0,5.1-1,7.1-2.8c2-2,2.9-4.4,2.9-7.1 c0-2.7-1-5.1-3-7.1C437.3,713.7,435,712.7,432.3,712.7z M432.3,732.1c-2.5-0.1-4.9-1-6.6-2.7c-1.9-2-2.8-4.1-2.8-6.7 c0.1-2.5,1-4.8,2.8-6.6c1.8-1.9,4-2.7,6.6-2.7c2.5,0,4.8,0.9,6.6,2.7c1.9,1.8,2.8,4,2.8,6.6s-1,4.7-2.8,6.7 C437.1,731.1,434.8,732.1,432.3,732.1z M432.3,714.6c-2.3,0-4.2,0.8-5.9,2.3c-1.6,1.6-2.4,3.6-2.4,5.9s0.7,4.2,2.4,5.8 c1.7,1.6,3.5,2.4,5.9,2.4c2,0,3.6-0.7,5.2-1.9h-2.8l-0.2-0.3c-1.9-3.5-2.5-4-2.6-4.2c-0.2-0.2-0.7-0.4-1.3-0.4H430v4.9h-2.9v-12.4 h4.5c1.2,0,2.2,0.1,2.8,0.3c0.7,0.2,1.5,0.7,1.9,1.3c0.4,0.6,0.7,1.3,0.7,2.1c0,0.9-0.3,1.8-1.1,2.5c-0.3,0.4-0.8,0.8-1.4,1 c0.6,0.4,1.1,1.2,1.8,2.3l1.7,2.6c0,0,0-0.1,0.1-0.1c1.7-1.7,2.4-3.6,2.4-5.9s-0.8-4.3-2.4-5.8 C436.4,715.3,434.5,714.6,432.3,714.6z M435.3,727.9h0.9l-0.8-1.3c-1.5-2.2-2.1-2.5-2.4-2.5l-0.3-0.1 C433.4,724.5,434.1,725.9,435.3,727.9z M428.2,727.9h0.8v-4.7h1.6c0.9,0,1.6,0.2,2.1,0.6l0,0V723l0.5-0.1c0.9-0.1,1.6-0.4,2.1-0.9 c0.5-0.6,0.8-1.1,0.8-1.8c0-0.5-0.2-1-0.5-1.5c-0.3-0.4-0.8-0.6-1.3-0.7c-0.6-0.2-1.4-0.3-2.5-0.3h-3.4V727.9z M431.7,722.7h-2.7 v-4.5h2.6c1.4,0,2.2,0.1,2.6,0.6c0.5,0.4,0.8,1,0.8,1.7c0,0.7-0.3,1.3-0.8,1.7C433.7,722.5,432.9,722.7,431.7,722.7z M430,721.5 h1.7c1.3,0,1.7-0.2,1.9-0.3c0.3-0.1,0.3-0.4,0.3-0.8c0,0,0-0.6-0.3-0.8c-0.2-0.2-0.5-0.4-2-0.4H430V721.5z"></path> <path class="st1" d="M507.5,740.3c-1.2,4.6-3.3,7.9-6.2,10.2c-3,2.3-6.6,3.4-10.7,3.4c-6.8,0-11.7-2.1-14.7-6.3 c-3-4.2-4.6-9.2-4.6-15.1c0-6.5,1.8-11.6,5.3-15.3c3.6-3.7,8.3-5.5,14-5.5c3.9,0,7.4,0.9,10.2,2.9c2.8,2.1,4.9,5,5.9,8.9l-5.2,1.3 c-0.9-2.8-2.3-4.9-4.1-6.6c-1.8-1.3-4.1-2.1-6.8-2.1c-4.5,0-7.9,1.6-10.2,4.5c-2.4,2.8-3.5,6.7-3.5,11.8c0,5.7,1.2,9.8,3.6,12.6 c2.4,2.7,5.7,4.1,9.5,4.1c3.2,0,5.9-0.9,7.8-2.5c2-1.9,3.4-4.4,4.2-7.8L507.5,740.3z"></path> <path class="st1" d="M490.7,755.1c-7.2,0-12.3-2.4-15.7-6.8c-3.1-4.3-4.7-9.7-4.7-15.8c0-6.8,1.8-12.1,5.7-16.1 c3.7-3.9,8.7-5.9,14.7-5.9c4.2,0,7.8,1.1,10.9,3.2c3,2.1,5.1,5.3,6.4,9.5l0.3,1.1l-7.5,1.8l-0.3-1c-0.9-2.5-2.1-4.4-3.7-5.9 c-1.6-1.2-3.6-1.9-6.1-1.9c-4.2,0-7.3,1.3-9.3,3.8c-2.3,2.7-3.3,6.5-3.3,11.3c0,5.4,1.2,9.3,3.4,11.9c2.2,2.5,5,3.8,8.6,3.8 c3,0,5.3-0.9,7.2-2.3c1.8-1.7,3-4,3.8-7.3l0.3-1.1l7.5,2l-0.3,1.1c-1.3,4.8-3.5,8.4-6.6,10.8C498.8,753.9,494.9,755.1,490.7,755.1z M490.7,712.9c-5.4,0-9.8,1.8-13.1,5.2c-3.4,3.4-5.1,8.4-5.1,14.5c0,5.8,1.5,10.5,4.4,14.4c2.8,4,7.3,5.8,13.8,5.8 c3.8,0,7.2-1,10-3.1c2.4-1.9,4.3-4.7,5.5-8.4l-3.2-0.9c-0.8,3.1-2.4,5.6-4.2,7.2c-2.3,2.1-5.2,2.8-8.6,2.8c-4.2,0-7.6-1.4-10.4-4.4 c-2.5-2.9-3.9-7.5-3.9-13.3c0-5.3,1.4-9.4,3.7-12.5c2.5-3.2,6.3-4.8,11.2-4.8c2.8,0,5.5,0.8,7.5,2.5c1.8,1.4,3.2,3.4,4.1,5.9 l3.1-0.8c-1.1-3-2.7-5.5-5.2-7.1C497.6,713.9,494.4,712.9,490.7,712.9z"></path> <path class="st1" d="M533.4,753.3h-5v-32c-2.4,2.5-5.9,4.4-10.1,6v-4.7c5.9-2.8,9.8-6.3,11.9-10.3h3.2V753.3z"></path> <path class="st1" d="M534.6,754.3h-7.3v-30.6c-2.3,1.8-5.2,3.2-8.6,4.6l-1.5,0.6v-7.3l0.6-0.2c5.6-2.6,9.4-6,11.4-9.8l0.4-0.6h5 V754.3z M529.6,752.1h2.8v-38.8h-1.6c-2.2,3.9-6,7.3-11.4,10v2.4c3.2-1.6,6.1-3.2,8.2-5.2l1.9-1.9V752.1z"></path> <path class="st1" d="M562,749.8c2.7,0,4.7-1.3,6.1-3.9c1.4-2.5,2.1-6.9,2.1-12.8c0-4.1-0.3-7.4-0.9-9.6c-0.6-2.4-1.5-4.2-2.7-5.3 c-1.2-1.3-2.8-1.9-4.6-1.9c-2.7,0-4.8,1.4-6.1,4c-1.4,2.6-2.1,6.9-2.1,12.7c0,4.1,0.3,7.4,0.9,9.8c0.7,2.4,1.6,4.1,2.7,5.2 C558.7,749.3,560.2,749.8,562,749.8z M562,712.3c8.9,0,13.3,6.9,13.3,20.8c0,7.1-1.2,12.3-3.5,15.7c-2.2,3.5-5.5,5.2-9.8,5.2 c-8.9,0-13.4-7-13.4-20.9c0-7,1.2-12.2,3.5-15.6C554.4,714,557.7,712.3,562,712.3z"></path> <path class="st1" d="M562,755.1c-9.5,0-14.4-7.5-14.4-22.1c0-7.1,1.2-12.6,3.5-16.3c2.5-3.7,6.2-5.7,10.9-5.7 c9.6,0,14.5,7.4,14.5,22c0,7.4-1.3,12.8-3.7,16.4C570.4,753.1,566.6,755.1,562,755.1z M562,713.3c-4,0.1-6.9,1.7-9,4.8 c-2.1,3.1-3.2,8.3-3.2,15c0,13.2,4,19.7,12.2,19.7c3.9,0,6.9-1.5,9-4.6c2.2-3.2,3.1-8.2,3.1-15.1 C574.2,719.8,570.3,713.3,562,713.3z M562,751c-2.2-0.2-3.8-0.8-5.3-2.2c-1.4-1.4-2.5-3.1-3-5.8c-0.7-2.4-1-5.8-1-10 c0-6.1,0.7-10.4,2.2-13.2c1.5-3,3.9-4.6,7.1-4.6c2.1,0,3.9,0.6,5.4,2.1c1.4,1.3,2.4,3.3,3,5.9c0.7,2.5,1,5.7,1,9.9 c0,6.2-0.7,10.7-2.3,13.4C567.6,749.4,565.2,751,562,751z M561.9,717.5c-2.3,0-3.9,1-5.1,3.4c-1.3,2.4-1.9,6.5-1.9,12.2 c0,4,0.2,7.2,0.9,9.4c0.5,2.2,1.3,3.8,2.3,4.7c1,1.1,2.3,1.5,3.8,1.5c2.3,0,3.9-1,5.1-3.2c1.3-2.4,2-6.6,2-12.3 c0-4-0.3-7.1-0.8-9.3c-0.6-2.3-1.4-3.8-2.5-4.8C564.8,718,563.5,717.5,561.9,717.5z"></path> <path class="st1" d="M596.1,749.8c2.4,0,4.4-0.8,6-2.4c1.6-1.5,2.4-3.3,2.4-5.9c0-2.4-0.8-4.4-2.5-6.1c-1.7-1.5-3.5-2.2-6-2.2 s-4.4,0.7-6,2.3c-1.4,1.7-2.2,3.5-2.2,5.9s0.8,4.4,2.3,5.9C591.5,749.1,593.7,749.8,596.1,749.8z M596.1,729.3c2,0,3.5-0.7,4.8-1.9 c1.3-1.2,2-2.6,2-4.5c0-1.8-0.7-3.4-2-4.6c-1.3-1.3-2.9-2-4.8-2c-1.9,0-3.5,0.7-4.7,1.9c-1.3,1.3-2,2.7-2,4.4c0,2,0.7,3.7,2.1,4.8 C592.7,728.6,594.3,729.3,596.1,729.3z M601.8,731.1c5.2,1.7,7.7,5.1,7.7,10.5c0,3.5-1.3,6.5-3.7,8.7c-2.5,2.4-5.8,3.6-9.8,3.6 c-3.9,0-7.3-1.2-9.8-3.6c-2.4-2.4-3.6-5.3-3.6-8.9c0-2.5,0.7-4.8,2.1-6.7c1.4-2,3.3-3.1,5.7-3.6l0,0c-4.1-1.4-6.1-4.1-6.1-8.3 c0-3,1.1-5.5,3.2-7.4c2.2-2.1,4.9-3,8.4-3c3.6,0,6.5,1,8.6,3c2.2,2.2,3.3,4.7,3.3,7.5C607.9,726.9,605.9,729.7,601.8,731.1 L601.8,731.1z"></path> <path class="st1" d="M596.1,755.1c-4.2,0-7.7-1.5-10.4-3.9c-2.8-2.5-4.1-5.9-4.2-9.8c0-2.8,0.8-5.4,2.3-7.4 c1.1-1.4,2.3-2.4,3.7-2.9c-2.8-1.7-4.4-4.5-4.4-8.2c0-3.3,1.3-6.2,3.6-8.2c2.3-2.3,5.6-3.4,9.3-3.4c3.9,0,7.1,1.2,9.5,3.5 c2.3,2.2,3.5,5,3.5,8.2c0,3.6-1.5,6.5-4.4,8.1c4.1,2.1,6.1,5.7,6.1,10.6c0,3.8-1.3,7.1-4.1,9.6 C603.8,753.7,600.3,755.1,596.1,755.1z M596,713.3c-3.2,0.1-5.8,1-7.6,2.8c-2.1,1.8-2.9,4-2.9,6.7c0,3.8,1.8,6.2,5.4,7.2l0.8,0.3 v1.9l-0.9,0.2c-2.2,0.3-3.8,1.4-5,3.1c-1.4,1.7-2,3.6-2,6c0,3.2,1.2,6,3.4,8.2c2.4,2.2,5.2,3.1,8.9,3.1c3.8,0,6.8-1,9-3.1 c2.3-2.3,3.3-4.8,3.3-8c0-4.8-2.3-7.8-6.9-9.3l-0.8-0.3v-1.7l0.8-0.4c3.5-1.3,5.2-3.4,5.2-7.1c0-2.6-0.9-4.8-2.9-6.7 C601.8,714.3,599.3,713.3,596,713.3z M596.1,751c-2.7,0-4.9-1.1-6.7-2.7c-1.9-1.8-2.7-4.1-2.7-6.8c0-2.6,0.9-4.8,2.6-6.7 c1.7-1.8,3.9-2.6,6.7-2.6c2.6,0,5,0.8,6.9,2.6c1.8,1.8,2.7,4,2.7,6.8c0,2.6-1,5.1-2.6,6.8C600.9,750,598.8,751,596.1,751z M596,734.5c-2.1,0-3.7,0.7-5.1,2c-1.4,1.5-2.1,3.1-2.1,5.1c0,2.2,0.7,3.7,2.2,5.2c1.3,1.4,3,2,5.1,2c2.2,0,3.9-0.6,5.2-1.9 c1.4-1.4,2.1-3,2.1-5.2c0-2.1-0.7-3.7-2.1-5.2C599.8,735.1,598.1,734.5,596,734.5z M596.1,730.3c-2.1-0.1-3.9-0.7-5.4-2.1 c-1.7-1.4-2.3-3.3-2.3-5.7c0-1.9,0.7-3.7,2.3-5.1c1.4-1.6,3.2-2.3,5.5-2.3c2.2,0,4.1,0.7,5.6,2.3c1.4,1.4,2.2,3.3,2.2,5.4 c0,2.2-0.8,4-2.2,5.4C600.2,729.6,598.3,730.3,596.1,730.3z M596.1,717.5c-1.7,0-2.9,0.5-3.9,1.6c-1.1,1-1.6,2.2-1.6,3.5 c0,1.8,0.5,3.1,1.6,4c1.1,0.9,2.4,1.5,3.9,1.5c1.6,0,2.9-0.6,4-1.5c1.1-1,1.6-2.2,1.6-3.7c0-1.6-0.5-2.7-1.6-3.8 C598.9,718.1,597.6,717.5,596.1,717.5z"></path> <path class="st1" d="M643.6,716.8c-4.1,4.4-7.5,9.9-10.4,16.4c-3,6.5-4.8,13.1-5.3,20.1h-5.1c0.1-5.6,1.5-11.7,4-18.2 c2.6-6.7,6-12.4,10.3-17.2H617V713h26.6V716.8z"></path> <path class="st1" d="M628.9,754.3h-7.3v-1.2c0.2-5.7,1.6-11.9,4.2-18.5c2.3-6,5.3-11.2,8.9-15.7h-18.8v-7.1h28.7v5.4l-0.3,0.4 c-3.9,4.2-7.3,9.6-10.2,16c-2.9,6.3-4.7,13-5.2,19.6L628.9,754.3z M623.9,752.1h2.9c0.7-6.6,2.4-13.1,5.3-19.4 c2.8-6.3,6.4-11.8,10.3-16.3v-2.4h-24.3v2.6h21.4l-1.7,1.8c-4,4.8-7.4,10.5-9.9,17.1C625.5,741.3,624.2,747,623.9,752.1z"></path> <path class="st1" d="M657.4,728.7c2.5-1.7,5.1-2.5,7.7-2.5c3.4,0,6.5,1.2,8.9,3.6c2.5,2.4,3.8,5.7,3.8,9.6c0,4.1-1.3,7.6-3.8,10.3 c-2.5,2.9-6,4.3-10.2,4.3c-3.3,0-6.4-1-8.8-2.8c-2.5-1.9-3.8-4.8-4.3-8.6l5.3-0.4c0.4,2.5,1.4,4.6,2.7,5.8c1.5,1.4,3.1,2,5.1,2 c2.5,0,4.7-1,6.3-2.8c1.6-2,2.4-4.3,2.4-7.2c0-2.8-0.8-5.1-2.4-6.8c-1.6-1.7-3.6-2.4-6.3-2.4c-3.1,0-5.6,1.3-7.5,4l-4.6-0.7l3.9-21 h20.3v4.9h-16.3L657.4,728.7z"></path> <path class="st1" d="M663.9,755.1c-3.5,0-6.8-1.1-9.4-3.1c-2.7-2.1-4.4-5.2-4.8-9.4l-0.1-1.2l7.4-0.4l0.1,0.9 c0.4,2.4,1.2,4.1,2.3,5.1c1.3,1.2,2.7,1.7,4.5,1.7c2.2,0,3.9-0.8,5.3-2.4c1.4-1.8,2.2-3.9,2.2-6.5c0-2.5-0.8-4.5-2.2-6 c-1.5-1.4-3.1-2.2-5.5-2.2c-2.7,0-5,1.1-6.4,3.5l-0.5,0.4l-6.6-0.6l4.3-23.1h22.4v7.1h-16.6l-1.5,7.5c2-1,4-1.5,6.1-1.5 c3.8,0,7.1,1.4,9.8,3.9c2.7,2.6,4.1,6.2,4.1,10.4c0,4.4-1.4,8-4.1,11C672.1,753.6,668.4,755.1,663.9,755.1z M652,743.7 c0.5,2.8,1.8,5,3.7,6.6c2.3,1.7,5,2.5,8.1,2.5c3.9,0,7.1-1.3,9.4-3.8c2.4-2.6,3.5-5.8,3.5-9.6c0-3.7-1.2-6.7-3.4-8.8 c-2.4-2.2-5-3.2-8.2-3.2c-2.4,0-4.8,0.8-7.1,2.4l-2.4,1.4l2.9-14.4h16.2v-2.6h-18.2l-3.7,18.9l2.9,0.4c2-2.5,4.6-3.8,7.9-3.8 c2.9,0,5.3,0.8,7.2,2.8c1.8,1.8,2.6,4.3,2.6,7.5c0,3.1-0.9,5.7-2.5,7.8c-1.8,2.3-4.2,3.3-7.2,3.3c-2.3,0-4.3-0.9-5.9-2.3 c-1.4-1.2-2.3-2.9-2.9-5.3L652,743.7z"></path> <path class="st1" d="M698.3,749.8c2.5,0,4.4-0.8,6.1-2.4c1.5-1.5,2.3-3.3,2.3-5.9c0-2.4-0.8-4.4-2.4-6.1c-1.6-1.5-3.5-2.2-6-2.2 c-2.4,0-4.4,0.7-5.9,2.3c-1.6,1.7-2.3,3.5-2.3,5.9s0.7,4.4,2.3,5.9C693.9,749.1,695.9,749.8,698.3,749.8z M698.3,729.3 c2.1,0,3.5-0.7,4.9-1.9c1.2-1.2,1.8-2.6,1.8-4.5c0-1.8-0.6-3.4-1.8-4.6c-1.4-1.3-3-2-4.9-2c-1.9,0-3.4,0.7-4.7,1.9 c-1.3,1.3-1.9,2.7-1.9,4.4c0,2,0.6,3.7,1.9,4.8C694.9,728.6,696.4,729.3,698.3,729.3z M704.1,731.1c5.3,1.7,7.8,5.1,7.8,10.5 c0,3.5-1.4,6.5-3.8,8.7c-2.5,2.4-5.8,3.6-9.8,3.6c-3.9,0-7.2-1.2-9.6-3.6c-2.5-2.4-3.8-5.3-3.8-8.9c0-2.5,0.7-4.8,2.1-6.7 c1.4-2,3.3-3.1,5.7-3.6l0,0c-4-1.4-6.1-4.1-6.1-8.3c0-3,1.1-5.5,3.2-7.4c2.2-2.1,5-3,8.4-3c3.6,0,6.5,1,8.6,3 c2.3,2.2,3.3,4.7,3.3,7.5C710.1,726.9,708.2,729.7,704.1,731.1L704.1,731.1z"></path> <path class="st1" d="M698.3,755.1c-4.1,0-7.7-1.5-10.5-3.9c-2.6-2.5-4.1-5.9-4.1-9.8c0-2.8,0.8-5.4,2.5-7.4 c0.9-1.4,2.1-2.4,3.5-2.9c-2.8-1.7-4.2-4.5-4.2-8.2c0-3.3,1.2-6.2,3.6-8.2c2.3-2.3,5.5-3.4,9.1-3.4c3.9,0,7.1,1.2,9.5,3.5 c2.3,2.2,3.5,5,3.6,8.2c0,3.6-1.6,6.5-4.5,8.1c4.1,2.1,6.1,5.7,6.1,10.6c0,3.8-1.3,7.1-4,9.6C706.2,753.7,702.6,755.1,698.3,755.1z M698.2,713.3c-3.1,0.1-5.7,1-7.6,2.8c-2,1.8-2.8,4-2.8,6.7c0,3.8,1.8,6.2,5.3,7.2l0.8,0.3v1.9l-0.9,0.2c-2.3,0.3-3.8,1.4-5.1,3.1 c-1.2,1.7-1.8,3.6-1.8,6c0,3.2,1,6,3.4,8.2c2.3,2.2,5.2,3.1,8.8,3.1c3.8,0,6.7-1,9-3.1c2.3-2.3,3.4-4.8,3.4-8c0-4.8-2.3-7.8-7-9.3 L703,732v-1.7l0.8-0.4c3.5-1.3,5.3-3.4,5.3-7.1c-0.1-2.6-1-4.8-2.9-6.7C704.1,714.3,701.5,713.3,698.2,713.3z M698.3,751 c-2.6,0-4.9-1.1-6.7-2.7c-1.9-1.8-2.7-4.1-2.7-6.8c0-2.6,0.9-4.8,2.6-6.7c1.8-1.8,3.9-2.6,6.7-2.6c2.7,0,5,0.8,6.8,2.6 c1.9,1.8,2.8,4,2.8,6.8s-1,5.1-2.7,6.8C703.3,750,701,751,698.3,751z M698.2,734.5c-2.1,0-3.8,0.7-5.1,2c-1.3,1.5-2,3.1-2,5.1 c0,2.2,0.7,3.7,2,5.2c1.5,1.4,3.1,2,5.2,2c2.2,0,3.9-0.6,5.3-1.9c1.3-1.4,2-2.9,2-5.2c0-2.1-0.7-3.7-2.1-5.2 C702,735.1,700.3,734.5,698.2,734.5z M698.3,730.3c-2.1-0.1-3.9-0.7-5.4-2.1c-1.6-1.4-2.3-3.3-2.3-5.7c0-1.9,0.8-3.7,2.3-5.1 c1.5-1.6,3.3-2.3,5.5-2.3c2.3,0,4.1,0.7,5.6,2.3c1.5,1.4,2.4,3.3,2.4,5.4c-0.1,2.2-0.9,4-2.4,5.4 C702.4,729.6,700.5,730.3,698.3,730.3z M698.3,717.5c-1.6,0-2.9,0.5-3.9,1.6c-1.1,1-1.6,2.1-1.6,3.5c0,1.8,0.5,3.1,1.6,4 c1.1,0.9,2.5,1.5,3.9,1.5c1.8,0,2.9-0.6,4.1-1.5c1-1,1.6-2.2,1.6-3.7c0-1.6-0.6-2.7-1.7-3.8C701.2,718.1,699.9,717.5,698.3,717.5z"></path> <polygon class="st1" points="369.8,879.8 356.2,879.8 356.2,915.8 350.8,915.8 350.8,879.8 337.4,879.8 337.4,874.9 369.8,874.9 "></polygon> <path class="st1" d="M357.4,917h-7.7V881h-13.3v-7.2h34.6v7.2h-13.5V917z M351.9,914.7h3.3v-36h13.5v-2.6h-30.3v2.6h13.4V914.7z"></path> <path class="st1" d="M401.4,915.8h-5.1v-18.6c0-2.4-0.5-4.2-1.6-5.5c-1-1.2-2.5-1.8-4.7-1.8c-2,0-3.8,0.8-5.4,2.1 c-1.6,1.5-2.5,4-2.5,7.7v16.1h-5.1v-40.9h5.1v14.7c2.4-2.6,5.4-4.1,9-4.1c1.8,0,3.7,0.4,5.4,1.3c1.8,0.8,3,2,3.7,3.6 c0.8,1.6,1.1,3.8,1.1,6.7V915.8z"></path> <path class="st1" d="M402.5,917h-7.2v-19.9c0-2.2-0.5-3.7-1.4-4.7c-0.9-1-2.2-1.4-3.9-1.4c-1.7,0-3.2,0.5-4.7,1.8 c-1.3,1.2-2.1,3.5-2.1,6.9V917H376v-43.2h7.3v13.2c2.3-1.8,4.9-2.5,7.9-2.5c2,0,4.1,0.4,5.9,1.3c2,0.9,3.4,2.3,4.3,4.1 c0.8,1.7,1.1,4.1,1.1,7.2V917z M397.5,914.7h2.8V897c0-2.7-0.4-4.8-1-6.3c-0.7-1.3-1.7-2.4-3.2-2.9c-1.6-0.8-3.2-1.2-4.9-1.2 c-3.3,0-6,1.3-8.1,3.7l-2,2.3v-16.6h-2.8v38.6h2.8v-15c0-4.1,0.9-6.9,2.8-8.5c1.7-1.6,3.7-2.4,6.1-2.4c2.5,0,4.3,0.8,5.6,2.3 c1.3,1.3,1.9,3.4,1.9,6.1V914.7z"></path> <path class="st1" d="M431.8,898.1c-0.1-2.9-1.2-5.1-2.7-6.6c-1.8-1.2-3.5-1.9-5.5-1.9c-2.4,0-4.4,0.8-5.8,2.4 c-1.6,1.6-2.4,3.6-2.6,6.1H431.8z M437,902.3h-22.2c0.3,3.1,1.1,5.7,2.8,7.3c1.6,1.8,3.7,2.6,6.3,2.6c1.9,0,3.4-0.5,4.8-1.5 c1.4-1,2.4-2.5,3-4.6l5.1,0.6c-0.8,3.1-2.3,5.5-4.5,7.3c-2.3,1.6-5,2.4-8.4,2.4c-4.5,0-8-1.4-10.5-4c-2.4-2.7-3.6-6.5-3.6-11.2 c0-4.6,1.2-8.4,3.5-11.3c2.4-2.9,5.9-4.5,10.3-4.5c2.2,0,4.2,0.5,6.3,1.6c2,0.9,3.7,2.4,5,4.8C436.3,894,437.1,897.5,437,902.3z"></path> <path class="st1" d="M423.9,917.6c-4.8,0-8.5-1.5-11.3-4.4c-2.5-2.9-4-7.1-4-12c0-4.9,1.4-8.9,3.9-12.1c2.5-3.1,6.3-4.7,11.1-4.7 c2.3,0,4.6,0.6,6.7,1.5c2.3,1.1,4.1,2.7,5.7,5.2c1.5,2.5,2.3,6.1,2.3,11.2v1H416c0.3,2.4,1.1,4.4,2.4,5.7c1.4,1.5,3.1,2.3,5.4,2.3 c1.7,0,3-0.4,4.1-1.3c1.2-0.9,2.1-2.2,2.6-4.1l0.3-0.8l7.5,0.8l-0.4,1.3c-0.9,3.3-2.5,6-5,7.7C430.4,916.6,427.4,917.6,423.9,917.6 z M423.6,886.7c-4,0-7.3,1.4-9.4,4c-2.3,2.6-3.4,6.2-3.4,10.6s1.3,7.8,3.5,10.4c2.3,2.4,5.4,3.7,9.6,3.7c3.1,0,5.7-0.8,7.7-2.3 c1.6-1.3,2.9-3,3.8-5.2l-2.9-0.4c-0.8,1.8-1.9,3.2-3,4.1c-1.6,1.2-3.4,1.9-5.6,1.9c-2.7,0-5.2-1-7.1-2.9c-1.8-2-2.9-4.7-3.1-8.2 l-0.1-1.1h22.3c-0.1-4.1-0.8-7-2-8.9c-1.3-2-2.8-3.5-4.6-4.3C427.5,887.1,425.6,886.7,423.6,886.7z M433.1,899.3h-19.2l0.1-1.2 c0.3-2.8,1.3-5.1,3-6.9c1.7-1.8,3.8-2.6,6.6-2.6c2.3,0,4.2,0.8,6.2,2.2c2,1.6,3,4,3.3,7.4V899.3z M416.4,897h14.2 c-0.4-2.1-1.1-3.5-2.4-4.5c-1.4-1.2-3-1.8-4.7-1.8c-2.1,0-3.7,0.7-4.9,2.1C417.4,893.9,416.7,895.4,416.4,897z"></path> <path class="st1" d="M503.7,915.8h-5.1v-18.6c0-1.4-0.1-2.5-0.3-3.5c-0.2-1-0.7-1.9-1.5-2.5c-0.7-0.8-2-1.2-3.5-1.2 c-2.1,0-3.7,0.7-5.2,2.1c-1.4,1.4-2.2,3.6-2.2,6.7v17.2h-5v-19.1c0-2.6-0.4-4.4-1.4-5.4c-0.8-0.9-2.2-1.4-3.8-1.4 c-2.2,0-3.9,0.8-5.3,2.2c-1.4,1.6-2.2,4.4-2.2,8.4v15.3h-5v-29.5h4.5v4.1h0.1c2.1-3.2,5-4.9,8.9-4.9c2.2,0,4,0.5,5.3,1.4 c1.5,0.9,2.5,2.2,3.1,3.9c2.3-3.4,5.3-5.3,9.2-5.3c3,0,5.3,0.9,6.9,2.5c1.5,1.7,2.3,4.2,2.4,7.5V915.8z"></path> <path class="st1" d="M504.8,917h-7.3v-19.9c0-1.3-0.1-2.3-0.3-3.2c-0.2-0.8-0.6-1.6-1.1-2.2c-0.5-0.5-1.6-0.7-2.8-0.7 c-1.8,0-3,0.5-4.3,1.7c-1.3,1.2-1.9,3.2-1.9,5.9V917h-7.3v-20.4c0-3-0.7-4.1-1.1-4.6c-0.7-0.7-1.7-1-3-1c-1.9,0-3.3,0.5-4.5,1.8 c-0.8,1-1.8,2.9-1.8,7.6V917h-7.4v-31.8h6.9v2.3c2.1-2.1,4.6-2.9,7.8-2.9c2.3,0,4.3,0.5,6,1.4c1.1,0.7,2,1.7,2.5,2.7 c2.4-2.7,5.4-4.1,9.1-4.1c3.2,0,6,0.9,7.6,2.8c1.8,1.8,2.6,4.6,2.6,8.2V917z M499.8,914.7h2.7v-19.1c0-3.1-0.7-5.3-2.1-6.9 c-1.2-1.3-3.2-2.1-6-2.1c-3.6,0-6.3,1.6-8.2,4.7l-1.3,2l-0.8-2.2c-0.5-1.5-1.4-2.6-2.5-3.3c-1.2-0.8-2.8-1.2-4.8-1.2 c-3.5,0-6.2,1.4-7.9,4.4l-0.4,0.4H467l-0.2-1.1v-2.9h-2.3v27.2h2.8v-14.2c0-4.4,0.8-7.3,2.3-9.1c1.6-1.7,3.7-2.6,6.2-2.6 c2,0,3.5,0.7,4.7,1.9c1.2,1.1,1.6,3.1,1.6,6.1v18h2.8v-16.1c0-3.3,0.8-5.9,2.5-7.4c1.6-1.6,3.5-2.4,5.9-2.4c1.9,0,3.3,0.5,4.4,1.6 c0.9,0.9,1.6,2,1.7,3.1c0.2,1.1,0.4,2.3,0.4,3.7V914.7z"></path> <path class="st1" d="M532.4,902.7V901c-2.6,0.9-5.8,1.7-9.7,2.1c-3.7,0.5-5.7,2.2-5.7,4.9c0,1.3,0.6,2.4,1.7,3.3 c1,0.8,2.5,1.3,4.4,1.3c2.5,0,4.6-0.8,6.5-2.2C531.5,908.8,532.4,906.4,532.4,902.7z M539.2,915.8h-5.3c-0.5-1-0.9-2.1-1.1-3.7 c-3.4,2.9-7.1,4.4-10.9,4.4c-3.2,0-5.7-0.8-7.4-2.4c-1.9-1.5-2.7-3.6-2.7-6.1c0-2.5,0.9-4.5,2.6-6.1c1.8-1.7,4.7-2.6,9-3.1l4.7-0.8 c1.7-0.3,3.2-0.7,4.3-1.1c0-1.4,0-2.5-0.2-3c0-0.7-0.3-1.3-0.8-2c-0.4-0.8-1.1-1.3-2.2-1.7c-1-0.4-2.4-0.6-4-0.6 c-2.2,0-3.9,0.4-5.1,1.2c-1.3,0.7-2.2,2.3-2.7,4.4l-4.8-0.6c0.5-3.1,1.9-5.3,4.1-6.8c2.3-1.7,5.3-2.4,9.2-2.4 c3.6,0,6.2,0.6,7.9,1.7c1.6,1.1,2.6,2.4,3,3.9c0.4,1.4,0.6,3.2,0.6,5.7v6.7c0,4.1,0,6.9,0.2,8.2 C537.8,913.1,538.3,914.4,539.2,915.8z"></path> <path class="st1" d="M522,917.6c-3.4,0-6.2-0.9-8.2-2.6c-2.1-1.8-3.1-4-3.1-7c0-2.8,1.1-5.2,3-7c1.9-1.7,5.1-2.8,9.6-3.4l4.8-0.8 c1.3-0.1,2.4-0.3,3.3-0.7c0-1-0.1-1.8-0.2-2.2c0-0.4-0.2-0.9-0.6-1.5c-0.3-0.5-0.9-1-1.7-1.3c-0.9-0.2-2.2-0.5-3.6-0.5 c-2.1,0-3.4,0.4-4.6,1c-0.9,0.7-1.7,2.1-2.1,3.8l-0.2,1.1l-7.2-1l0.2-1.2c0.7-3.3,2.3-5.9,4.7-7.5c2.4-1.7,5.8-2.4,9.8-2.4 c3.8,0,6.6,0.6,8.4,1.7c2,1.3,3.1,2.6,3.6,4.5c0.4,1.6,0.6,3.5,0.6,6.1v6.7c0,4.9,0.1,7.2,0.2,8.1c0.2,1.3,0.6,2.5,1.3,3.7l1,1.8 h-7.8l-0.4-0.7c-0.3-0.7-0.6-1.4-0.8-2.3C528.9,916.5,525.5,917.6,522,917.6z M525.3,888.6c1.8,0,3.2,0.1,4.4,0.6 c1.3,0.6,2.2,1.3,2.7,2.1c0.6,0.8,0.9,1.6,1,2.4c0.1,0.6,0.2,1.7,0.2,3.2v0.8l-0.8,0.4c-1.3,0.4-2.7,0.8-4.5,1.1l-4.7,0.6 c-4.1,0.6-7.1,1.6-8.5,2.9c-1.5,1.4-2.3,3-2.3,5.3c0,2.3,0.9,3.9,2.3,5.3c1.6,1.4,3.8,2.1,6.8,2.1c3.5,0,7-1.3,10.2-4.1l1.6-1.3 l0.2,2c0.2,1.1,0.3,2.1,0.6,2.7h2.8c-0.4-0.9-0.6-2-0.7-2.9c-0.1-1.5-0.3-4.2-0.3-8.3v-6.7c0-2.3-0.1-4.1-0.5-5.6 c-0.4-1.2-1.2-2.2-2.5-3.1c-1.6-0.9-4-1.4-7.4-1.4c-3.6,0-6.5,0.8-8.6,2.1c-1.7,1.3-2.8,2.8-3.4,5.1l2.7,0.2c0.7-1.8,1.6-3.2,2.8-4 C521,889,522.8,888.6,525.3,888.6z M523.1,913.7c-2.2-0.1-3.9-0.6-5.2-1.7c-1.4-1.1-2-2.5-2-4.1c0-2.4,1.3-5.3,6.7-6 c3.8-0.5,7-1.3,9.5-2.1l1.5-0.4v3.2c0,3.9-1.2,6.8-3.3,8.5C528.2,912.8,525.8,913.7,523.1,913.7z M531.4,902.5 c-2.4,0.6-5.1,1.2-8.4,1.6c-4.2,0.7-4.7,2.4-4.7,3.8c0,0.9,0.4,1.8,1.2,2.4c0.8,0.7,2.1,0.9,3.7,1.1c2.2,0,4.1-0.7,5.8-2 s2.4-3.6,2.4-6.8V902.5z"></path> <path class="st1" d="M563.5,887.1l-1.8,4.6c-1.3-0.7-2.5-1.1-3.7-1.1c-1.8,0-3.2,0.8-4.2,2.5c-0.9,1.7-1.5,3.9-1.5,7v15.6h-5v-29.5 h4.5v4.4h0.2c1.6-3.3,3.6-5.2,6.4-5.2C560,885.5,561.7,886.1,563.5,887.1z"></path> <path class="st1" d="M553.5,917h-7.4v-31.8h6.9v1.9c2.8-3.3,7-3.2,11-0.9l0.9,0.5l-2.5,6.8l-1.3-0.7c-2.7-1.6-5.1-1.2-6.5,1.1 c-0.7,1.5-1.2,3.5-1.2,6.4V917z M548.4,914.7h2.8v-14.5c0-3.1,0.5-5.7,1.7-7.5c1.1-2,2.8-3,5.1-3c1.1,0,2.1,0.2,3.1,0.7l0.9-2.6 c-1.3-0.6-2.4-1-3.6-1c-2.2,0-3.9,1.6-5.4,4.5l-0.3,0.6H551l-0.1-1.1v-3.2h-2.5V914.7z"></path> <polygon class="st1" points="593.4,915.8 587.1,915.8 577.3,900.7 573.8,904.1 573.8,915.8 568.7,915.8 568.7,874.9 573.8,874.9 573.8,898.2 585.8,886.3 592.2,886.3 580.9,897.1 "></polygon> <path class="st1" d="M595.6,917h-9l-9.4-14.5l-2.3,2.1V917h-7.3v-43.2h7.3v21.8l10.4-10.4h9.8l-12.6,12.1L595.6,917z M587.8,914.7 h3.5L579.5,897l10-9.6h-3.3L572.6,901v-24.9h-2.7v38.6h2.7v-11.2l4.9-4.5L587.8,914.7z"></path> <path class="st1" d="M629.9,912.3c2.9,0,5.1-1.1,6.6-3.1c1.5-2.1,2.3-4.9,2.3-8.3c0-3.7-0.9-6.6-2.5-8.4c-1.6-1.8-3.7-2.7-6.3-2.7 c-2.4,0-4.6,1-6.2,2.8c-1.8,1.9-2.5,4.6-2.5,8.4s0.8,6.7,2.5,8.5C625.3,911.3,627.4,912.3,629.9,912.3z M629.9,885.5 c4,0,7.4,1.5,10,4c2.6,2.5,3.9,6.3,3.9,11c0,5.9-1.4,10-4.2,12.3c-2.8,2.5-6.2,3.6-9.7,3.6c-3.7,0-7-1.2-9.6-3.6 c-2.8-2.5-4.3-6.5-4.3-11.9c0-5.1,1.5-9,4.1-11.6C622.7,887,625.9,885.5,629.9,885.5z"></path> <path class="st1" d="M629.9,917.6c-3.9,0-7.5-1.4-10.5-4c-2.9-2.6-4.5-7-4.5-12.6c0-5.4,1.5-9.6,4.4-12.3c2.8-2.7,6.4-4.1,10.6-4.1 c4.3,0,7.9,1.4,10.8,4.1c2.8,2.8,4.3,6.9,4.3,11.9c0,6.2-1.6,10.7-4.7,13.3C637.2,916.3,633.7,917.6,629.9,917.6z M629.9,886.7 c-3.6,0-6.7,1.3-9.1,3.6c-2.3,2.3-3.5,5.9-3.5,10.7c0,5,1.2,8.7,3.7,11c2.5,2.3,5.5,3.4,8.9,3.4c3.3,0,6.3-1.2,9-3.4 c2.5-2.1,3.8-6,3.8-11.5c0-4.3-1.3-7.8-3.6-10.2C636.6,887.9,633.6,886.7,629.9,886.7z M629.9,913.5c-2.8,0-5.2-1.2-7-3.2 c-2-2.2-2.8-5.2-2.8-9.3c0-4,0.9-7.1,2.7-9.2c1.9-2.1,4.2-3.1,7.1-3.1c2.8,0,5.2,1,7.2,3c1.9,2.3,2.7,5.2,2.7,9.2 c0,3.7-0.8,6.7-2.3,9C635.6,912.2,633.2,913.5,629.9,913.5z M629.9,890.8c-2.3,0-3.9,0.8-5.4,2.4c-1.4,1.7-2.2,4.3-2.2,7.7 c0,3.6,0.8,6.2,2.2,7.7c1.5,1.8,3.2,2.5,5.5,2.5c2.5,0,4.2-0.9,5.5-2.8c1.5-1.8,2.1-4.3,2.1-7.5c0-3.4-0.7-6-2.2-7.6 S632.1,890.8,629.9,890.8z"></path> <path class="st1" d="M665.9,874.8l-0.8,4.4c-1.1-0.2-2-0.3-2.9-0.3c-1.3,0-2.3,0.3-3,0.7c-0.8,0.6-1.2,1.8-1.2,3.8v2.8h5.8v3.8H658 v25.7h-5v-25.7h-4.5v-3.8h4.5V883c0-1.5,0.2-2.8,0.4-4c0.3-1.3,1.1-2.4,2.3-3.2c1.2-1,3-1.6,5.5-1.6 C662.7,874.2,664.3,874.4,665.9,874.8z"></path> <path class="st1" d="M659.2,917H652v-25.9h-4.6v-6h4.6V883c0-1.7,0-3,0.3-4.2c0.3-1.5,1.3-2.7,2.5-3.9c1.5-1.1,3.4-1.7,6.3-1.8 c1.7,0,3.2,0.3,5,0.6l1.1,0.1l-1.2,6.6l-1.1-0.2c-2.1-0.3-4-0.4-5.1,0.4c-0.1,0.1-0.7,0.6-0.7,2.8v1.8h5.7v6h-5.7V917z M654.2,914.7h2.7V889h5.7v-1.6h-5.7v-4c0-2.4,0.6-4,1.7-4.7c1.4-1,3.4-1.1,5.6-0.8l0.5-2.3c-1.2-0.1-2.3-0.3-3.5-0.3 c-2.2,0.1-3.8,0.5-4.8,1.3c-1.1,0.7-1.7,1.7-1.8,2.6c-0.3,1-0.4,2.3-0.4,3.7v4.4h-4.6v1.6h4.6V914.7z"></path> <path class="st1" d="M248.7,948.1l-1.7,4.6c-1.3-0.8-2.5-1.1-3.7-1.1c-1.9,0-3.2,0.8-4.2,2.5c-1,1.7-1.5,4-1.5,7v15.6h-5.1v-29.5 h4.6v4.4h0.2c1.6-3.4,3.6-5.1,6.3-5.1C245.4,946.5,247,947,248.7,948.1z"></path> <path class="st1" d="M238.7,977.8h-7.3V946h6.8v2c2.9-3.3,7.3-3.2,11.1-0.8l0.8,0.4l-2.4,6.8l-1.2-0.7c-1-0.6-2.1-0.9-3.1-0.9 c-1.5,0-2.5,0.6-3.2,1.9c-0.8,1.5-1.4,3.6-1.4,6.5V977.8z M233.7,975.6h2.8v-14.5c0-3.2,0.5-5.7,1.6-7.4c1.2-2.2,2.9-3.1,5.2-3.1 c1.1,0,2.2,0.3,3,0.7l1-2.6c-1.3-0.6-2.5-1-3.7-1c-2.2,0-3.9,1.5-5.3,4.5l-0.3,0.7h-1.9l-0.1-1.2v-3.2h-2.3V975.6z"></path> <path class="st1" d="M274.6,959.1c-0.1-2.9-1.1-5.1-2.7-6.5c-1.7-1.3-3.4-2-5.5-2c-2.3,0-4.3,0.8-5.8,2.4c-1.6,1.5-2.4,3.6-2.6,6.1 H274.6z M279.9,963.2h-22.3c0.3,3.2,1.2,5.8,2.8,7.5c1.7,1.8,3.8,2.7,6.4,2.7c1.9,0,3.4-0.6,4.9-1.7c1.2-0.9,2.3-2.5,2.9-4.5 l5.1,0.6c-0.8,3.2-2.3,5.5-4.6,7.2c-2.3,1.7-5,2.5-8.3,2.5c-4.5,0-8-1.5-10.5-4.1c-2.5-2.7-3.7-6.5-3.7-11.2 c0-4.7,1.2-8.4,3.5-11.4c2.5-2.8,5.9-4.3,10.3-4.3c2.3,0,4.2,0.5,6.3,1.5c2,0.8,3.7,2.5,5.1,4.7C279.2,955,280,958.6,279.9,963.2z"></path> <path class="st1" d="M266.7,978.6c-4.8,0-8.6-1.5-11.3-4.4c-2.6-2.8-4.1-7-4.1-12c0-4.9,1.3-8.9,3.9-12.1c2.6-3.1,6.4-4.7,11.1-4.7 c2.5,0,4.6,0.5,6.8,1.5c2.2,1.1,4.1,2.8,5.6,5.2c1.6,2.5,2.3,6.2,2.3,11.1v1.2h-22.1c0.2,2.4,1.1,4.3,2.4,5.5 c1.5,1.6,3.2,2.3,5.5,2.3c1.6,0,2.9-0.4,4.1-1.2c1.1-0.9,2-2.2,2.5-4l0.3-1l7.5,1l-0.4,1.2c-0.8,3.3-2.5,6.1-5,7.7 C273.3,977.5,270.3,978.6,266.7,978.6z M266.4,947.6c-4.1,0-7.2,1.3-9.3,3.9c-2.3,2.7-3.4,6.3-3.4,10.7c0,4.3,1.2,7.9,3.4,10.4 c2.4,2.5,5.4,3.7,9.7,3.7c3,0,5.7-0.8,7.7-2.2c1.7-1.4,2.9-3.1,3.7-5.3l-2.9-0.4c-0.7,1.8-1.8,3.2-3,4.1c-1.6,1.3-3.4,1.9-5.5,1.9 c-2.8,0-5.2-1-7.2-2.9c-1.8-2-2.8-4.7-3-8.3l-0.1-1.2h22.3c-0.2-3.8-0.9-6.8-2.1-8.6c-1.2-2.1-2.8-3.6-4.6-4.5 C270.3,948.1,268.4,947.6,266.4,947.6z M275.9,960.2h-19.1V959c0.3-2.7,1.4-5,3-6.9c1.8-1.7,3.8-2.7,6.6-2.7l0,0 c2.3,0.2,4.4,0.9,6.3,2.3c1.9,1.6,2.9,4,3.2,7.4V960.2z M259.2,958h14.2c-0.3-2.1-1-3.5-2.2-4.5c-1.6-1.2-3-1.8-4.9-1.9 c-2.1,0-3.6,0.8-4.9,2.2C260.3,954.9,259.6,956.3,259.2,958z"></path> <path class="st1" d="M304.8,955.5c-0.3-1.6-1-2.8-2-3.7c-1.2-0.7-2.6-1.1-4.6-1.1c-2,0-3.4,0.3-4.7,0.9c-1.2,0.7-1.7,1.7-1.7,2.9 c0,1.1,0.4,2.1,1.4,2.4c0.9,0.5,2.7,1.1,5.6,1.9c3.1,0.8,5.4,1.5,7.1,2.1c1.5,0.7,2.6,1.6,3.5,2.5c0.9,1.1,1.4,2.6,1.4,4.7 c0,2.5-1.1,4.8-3.2,6.6c-2.2,1.9-5.1,2.8-8.7,2.8c-3.8,0-6.7-0.8-8.7-2.5c-2.2-1.5-3.5-3.8-3.9-7l4.9-0.8c0.3,2,1.1,3.5,2.4,4.5 c1.3,1.1,3,1.7,5.4,1.7c2.2,0,3.8-0.5,5-1.5c1.2-0.9,1.9-2.1,1.9-3.3c0-0.9-0.3-1.7-0.9-2.3c-0.6-0.4-1.2-0.8-2-1.1 c-0.9-0.3-2.7-0.8-5.6-1.6c-4.2-0.9-7-2.2-8.2-3.5c-1.4-1.5-2.1-3.1-2.2-5.2c0-2.4,1.1-4.4,3-6.1c2-1.6,4.7-2.4,7.9-2.4 c3.5,0,6.3,0.7,8.3,2.1c1.9,1.4,3.1,3.4,3.5,6.1L304.8,955.5z"></path> <path class="st1" d="M298.8,978.6c-4,0-7.2-1-9.5-2.6c-2.3-1.7-3.7-4.3-4.3-7.8l-0.1-1.2l7.3-1l0.1,1.1c0.2,1.9,0.8,3,1.9,3.9 c1.1,0.8,2.6,1.2,4.7,1.2c1.9,0,3.3-0.3,4.4-1.1c0.8-0.7,1.3-1.6,1.3-2.4c0-0.6-0.1-1-0.5-1.4c-0.4-0.4-1-0.8-1.5-0.9 c-0.6-0.2-2-0.6-5.5-1.5c-4.5-1.2-7.4-2.3-8.9-4c-1.6-1.6-2.3-3.5-2.3-5.9c0-2.8,1.1-5.1,3.3-6.9c2.2-1.9,5.1-2.6,8.6-2.6 c3.8,0,6.8,0.7,8.9,2.2c2.3,1.6,3.5,3.9,4,7l0.2,1.2l-7.3,1l-0.1-1.1c-0.2-1.4-0.7-2.3-1.6-2.9c-0.9-0.6-2.1-1-3.8-1.1 c-1.7,0-3.1,0.3-4.1,0.9c-0.8,0.5-1.2,1.2-1.2,2c0,1,0.4,1.3,0.8,1.5c0.9,0.5,2.5,1,5.4,1.8c3,0.8,5.5,1.6,7.2,2.2 c1.7,0.6,3,1.7,4,2.9c1.1,1.2,1.7,3,1.7,5.3c0,2.9-1.3,5.4-3.7,7.4C305.9,977.5,302.7,978.6,298.8,978.6z M287.4,968.9 c0.6,2.3,1.6,4,3.2,5.3c2,1.4,4.6,2.2,8.1,2.2c3.3,0,6.1-0.9,7.9-2.5c2-1.7,2.8-3.5,2.8-5.8c0-1.8-0.3-2.9-1.1-3.9 c-0.8-1-1.8-1.7-3.1-2.3c-1.6-0.7-3.8-1.3-6.9-2.1c-3.1-0.8-4.9-1.4-5.9-2c-1.3-0.7-2-2-2-3.4c0-1.7,0.9-3,2.4-3.8 c1.4-0.8,3.1-1.3,5.2-1.3c2.3,0.2,3.9,0.6,5.2,1.6c1.1,0.7,1.8,2,2.3,3.3l2.6-0.5c-0.5-2-1.4-3.2-2.8-4.4c-1.8-1.2-4.3-1.8-7.6-1.8 c-3,0-5.5,0.8-7.3,2.2c-1.7,1.5-2.5,3.1-2.5,5.2c0,1.8,0.7,3.1,1.8,4.4c1.2,1.3,3.7,2.3,7.7,3.3c2.9,0.7,4.8,1.2,5.7,1.5 c0.8,0.3,1.7,0.8,2.4,1.5c0.8,0.7,1.1,1.7,1.1,2.9c0,1.7-0.6,3.1-2.2,4.2c-1.3,1.1-3.3,1.7-5.7,1.7c-2.5,0-4.6-0.6-6.1-1.9 c-1.3-0.9-2.2-2.3-2.5-4.2L287.4,968.9z"></path> <path class="st1" d="M331.6,973.4c2.4,0,4.3-1.1,5.8-2.9c1.6-2,2.3-4.8,2.3-8.7c0-3.6-0.8-6.5-2.2-8.3c-1.6-2-3.4-2.8-5.7-2.8 c-2.5,0-4.4,1-6,3.1c-1.5,2.3-2.3,5-2.3,8.4c0,3.7,0.8,6.5,2.3,8.4C327.3,972.3,329.2,973.4,331.6,973.4z M323.7,951 c2.1-2.9,4.8-4.5,8.5-4.5c3.9,0,7.1,1.5,9.2,4.3c2.4,2.6,3.4,6.4,3.4,10.9c0,4.8-1.2,8.6-3.8,11.5c-2.4,2.7-5.5,4.3-9.1,4.3 c-3.2,0-5.7-1.3-7.7-3.8h-0.1v14.4h-5v-40.9h4.6V951L323.7,951z"></path> <path class="st1" d="M325.3,989.2h-7.4V946h6.9v2.1c2-1.9,4.5-2.6,7.4-2.6c4.3,0,7.7,1.5,10.1,4.5c2.4,3.1,3.7,7.1,3.7,11.8 c0,5-1.4,9.2-4.1,12.3c-2.6,3-6,4.5-10,4.6c-2.5,0-4.9-0.8-6.7-2.4V989.2z M320.2,986.9h2.8v-14.4h1.7l0.6,0.5 c1.7,2.2,3.8,3.3,6.7,3.3c3.3,0,6.1-1.4,8.4-3.9c2.3-2.6,3.4-6.3,3.4-10.7c0-4.3-1.1-7.6-3.2-10.3c-2.1-2.6-4.7-3.8-8.3-3.8 c-3.3,0-5.8,1.3-7.5,3.9l-0.2,0.6h-1.9l-0.1-1.1v-2.6h-2.4V986.9z M331.6,974.5c-2.7,0-5-1.1-6.7-3.3c-1.7-2.2-2.4-5.1-2.4-9 c0-3.6,0.9-6.7,2.4-9c1.8-2.5,4.1-3.8,7-3.8c2.5,0,4.8,1.3,6.5,3.4c1.7,2.2,2.4,5.1,2.4,9c0,4.1-0.9,7.2-2.5,9.4 C336.5,973.4,334.3,974.5,331.6,974.5z M331.9,951.5c-2.2,0-3.7,0.9-5.1,2.8c-1.4,2-2.2,4.6-2.2,7.7c0,3.4,0.7,6,2,7.6 c1.3,1.7,2.9,2.4,5,2.4c2,0,3.5-0.7,4.9-2.4c1.4-1.8,2.1-4.5,2.1-8c0-3.4-0.6-6-1.9-7.6C335.3,952.4,333.8,951.5,331.9,951.5z"></path> <path class="st1" d="M365.1,973.4c2.9,0,5.1-1.2,6.6-3.2c1.6-2.1,2.3-4.9,2.3-8.3c0-3.7-0.9-6.6-2.5-8.4c-1.7-1.9-3.8-2.7-6.4-2.7 s-4.5,0.9-6.3,2.8c-1.6,1.9-2.4,4.7-2.4,8.5c0,3.7,0.9,6.6,2.5,8.4C360.6,972.3,362.7,973.3,365.1,973.4z M365.1,946.5 c4,0,7.4,1.3,10.1,3.9c2.5,2.5,3.8,6.3,3.9,11.1c0,5.8-1.5,9.9-4.3,12.3c-2.8,2.4-6.1,3.6-9.7,3.6c-3.7,0-7-1.3-9.8-3.7 c-2.6-2.4-4-6.5-4-11.8c0-5.2,1.4-9.1,3.9-11.7C358,947.8,361.2,946.5,365.1,946.5z"></path> <path class="st1" d="M365.1,978.6L365.1,978.6c-3.9,0-7.4-1.4-10.4-4c-3-2.7-4.5-6.9-4.5-12.5c0-5.5,1.4-9.7,4.3-12.4 c2.8-2.7,6.5-4.1,10.6-4.1c4.4,0,7.9,1.4,10.9,4.1c2.6,2.8,4.2,7,4.2,12c0,6.2-1.6,10.5-4.7,13.1 C372.5,977.2,369.1,978.5,365.1,978.6z M365.1,947.6c-3.6,0-6.7,1.2-9.1,3.6c-2.4,2.3-3.6,5.9-3.6,10.8c0,4.9,1.3,8.6,3.7,10.9 c2.6,2.3,5.5,3.4,9,3.4c3.3,0,6.3-1.2,9-3.4c2.5-2.2,3.9-6,3.9-11.4c0-4.4-1.3-7.8-3.7-10.2C371.9,948.8,368.9,947.6,365.1,947.6z M365.1,974.5c-2.8,0-5.2-1.1-7.1-3.3c-1.9-2.2-2.8-5.2-2.8-9.1c0-4.1,1-7.2,2.8-9.3c1.8-2.2,4.2-3.3,7.1-3.3 c2.9,0,5.3,1.2,7.3,3.2c1.8,2.1,2.6,5.2,2.6,9.2c0,3.7-0.8,6.7-2.5,8.9C370.9,973.2,368.5,974.5,365.1,974.5z M365.1,951.6 c-2.2,0-3.9,0.9-5.4,2.6c-1.6,1.6-2.2,4.2-2.2,7.7c0,3.4,0.6,6.1,2.2,7.6c1.5,1.8,3.2,2.4,5.4,2.4c2.5,0,4.4-0.8,5.7-2.6 c1.4-1.9,2-4.5,2-7.6c0-3.5-0.7-6-2.2-7.6C369.2,952.5,367.4,951.6,365.1,951.6z"></path> <path class="st1" d="M411.4,976.7h-5v-17.9c0-3-0.6-5.1-1.7-6.3c-1.1-1.1-2.5-1.7-4.5-1.7c-1.6,0-2.9,0.4-4.3,1 c-1.3,0.8-2.2,1.9-2.8,3.1c-0.5,1.4-0.8,3.1-0.8,5.6v16.2h-5v-29.5h4.5v4.2h0.2c1-1.7,2.3-2.8,3.8-3.6c1.6-0.9,3.3-1.3,5.5-1.3 c1.5,0,3,0.2,4.6,0.8c1.5,0.7,2.6,1.4,3.5,2.5c0.9,1.1,1.5,2.3,1.7,3.5c0.3,1.3,0.3,3,0.3,5.2V976.7z"></path> <path class="st1" d="M412.6,977.8h-7.4v-19c0-3.4-0.7-4.8-1.2-5.4c-1-1-2.2-1.5-3.8-1.5c-1.4,0-2.5,0.3-3.7,1 c-1.1,0.6-1.9,1.5-2.4,2.5c-0.5,1.2-0.8,2.8-0.8,5.1v17.3h-7.3V946h6.8v2.5c0.8-0.7,1.6-1.3,2.5-1.8c1.7-0.9,3.7-1.3,6-1.3 c1.7,0,3.3,0.2,5,0.8c1.7,0.7,3,1.8,4,2.9c1,1.4,1.6,2.5,1.9,4c0.3,1.3,0.4,3.1,0.4,5.4V977.8z M407.5,975.6h2.8v-17.1 c0-2.1-0.2-3.7-0.3-4.9c-0.2-1.2-0.7-2.2-1.5-3.1c-0.8-1-1.8-1.8-3-2.2c-1.4-0.4-2.8-0.8-4.2-0.8c-2,0-3.5,0.5-5,1.1 c-1.4,0.7-2.5,1.9-3.5,3.2l-0.2,0.5h-1.8l-0.1-1v-3h-2.4v27.2h2.8v-15.1c0-2.6,0.2-4.6,0.9-6.1c0.7-1.5,1.8-2.7,3.3-3.5 c1.5-0.8,3.1-1.2,4.8-1.2c2.3,0,4.1,0.7,5.4,2c1.3,1.4,1.9,3.7,1.9,7.1V975.6z"></path> <path class="st1" d="M437.9,955.5c-0.3-1.6-0.9-2.8-2-3.7c-1.1-0.7-2.5-1.1-4.6-1.1c-1.9,0-3.5,0.3-4.6,0.9 c-1.2,0.7-1.8,1.7-1.8,2.9c0,1.1,0.4,2.1,1.4,2.4c1,0.5,2.7,1.1,5.6,1.9c3.1,0.8,5.5,1.5,7,2.1c1.6,0.7,2.8,1.6,3.6,2.5 c1,1.1,1.4,2.6,1.4,4.7c0,2.5-1.1,4.8-3.1,6.6c-2.3,1.9-5.1,2.8-8.7,2.8c-3.8,0-6.8-0.8-8.8-2.5c-2.1-1.5-3.5-3.8-4-7l5.2-0.8 c0.1,2,0.9,3.5,2.2,4.5c1.3,1.1,3.1,1.7,5.4,1.7c2.2,0,3.9-0.5,5-1.5c1.3-0.9,1.9-2.1,1.9-3.3c0-0.9-0.3-1.7-0.9-2.3 c-0.5-0.4-1.2-0.8-2-1.1c-0.8-0.3-2.7-0.8-5.5-1.6c-4.2-0.9-7-2.2-8.4-3.5c-1.3-1.5-2-3.1-2-5.2c0-2.4,1.1-4.4,2.9-6.1 c2-1.6,4.7-2.4,8-2.4c3.5,0,6.3,0.7,8.2,2.1c2,1.4,3.1,3.4,3.5,6.1L437.9,955.5z"></path> <path class="st1" d="M432,978.6c-4,0-7.3-1-9.5-2.6c-2.4-1.7-3.8-4.3-4.3-7.8l-0.2-1.2l7.3-1l0.1,1.1c0.3,1.9,0.9,3,2,3.9 c1,0.8,2.6,1.2,4.6,1.2c2,0,3.4-0.3,4.3-1.1c1-0.7,1.4-1.6,1.4-2.4c0-0.6-0.1-1-0.4-1.4c-0.5-0.4-1-0.8-1.6-0.9 c-0.9-0.3-2.6-0.8-5.4-1.5c-4.5-1.2-7.5-2.3-8.9-4c-1.7-1.6-2.3-3.5-2.4-5.9c0-2.8,1.2-5.1,3.4-6.9c2.2-1.9,5-2.6,8.7-2.6 c3.6,0,6.7,0.7,8.8,2.2c2.3,1.6,3.6,3.9,4,7l0.2,1.2l-7.2,1l-0.2-1.1c-0.1-1.4-0.7-2.3-1.5-2.9c-0.9-0.6-2.2-1-3.9-1.1 c-1.7,0-3,0.3-4,0.9c-0.9,0.5-1.3,1.2-1.3,2c0,0.9,0.4,1.3,0.9,1.5c0.8,0.5,2.5,1.1,5.3,1.8c3.2,0.8,5.5,1.6,7.1,2.2 c1.9,0.6,3.1,1.7,4.2,2.9c1.1,1.2,1.5,3,1.5,5.3c0,2.9-1.2,5.4-3.6,7.4C438.9,977.5,435.9,978.6,432,978.6z M420.5,968.9 c0.7,2.3,1.7,4,3.2,5.3c2,1.4,4.7,2.2,8.2,2.2c3.3,0,6-0.9,7.9-2.5c1.8-1.7,2.8-3.5,2.8-5.8c0-1.8-0.4-3.1-1.1-3.9 c-0.8-1-1.9-1.7-3.2-2.3c-1.5-0.7-3.8-1.3-6.8-2.1c-3.1-0.8-4.9-1.4-6-2c-1.3-0.6-2-2-2-3.4c0-1.8,0.9-3,2.3-3.8 c1.4-0.8,3.1-1.3,5.2-1.3c2.3,0.2,4,0.6,5.3,1.6c1,0.7,1.8,2,2.2,3.3l2.7-0.5c-0.6-2-1.5-3.2-2.9-4.4c-1.8-1.2-4.3-1.8-7.5-1.8 c-3.1,0-5.6,0.8-7.3,2.2c-1.8,1.5-2.5,3.1-2.5,5.2c0,1.8,0.5,3.1,1.7,4.4c1.2,1.2,3.8,2.3,7.7,3.3c2.9,0.7,4.8,1.2,5.6,1.5 c1,0.3,1.8,0.8,2.5,1.5c0.7,0.7,1.1,1.7,1.1,2.9c0,1.7-0.8,3.1-2.3,4.3c-1.4,1-3.3,1.6-5.7,1.6c-2.5,0-4.6-0.6-6.1-1.9 c-1.3-0.9-2.1-2.3-2.5-4.2L420.5,968.9z"></path> <path class="st1" d="M457.2,941.5h-5V936h5V941.5z M457.2,976.7h-5v-29.5h5V976.7z"></path> <path class="st1" d="M458.3,977.8H451V946h7.4V977.8z M453.3,975.6h2.8v-27.2h-2.8V975.6z M458.3,942.7H451v-7.9h7.4V942.7z M453.3,940.4h2.8v-3.2h-2.8V940.4z"></path> <path class="st1" d="M479.7,973.4c2.4,0,4.2-1.1,5.7-3c1.6-2,2.4-4.8,2.4-8.4c0-3.4-0.7-6.2-2.1-8.2c-1.5-2.1-3.4-3-5.9-3 c-2.4,0-4.3,1-5.8,3.1c-1.6,2.1-2.3,4.8-2.3,7.9s0.3,5.4,1,6.7c0.5,1.4,1.5,2.5,2.7,3.4C476.6,972.9,478,973.4,479.7,973.4z M472.3,950.6c1.9-2.7,4.5-4,8-4c3.8,0,6.9,1.5,9.1,4.1c2.3,2.7,3.5,6.5,3.5,10.9c0,5-1.4,9-3.9,11.9c-2.5,2.6-5.6,4.1-8.9,4.1 c-3.5,0-6.3-1.6-8.2-4.5l0,0v3.7h-4.8V936h5.1v14.6H472.3z"></path> <path class="st1" d="M480.1,978.6L480.1,978.6c-2.8,0-5.3-1-7.2-2.6v1.9h-6.9v-43h7.2v13c2-1.6,4.2-2.4,7.1-2.4 c4.2,0,7.5,1.5,10.1,4.5c2.4,2.9,3.6,6.9,3.6,11.6c0,5.4-1.4,9.6-4.1,12.6C487.1,977,483.8,978.5,480.1,978.6z M470.7,971.8h1.7 l0.5,0.5c1.8,2.6,4,4,7.3,4c3.1,0,5.8-1.4,8.1-3.7c2.4-2.5,3.5-6.4,3.5-11.1c0-4.2-1.1-7.5-3.1-10.1c-2.2-2.6-4.9-3.8-8.3-3.8 c-3.1,0-5.5,1.2-7.1,3.6l-0.4,0.4h-1.8l-0.1-1.1v-13.4h-2.7v38.5h2.4V971.8z M479.7,974.5c-2,0-3.5-0.6-4.9-1.8 c-1.5-1.1-2.5-2.4-3.1-3.8c-0.7-1.5-1.1-3.7-1.1-7.2c0.1-3.4,0.9-6.4,2.4-8.6c1.8-2.5,4-3.7,6.8-3.7l0,0c2.8,0.2,5.1,1.3,6.8,3.7 c1.5,2.2,2.3,5.1,2.3,8.8c0,3.8-0.9,7-2.4,9.1C484.6,973.3,482.3,974.5,479.7,974.5z M479.8,951.6c-2.1,0-3.6,0.9-5,2.8 c-1.3,1.9-1.9,4.3-2,7.3c0,2.9,0.3,5,0.8,6.3c0.6,1,1.4,2.1,2.5,3c1,0.8,2.2,1.1,3.5,1.1c2,0,3.5-0.7,4.8-2.4 c1.4-1.9,2.2-4.4,2.2-7.7c0-3.2-0.7-5.8-2-7.6C483.4,952.5,482,951.7,479.8,951.6z"></path> <rect x="501.2" y="936" class="st1" width="5.1" height="40.8"></rect> <path class="st1" d="M507.4,977.8h-7.3v-43h7.3V977.8z M502.4,975.6h2.7v-38.5h-2.7V975.6z"></path> <path class="st1" d="M536.8,959.1c-0.1-2.9-1.1-5.1-2.8-6.5c-1.7-1.3-3.4-2-5.4-2c-2.5,0-4.3,0.8-6,2.4c-1.5,1.5-2.4,3.6-2.6,6.1 H536.8z M541.9,963.2h-22.2c0.2,3.2,1.2,5.8,2.8,7.5c1.7,1.8,3.7,2.7,6.3,2.7c1.9,0,3.4-0.6,4.8-1.7c1.3-0.9,2.3-2.5,3-4.5l5.2,0.6 c-1,3.2-2.5,5.5-4.7,7.2c-2.2,1.7-5,2.5-8.3,2.5c-4.5,0-7.9-1.5-10.5-4.1c-2.4-2.7-3.7-6.5-3.8-11.2c0-4.7,1.3-8.4,3.7-11.4 c2.4-2.8,5.8-4.3,10.3-4.3c2.2,0,4.2,0.5,6.2,1.5c2.1,0.8,3.7,2.5,5.1,4.7C541.3,955,541.9,958.6,541.9,963.2z"></path> <path class="st1" d="M528.8,978.6c-4.9,0-8.6-1.5-11.4-4.4c-2.6-2.8-4-7-4-12c0-4.9,1.4-8.9,3.9-12.1c2.5-3.1,6.5-4.7,11.2-4.7 c2.3,0,4.5,0.5,6.7,1.5c2.2,1.1,4.1,2.8,5.6,5.2c1.6,2.5,2.4,6.2,2.3,11.1v1.2h-22c0.3,2.4,1.1,4.3,2.3,5.5 c1.6,1.6,3.3,2.3,5.6,2.3c1.7,0,3-0.4,4.1-1.2c1.1-0.9,2-2.2,2.6-4.1l0.3-0.9l7.4,1l-0.4,1.3c-0.9,3.2-2.5,6-5,7.6 C535.4,977.5,532.2,978.6,528.8,978.6z M528.5,947.6c-4.1,0-7.3,1.3-9.5,3.9c-2.2,2.7-3.3,6.3-3.3,10.7c0,4.3,1.2,7.9,3.5,10.4 c2.2,2.4,5.5,3.7,9.6,3.7c3,0,5.7-0.8,7.7-2.2c1.7-1.4,2.9-3.1,3.7-5.3l-2.9-0.4c-0.7,1.8-1.8,3.2-3.1,4.1 c-1.4,1.3-3.3,1.9-5.4,1.9c-2.8,0-5.3-1-7.1-2.9c-2-2-2.9-4.7-3.1-8.3l-0.1-1.2h22.2c-0.1-3.8-0.7-6.8-1.9-8.6 c-1.4-2.1-2.8-3.6-4.7-4.5C532.4,948.1,530.5,947.6,528.5,947.6z M537.9,960.2h-19.2l0.2-1.2c0.3-2.7,1.3-5,3-6.9 c1.6-1.7,3.8-2.7,6.6-2.7l0,0c2.3,0.2,4.3,0.9,6.2,2.3c2,1.6,3,4,3.1,7.4L537.9,960.2z M521.3,958h14.2c-0.2-2.1-1-3.5-2.2-4.5 c-1.5-1.2-3-1.8-4.8-1.9c-2.1,0-3.7,0.8-5.1,2.2C522.3,954.9,521.7,956.3,521.3,958z"></path> <path class="st1" d="M582.4,935.8l-0.8,4.3c-1.1-0.1-2-0.2-2.9-0.2c-1.3,0-2.3,0.2-3,0.7c-0.8,0.5-1.1,1.8-1.1,3.8v2.8h5.7v3.8 h-5.7v25.7h-5.1V951H565v-3.8h4.5V944c0-1.5,0.2-2.8,0.4-4c0.3-1.3,1.1-2.3,2.3-3.2c1.3-1,3-1.5,5.5-1.5 C579.2,935.3,580.8,935.4,582.4,935.8z"></path> <path class="st1" d="M575.7,977.8h-7.3v-25.7h-4.5V946h4.5V944c0-1.5,0.1-2.9,0.4-4.2c0.4-1.6,1.3-2.7,2.6-3.9 c1.4-1.2,3.4-1.7,6.2-1.8c1.6,0,3.1,0.2,5,0.5l1,0.2l-1.1,6.7l-1.2-0.3c-1.8-0.3-3.9-0.4-5,0.4c-0.1,0-0.7,0.5-0.7,2.8v1.7h5.7v6.1 h-5.7V977.8z M570.7,975.6h2.7V950h5.8v-1.6h-5.8v-4c0-2.4,0.6-4,1.7-4.7c1.5-1,3.6-1.1,5.7-0.9l0.3-2.2c-1.1-0.2-2.3-0.3-3.4-0.3 c-2.1,0-3.8,0.5-4.8,1.2c-1,0.8-1.6,1.7-1.9,2.6c-0.2,1.3-0.3,2.5-0.3,3.8v4.4h-4.5v1.6h4.5V975.6z"></path> <path class="st1" d="M598.6,973.4c2.8,0,5-1.2,6.6-3.2c1.5-2.1,2.3-4.9,2.3-8.3c0-3.7-0.9-6.6-2.4-8.4c-1.8-1.9-3.8-2.7-6.4-2.7 c-2.5,0-4.6,0.9-6.3,2.8c-1.6,1.9-2.4,4.7-2.4,8.5c0,3.7,0.9,6.6,2.4,8.4C594,972.3,596.1,973.3,598.6,973.4z M598.6,946.5 c4,0,7.4,1.3,10,3.9c2.6,2.5,3.9,6.3,3.9,11.1c0,5.8-1.4,9.9-4.2,12.3c-2.8,2.4-6.1,3.6-9.7,3.6c-3.7,0-7.1-1.3-9.8-3.7 c-2.7-2.4-4.1-6.5-4.1-11.8c0-5.2,1.4-9.1,4-11.7C591.4,947.8,594.7,946.5,598.6,946.5z"></path> <path class="st1" d="M598.6,978.6L598.6,978.6c-4,0-7.4-1.4-10.4-4c-3.1-2.7-4.6-6.9-4.6-12.5c0-5.5,1.5-9.7,4.4-12.4 c2.8-2.7,6.4-4.1,10.6-4.1c4.3,0,7.9,1.4,10.8,4.1c2.7,2.8,4.3,7,4.3,12c0,6.2-1.7,10.5-4.7,13.1 C605.9,977.2,602.4,978.5,598.6,978.6z M598.6,947.6c-3.7,0-6.7,1.2-9.1,3.6c-2.4,2.3-3.6,5.9-3.6,10.8c0,4.9,1.3,8.6,3.7,10.9 c2.6,2.3,5.5,3.4,9,3.4c3.3,0,6.3-1.2,8.9-3.4c2.6-2.2,4-6,4-11.4c0-4.4-1.3-7.8-3.7-10.2C605.5,948.8,602.2,947.6,598.6,947.6z M598.6,974.5c-2.8,0-5.2-1.1-7.1-3.3c-1.9-2.2-2.8-5.2-2.8-9.1c0-4.1,1-7.2,2.8-9.3c1.8-2.2,4.2-3.3,7.1-3.3 c2.8,0,5.2,1.2,7.2,3.2c1.8,2.1,2.8,5.2,2.8,9.2c0,3.7-0.9,6.7-2.5,8.9C604.4,973.2,601.8,974.5,598.6,974.5z M598.6,951.6 c-2.3,0-4,0.9-5.4,2.6c-1.6,1.6-2.3,4.2-2.3,7.7c0,3.4,0.7,6.1,2.3,7.6c1.4,1.8,3.2,2.4,5.4,2.4c2.5,0,4.4-0.8,5.7-2.6 c1.3-1.9,2-4.5,2-7.6c0-3.4-0.7-6-2.2-7.6C602.6,952.5,600.8,951.6,598.6,951.6z"></path> <path class="st1" d="M636.6,948.1l-1.8,4.6c-1.3-0.8-2.4-1.1-3.6-1.1c-2,0-3.3,0.8-4.2,2.5c-1,1.7-1.6,4-1.6,7v15.6h-5v-29.5h4.6 v4.4h0.1c1.6-3.4,3.7-5.1,6.4-5.1C633.2,946.5,634.9,947,636.6,948.1z"></path> <path class="st1" d="M626.6,977.8h-7.3V946h6.8v2c2.9-3.3,7.2-3.2,11.1-0.8l0.8,0.4l-2.6,6.8l-1-0.7c-1.1-0.6-2.2-0.9-3.1-0.9 c-1.6,0-2.5,0.6-3.3,1.9c-0.9,1.5-1.3,3.6-1.3,6.5V977.8z M621.6,975.6h2.7v-14.5c0-3.2,0.6-5.7,1.7-7.4c1.6-3,4.9-3.9,8.2-2.4 l1-2.6c-1.3-0.6-2.5-1-3.7-1c-2.3,0-4,1.5-5.4,4.5l-0.2,0.7h-2l-0.1-1.2v-3.2h-2.3V975.6z"></path> <path class="st1" d="M662.6,959.1c-0.3-2.9-1.2-5.1-2.8-6.5c-1.7-1.3-3.5-2-5.5-2c-2.3,0-4.3,0.8-5.9,2.4c-1.6,1.5-2.4,3.6-2.6,6.1 H662.6z M667.7,963.2h-22.2c0.2,3.2,1.2,5.8,2.9,7.5c1.6,1.8,3.6,2.7,6.2,2.7c1.9,0,3.5-0.6,4.8-1.7c1.3-0.9,2.3-2.5,2.9-4.5 l5.3,0.6c-0.9,3.2-2.4,5.5-4.6,7.2c-2.3,1.7-5.2,2.5-8.4,2.5c-4.5,0-7.9-1.5-10.4-4.1c-2.5-2.7-3.8-6.5-3.8-11.2 c0-4.7,1.2-8.4,3.6-11.4c2.5-2.8,5.8-4.3,10.3-4.3c2.2,0,4.2,0.5,6.3,1.5c2,0.8,3.6,2.5,5.1,4.7C667,955,667.7,958.6,667.7,963.2z"></path> <path class="st1" d="M654.6,978.6c-4.8,0-8.5-1.5-11.2-4.4c-2.8-2.8-4.1-7-4.1-12c0-4.9,1.2-8.9,3.8-12.1c2.6-3.1,6.5-4.7,11.2-4.7 c2.4,0,4.5,0.5,6.8,1.5c2.2,1.1,4,2.8,5.5,5.2c1.6,2.5,2.3,6.2,2.3,11.1v1.2h-22.1c0.3,2.4,1.2,4.3,2.4,5.5 c1.5,1.6,3.2,2.3,5.5,2.3c1.7,0,3-0.4,4.1-1.2c1.2-0.9,2.1-2.2,2.6-4.1l0.3-0.9l7.4,1l-0.3,1.3c-1,3.2-2.6,6-5.1,7.6 C661.1,977.5,658.2,978.6,654.6,978.6z M654.3,947.6c-4.1,0-7.3,1.3-9.4,3.9c-2.3,2.7-3.4,6.3-3.4,10.7c0,4.3,1.2,7.9,3.5,10.4 c2.3,2.4,5.5,3.7,9.6,3.7c3,0,5.7-0.8,7.7-2.2c1.7-1.4,2.9-3.1,3.8-5.3l-3-0.4c-0.8,1.8-1.8,3.2-3,4.1c-1.5,1.3-3.3,1.9-5.5,1.9 c-2.7,0-5.2-1-7.1-2.9c-1.9-2-2.8-4.7-3.1-8.3l-0.1-1.2h22.2c-0.1-3.8-0.6-6.8-1.9-8.6c-1.3-2.1-2.8-3.6-4.6-4.5 C658.2,948.1,656.2,947.6,654.3,947.6z M663.8,960.2h-19.3l0.2-1.2c0.3-2.7,1.3-5,2.9-6.9c1.7-1.7,4-2.7,6.7-2.7l0,0 c2.3,0.2,4.3,0.9,6.2,2.3c1.9,1.6,3,4,3.1,7.4L663.8,960.2z M647,958h14.3c-0.3-2.1-1.1-3.5-2.3-4.5c-1.5-1.2-3-1.8-4.8-1.9 c-2.2,0-3.7,0.8-5.1,2.2C648.1,954.9,647.4,956.3,647,958z"></path> <path class="st1" d="M692.6,955.5c-0.3-1.6-0.9-2.8-2-3.7c-1.2-0.7-2.5-1.1-4.5-1.1c-2.1,0-3.4,0.3-4.7,0.9 c-1.1,0.7-1.8,1.7-1.8,2.9c0,1.1,0.5,2.1,1.4,2.4c0.9,0.5,2.8,1.1,5.6,1.9c3.1,0.8,5.6,1.5,7.1,2.1c1.5,0.7,2.7,1.6,3.6,2.5 c0.8,1.1,1.2,2.6,1.2,4.7c0,2.5-1,4.8-3.1,6.6c-2.2,1.9-5.1,2.8-8.6,2.8c-3.8,0-6.8-0.8-8.8-2.5c-2.2-1.5-3.3-3.8-3.9-7l5-0.8 c0.3,2,1,3.5,2.3,4.5c1.3,1.1,3.1,1.7,5.4,1.7c2.3,0,3.9-0.5,5.1-1.5c1.2-0.9,1.7-2.1,1.7-3.3c0-0.9-0.3-1.7-0.8-2.3 c-0.4-0.4-1.2-0.8-2-1.1c-0.9-0.3-2.6-0.8-5.5-1.6c-4.3-0.9-7-2.2-8.3-3.5c-1.4-1.5-2.1-3.1-2.1-5.2c0-2.4,1-4.4,3-6.1 c1.9-1.6,4.5-2.4,7.8-2.4c3.6,0,6.4,0.7,8.3,2.1c2,1.4,3.1,3.4,3.5,6.1L692.6,955.5z"></path> <path class="st1" d="M686.7,978.6c-4,0-7.2-1-9.5-2.6c-2.3-1.7-3.8-4.3-4.3-7.8l-0.3-1.2l7.4-1l0.1,1.1c0.3,1.9,0.8,3,1.9,3.9 c1.2,0.8,2.6,1.2,4.7,1.2c2,0,3.4-0.3,4.4-1.1c0.9-0.7,1.3-1.6,1.3-2.4c0-0.6-0.1-1-0.5-1.4c-0.4-0.4-0.9-0.8-1.6-0.9 c-0.8-0.3-2.5-0.8-5.4-1.5c-4.4-1.2-7.4-2.3-8.9-4c-1.5-1.6-2.3-3.5-2.4-5.9c0-2.8,1.2-5.1,3.4-6.9c2.2-1.9,5.1-2.6,8.6-2.6 c3.8,0,6.7,0.7,8.9,2.2c2.3,1.6,3.5,3.9,4.1,7l0.1,1.2l-7.1,1l-0.2-1.1c-0.2-1.4-0.7-2.3-1.6-2.9c-0.9-0.6-2.2-1-3.8-1.1 c-1.8,0-3.1,0.3-4.2,0.9c-0.8,0.5-1.1,1.2-1.2,2c0,1,0.4,1.3,0.8,1.5c0.8,0.5,2.5,1,5.4,1.8c3.1,0.8,5.6,1.6,7.1,2.2 c1.8,0.7,3.2,1.7,4.1,2.9c1.1,1.2,1.6,3,1.6,5.3c0,2.9-1.2,5.4-3.6,7.4C693.8,977.5,690.5,978.6,686.7,978.6z M675.1,968.9 c0.7,2.5,1.8,4,3.4,5.3c1.9,1.4,4.6,2.2,8.1,2.2c3.4,0,5.9-0.9,7.9-2.5c1.9-1.7,2.8-3.5,2.8-5.8c0-1.8-0.4-3.1-1.1-3.9 c-0.8-1-1.8-1.7-3.2-2.3c-1.5-0.7-3.7-1.3-6.8-2.1c-3.1-0.8-4.9-1.4-5.9-2c-1-0.5-2.1-1.4-2.1-3.4c0.1-1.8,0.9-3,2.4-3.8 c1.5-0.8,3.1-1.3,5.3-1.3c2.1,0.2,3.9,0.6,5.2,1.6c1,0.7,1.8,2,2.2,3.3l2.7-0.5c-0.5-2-1.5-3.2-2.8-4.4c-1.9-1.2-4.3-1.8-7.7-1.8 c-2.9,0-5.4,0.8-7.3,2.2c-1.7,1.5-2.5,3.1-2.5,5.2c0.1,1.8,0.7,3.1,1.8,4.4c1.2,1.2,3.8,2.3,7.8,3.3c2.8,0.7,4.7,1.2,5.5,1.5 c1,0.3,1.8,0.8,2.4,1.5c0.8,0.7,1.2,1.7,1.2,2.9c0,1.7-0.8,3.1-2.3,4.2c-1.4,1.1-3.2,1.7-5.7,1.7c-2.5,0-4.6-0.6-6.1-1.9 c-1.3-0.9-2.1-2.3-2.5-4.2L675.1,968.9z"></path> <path class="st1" d="M718.5,976.7c-1.5,0.3-2.8,0.5-3.7,0.5c-2.3,0-3.8-0.5-4.9-1.3c-1-0.8-1.6-1.7-1.8-2.9 c-0.2-1.2-0.4-2.8-0.4-4.9V951h-3.6v-3.8h3.6v-7.4l5-3v10.4h5.1v3.8h-5.1v17.3c0,1.4,0.1,2.5,0.5,3.1c0.3,0.6,1.1,0.9,2.3,0.9 c0.8,0,1.6-0.1,2.3-0.3L718.5,976.7z"></path> <path class="st1" d="M714.7,978.2c-2.5,0-4.4-0.4-5.6-1.4c-1.2-0.9-1.9-2.2-2.3-3.6c-0.2-1.3-0.3-2.9-0.3-5.1v-16h-3.7V946h3.7 v-6.9l7.3-4.4V946h5v6.1h-5v16.3c0,1.8,0.2,2.3,0.3,2.6c0,0,0.5,0.3,1.4,0.3c0.7,0,1.3,0,2.1-0.2l1.1-0.2l1.1,6.6l-1.1,0.2 C717.2,978,715.8,978.2,714.7,978.2z M705.1,950h3.7v18.1c0,2.1,0.1,3.6,0.3,4.7c0.2,1,0.6,1.8,1.4,2.3c0.9,0.7,2.2,0.9,4.2,0.9 c0.7,0,1.5,0,2.4-0.2l-0.4-2.3c-0.4,0-0.8,0-1.4,0c-1.6,0-2.7-0.5-3.2-1.6c-0.4-0.6-0.6-1.9-0.6-3.5V950h5.1v-1.6h-5.1v-9.7 l-2.7,1.7v8h-3.7V950z"></path> <path class="st1" d="M741,948.1l-1.7,4.6c-1.3-0.8-2.4-1.1-3.7-1.1c-1.9,0-3.2,0.8-4.2,2.5c-1,1.7-1.6,4-1.6,7v15.6h-5v-29.5h4.7 v4.4l0,0c1.7-3.4,3.7-5.1,6.3-5.1C737.6,946.5,739.3,947,741,948.1z"></path> <path class="st1" d="M731,977.8h-7.3V946h6.9v2c2.8-3.3,7.2-3.2,11-0.8l0.7,0.4l-2.4,6.8l-1.1-0.7c-1.1-0.6-2.1-0.9-3.1-0.9 c-1.5,0-2.5,0.6-3.2,1.9c-1,1.6-1.4,3.7-1.4,6.5V977.8z M726,975.6h2.7v-14.5c0-3.1,0.6-5.7,1.6-7.4c1.3-2.2,2.9-3.1,5.3-3.1 c1.1,0,2.1,0.3,3,0.7l1-2.6c-1.3-0.6-2.4-1-3.8-1c-2.1,0-3.8,1.5-5.2,4.5l-0.4,0.7h-1.8l-0.2-1.2v-3.2H726V975.6z"></path> <path class="st1" d="M770.7,947.2l-11.4,30.1v0.1c-1.1,3.3-2.5,6.1-3.8,8.2c-1.5,2.1-3.4,3.1-6.2,3.1c-0.9,0-2-0.2-3.2-0.6 l-0.6-4.8c1.1,0.3,2,0.4,2.8,0.4c2,0,3.2-0.5,3.9-1.4c0.7-1.1,1.5-2.9,2.5-5.6l-11.3-29.6h5.4l7,19.3c0.4,1.2,1,2.7,1.4,4.6h0.1 c0.5-2.2,1.2-4.2,1.8-6.2l6.6-17.7H770.7z"></path> <path class="st1" d="M749.3,989.8c-1,0-2.3-0.2-3.5-0.6L745,989l-0.8-7.1l1.7,0.5c0.9,0.2,1.7,0.4,2.4,0.4c1.6,0,2.5-0.4,3-1.2 c0.6-0.9,1.4-2.4,2.2-4.8L741.8,946h7.9l7.2,20.1c0.1,0.2,0.2,0.6,0.3,0.9c0.3-0.9,0.6-1.6,0.9-2.4l6.7-18.5h7.6l-12,31.5 c-1.2,3.7-2.4,6.6-3.9,8.6C754.8,988.6,752.4,989.8,749.3,989.8z M747.1,987.2c0.9,0.3,1.7,0.4,2.3,0.4c2.4,0,3.9-1,5.2-2.6 c1.5-2,2.6-4.6,3.7-7.8l0.2-0.4l10.7-28.3h-2.7l-6.3,17c-0.7,1.9-1.3,3.7-1.7,6.1l-0.3,0.8h-1.8l-0.3-0.8c-0.5-2.1-0.9-3.4-1.3-4.5 l-6.7-18.5H745l10.9,28.4l-0.2,0.4c-0.9,2.7-1.8,4.7-2.5,5.8c-0.9,1.4-2.5,2-4.8,2c-0.5,0-1,0-1.6-0.1L747.1,987.2z"></path> </g> </svg> 