<?xml version="1.0" encoding="UTF-8"?> <!-- Generator: Adobe Illustrator 24.1.3, SVG Export Plug-In . SVG Version: 6.00 Build 0) --> <svg xmlns="http://www.w3.org/2000/svg" xmlns:xlink="http://www.w3.org/1999/xlink" version="1.1" id="Layer_1" x="0px" y="0px" viewBox="0 0 1000 1000" style="enable-background:new 0 0 1000 1000;" xml:space="preserve"> <style type="text/css"> .st0{fill:#00BCF1;} .st1{fill:#FFFFFF;} .st2{fill:#8BC53F;} .st3{fill:#6C8BC6;} .st4{fill:#231F20;} </style> <g> <path class="st0" d="M493.1,30.5c29.6,74.6,65.7,124.2,106.3,162.8l4.9,453c-48.4,47.1-79.2,102.7-104.9,167.7L493.1,30.5z"></path> <polygon class="st1" points="528.2,291.4 571.6,306.3 571.6,232.4 526.5,192.1 "></polygon> <polygon class="st1" points="534.5,286.7 565.2,297.2 565.2,235.7 533.2,206.9 "></polygon> <polygon class="st1" points="531,456 571.7,456.7 571.7,375.7 564.1,374.8 562.6,374.8 560.8,374.4 559.1,374.1 557.7,373.9 556,373.3 554.3,372.8 552.8,372.1 551.1,371.5 549.7,371.1 548,370 546.3,369 544.5,368.1 542.9,367.2 541.2,366 529.3,358 "></polygon> <path class="st1" d="M535.9,370.2c9.9,6.8,19.6,11,29.3,11.6v68.4l-28.2-0.7L535.9,370.2z"></path> <polygon class="st1" points="531.1,641.7 571.6,628.9 571.6,547.1 562.9,548.1 561.5,548.1 559.6,548.1 558,548.1 556.1,548.1 554.5,548.1 552.8,547.9 551.1,547.9 549.4,547.5 547.8,547.1 546.3,547 544.5,546.8 542.6,546.3 541.1,546 539.3,545.4 529.3,542.9 "></polygon> <path class="st1" d="M535.9,551.5c9.9,2.9,19.6,3.9,29.3,3.1v69.3l-28.2,8.6L535.9,551.5z"></path> <polygon class="st1" points="402.5,232.4 402.5,306.3 445.9,291.4 447.8,192.1 "></polygon> <polygon class="st1" points="408.9,235.5 408.9,297.3 439.6,286.6 440.7,206.7 "></polygon> <polygon class="st1" points="433,366 431.3,367.2 429.6,368.1 427.8,369.1 426.3,370 424.5,370.8 423,371.5 421.4,372.1 419.8,372.6 418.3,373.3 416.6,373.9 414.8,374.1 413.2,374.4 411.9,374.8 410,374.8 402.5,375.5 402.5,456.7 443.5,456 444.8,358 "></polygon> <path class="st1" d="M438.4,370.2c-10,6.8-19.6,11-29.5,11.6v68.4l28-0.7L438.4,370.2z"></path> <polygon class="st1" points="434.9,545.7 433.2,546 431.4,546.6 429.7,546.8 428,547 426.5,547.3 424.8,547.5 423,547.9 421.1,547.9 419.8,547.9 417.9,548.1 416.3,548.1 414.7,548.1 412.8,548.1 411.3,547.9 402.5,547.3 402.5,628.7 443.5,641.7 444.8,542.9 "></polygon> <path class="st1" d="M438.4,551.5c-10,2.9-19.6,3.9-29.5,3.1v69.3l28,8.6L438.4,551.5z"></path> <path class="st2" d="M498.1,901.1c2.2-62.4,21.2-112.5,46.9-156.3c46.6-79.8,90.9-100.9,136.6-153c31.8-36.3,50.8-84.2,60.6-131.8 c43,104.4,31,216.1-45.4,299.7C632.6,830.1,541.7,866.3,498.1,901.1"></path> <path class="st2" d="M612.7,206.6c0,143.8,2.2,289.9,2.2,433.6c14.9-29.7,77.5-56.5,102.2-136.4c23.6-75.8,0.9-145.8-37.9-212.2 C661.7,261.6,640,233.3,612.7,206.6"></path> <polygon class="st1" points="528.2,291.4 571.6,306.3 571.6,232.4 526.5,192.1 "></polygon> <polygon class="st3" points="534.5,286.7 565.2,297.2 565.2,235.7 533.2,206.9 "></polygon> <polygon class="st1" points="531,456 571.7,456.7 571.7,375.7 564.1,374.8 562.6,374.8 560.8,374.4 559.1,374.1 557.7,373.9 556,373.3 554.3,372.8 552.8,372.1 551.1,371.5 549.7,371.1 548,370 546.3,369 544.5,368.1 542.9,367.2 541.2,366 529.3,358 "></polygon> <path class="st3" d="M535.9,370.2c9.9,6.8,19.6,11,29.3,11.6v68.4l-28.2-0.7L535.9,370.2z"></path> <polygon class="st1" points="531.1,641.7 571.6,628.9 571.6,547.1 562.9,548.1 561.5,548.1 559.6,548.1 558,548.1 556.1,548.1 554.5,548.1 552.8,547.9 551.1,547.9 549.4,547.5 547.8,547.1 546.3,547 544.5,546.8 542.6,546.3 541.1,546 539.3,545.4 529.3,542.9 "></polygon> <path class="st3" d="M535.9,551.5c9.9,2.9,19.6,3.9,29.3,3.1v69.3l-28.2,8.6L535.9,551.5z"></path> <path class="st2" d="M476.1,901.1c-2.2-62.4-21.2-112.5-46.9-156.3c-46.5-79.8-90.6-100.9-136.6-153 c-31.9-36.3-50.8-84.2-60.6-131.8c-43,104.4-30.9,216.1,45.3,299.7C341.4,830.1,432.4,866.3,476.1,901.1"></path> <path class="st2" d="M361.3,206.6c0,143.8-1.9,289.9-1.9,433.6c-15.1-29.7-77.6-56.5-102.4-136.4c-23.4-75.8-0.8-145.8,38-212.2 C312.4,261.6,334.2,233.3,361.3,206.6"></path> <path class="st0" d="M481.2,30.5c-29.7,74.6-65.8,124.2-106.4,162.8l-4.8,453c48.3,47.1,79,102.7,104.6,167.7L481.2,30.5z"></path> <polygon class="st1" points="402.5,232.4 402.5,306.3 445.9,291.4 447.8,192.1 "></polygon> <polygon class="st3" points="408.9,235.5 408.9,297.3 439.6,286.6 440.7,206.7 "></polygon> <polygon class="st1" points="433,366 431.3,367.2 429.6,368.1 427.8,369.1 426.3,370 424.5,370.8 423,371.5 421.4,372.1 419.8,372.6 418.3,373.3 416.6,373.9 414.8,374.1 413.2,374.4 411.9,374.8 410,374.8 402.5,375.5 402.5,456.7 443.5,456 444.8,358 "></polygon> <path class="st3" d="M438.4,370.2c-10,6.8-19.6,11-29.5,11.6v68.4l28-0.7L438.4,370.2z"></path> <polygon class="st1" points="434.9,545.7 433.2,546 431.4,546.6 429.7,546.8 428,547 426.5,547.3 424.8,547.5 423,547.9 421.1,547.9 419.8,547.9 417.9,548.1 416.3,548.1 414.7,548.1 412.8,548.1 411.3,547.9 402.5,547.3 402.5,628.7 443.5,641.7 444.8,542.9 "></polygon> <path class="st3" d="M438.4,551.5c-10,2.9-19.6,3.9-29.5,3.1v69.3l28,8.6L438.4,551.5z"></path> <path class="st4" d="M635.7,716c-1.6-4.8-4.7-6.2-9.1-4.5c-1.3,0.3-2.5,1.2-3.6,2.3c-0.9,1.3-1.8,3-2.2,4.8 c-0.6,1.8-0.9,3.5-0.9,5.8c0,2.1,0.3,4.3,1,6.2l3.1,8.4l-5.6-0.7l-7.9-22.5l4.8-1.9l1.3,3.8c0.3-0.5,0.8-1.3,1.6-2.5 c0.6-1,1.4-2.2,2.6-3.4c1.3-1,2.5-2.1,4-2.5c1.7-0.5,3-0.9,4.7-0.5c1.8,0,3.4,0.5,4.8,1.2c1.8,0.9,3.1,1.8,4.2,3.4 c1.3,1.4,2.3,3,3,4.9c0.5,2.1,0.8,4.3,0.8,6.9c0,2.6-0.4,5.3-1.8,8l-6.7-1.4c0.1-0.7,0.5-1.4,1-3.1c0.8-0.9,1-2.1,1.4-3.4 c0.4-1.3,0.8-2.7,0.8-4.3C636.9,719.7,636.4,717.8,635.7,716 M637.4,700.4l-31.3,11.9l-1.3-3.6l31.3-11.7L637.4,700.4z M607.5,743.6l-5.7-1.4l-6.5-23.5l4.7-1.4L607.5,743.6z M602.5,712.6l-11.9,3.4l-1.2-3.5l12.2-3.5L602.5,712.6z M599,706.1 c-0.1,0.3-0.5,0.3-0.7,0.3c-0.4,0.4-0.8,0.4-0.9,0.4c-2.3-2.6-3.8-4-4.3-4.7c-0.7-0.3-1.2-0.5-1.9-0.5h-2.1c-0.7,0-1.2-0.1-1.6-0.7 c-0.4-0.1-0.6-0.7-0.8-1.6c-0.7-0.7-1.3-1.3-2.2-2.5l-0.1-0.6l1-0.3c2.5,0,4.3,0.3,5.4,0.6c1.2,0.3,1.8,0.5,2.2,1 c0.5,0.6,1.3,1.7,2.2,3.2c0.9,1.4,2.1,2.9,3.1,4c0,0,0,0.3,0.3,0.7C598.7,705.6,598.8,705.8,599,706.1z M579.1,733.1 c-0.3-1.2-1.3-2.3-3-3.4c-1.6-0.9-3.4-1-5.4-0.9c-0.8,0-1.9,0.9-3.6,2.1c-1.6,1.2-2.7,2.7-3.9,4.5c-1.2,1.9-1.4,4-0.9,6.2 c0.4,2.2,1.2,3.9,2.7,5.1c1.4,1,2.7,1.4,4.4,1c1.7-0.1,3.4-1.6,4.8-3.4c1.7-1.9,3.1-4,3.9-6.1C578.9,736.2,579.1,734.5,579.1,733.1 z M587.6,717l-4.2,0.8l5.7,30.2l-6-1.3l-0.8-4.4c-1.2,2.3-2.6,4.4-3.9,5.7c-1.2,1.4-2.7,2.2-4.4,2.5c-1.9,0.5-4,0.1-6.4-0.8 c-2.6-0.9-4.7-2.5-6.8-4.3c-1.9-2.1-3.2-4.4-3.8-6.6c0-0.8,0-2.1,0.5-3.4c0.3-1.2,0.5-2.7,1.4-4.2c0.9-1.6,1.8-2.9,3.1-3.9 c1.4-1.4,3-1.9,4.8-2.3c2.2-0.4,4-0.1,5.8,0.8c1.7,1,4.2,2.9,7.3,5.3l-2.3-12.5L552,724l-0.9-3.9l26.1-5.1c-0.3-2.1-1-3.9-1.2-5.3 c-0.4-1.6-1-2.9-1.8-4.5c-0.8-1.6-2.1-3.1-3.5-5.4c-1.4-1.6-3.6-3.8-6-6.1l-0.1-0.4c-0.1,0-0.1-0.5,0.1-0.5l5.4-1.3 c2.6,2.1,5.1,4.5,7.1,7.5c2.5,3.4,4.3,8.3,5.5,14.8l4-0.6L587.6,717z M546.5,716.6l4.5,38.8c0,0-0.3-0.1-0.8-0.3 c-0.1-0.3-0.9-0.5-1.7-0.7c-0.4-0.5-1.3-0.6-1.8-0.8c-0.5-0.1-1-0.5-1-0.5l-4.3-35.8c-0.4-2.5-1.3-4.8-2.2-6.9 c-1-1.9-1.9-3.6-3.1-4.9c-1-1.4-2.2-2.7-3.4-3.5c-1.3-1.3-1.9-1.8-2.3-2.3l6.6-0.9c1.9,1.6,3.6,3.5,5.1,5.6c1.3,2.5,2.3,4.5,3,6.6 C546,713.1,546.4,715.1,546.5,716.6z M541.5,725.1l-3.6,0.4l-0.4-3.6l3.4-0.6L541.5,725.1z M551.7,723.8l-3.2,0.4l-0.3-3.8l3.2-0.4 L551.7,723.8z M535.5,757.6l-5.4-2.5l-2.1-24.4l5.2-0.3L535.5,757.6z M536.3,726l-12.6,1.4l-0.3-3.9l12.5-1L536.3,726z M533.9,719.2c0,0-0.4,0.4-0.7,0.4h-1c-1.7-3.1-2.9-4.7-3.1-5.3c-0.7-0.7-1.2-1-1.8-1.2c-0.8-0.1-1.4-0.1-2.2-0.5 c-0.7,0-1.2-0.3-1.4-0.9c-0.1-0.3-0.3-0.7-0.7-1.6c-0.1-0.7-0.7-1.6-1.4-3v-0.4l1-0.4c2.5,0.7,4.2,1.2,5.3,1.7 c1.2,0.5,1.7,1,2.1,1.7c0.3,0.5,0.8,1.7,1.4,3.4c0.6,1.9,1.7,3.4,2.1,4.7c0.3,0.1,0.3,0.5,0.4,0.7V719.2z M525.9,727.9l-25.7,0.9 l0.5,20.3c0.1,1.4,0.5,2.7,0.9,4.2c0.8,1.3,1.3,2.3,2.3,3.1c0.9,0.8,2.2,1,3.5,1c1.9,0,3.6-0.5,4.8-1.6c1.3-0.9,2.3-1.9,3.1-3.2 c0.8-1,1.2-2.5,1.4-3.8c0.3-1,0.4-2.1,0.4-3l-0.4-12.5l6.4-0.3l0.8,27.1c-0.4-0.5-1.3-0.7-2.9-1.2c-1.3-0.7-2.6-1.4-3.6-1.7v-2.5 c-0.9,0.7-2.1,1.6-3,2.1c-1.2,0.7-2.1,1-3.1,1.6c-1,0.5-2.3,0.5-3.8,0.5c-1.8,0-3.9-0.4-6-1.4c-2.1-1-3.8-2.3-4.8-4.4 c-1.4-1.7-1.9-3.8-1.9-6l-0.9-18.4l-3.5,0.1l-0.1-3.6l35.3-1.2L525.9,727.9z M488.3,748.2c0-0.9-0.1-2.1-0.7-3 c-0.5-1.3-1.4-2.5-2.3-3.6c-0.9-1.2-2.2-1.8-3.5-2.7c-1.6-0.8-3-1.2-4.7-1.2c-1-0.3-1.9,0-3,0.7c-0.9,0.5-1.8,1.2-2.6,1.9 c-0.6,0.7-1.2,1.4-1.2,1.4c0,1.8,0.5,3.8,1.7,6c1.3,2.1,2.6,4,4.5,5.6c1.9,1.7,3.8,2.5,5.7,2.6c0.9,0,1.9-0.3,2.9-0.9 c0.9-1,1.7-1.9,2.3-3.2C487.7,750.5,488.3,749.2,488.3,748.2z M493.7,728.8l-23.5-0.7l-0.3,11.9c0.3-0.6,1-1.4,2.1-2.5 c1.2-0.9,2.3-2.1,4-3.1c1.6-1,3.2-1.4,4.8-1.4c1.7,0,3.4,0.5,4.8,1.2c1.2,0.9,2.5,1.9,3.4,3c0.9,1.2,1.6,2.7,2.1,3.6 c0.5,1.4,0.8,2.9,0.8,4c-0.1,1.9-0.5,3.5-1.6,5.3c-1,1.6-2.2,3.4-3.8,4.7c-1.4,1.3-3.2,2.3-4.7,3.1c-1.7,0.6-3,1-4.3,1 c-1.2,0-2.5-0.5-3.5-1.4c-1.3-1-2.9-2.7-4.9-5.1l-0.1,6.5l-5.6-2.6l1-28.6h-5.1l0.1-3.9l5.2,0.1c0-2.9-0.3-5.4-1-8.2 c-0.6-2.3-1.6-4.5-2.7-6.9c-0.9-1.9-2.1-3.5-3.2-5.2c-1-1.6-1.9-2.6-2.6-3.1l6.8,0.1c0.8,0.9,1.6,1.4,2.5,2.5 c0.8,0.8,1.7,2.5,2.5,4.3c1.2,2.2,2.1,4.5,2.7,7.3c0.7,2.9,0.8,6.1,0.7,9.5l23.6,0.7L493.7,728.8z M434.5,739.3 c0.6-5.1-1.4-7.9-6.2-8.6c-1.2,0-2.7,0.1-4.3,0.8c-1.4,0.7-3,1.6-3.9,3c-1.4,1.2-2.7,2.7-3.4,4.8c-1,1.7-1.8,4-1.9,6.1l-1,9.1 l-4.8-3.4l3-23.4l5.1,0.4l-0.3,3.8c0.3-0.3,1.3-0.7,2.2-1.4c1.3-0.7,2.5-1.6,4-1.7c1.4-0.7,2.9-0.7,4.7-0.4 c1.6,0.3,3.1,0.4,4.4,1.6c1.6,0.8,2.7,2.1,3.8,3.4c1,1.6,1.8,3.1,2.2,4.9c0.5,1.8,0.7,3.8,0.4,5.8c-0.4,1.9-1,4.3-2.5,6.4 c-1,2.3-2.7,4.4-4.9,6.4l-5.7-4.4c0.4-0.7,1.3-0.9,2.5-1.9c1-0.8,2.1-1.7,2.9-2.6c1-0.9,1.8-2.2,2.5-3.5 C433.9,743,434.1,741,434.5,739.3z M442.8,726.4l-33.1-4.3l0.4-3.6l33.1,4L442.8,726.4z M411,721.8l-8.2-1.9l-1.3,5.8 c0.5,0.3,0.9,0.7,1.2,1c0.4,0.1,0.6,0.4,0.6,0.4l-0.9,3.6c-2.1-1.6-4.5-2.3-7-3c-1.9-0.5-3.9-0.7-6.1-0.4c-2.2,0.1-3.5,1-4.2,2.5 c-0.1,1.7,1.7,2.9,6.4,4.3c0.4,0.1,1,0.1,1.8,0.4c1.2,0.3,1.7,0.4,1.9,0.4l-0.8,2.7c-1.2-0.4-3-0.8-4.8-0.9 c-2.1-0.4-3.6-0.4-5.5-0.3c-1.6,0.3-2.6,1.2-2.9,2.5c-0.4,1.3,0.1,2.5,1.3,3.4c1.2,1.2,2.5,1.9,4.2,2.3c3.6,0.9,6.9,0.9,9.9,0 c3.1-0.9,5.7-2.6,8.2-4.5l-2.1,7.7c-2.2,0.6-4.8,1-6.5,1c-2.1,0-4.2-0.4-6.4-0.9c-1.9-0.3-4.2-1.4-6.5-2.5c-2.5-1.3-4.4-3-6-4.5 c-1.4-1.6-1.9-3.2-1.6-4.7c0.3-1.7,1.2-2.9,2.6-3.5c1.4-0.5,3-1,4.5-1.4c-0.6-0.5-1.2-1.2-1.6-1.6c-0.5-0.8-0.9-0.9-1-1.6 c-0.1-0.4-0.4-1-0.1-1.7c0.3-1.4,1.2-2.3,2.3-3c1.4-0.8,2.9-1,4.7-1c1.6,0,3.5,0,5.1,0.1c1.8,0.1,3.4,0.6,4.8,1.2l1.2-5.2 l-19.1-4.8l0.8-3.9l31.9,8.2L411,721.8z M378.8,714.3l-7.9-2.7l-2.1,5.8c0.5,0.4,1,0.7,1.2,1c0.4,0.3,0.8,0.3,0.8,0.3l-1.4,3.8 c-1.9-1.4-4.2-2.7-6.6-3.8c-1.7-0.7-3.8-0.9-6.1-0.9c-2.2,0-3.6,0.8-4.3,2.3c-0.4,1.7,1.6,3.2,5.8,4.8c0.5,0,1.2,0.1,1.9,0.5 c1.2,0.3,1.4,0.4,1.8,0.4l-0.9,2.9c-1.4-0.5-3.2-0.9-5.1-1.4c-1.7-0.5-3.4-0.8-5.2-0.8c-1.6,0.3-2.7,0.9-3.1,2.3 c-0.4,1.2,0,2.3,1,3.8c1,0.9,2.5,1.9,4.2,2.3c3.4,1.3,6.6,1.4,9.7,0.8c3-0.5,6-2.1,8.6-3.8l-2.6,7.5c-2.6,0.6-4.8,0.8-7,0.6 c-1.9-0.1-3.9-1-6-1.7c-1.9-0.8-4.3-1.7-6.4-3.2c-2.2-1.6-4.2-3.1-5.5-4.7c-1.3-1.8-1.7-3.4-1.3-5.1c0.5-1.4,1.6-2.7,3-3 c1.6-0.7,2.9-0.9,4.8-1.2c-0.8-0.6-1.3-1.2-1.8-1.7c-0.3-0.5-0.5-1-0.7-1.7c-0.3-0.5-0.3-0.9,0-1.9c0.4-1,1.4-2.2,2.7-2.5 c1.4-0.5,2.9-0.9,4.5-0.5c1.6,0,3.4,0.1,5.1,0.5c1.7,0.3,3.2,0.8,4.7,1.4l1.4-5.1l-18.4-6.5l1.2-3.6l31.2,10.9L378.8,714.3z M340.7,712.6c-0.4,1.2-1.8,2.3-3.6,2.9c-1.9,0.9-3.5,1.3-4.5,1.6l-2.3-6.9c1.6,0.4,3.1,0.4,4.7-0.3c1.6-0.4,2.3-1.3,2.9-2.3 c0.1-0.4,0.1-1-0.4-1.7c-0.4-0.8-1-1.7-1.8-1.9c-1.6-0.5-3.1-0.5-5.1,0c-2.1,0.3-4,1.7-5.7,3c-1.9,1.3-3.1,3-3.9,4.8l-5.2,12.5 l-4.2-5.2l8.6-21.8l5.3,2.3l-0.7,2.3c0.3,0,0.8-0.3,2.2-0.3c1-0.3,2.5-0.3,3.9-0.3c1.4,0.1,2.9,0.5,4.2,0.8 c1.2,0.6,2.2,1.3,3.4,2.3c1.3,1.3,1.9,2.5,2.3,3.9C341.2,709.9,341.2,711.2,340.7,712.6z M347.3,703l-29-11.9l1.4-3.6l28.7,11.9 L347.3,703z M304.2,695.2c1.2-2.2,0.4-4-1.9-5.2c-1.3-0.8-2.7-1-4.4-1c-1.6,0-3.1,0.5-4.4,1c-1.3,0.7-2.3,1.6-2.9,2.7 c-0.3,0.8-0.3,1.7-0.1,2.9c0.1,1.3,0.9,2.3,2.2,2.7c0.8,0.5,1.9,0.7,3.4,1c1.8,0,3.4-0.5,4.9-1 C302.2,697.7,303.4,696.6,304.2,695.2z M303.5,723.4c-1,2.1-2.1,3.4-3.5,3.4c-1.2,0.4-2.7,0-4-0.8c-1.2-0.5-2.1-1-2.6-1.8 c-0.6-0.8-1.4-2.1-2.9-3.5c-1.2-1.7-2.1-2.9-3.1-4c-0.8-0.9-1.9-1.7-3.2-2.6c-2.1-0.9-4.5-1.6-7.1-1.7c-2.7-0.5-5.6,0-8.3,0.6 c-2.9,0.8-5.3,2.1-7.7,3.8c0.3-0.3,0.3-0.8,0.5-1.6c1.2-1.8,2.6-3.5,4.8-5.3c2.5-1.6,5.1-2.7,7.9-3c3-0.5,5.8,0,8.6,1.4 c2.1,1.2,3.6,2.2,4.4,3.5c0.9,1.2,1.7,3,3.1,5.3c1.2,2.1,2.3,3.5,3.4,4c0.9,0.6,2.2,0.6,3.5,0.6c1.3,0,2.5,0,3.6-0.8 c1.2-0.5,1.8-1.3,2.3-2.1c0.3-1,0.5-1.8,0.5-3c0-0.9-0.3-1.9-0.5-2.7c-0.8-0.8-1.2-1.6-2.2-2.1c-0.9-0.3-1.9-0.7-3-0.9 c-1.3-0.1-2.9-0.4-4.7-0.4c-1.8-0.1-3.4-0.3-4.5-0.4c-1.3-0.4-2.1-0.5-3-0.9c-0.8-0.5-1.7-1.6-2.6-2.9c-0.7-1.6-1.3-3.1-1.7-4.8 c-0.3-1.6-0.3-2.7,0-3.8c0.7-0.9,1.6-1.6,3-1.9c1.3-0.4,2.6-0.4,3.9,0.3l0.3-0.3c-0.3-1.2-0.4-1.9-0.5-2.9c-0.1-0.5-0.1-1.2,0-1.9 c0,0,0.3-1.2,0.7-1.9c1.2-2.5,3.1-3.6,5.3-3.4c2.6,0.1,5.3,0.8,8.2,2.3c0,0,0.1,0,0.4-0.1c0,0,0.3-0.3,0.5-0.4l1.3-3.1l-14.1-7.3 l1.7-3.5l28,14.9l-1.6,3.2l-9.6-5.1l-2.6,4.9c0,0-0.1,0.4-0.1,0.9c-0.1,0.4,0,0.8,0.1,1c0.4,0.3,0.8,0,1.7-0.3 c0.9-0.4,1.2-0.8,1.8-0.8c0.3-0.1,0.9-0.1,1.7,0.1c0.5,0.3,1,0.6,1.4,1.6c0.5,0.7,0.8,1.2,0.8,2.3c0.1,0.9,0.1,1.7,0,2.3l-4.5,1.9 c0.4-0.9,0.7-1.9,0.8-3.1c0-0.9-0.4-1.7-0.9-1.9c-0.1-0.4-0.7-0.4-1-0.4c-0.5,0-1,0.4-1.2,0.7v0.8c0,0.6,0,1.2-0.1,1.7 c0,0-0.4,0.9-0.5,1.6c-1.2,2.6-2.9,3.9-4.8,3.5c-2.1,0-4.5-0.9-7.7-2.2c-1.8-1.3-3.5-1.8-5.1-1.9c-1.7,0-2.7,0-3.5,0.5 c-0.8,0.1-1.6,0.9-1.8,1c-0.3,1-0.1,1.7,0.4,2.3c0.7,0.7,0.9,1,1.3,1.2c0.7,0.3,1.7,0.5,2.5,0.9c1.2,0.1,2.7,0.1,4.5,0.1 c2.1,0,3.9,0.1,5.4,0.3c1.6,0.4,3,0.7,4.5,1.3c1.9,1,3.1,3,3.4,5.2c0.4,2.3,0.3,4.7-0.3,6.9C304.6,721,304.1,722.5,303.5,723.4z M262.9,676.1c2.6-4.4,1.8-7.8-2.1-10.4c-1-0.7-2.5-1.3-4.2-1.3c-1.7-0.1-3.4,0-4.9,0.6c-1.8,0.7-3.4,1.8-5.2,3c-1.6,1.3-3,3-4,4.5 l-5.1,7.9l-2.6-5.3l12.5-19.7l4.5,2.7l-1.9,3.2c0.4-0.1,1.4-0.1,2.7-0.1c1-0.3,2.6-0.3,4.3,0c1.4,0.1,2.9,0.8,4.4,1.9 c1.3,0.8,2.5,1.8,3.4,3.6c0.8,1.2,1.4,2.9,1.7,4.4c0.3,1.9,0.3,3.8-0.1,5.3c-0.4,1.9-0.9,3.9-2.1,5.3c-1.2,1.8-2.9,3.5-4.8,4.9 c-2.1,1.6-4.5,2.6-7.5,3.4l-3-6.5c0.7-0.4,1.7-0.7,2.9-0.8c1.4,0,2.9-0.5,3.9-0.9c1.3-0.4,2.5-0.9,3.6-2.2 C260.7,679.1,261.5,677.7,262.9,676.1z M275.6,668.1l-27.8-18.6l2.1-3l27.8,18.4L275.6,668.1z M233,662.7c0.5-0.9,0.3-2.1-1.3-3.9 c-1.2-2.1-2.1-2.9-2.9-3.5c-1.7-1.6-3.6-2.5-5.7-2.9c-2.2-0.4-4-0.4-5.4,0c-1.6,0.1-2.7,0.8-3.1,1.3c-0.3,0.9-0.1,1.9,0.4,2.7 c0.7,0.8,1.4,1.7,2.2,2.5c1.7,1.3,3.4,2.3,5.2,2.9c1.7,0.9,3.5,1.3,4.9,1.4c1.6,0.4,2.7,0.4,3.9,0C232.1,663.1,232.8,663,233,662.7 z M250.6,651.4l-16.2-13l-2.9,4l0.1,0.3v0.4c0,0,0.3,0,1.2,0.3c0.8,0.4,1.8,0.8,2.7,1.4c1,0.5,1.9,1.2,2.7,1.9c1.9,1.7,3.4,3,4,4.4 c0.8,1.4,1.2,2.9,0.7,4.4c-0.1,1.2-0.8,2.6-1.6,4c-0.8,1.3-1.9,3.1-3.6,5.1l-7.7,9.9c-0.4-1-1.2-2.1-1.6-3 c-0.5-0.9-0.7-1.7-0.9-1.8c0.4-0.8,0.5-1.2,0.4-1.4c-0.7,0-1.7-0.1-2.3-0.3c-0.9-0.3-2.2-0.5-3.5-1c-1.2-0.6-2.6-1.6-4-2.7 c-1.4-1-2.7-2.6-3.6-4.2c-0.8-1.7-1.4-3.4-1.6-4.7c-0.1-1.8,0.4-3.4,1.3-4.7c0.8-1,2.5-2.1,4.5-2.2c2.1-0.7,4.2-0.5,6.5,0.1 c2.5,0.5,4.5,1.8,6.8,3.4c1.3,0.8,1.9,1.9,2.9,3.2c0.6,0.9,1.3,1.9,1.6,2.9l1.7-2.1c0.1-1.8-0.1-2.9-0.7-3.6 c-0.3-0.5-1.3-1.7-2.5-2.7c-1.6-1.2-3.2-2.3-4.4-2.9c-0.9-0.4-2.5-1-4-1.6c-1.3-0.5-2.6-0.8-3.6-1.2l1.6-1.7h0.8h0.8l0,0l5.2-6.6 l-5.2-4l2.3-2.7l24.4,19.5L250.6,651.4z M203.1,652.6l-1.8-5.7l15.8-18.2l3.9,3.8L203.1,652.6z M226,631.8l-9.2-8.4l2.3-3l9.5,8.8 L226,631.8z M229.4,625.5c0,0,0-0.3-0.5-0.5c-0.3,0-0.5-0.5-0.5-0.5c1-3.4,1.3-5.6,1.4-6.2c0-0.6,0-1.3-0.4-1.9 c-0.5-0.8-0.9-1.6-1.3-1.8c-0.3-0.7-0.3-1.2-0.3-1.9c0,0,0.1-0.7,0.7-1.4c0.4-0.6,0.9-1.7,1.2-3.1l0.1-0.5l1.2,0.8 c1.2,2.3,2.1,3.9,2.5,5.1c0.3,1.2,0.3,2.1,0.1,2.7c-0.1,0.7-0.5,1.8-1.6,3.5c-0.5,1.6-1.3,3.1-1.6,4.8c-0.4,0.1-0.4,0.3-0.4,0.3 C229.8,625,229.8,625.1,229.4,625.5z M198,625.5c0.9-1,1.3-2.6,1.2-4.5c-0.3-2.1-1.2-3.5-2.5-5.3c-0.7-0.3-1.8-1-3.6-1.6 c-1.8-0.6-3.9-0.8-6-0.8c-2.2,0.4-4,1-5.6,2.7c-1.4,1.6-2.2,3.2-2.2,5.1c-0.1,1.8,0.4,3.4,1.4,4.5c1.3,1.2,3.2,1.8,5.6,2.1 c2.5,0.4,4.9,0.4,7-0.3C195.7,626.9,197.4,626.3,198,625.5z M215.8,622.9l-2.9-2.7l-21,22.2l-2.2-5.7l3.1-3.4 c-2.9,0.3-5.1,0.4-6.9,0.1c-1.9-0.3-3.4-1-4.8-2.5c-1.3-1.3-2.2-3.2-2.9-5.8c-0.7-2.7-0.8-5.5-0.1-8c0.3-2.7,1.4-5.1,2.9-6.6 c0.8-0.9,1.7-1.2,2.9-1.8c1-0.4,2.7-0.8,4.3-1.2c1.6-0.1,3.4,0,5.1,0.5c1.7,0.3,3.2,1.4,4.5,2.6c1.6,1.6,2.3,3.1,2.6,5.1 c0.1,2.2,0.3,5.3,0.1,9.5l8.3-9.1L190,597.3l2.6-2.9l18.8,18.8c1.6-1.7,2.9-2.9,3.6-3.9c0.8-1.2,1.9-2.7,2.7-4.3 c0.6-1.7,1.3-3.6,2.1-6c0.7-2.5,1.2-5.3,1.6-8.6c0,0,0-0.1,0.3-0.3c0.3-0.4,0.3-0.5,0.5-0.4l4.2,4.4c0,2.9-0.7,6.2-2.1,10.1 c-1.3,3.8-4,8-8.6,13l2.7,2.7L215.8,622.9z M173.6,599.1c3.8-3.4,4-6.7,1.2-10.5c-0.8-0.9-2.2-1.7-3.6-2.3c-1.6-0.8-3.4-1.2-5.1-1 c-1.9,0-3.8,0.6-5.7,1.3c-1.8,0.8-3.5,1.7-5.2,3.2l-7,6l-1-5.8l17.8-15.1l3.4,4l-2.9,2.5c0.4,0.1,1.4,0.3,2.7,0.5 c1.2,0.3,2.5,0.8,3.8,1.4c1.6,0.8,2.9,1.6,4,3.1c0.8,1.2,1.6,2.6,2.2,4.2c0.3,1.8,0.4,3.4,0.3,5.2c-0.3,1.8-0.9,3.4-1.7,5.2 c-0.8,1.7-1.9,3-3.8,4.3c-1.3,1.4-3.4,2.6-5.8,3.4c-2.2,0.8-4.9,0.9-8,0.9l-0.9-7.3c0.5,0,1.8,0,3,0.4c1.3,0,2.6,0.1,3.9,0 c1.2,0,2.7-0.1,4.2-0.8C170.5,601.2,171.9,600.2,173.6,599.1z M188.1,595.4l-21.3-26.2l2.9-2.3l21.4,26.1L188.1,595.4z M141.5,587.1l-1.2-6.2l18.8-14.9l3.2,4.3L141.5,587.1z M167.8,570.6l-7.8-10l2.9-2.6l7.8,10.3L167.8,570.6z M171.9,564.7 c0,0-0.1-0.3-0.4-0.5c-0.3-0.3-0.4-0.6-0.5-0.9c1.4-2.7,2.2-4.9,2.5-5.6c0.1-0.7,0.1-1.7-0.1-2.1c-0.4-0.9-0.5-1.3-0.8-1.9 c-0.1-0.5-0.1-1.2,0.1-1.8c0-0.5,0.3-0.7,0.9-1.4c0.5-0.8,0.8-1.6,1.4-2.9l0.7-0.6l0.6,1.2c0.8,2.3,1.6,4.3,1.6,5.4 c0.1,0.9,0,2.1-0.3,2.5c-0.3,0.8-1,1.7-1.9,3.2c-1.3,1.6-2.1,3.2-2.7,4.5l-0.4,0.3C172.6,564.1,172.2,564.5,171.9,564.7z"></path> <path class="st4" d="M823.8,539.8l31,22.6c-0.1,0-0.1,0.1-0.7,0.4c-0.5,0.4-1,0.5-1.6,0.6c-0.8,0.5-1,1-1.9,1.3 c-0.7,0.1-0.9,0.5-0.9,0.5l-28.9-20.8c-2.1-1.4-4.2-2.5-6.5-3c-2.2-0.7-4-1-5.7-1c-1.7-0.1-3.2,0-5.1,0.3c-1.4,0.1-2.5,0.1-2.9,0.1 l3.9-5.4c2.5-0.5,4.9-0.5,7.5-0.3c2.3,0.4,4.5,1,6.6,1.9C820.8,538.1,822.2,538.9,823.8,539.8 M826.3,549.6l-1.9,3l-3.2-2.2 l2.1-2.7L826.3,549.6z M832.2,540.9l-1.8,2.6l-3-1.9l1.8-3.1L832.2,540.9z M845.4,575.4l-5.4,2.3l-18.8-14.9l3.4-4.3L845.4,575.4z M823.4,553.3l-7.5,10.1l-3-2.3l7.8-10.1L823.4,553.3z M816.9,550.3c0,0-0.3,0.3-0.3,0.8c-0.3,0.3-0.7,0.3-0.7,0.5 c-3.2-0.5-5.3-1.2-6.1-1.2c-0.6,0-1.4,0.1-1.9,0.8c-0.5,0.4-1,1-1.7,1.3c-0.5,0.4-1,0.5-1.8,0.4c0,0-0.5-0.3-1.4-0.4 c-0.8-0.5-1.9-0.7-3.1-0.9l-0.4-0.4l0.6-1c1.9-1.3,3.6-2.5,4.9-3c0.8-0.3,1.7-0.7,2.5-0.3c0.4,0,1.7,0.6,3.4,1.2 c1.7,0.8,3.2,1.2,4.9,1.4c0.1,0,0.1,0.1,0.4,0.3C816.4,550.2,816.7,550.2,816.9,550.3z M817.4,562.7l-4.2,4.9l6.5,5.8 c1.8-0.5,3.1-0.5,3.6-0.5c0.9,0,1.7,0.5,3.2,0.8l-2.6,3.4c-1.8-1.6-3.6-2.5-5.3-1.9c-1.8,0.3-3.5,1-4.8,2.9 c-1.7,2.1-2.5,4.2-2.7,6.4c-0.3,2.6,0,5.1,0.9,7c0.8,2.5,1.8,4,3.2,5.1c0.9,0.8,1.8,1.3,3,1.7c1.2,0.4,2.3,0,3.4-0.4 c1.2-0.5,2.6-1.6,3.8-2.7c1.4-2.1,2.6-3.8,2.6-5.3c0.3-1.6,0.3-2.6,0.3-3.2l4.2-5.1c0.5,0.8,1,1.9,1,3.5c0,1.6-0.1,3.2-0.9,4.9 c-0.4,1.6-1,3.1-1.9,4c-1.8,2.1-3.9,3.8-6.6,4.8c-3,1.2-5.7,1.6-8.4,1.4c-2.7-0.3-5.1-0.9-6.8-2.3c-1-1-1.8-2.3-2.6-4.4 c-0.8-2.3-1-4.8-0.9-7.1c0.4-2.6,1-4.8,2.7-7c1.2-1.2,2.2-2.3,3.4-3c1-0.6,1.9-1,2.5-1.2l-3.9-3.4l-13.9,16.9l-3-2.1l21.3-26.2 L817.4,562.7z M798.5,605.4c-3.5-3.4-7-3.4-10.3,0.4c-0.9,0.9-1.4,2.2-1.8,3.8c-0.4,1.6-0.4,3.2-0.3,5.1c0.4,2.1,0.8,3.8,1.8,5.7 c0.9,1.7,2.2,3.5,3.6,5.2l6.8,6.2l-5.4,1.7l-17-16l3.8-4.2l2.6,2.6c0,0,0-1.4,0.3-2.6c0.1-1.4,0.4-2.9,0.8-4.4 c0.7-1.6,1.3-2.9,2.7-4.2c0.8-1.3,2.2-2.1,3.8-2.9c1.7-0.7,3.1-0.9,4.9-0.9c1.7,0,3.4,0.4,5.1,1c1.7,0.7,3.2,1.4,4.8,2.9 c1.6,1.8,2.9,3.4,3.9,5.8c1,2.2,1.6,5.2,1.8,8.3l-6.8,1.6c-0.3-0.4-0.3-1.6-0.3-2.9c0-1.4-0.1-2.9-0.3-4c-0.1-1.4-0.7-2.6-1.2-4.2 C801.1,608.1,799.9,606.8,798.5,605.4z M793.2,591l-22.7,24.9l-2.7-2.6l22.7-24.9L793.2,591z M770.5,614.7l-19.6,17.7l13.1,15.1 c0.9,1.3,1.9,1.9,3.4,2.7c1,0.7,2.3,0.8,3.6,0.8c1,0,2.2-0.4,3.2-1.4c1.3-1,2.3-2.6,3-4.2c0.3-1.6,0.4-3,0.1-4.5 c-0.1-1.6-0.5-2.9-1.2-3.8c-0.4-1.2-0.9-2.2-1.3-2.7l-8-9.3l4.8-4.2l17.1,20.3c-0.5,0.1-1.4,0.3-3.1,0.8c-1.4,0.5-2.6,0.9-3.6,1.3 l-1.7-1.9c-0.3,1.2-0.7,2.6-0.9,3.6c-0.4,1-0.9,2.1-1.3,3.1c-0.8,0.8-1.6,1.8-2.7,2.9c-1.6,1.4-3.5,2.3-5.4,2.9 c-2.2,0.4-4.5,0.4-6.5-0.4c-2.2-0.7-4-1.8-5.3-3.2l-11.6-13.8l-2.9,2.3l-2.5-2.9l26.5-23.8L770.5,614.7z M744.5,655.7 c-0.8-1.4-1.9-2.1-3.2-2.5c-0.9-0.5-2.1-0.5-3.2-0.4c-0.8,0.4-1.7,0.8-2.3,1.2c-0.8,0.3-1.6,1.6-2.3,2.7c-1,1.4-1.8,3.2-2.2,4.9 c-0.8,1.9-0.8,3.9-0.8,5.8c0.4,2.2,0.9,3.8,2.3,5.7c0.7,0.6,1.3,1.3,2.2,1.8c1.2,0.3,2.1,0.3,3.1,0.3c1.2-0.1,2.3-0.4,3.1-1 c0.9-0.8,1.7-1.8,2.6-3.1c1-1.4,1.6-3.1,2.2-4.9c0.4-1.9,0.7-3.5,0.4-5.4C746.3,658.9,745.7,657,744.5,655.7z M742.5,640.2l-5.6,4 l4.9,7c0,0,0.3,0.3,1.2,0.5c0.9,0,1.8,0.4,2.2,0.4c1,0.1,1.6,0.5,2.6,1.2c1,0.8,2.1,2.1,2.9,3.2c1.4,1.7,1.8,3.8,1.9,6 c0.3,2.2-0.1,4.5-1,6.5c-0.9,2.1-2.6,3.6-4.5,5.3c-1,0.8-2.9,1.4-4.9,1.8c-1.8,0.4-3.9,0.5-6,0.3c-2.5-0.1-4.3-0.6-6.2-1.4 c-1.8-1-3.4-2.3-4.4-3.8c-0.7-1.2-1-2.9-1.3-4.7c-0.4-2.3,0-4.3,0.9-6.4c0.7-2.2,2.1-4,4.3-5.8c1.3-0.6,3.2-1.7,6-2.6v-0.3 l-2.7-4.2l-17.5,12.5l-2.1-3.2l27.5-19.5L742.5,640.2z M712.4,661.7l-5.6,3.4l4.5,7.5c1.8,0.4,3,0.7,3.6,0.9c0.7,0.4,1.6,1,2.7,1.8 l-3.4,2.3c-1.6-2.3-3-3.4-4.7-3.8c-1.8-0.4-3.5,0-5.4,1.2c-1.9,1.3-3.5,3-4.7,5.2c-0.8,2.3-1.3,4.5-1.3,7c0,2.2,0.5,4.2,1.6,5.7 c0.5,1.2,1.3,1.8,2.3,2.6c0.9,0.7,2.1,1,3.4,0.7c1.3,0,2.9-0.5,4.4-1.6c2.2-1.2,3.5-2.6,4-4c0.8-1.3,1.2-2.2,1.2-2.7l5.7-3.8 c0.4,1,0.4,2.3-0.3,3.8c-0.3,1.8-1.2,3.1-2.2,4.4c-1,1.7-2.1,2.5-3.2,3.2c-2.3,1.6-4.8,2.3-7.8,2.5c-3.1,0-5.7-0.5-8.6-1.4 c-2.6-1.2-4.4-2.6-5.4-4.5c-0.7-1.3-0.9-2.9-0.9-5.1c0-2.6,0.3-4.8,1.3-7.1c0.9-2.5,2.5-4.2,4.8-5.6c1.3-1,2.9-1.7,4-1.8 c1-0.3,2.2-0.5,3-0.3l-2.7-4.4l-18.7,11.4l-1.9-3.4l28.4-17.4L712.4,661.7z M663.2,700.8c-1-2.5-2.7-3.2-5.3-1.9 c-1.2,0.7-2.5,1.6-3.4,3c-1.2,1.2-1.7,2.9-1.9,4.3c-0.3,1.4,0,2.9,0.3,3.8c0.4,0.6,1.2,1.6,2.1,1.9c1.3,0.6,2.2,0.6,3.6,0 c0.8-0.3,1.8-1.2,2.7-2.2c1.2-1.3,1.9-2.7,2.2-4.4C663.9,703.6,663.9,702.1,663.2,700.8z M684.5,718.4c0.9,2.1,1.2,3.6,0.5,4.9 c-0.7,1.3-1.7,2.1-3.2,2.6c-1.2,0.8-1.8,1.2-2.7,1.2c-0.9,0-2.5,0-4.4,0c-2.1,0-4,0-5.2,0.1c-1.4,0.1-2.7,0.5-4,1.2 c-1.9,1-4,2.5-5.8,4.7c-2.1,1.8-3.2,4.3-4.7,7c-0.9,2.9-1.6,5.6-1.6,8.4c-0.3-0.3-0.5-0.7-0.8-1.4c-0.5-1.3-1-3-1.2-5.1 c-0.3-1.9,0.1-4,0.8-6c0.5-2.2,1.6-4.2,2.7-6c1.4-1.9,3.2-3.4,5.4-4.4c2.1-0.9,3.8-1.3,5.1-1.3c1.6,0,3.5,0.4,6,0.7 c2.5,0.4,4.2,0.4,5.1,0c1.3-0.7,2.3-1.3,3.2-2.6c0.5-0.9,1-2.1,1.3-3.4c0.4-1.3,0.3-1.9-0.3-2.9c-0.4-1.2-0.8-1.9-1.7-2.6 c-0.9-0.5-1.7-0.7-2.6-1.2c-0.9-0.1-1.8,0-2.9,0.7c-1,0.3-2.2,1.3-3.6,2.9c-1.4,1.4-2.9,3-4.2,4.5c-1.4,1.4-2.6,2.6-3.6,2.9 c-0.9,0.4-2.3,0.5-3.6,0.4c-1.8,0-3.4-0.6-4.8-1.3c-1.4-0.8-2.6-1.7-3.1-2.6c-0.1-0.9-0.1-2.1,0.5-3.5c0.5-1.3,1.4-2.3,2.6-2.9 v-0.4c-1-0.7-1.7-0.9-2.6-1.4c-0.5-0.3-0.9-0.7-1.4-1.2c-0.4-0.4-0.9-0.9-1.2-1.8c-1.2-2.3-0.9-4.5,0.7-6.6c1.4-1.8,3.9-3.5,7-4.9 c0.1,0,0.1-0.3,0.1-0.3v-0.3l-1.6-3.2l-14.4,6.9l-1.7-3.4l28.8-13.9l1.7,3.5l-9.9,4.7l1.9,4.8c0.1,0.3,0.4,0.6,0.4,0.6 c0.5,0.5,0.8,0.5,1.2,0.5c0.4,0,0.7-0.5,0.7-1.2c0.3-1.2,0.4-1.4,0.7-1.9c0.3-0.5,0.5-1,1.2-1.3c0.5-0.4,1.3-0.4,2.2-0.4 c0.5,0,1.4,0.4,1.9,0.6c1,0.5,1.6,1,1.9,1.7l-1.2,4.8c-0.5-0.9-1-1.6-1.8-2.3c-0.9-0.5-1.6-0.9-2.3-0.5c-0.1,0.3-0.4,0.3-0.7,0.8 c-0.3,0.5-0.5,0.9-0.3,0.9c0,0,0.1,0.3,0.7,0.5c0.3,0.3,0.8,0.7,1.2,1.2c0.3,0.4,0.5,0.9,0.9,1.6c1,2.3,1,4.5-0.4,6.1 c-1.3,1.8-3.4,3-6.4,4.7c-3,1.3-4.8,2.7-5.7,4.4c-0.9,1.7-1.3,3-0.9,3.8c0.4,0.7,1,1,1.8,1c0.8,0.1,1.4,0,1.8,0 c0.8-0.5,1.4-1,2.2-1.8c0.7-0.8,1.3-1.9,2.9-3.5c1.3-1.8,2.5-3,3.6-4c1-1.2,2.3-2.3,3.6-2.6c2.2-1.3,4.2-1,6.4,0 c1.9,1,3.6,2.7,4.9,4.4C683.2,716.2,684.1,717.4,684.5,718.4z"></path> <path class="st4" d="M534.5,20.6L534.5,20.6c-2.6,0-4.9,1.2-6.8,3c-1.6,1.8-2.9,4-2.9,6.9c0,2.1,0.8,4.4,2.1,6 c0.5,0.4,0.8,1,1.3,1.6c0.4,0.3,0.9,0.6,1.4,0.9c1.4,0.8,3.1,1.4,4.8,1.4c2.6,0,5.1-1.3,6.8-3.1c1.7-1.6,2.9-3.9,2.9-6.7 c0-2.9-1.2-5.1-2.9-6.9C539.5,21.8,537.1,20.6,534.5,20.6 M534.5,18.8L534.5,18.8c3.2,0,5.8,1.3,8,3.4c1.9,2.1,3.2,5.3,3.2,8.3 c0,3.2-1.3,6-3.2,8.2c-2.2,1.9-4.8,3.4-8,3.4c-2.2,0-4-0.7-5.7-1.7c-0.7-0.3-1.2-0.7-1.7-1.3c-0.5-0.4-0.9-0.8-1.4-1.3 c-1.4-2.1-2.2-4.4-2.2-7.3c0-3,0.9-6.2,3.1-8.3C528.5,20.1,531.3,18.8,534.5,18.8z"></path> <path class="st4" d="M530.6,29.7h3.8c0.8,0,1.2-0.1,1.6-0.1c0.4-0.5,0.9-0.7,1.2-0.9c0.3-0.4,0.4-0.6,0.4-1.2 c0-0.7-0.4-1.2-0.7-1.7c-0.6-0.4-1.3-0.4-2.3-0.4h-3.9V29.7z M528.8,37.1V24h5.7c1,0,2.2,0,2.6,0.1c0.6,0.1,1.2,0.8,1.6,1.3 c0.4,0.8,0.5,1.4,0.5,2.1c0,0.9-0.3,1.6-0.9,2.2c-0.5,0.8-1.4,1.4-2.9,1.4c0.5,0.1,0.8,0.4,1.3,0.5c0.4,0.6,0.8,0.9,1.3,1.9 l2.2,3.5h-2.1l-1.8-2.9c-0.5-0.6-0.9-1.4-1.2-1.7c-0.1-0.4-0.7-0.8-0.8-1c-0.4-0.1-0.8-0.3-1-0.3h-0.8h-1.9v5.8H528.8z"></path> <path class="st4" d="M143.7,981.2v-98.4h32.2l8.7,41.8c0.1,0.4,0.3,2.7,1.2,7.9c0.5,5.1,1,10.1,2.1,15.1c0.4-3.9,1-8.6,1.8-14 c0.9-5.6,1.6-8.6,1.6-9.5l8.6-41.3h32.1v98.4h-21.8l2.1-75.8l-15.7,75.8h-17.5l-15.4-75.8l1.9,75.8H143.7z"></path> <polygon class="st4" points="293.8,882.8 293.8,980.8 347.3,980.8 347.3,961 316.8,961 316.8,939.6 345.1,939.6 345.1,919.9 316.8,919.9 316.8,901.9 347.3,901.9 347.3,882.8 "></polygon> <path class="st4" d="M407.6,981.2v-98.4h31.9l8.8,41.8c0,0,0.3,2.7,1,7.9c0.8,5.1,1.3,10.1,2.1,15.1c0.5-3.9,1.2-8.6,2.1-14 c0.9-5.6,1.3-8.6,1.3-9.5l8.8-41.3h31.7v98.4h-21.5l1.8-75.8l-15.3,75.8h-17.5l-15.7-75.8l2.1,75.8H407.6z"></path> <path class="st4" d="M580.7,963.6h1.9c4.9,0,8.3-1.2,10.9-3.2c2.3-2.5,3.5-5.8,3.5-10.3c0-4-1.2-7.3-3.5-9.1 c-2.3-2.1-6.1-2.9-11.3-2.9h-1.6V963.6z M580.7,921.2h1.4c4.4,0,7.8-1,10.1-2.9c1.9-1.9,3.1-4.7,3.1-8.7c0-3.4-1.2-6.2-3.1-8 c-2.2-1.4-5.3-2.6-9.2-2.6h-1.6h-0.8V921.2z M557.7,981.2v-98.4h24.7c7.5,0,12.7,0.4,16,1c3.4,0.7,6.1,1.4,8.6,2.9 c3.6,2.3,6,5.1,8.2,8.4c1.7,3.5,2.3,7.7,2.3,12.5c0,4.2-0.6,8-2.2,11.4c-1.9,3.2-4.5,6.5-8.2,9.6c4.3,2.2,7.7,5.3,9.9,9 c2.2,3.9,3.2,8.3,3.2,13.6c0,4.5-0.7,8.6-2.1,12.5c-1.6,4-3.6,7.1-6.4,9.9c-2.6,2.9-5.7,4.9-9.3,6c-3.9,0.9-9.5,1.7-17.4,1.7H557.7 z"></path> <polygon class="st4" points="679.3,882.8 679.3,980.8 732.7,980.8 732.7,961 702.2,961 702.2,939.6 730.3,939.6 730.3,919.9 702.2,919.9 702.2,901.9 732.7,901.9 732.7,882.8 "></polygon> <path class="st4" d="M815.8,923.7c0.3,0,0.9,0.1,1.4,0.1h1.3c4.7,0,8.2-0.9,10.3-2.9c1.9-1.8,2.9-5.2,2.9-9.7c0-4.3-0.9-7-2.9-9 c-2.1-1.7-5.6-2.3-10.3-2.3h-1.3h-1.4V923.7z M792.9,981.2v-98.4h25.8c8.3,0,14.7,0.4,18.6,1.3c3.8,0.9,6.8,2.1,9.2,4.3 c2.9,2.1,5.1,4.8,6.2,8.2c1.4,3.6,1.9,7.5,1.9,12.1c0,5.6-0.8,10.4-2.9,14.1c-1.9,4-4.9,7.1-9.1,9.3c7,3.2,10.8,10.6,11.2,22.3v0.5 c0,1.3,0,2.9,0.3,5.4c0,10.9,1.8,17.8,5.5,20.8h-27c-0.6-2.2-0.9-4.4-1.2-6.6c-0.4-2.1-0.5-4.5-0.5-7.1c0-1.6,0.1-3.5,0.1-5.8 c0-2.2,0.1-3.6,0.1-4.2c0-5.8-0.8-10.1-2.3-12.5c-1.7-2.2-4.2-3.2-8.4-3.2h-4.7v39.5H792.9z"></path> <rect x="141.3" y="810.7" class="st4" width="7.5" height="42.7"></rect> <path class="st4" d="M179.4,853.4h-7v-15.7c0-3.4-0.3-5.6-0.5-6.5c-0.1-1-0.5-1.7-1.3-2.2c-0.7-0.6-1.6-0.9-2.3-0.9 c-1.3,0-2.3,0.3-3.4,1.2c-0.9,0.9-1.6,1.8-1.9,3c-0.4,1.4-0.5,3.5-0.5,7.1v14h-7v-31h6.5v4.7c2.3-3.4,5.1-5.2,8.7-5.2 c1.3,0,2.9,0.4,4.3,0.9c1.3,0.9,2.1,1.4,3,2.6c0.4,0.9,0.8,2.1,1,3.4c0.4,1.4,0.5,3.1,0.5,5.6V853.4z"></path> <path class="st4" d="M191.9,837.3c0,3.2,0.4,5.7,1.2,7.3c1,2.1,2.6,3.1,4.8,3.1c1.4,0,2.9-0.7,3.8-2.3c1.3-1.8,1.8-3.8,1.8-7.1 c0-3.8-0.5-6.1-1.4-7.7c-1.3-1.6-2.5-2.5-4.3-2.5c-1.8,0-3,0.9-4.2,2.3C192.3,831.9,191.9,834.4,191.9,837.3 M210.3,853.4H204v-4.5 c-1.2,1.9-2.3,3.1-3.9,3.9c-1.3,0.8-2.9,1.4-4.4,1.4c-2.9,0-5.6-1.6-7.5-4.3c-2.3-2.9-3.2-6.9-3.2-11.9c0-5.2,0.9-9.2,3-11.9 c2.2-2.7,4.9-4.2,7.8-4.2c3.1,0,5.7,1.6,7.8,4.3v-15.5h6.9V853.4z"></path> <path class="st4" d="M217.2,853.4h7v-30.9h-7V853.4z M217.2,818.3h7v-7.5h-7V818.3z"></path> <path class="st4" d="M245.5,838.6c-0.6,0.4-2.1,0.8-4.2,1.2c-1.9,0.5-3.1,1.2-3.9,1.8c-0.8,0.4-1,1.4-1,2.5c0,1.3,0.3,2.3,0.9,3 c0.8,0.9,1.7,1.3,2.7,1.3c1.3,0,2.6-0.4,3.5-1.3c1.2-0.7,1.4-1.7,1.8-3c0.1-0.5,0.1-1.7,0.1-3.8V838.6z M236.4,832.1l-6.4-1.6 c0.7-2.9,2.1-4.9,3.8-6.4c1.7-1.7,4.2-2.3,7.5-2.3c3.4,0,5.5,0.4,7,1.4c1.6,0.9,2.6,1.8,3.1,3.1c0.8,1.4,1.2,3.9,1.2,7.4v9.3 c0,3,0,4.8,0.1,6.2c0.3,1.3,0.5,2.6,0.9,4h-6.6c0-0.7-0.3-1.3-0.5-2.3c-0.3-0.4-0.4-0.7-0.4-0.7c-1.2,0.9-2.6,1.8-3.6,2.7 c-1.6,0.7-2.7,1-4.4,1c-2.6,0-4.7-0.8-6.4-2.9c-1.6-1.4-2.3-3.6-2.3-6.2c0-1.9,0.4-3.4,1-4.8c0.6-1.3,1.7-2.3,3.1-3.1 c1-0.9,3-1.6,5.5-1.7c3.2-1,5.4-1.7,6.5-2.3v-0.9c0-1.4-0.3-2.6-0.8-3.1c-0.7-0.8-1.9-1-3.9-1c-1,0-2.1,0.3-2.9,0.9 C237.3,829.5,236.8,830.6,236.4,832.1z"></path> <path class="st4" d="M283.2,853.4H276v-15.7c0-3.4-0.1-5.6-0.3-6.5c-0.4-1-0.9-1.7-1.4-2.2c-0.6-0.6-1.7-0.9-2.5-0.9 c-1.3,0-2.2,0.3-3.2,1.2c-1,0.9-1.6,1.8-1.9,3c-0.4,1.4-0.4,3.5-0.4,7.1v14h-7v-31h6.4v4.7c2.5-3.4,5.1-5.2,8.7-5.2 c1.4,0,2.9,0.4,4.3,0.9c1,0.9,2.1,1.4,2.7,2.6c0.7,0.9,1.3,2.1,1.6,3.4c0.1,1.4,0.3,3.1,0.3,5.6V853.4z"></path> <path class="st4" d="M321.2,837.9v-7.3h15.4v16.9c-1.4,1.9-3.8,3.5-6.6,4.8c-2.7,1.2-5.8,1.9-8.8,1.9c-3.6,0-7-0.8-9.9-2.9 c-2.9-1.8-4.9-4.5-6.4-8c-1.4-3.5-2.2-7.1-2.2-11.4c0-4.3,0.9-8.3,2.5-11.6c1.6-3.8,4-6.2,6.9-7.8c2.3-1.8,5.3-2.5,8.8-2.5 c4.3,0,8,1.2,10.4,3.4c2.6,2.2,4.2,5.3,4.9,9.1l-7.3,1.7c-0.5-2.1-1.6-3.9-3-4.9c-1.3-1.3-3-1.8-5.1-1.8c-3.2,0-5.8,1.2-7.7,3.5 c-1.9,2.5-2.9,6-2.9,10.8c0,5.1,0.9,8.7,3.1,11.3c1.7,2.5,4.2,3.8,7.3,3.8c1.4,0,2.9-0.4,4.4-0.9c1.8-0.8,3.1-1.8,4.2-2.7v-5.3 H321.2z"></path> <path class="st4" d="M349.9,853.4h-6.7v-31h6.4v4.5c1-2.1,2.2-3.2,2.9-4.2c0.8-0.5,1.9-0.9,3.1-0.9c1.4,0,3.1,0.4,4.5,1.6l-2.2,7.1 c-1.2-1-2.2-1.4-3.2-1.4c-0.9,0-1.7,0.4-2.5,1c-0.6,0.7-1.3,1.7-1.6,3.5c-0.4,1.8-0.7,4.9-0.7,10.1V853.4z"></path> <path class="st4" d="M378.4,835.5c0-2.6-0.3-4.3-1.6-5.5c-0.9-1.4-2.1-1.9-3.5-1.9c-1.6,0-2.6,0.5-3.9,2.1 c-0.9,1.3-1.3,2.9-1.3,5.3H378.4z M378.2,843.6l6.8,1.6c-0.8,2.9-2.2,5.3-4,6.8c-1.9,1.6-4.3,2.3-7.3,2.3c-4.5,0-7.9-1.9-10.1-5.3 c-1.7-2.7-2.5-6.4-2.5-10.5c0-5.3,1-9.3,3.4-12.1c2.3-2.9,5.1-4.4,8.6-4.4c3.9,0,7,1.6,9.2,4.8c2.2,2.9,3.4,7.5,3.2,13.8h-17.4 c0,2.3,0.5,4.3,1.6,5.7c1.2,1,2.5,1.8,4,1.8c1.2,0,2.2-0.3,2.7-0.9C377.1,846.4,377.8,845.3,378.2,843.6z"></path> <path class="st4" d="M406.5,835.5c0-2.6-0.4-4.3-1.3-5.5c-1.2-1.4-2.5-1.9-3.6-1.9c-1.6,0-2.9,0.5-3.9,2.1 c-0.9,1.3-1.3,2.9-1.3,5.3H406.5z M406.1,843.6l6.9,1.6c-0.7,2.9-2.1,5.3-4,6.8c-1.9,1.6-4.4,2.3-7.3,2.3c-4.5,0-7.9-1.9-10.1-5.3 c-1.7-2.7-2.6-6.4-2.6-10.5c0-5.3,1-9.3,3.5-12.1c2.1-2.9,5.1-4.4,8.7-4.4c4,0,6.8,1.6,9,4.8c2.3,2.9,3.2,7.5,3.2,13.8H396 c0.4,2.3,0.8,4.3,1.9,5.7c0.8,1,2.3,1.8,4,1.8c0.9,0,1.9-0.3,2.3-0.9C405.3,846.4,405.7,845.3,406.1,843.6z"></path> <path class="st4" d="M442.8,853.4h-6.9v-15.7c0-3.4-0.1-5.6-0.4-6.5c-0.4-1-0.8-1.7-1.6-2.2c-0.5-0.6-1.4-0.9-2.3-0.9 c-1.2,0-2.2,0.3-3.2,1.2c-0.8,0.9-1.6,1.8-1.8,3c-0.4,1.4-0.8,3.5-0.8,7.1v14h-6.7v-31h6.4v4.7c2.3-3.4,5.2-5.2,8.6-5.2 c1.6,0,3,0.4,4.4,0.9c1.2,0.9,2.1,1.4,2.6,2.6c0.8,0.9,1.2,2.1,1.6,3.4c0.3,1.4,0.3,3.1,0.3,5.6V853.4z"></path> <path class="st4" d="M471.2,834.9v11.6h6.6c2.9,0,4.5-0.3,5.2-0.3c1-0.3,1.8-0.9,2.6-1.7c0.5-1.2,1-2.1,1-3.9c0-1.2-0.3-2.1-0.9-3 c-0.4-1-1.2-1.8-2.2-1.9c-0.9-0.4-3.1-0.8-6.4-0.8H471.2z M471.2,818v9.9h4.7c3,0,4.8-0.1,5.3-0.1c1.4-0.3,2.3-0.8,3-1.6 c0.7-1,1.2-1.9,1.2-3.4c0-1.4-0.3-2.5-1-3.2c-0.5-0.8-1.4-1.4-2.7-1.6h-6.1H471.2z M464,810.7h14.5c2.7,0,4.8,0,6.4,0.5 c1.3,0.3,2.6,0.9,3.8,1.8c0.9,0.9,1.9,2.1,2.7,3.5c0.6,1.4,1,3.4,1,4.9c0,2.2-0.5,3.9-1.3,5.6c-1,1.7-2.2,3-3.8,3.8 c2.1,0.9,4,2.1,5.1,3.8c1.3,1.7,1.7,4,1.7,6.5c0,1.9-0.3,3.9-1,5.7c-0.9,1.7-1.7,3.4-3.2,4.3c-1.2,1.2-2.7,1.7-4.7,2.1 c-1.3,0.3-4.3,0.3-8.8,0.3H464V810.7z"></path> <path class="st4" d="M517.5,853.4v-4.5c-0.9,1.7-2.1,2.9-3.8,3.8c-1.6,0.9-3,1.6-4.8,1.6c-1.8,0-3.2-0.6-4.7-1.6 c-1.6-0.8-2.3-1.9-3.1-3.8c-0.6-1.7-0.8-3.8-0.8-6.6v-19.9h6.8V837c0,4.2,0.1,6.9,0.4,7.8c0.3,1,0.8,1.8,1.4,2.3 c0.7,0.4,1.7,0.9,2.5,0.9c1.3,0,2.2-0.5,3.3-1.2c0.9-0.7,1.6-1.7,1.9-3c0.3-1,0.5-3.9,0.5-8.2v-13.2h6.9v31H517.5z"></path> <path class="st4" d="M531.1,853.4h6.9v-30.9h-6.9V853.4z M531.1,818.3h6.9v-7.5h-6.9V818.3z"></path> <rect x="545.1" y="810.7" class="st4" width="7" height="42.7"></rect> <path class="st4" d="M564.7,837.3c0,3.2,0.4,5.7,1.3,7.3c0.8,2.1,2.6,3.1,4.5,3.1c1.6,0,2.9-0.7,4-2.3c1.2-1.8,1.6-3.8,1.6-7.1 c0-3.8-0.4-6.1-1.4-7.7c-1.2-1.6-2.3-2.5-4.2-2.5c-1.7,0-3.1,0.9-4.2,2.3C565.2,831.9,564.7,834.4,564.7,837.3 M583.1,853.4h-6.2 v-4.5c-1.3,1.9-2.3,3.1-3.9,3.9c-1.6,0.8-3,1.4-4.4,1.4c-3.1,0-5.6-1.6-7.7-4.3c-2.3-2.9-3.2-6.9-3.2-11.9c0-5.2,0.9-9.2,3.1-11.9 c2.1-2.7,4.5-4.2,7.8-4.2c3,0,5.6,1.6,7.5,4.3v-15.5h7V853.4z"></path> <path class="st4" d="M590.2,853.4h6.7v-30.9h-6.7V853.4z M590.2,818.3h6.7v-7.5h-6.7V818.3z"></path> <path class="st4" d="M627.8,853.4h-7v-15.7c0-3.4,0-5.6-0.3-6.5c-0.4-1-0.9-1.7-1.6-2.2c-0.7-0.6-1.4-0.9-2.3-0.9 c-1.3,0-2.2,0.3-3.2,1.2c-0.9,0.9-1.7,1.8-2.1,3c-0.3,1.4-0.4,3.5-0.4,7.1v14h-7v-31h6.6v4.7c2.2-3.4,4.9-5.2,8.4-5.2 c1.6,0,3.1,0.4,4.3,0.9c1.3,0.9,2.2,1.4,2.7,2.6c0.7,0.9,1.3,2.1,1.6,3.4c0.1,1.4,0.3,3.1,0.3,5.6V853.4z"></path> <path class="st4" d="M640.3,837.3c0,3.4,0.7,5.7,1.7,7.3c1,1.6,2.6,2.2,3.9,2.2c1.7,0,3.4-0.7,4.4-2.2c1.2-1.8,1.7-3.9,1.7-7 c0-3.1-0.5-5.4-1.6-7c-1.2-1.7-2.7-2.5-4.3-2.5c-1.6,0-3.1,0.8-4.2,2.3C640.9,831.9,640.3,834.2,640.3,837.3 M634.2,855.5l7.8,1.2 c0.3,0.9,0.5,1.8,1,2.2c0.7,0.5,1.8,0.7,3.1,0.7c1.8,0,3.2-0.1,4.2-0.9c0.5-0.4,0.9-1,1.3-1.8c0-0.8,0.4-2.1,0.4-3.6v-4.7 c-2.2,3.4-4.9,4.9-7.9,4.9c-3.5,0-6.1-1.7-8.4-5.1c-1.4-3.1-2.3-6.4-2.3-10.4c0-5.2,1-9.3,3.1-11.9c2.1-2.6,4.9-4,7.9-4 c3.2,0,6,1.6,8,4.9v-4.5h6.4v28c0,3.6-0.1,6.2-0.8,8c-0.4,1.8-1.2,3.2-1.9,4.3c-1,0.9-2.3,1.9-3.6,2.6c-1.7,0.5-3.5,0.8-6,0.8 c-4.4,0-7.7-0.8-9.3-2.9c-1.9-1.8-2.9-4-2.9-6.7V855.5z"></path> <path class="st4" d="M702.8,837.9l7,2.5c-1,4.8-2.9,8.2-5.3,10.6c-2.5,2.2-5.7,3.2-9.6,3.2c-4.9,0-8.8-1.9-11.8-5.8 c-3.1-3.8-4.7-9-4.7-15.8c0-7,1.6-12.6,4.7-16.5c3-3.9,7-6,12.3-6c4.4,0,7.9,1.4,10.6,4.5c1.4,1.9,3,4.4,3.6,7.9l-7.3,2.1 c-0.3-2.2-1.3-3.9-2.6-5.2c-1.3-1.4-3-1.9-4.9-1.9c-2.7,0-4.9,1.2-6.5,3.4c-1.7,2.2-2.3,6.1-2.3,11c0,5.7,0.7,9.2,2.3,11.4 c1.6,2.5,3.8,3.5,6.5,3.5c1.7,0,3.5-0.4,4.9-2.1C701.1,843.2,702.2,841,702.8,837.9"></path> <path class="st4" d="M721.5,838c0,3.1,0.5,5.3,1.8,7.1c1.3,1.6,2.9,2.3,4.5,2.3c1.7,0,3.4-0.8,4.7-2.3c0.9-1.8,1.8-4,1.8-7.1 c0-3-0.9-5.4-1.8-6.9c-1.3-1.6-3-2.7-4.7-2.7c-1.7,0-3.2,1.2-4.5,2.7C722,832.5,721.5,835,721.5,838 M714.4,837.6 c0-2.6,0.8-5.4,1.9-7.9c0.9-2.6,2.3-4.7,4.7-5.8c2.1-1.4,4.4-1.8,6.9-1.8c4,0,7.3,1.4,9.9,4.4c2.5,3.1,3.8,6.7,3.8,11.6 c0,4.7-1.3,8.4-4,11.6c-2.3,3.1-5.6,4.7-9.6,4.7c-2.3,0-4.7-0.8-6.7-1.9c-2.2-1.3-3.9-3.1-4.8-5.6 C715.2,844.1,714.4,841.2,714.4,837.6z"></path> <path class="st4" d="M764,853.4v-4.5c-0.8,1.7-2.1,2.9-3.6,3.8c-1.4,0.9-3.2,1.6-4.9,1.6c-1.8,0-3.2-0.6-4.7-1.6 c-1.4-0.8-2.5-1.9-3.1-3.8c-0.5-1.7-0.9-3.8-0.9-6.6v-19.9h6.9V837c0,4.2,0.1,6.9,0.3,7.8c0.4,1,1,1.8,1.6,2.3 c0.7,0.4,1.6,0.9,2.7,0.9c1,0,2.1-0.5,3-1.2c0.9-0.7,1.7-1.7,2.1-3c0.3-1,0.4-3.9,0.4-8.2v-13.2h7v31H764z"></path> <path class="st4" d="M801.5,853.4h-6.8v-15.7c0-3.4-0.3-5.6-0.5-6.5c-0.4-1-0.9-1.7-1.4-2.2c-0.8-0.6-1.6-0.9-2.6-0.9 c-1,0-2.2,0.3-3.2,1.2c-0.8,0.9-1.4,1.8-1.8,3c-0.5,1.4-0.5,3.5-0.5,7.1v14h-7v-31h6.5v4.7c2.3-3.4,5.3-5.2,8.7-5.2 c1.6,0,2.9,0.4,4.2,0.9c1.2,0.9,2.1,1.4,2.9,2.6c0.6,0.9,1.2,2.1,1.3,3.4c0.3,1.4,0.4,3.1,0.4,5.6V853.4z"></path> <path class="st4" d="M831.2,831.8l-6.5,1.3c-0.4-1.3-1-2.6-1.8-3.5c-0.9-0.9-1.8-1.2-3.1-1.2c-1.8,0-3.1,0.6-4.2,2.1 c-0.9,1.3-1.6,3.9-1.6,7.1c0,3.6,0.7,6.2,1.7,7.7c0.9,1.4,2.2,2.2,4,2.2c1.3,0,2.3-0.4,3.4-1c0.7-1.2,1.6-2.6,1.7-4.7l6.9,1.3 c-0.8,3.6-2.1,6.4-4.2,8.3c-1.9,1.9-4.7,2.9-8,2.9c-3.8,0-6.9-1.4-9.1-4.3c-2.5-2.9-3.5-6.8-3.5-11.9c0-5.1,1-9.1,3.5-11.8 c2.2-2.7,5.5-4.2,9.4-4.2c3,0,5.6,0.5,7.3,2.2C829,826,830.4,828.4,831.2,831.8"></path> <path class="st4" d="M836.5,853.4h7v-30.9h-7V853.4z M836.5,818.3h7v-7.5h-7V818.3z"></path> <rect x="850.7" y="810.7" class="st4" width="6.9" height="42.7"></rect> </g> </svg> 