<?xml version="1.0" encoding="UTF-8"?> <svg xmlns="http://www.w3.org/2000/svg" id="Layer_1" data-name="Layer 1" width="25.15" height="25.15" viewBox="0 0 25.15 25.15"><path d="M24.49,4.33A6.17,6.17,0,0,0,23,2.11,6.17,6.17,0,0,0,20.82.66,9.27,9.27,0,0,0,17.77.08C16.42,0,16,0,12.58,0S8.73,0,7.39.08A9.28,9.28,0,0,0,4.33.66,6.17,6.17,0,0,0,2.11,2.11,6.17,6.17,0,0,0,.66,4.33,9.28,9.28,0,0,0,.08,7.39C0,8.73,0,9.16,0,12.58s0,3.84.08,5.19a9.21,9.21,0,0,0,.58,3.05A6.17,6.17,0,0,0,2.11,23a6.17,6.17,0,0,0,2.22,1.45,9,9,0,0,0,3.06.58c1.34.06,1.77.08,5.19.08s3.84,0,5.19-.08a9,9,0,0,0,3.05-.58,6.46,6.46,0,0,0,3.67-3.67,9,9,0,0,0,.58-3.05c.06-1.35.08-1.77.08-5.19s0-3.85-.08-5.19A9,9,0,0,0,24.49,4.33ZM22.81,17.66A6.8,6.8,0,0,1,22.37,20a3.87,3.87,0,0,1-.94,1.45,3.91,3.91,0,0,1-1.45.94,6.85,6.85,0,0,1-2.33.44c-1.33.06-1.72.08-5.08.08s-3.76,0-5.09-.08a6.8,6.8,0,0,1-2.33-.44,3.87,3.87,0,0,1-1.45-.94A4,4,0,0,1,2.76,20a7.12,7.12,0,0,1-.44-2.33c-.06-1.33-.07-1.73-.07-5.08s0-3.77.07-5.09a7.05,7.05,0,0,1,.44-2.33A4,4,0,0,1,3.7,3.71a4,4,0,0,1,1.45-.94,6.85,6.85,0,0,1,2.33-.44c1.33-.06,1.73-.08,5.09-.08s3.76,0,5.08.08A6.8,6.8,0,0,1,20,2.77a4,4,0,0,1,1.45.94,3.91,3.91,0,0,1,.94,1.45,6.85,6.85,0,0,1,.44,2.33c.06,1.33.08,1.73.08,5.09S22.87,16.34,22.81,17.66Z"></path><path d="M12.57,6.11A6.47,6.47,0,1,0,19,12.58,6.47,6.47,0,0,0,12.57,6.11Zm0,10.66a4.2,4.2,0,1,1,4.19-4.19A4.19,4.19,0,0,1,12.57,16.77Z"></path><circle cx="19.28" cy="5.86" r="1.51"></circle></svg> 