<?xml version="1.0" encoding="UTF-8"?> <!-- Generator: Adobe Illustrator 24.1.3, SVG Export Plug-In . SVG Version: 6.00 Build 0) --> <svg xmlns="http://www.w3.org/2000/svg" xmlns:xlink="http://www.w3.org/1999/xlink" version="1.1" id="Layer_1" x="0px" y="0px" viewBox="0 0 913.1 99.8" style="enable-background:new 0 0 913.1 99.8;" xml:space="preserve"> <style type="text/css"> .st0{fill:#231F20;} </style> <polygon class="st0" points="23.4,37.6 20.3,37.6 20.3,77 23.4,77 26.5,77 26.5,37.6 "></polygon> <polygon class="st0" points="70.1,49.7 67,49.7 67,89.4 70.1,89.4 73.2,89.4 73.2,49.7 "></polygon> <path class="st0" d="M88.3,87c0,2.1-0.8,3.9-2.3,5.4c-1.5,1.4-3.3,2.3-5.4,2.3H70.1H46.7H23.4H12.8c-2.1,0-3.9-0.8-5.4-2.3 C6,90.9,5.2,89,5.2,87V40c0-2.1,0.8-4.1,2.3-5.4c1.5-1.4,3.3-2.3,5.4-2.3h10.5h23.4h23.4h10.5c2.1,0,3.9,0.8,5.4,2.3 c1.4,1.2,2.3,3.3,2.3,5.4V87z M89.6,30.9c-2.3-2.3-5.4-3.7-8.9-3.7H70.1H46.7H23.4H12.8c-3.5,0-6.6,1.4-8.9,3.7 C1.5,33.2,0,36.5,0,40V87c0,3.5,1.5,6.6,3.9,9.1c2.3,2.3,5.4,3.7,8.9,3.7h10.5h23.4h23.4h10.5c3.5,0,6.6-1.4,8.9-3.7 c2.5-2.5,3.9-5.6,3.9-9.1V40C93.5,36.5,92,33.2,89.6,30.9z"></path> <path class="st0" d="M75.7,38.6h-5.6H46.7h-9.3c-2.1,0-4.1,1.1-5.6,2.5h-0.2c-1.5,1.5-2.3,3.5-2.3,5.8v11.5c0,2.1,0.8,4.2,2.3,5.8 l0.2-0.2c1.4,1.6,3.5,2.5,5.6,2.5H41h5.8h9.3c0.4,0,1,0.2,1.4,0.6c0.2,0.4,0.6,0.8,0.6,1.5v11.6c0,0.6-0.4,1-0.6,1.4 c-0.4,0.4-1,0.6-1.4,0.6h-9.3H23.4h-5.6c-0.4,0-1-0.2-1.4-0.6c-0.4-0.4-0.6-0.8-0.6-1.4v-7.7h-6v7.7c0,2.3,0.8,4.3,2.3,5.8 c1.6,1.4,3.5,2.3,5.8,2.3h5.6h23.4h9.3c2.1,0,4.1-0.8,5.8-2.3c1.4-1.7,2.3-3.5,2.3-5.8V68.6c0-2.3-0.8-4.4-2.3-5.8 c-1.7-1.5-3.7-2.3-5.8-2.3h-4.5h-4.8h-9.3c-0.4,0-1-0.4-1.4-0.6c-0.2-0.4-0.6-1.1-0.6-1.5V46.9c0-0.7,0.4-1.1,0.6-1.5 c0.4-0.4,1-0.6,1.4-0.6h9.3h23.4h5.6c0.4,0,1,0.2,1.4,0.6c0.4,0.4,0.6,0.8,0.6,1.5v7.6h6v-7.6c0-2.3-0.8-4.4-2.3-5.8 C80,39.6,78,38.6,75.7,38.6"></path> <rect x="1.7" y="0.5" class="st0" width="3.7" height="19.6"></rect> <path class="st0" d="M8.3,13.2h3.6v1.2c0,1.2,0.2,2,0.5,2.5c0.3,0.4,0.8,0.7,1.5,0.7c0.8,0,1.4-0.2,1.8-0.6c0.4-0.4,0.6-1,0.6-1.7 c0-0.6-0.1-1.1-0.4-1.5c-0.3-0.4-0.9-1-1.8-1.6l-1.9-1.3c-1.6-1.1-2.7-2-3.1-2.8C8.7,7.3,8.5,6.4,8.5,5.3c0-1.6,0.5-2.9,1.5-3.9 C10.9,0.5,12.3,0,14,0c1.8,0,3.2,0.5,4.2,1.5c1,1,1.4,2.4,1.4,4.3v0.5v0.2h-3.5V5.9c0-1.1-0.2-1.8-0.5-2.3C15.2,3.2,14.7,3,13.9,3 c-0.6,0-1.1,0.2-1.4,0.5C12.2,3.8,12,4.3,12,4.9c0,0.8,0.7,1.7,2.3,2.7c0,0,0,0,0,0l2,1.3c1.4,1,2.4,1.9,2.9,2.7 c0.5,0.9,0.8,1.9,0.8,3.2c0,1.8-0.5,3.2-1.5,4.1c-1,1-2.5,1.4-4.3,1.4c-2,0-3.5-0.5-4.4-1.5c-1-1-1.4-2.6-1.4-4.6 C8.3,14.2,8.3,13.8,8.3,13.2L8.3,13.2z"></path> <path class="st0" d="M29.7,20.1H33v-3.5h-3.3V20.1z M29.7,9.1H33V5.6h-3.3V9.1z"></path> <path class="st0" d="M44.9,13.4h3.6v-8L44.9,13.4z M48.5,20.1v-3.9h-6.2v-3.1l5.8-12.4h3.8v12.6h1.6v2.9h-1.6v3.9H48.5z"></path> <path class="st0" d="M62.7,7.1c0-1.5-0.1-2.6-0.4-3.1c-0.2-0.5-0.7-0.8-1.4-0.8c-0.7,0-1.1,0.3-1.4,0.8c-0.3,0.5-0.4,1.6-0.4,3.2 c0,1.7,0.1,2.7,0.4,3.2c0.2,0.5,0.7,0.7,1.4,0.7c0.6,0,1.1-0.3,1.4-0.8C62.6,9.7,62.7,8.6,62.7,7.1 M62.7,12.6 c-0.3,0.5-0.6,0.8-1.1,1c-0.5,0.2-1,0.3-1.7,0.3c-1.5,0-2.6-0.5-3.3-1.5c-0.7-1-1.1-2.6-1.1-4.7c0-2.7,0.4-4.6,1.2-5.7 c0.8-1.1,2.2-1.7,4-1.7c1.1,0,2,0.2,2.7,0.5c0.7,0.4,1.3,0.9,1.8,1.7c0.4,0.6,0.6,1.4,0.8,2.6c0.1,1.2,0.2,2.9,0.2,5.2 c0,2.3-0.1,4.1-0.2,5.2c-0.1,1.1-0.4,2-0.7,2.5c-0.5,0.8-1.1,1.4-1.8,1.8c-0.7,0.4-1.6,0.6-2.7,0.6c-1.6,0-2.9-0.4-3.7-1.1 c-0.8-0.7-1.3-1.8-1.3-3.2V16h3.4v0.2c0,0.5,0.1,0.9,0.4,1.1c0.2,0.3,0.7,0.4,1.1,0.4c0.7,0,1.2-0.3,1.4-0.9 c0.3-0.6,0.4-1.7,0.4-3.3V12.6z"></path> <path class="st0" d="M75.7,7.1c0-1.5-0.1-2.6-0.4-3.1c-0.3-0.5-0.7-0.8-1.4-0.8c-0.6,0-1.1,0.3-1.4,0.8c-0.3,0.5-0.4,1.6-0.4,3.2 c0,1.7,0.1,2.7,0.4,3.2c0.3,0.5,0.7,0.7,1.4,0.7c0.7,0,1.1-0.3,1.4-0.8C75.6,9.7,75.7,8.6,75.7,7.1 M75.8,12.6 c-0.3,0.5-0.7,0.8-1.1,1c-0.4,0.2-1,0.3-1.7,0.3c-1.5,0-2.6-0.5-3.3-1.5c-0.7-1-1.1-2.6-1.1-4.7c0-2.7,0.4-4.6,1.2-5.7 c0.8-1.1,2.2-1.7,4-1.7c1.1,0,2,0.2,2.7,0.5c0.7,0.4,1.3,0.9,1.8,1.7c0.4,0.6,0.6,1.4,0.8,2.6c0.2,1.2,0.2,2.9,0.2,5.2 c0,2.3-0.1,4.1-0.2,5.2c-0.1,1.1-0.4,2-0.7,2.5c-0.5,0.8-1.1,1.4-1.8,1.8c-0.7,0.4-1.6,0.6-2.7,0.6c-1.7,0-2.9-0.4-3.7-1.1 c-0.8-0.7-1.2-1.8-1.2-3.2V16h3.4v0.2c0,0.5,0.1,0.9,0.4,1.1c0.3,0.3,0.7,0.4,1.2,0.4c0.7,0,1.2-0.3,1.5-0.9 c0.3-0.6,0.4-1.7,0.4-3.3V12.6z"></path> <path class="st0" d="M88.8,12V6.7c0-1.6-0.1-2.5-0.4-3c-0.2-0.4-0.7-0.7-1.4-0.7c-0.7,0-1.1,0.2-1.3,0.7c-0.3,0.5-0.4,1.5-0.4,3.2 v1.9v5.4c0,1.5,0.1,2.5,0.4,3c0.2,0.5,0.7,0.7,1.3,0.7c0.7,0,1.1-0.2,1.4-0.7c0.3-0.5,0.4-1.5,0.4-3.2V12z M81.6,10.2 c0-2.3,0.1-4,0.2-5.2c0.1-1.1,0.4-2,0.7-2.5c0.5-0.8,1.1-1.3,1.7-1.7C85,0.5,85.9,0.3,87,0.3c1.1,0,2,0.2,2.7,0.5 c0.7,0.3,1.3,0.9,1.7,1.7c0.4,0.5,0.6,1.4,0.7,2.5c0.2,1.1,0.2,2.9,0.2,5.2c0,2.4-0.1,4.1-0.2,5.3c-0.1,1.1-0.4,2-0.7,2.6 c-0.5,0.8-1.1,1.4-1.8,1.8c-0.7,0.4-1.6,0.6-2.7,0.6c-1.1,0-2-0.2-2.7-0.6c-0.7-0.4-1.3-1-1.8-1.8c-0.3-0.5-0.6-1.4-0.7-2.5 C81.7,14.5,81.6,12.7,81.6,10.2z"></path> <polygon class="st0" points="228.3,37.6 225.2,37.6 225.2,77 228.3,77 231.4,77 231.4,37.6 "></polygon> <polygon class="st0" points="275,49.7 271.9,49.7 271.9,89.4 275,89.4 278.1,89.4 278.1,49.7 "></polygon> <path class="st0" d="M293.2,87c0,2.1-0.8,3.9-2.3,5.4c-1.5,1.4-3.3,2.3-5.4,2.3H275h-23.4h-23.4h-10.5c-2.1,0-3.9-0.8-5.4-2.3 c-1.5-1.4-2.3-3.3-2.3-5.4V40c0-2.1,0.8-4.1,2.3-5.4c1.4-1.4,3.3-2.3,5.4-2.3h10.5h23.4H275h10.5c2.1,0,3.9,0.8,5.4,2.3 c1.4,1.2,2.3,3.3,2.3,5.4V87z M294.4,30.9c-2.3-2.3-5.4-3.7-8.9-3.7H275h-23.4h-23.4h-10.5c-3.5,0-6.6,1.4-8.9,3.7 c-2.5,2.3-3.9,5.6-3.9,9.1V87c0,3.5,1.4,6.6,3.9,9.1c2.3,2.3,5.4,3.7,8.9,3.7h10.5h23.4H275h10.5c3.5,0,6.6-1.4,8.9-3.7 c2.5-2.5,3.9-5.6,3.9-9.1V40C298.4,36.5,296.9,33.2,294.4,30.9z"></path> <path class="st0" d="M280.6,38.6H275h-23.4h-9.3c-2.1,0-4.1,1.1-5.6,2.5h-0.2c-1.5,1.5-2.3,3.5-2.3,5.8v11.5c0,2.1,0.8,4.2,2.3,5.8 l0.2-0.2c1.4,1.6,3.5,2.5,5.6,2.5h3.5h5.8h9.3c0.4,0,1,0.2,1.4,0.6c0.2,0.4,0.6,0.8,0.6,1.5v11.6c0,0.6-0.4,1-0.6,1.4 c-0.4,0.4-1,0.6-1.4,0.6h-9.3h-23.4h-5.6c-0.4,0-1.1-0.2-1.5-0.6c-0.4-0.4-0.6-0.8-0.6-1.4v-7.7h-6v7.7c0,2.3,0.8,4.3,2.3,5.8 c1.7,1.4,3.5,2.3,5.8,2.3h5.6h23.4h9.3c2.1,0,4.1-0.8,5.8-2.3c1.4-1.7,2.3-3.5,2.3-5.8V68.6c0-2.3-0.8-4.4-2.3-5.8 c-1.7-1.5-3.7-2.3-5.8-2.3h-4.6h-4.8h-9.3c-0.4,0-1-0.4-1.4-0.6c-0.2-0.4-0.6-1.1-0.6-1.5V46.9c0-0.7,0.4-1.1,0.6-1.5 c0.4-0.4,1-0.6,1.4-0.6h9.3H275h5.6c0.4,0,1,0.2,1.4,0.6c0.4,0.4,0.6,0.8,0.6,1.5v7.6h6v-7.6c0-2.3-0.8-4.4-2.3-5.8 C284.9,39.6,282.9,38.6,280.6,38.6"></path> <rect x="212.3" y="0.5" class="st0" width="3.6" height="19.6"></rect> <path class="st0" d="M218.9,13.2h3.7v1.2c0,1.2,0.2,2,0.5,2.5c0.3,0.4,0.8,0.7,1.6,0.7s1.4-0.2,1.8-0.6c0.4-0.4,0.6-1,0.6-1.7 c0-0.6-0.2-1.1-0.4-1.5c-0.3-0.4-0.9-1-1.8-1.6l-1.9-1.3c-1.6-1.1-2.6-2-3.1-2.8c-0.4-0.7-0.6-1.7-0.6-2.8c0-1.6,0.5-2.9,1.4-3.9 c1-0.9,2.3-1.4,4-1.4c1.8,0,3.2,0.5,4.2,1.5c1,1,1.4,2.4,1.4,4.3v0.5c0,0.1,0,0.2,0,0.2h-3.5V5.9c0-1.1-0.2-1.8-0.5-2.3 c-0.3-0.4-0.9-0.7-1.7-0.7c-0.6,0-1.1,0.2-1.4,0.5c-0.3,0.4-0.5,0.8-0.5,1.4c0,0.8,0.8,1.7,2.3,2.7c0,0,0,0,0,0l2,1.3 c1.5,1,2.4,1.9,2.9,2.7c0.5,0.9,0.8,1.9,0.8,3.2c0,1.8-0.5,3.2-1.5,4.1c-1,1-2.5,1.4-4.4,1.4c-2,0-3.5-0.5-4.4-1.5 c-1-1-1.4-2.6-1.4-4.6C218.8,14.2,218.8,13.8,218.9,13.2L218.9,13.2z"></path> <path class="st0" d="M240.3,20.1h3.3v-3.5h-3.3V20.1z M240.3,9.1h3.3V5.6h-3.3V9.1z"></path> <path class="st0" d="M255.5,20.1c0.2-2.4,0.7-5,1.6-7.7c0.8-2.7,2-5.5,3.4-8.4h-7.4V0.7h10.8v2.8c-1.3,2.4-2.4,5.1-3.2,7.9 c-0.8,2.8-1.3,5.6-1.5,8.7H255.5z"></path> <path class="st0" d="M270.5,20.1V6.3h-4.3V4c1.6-0.1,2.8-0.4,3.8-1c0.9-0.6,1.4-1.5,1.6-2.6h2.4v19.7H270.5z"></path> <path class="st0" d="M286.3,12V6.7c0-1.6-0.1-2.5-0.4-3c-0.2-0.4-0.7-0.7-1.4-0.7c-0.7,0-1.1,0.2-1.4,0.7c-0.2,0.5-0.4,1.5-0.4,3.2 v1.9v5.4c0,1.5,0.1,2.5,0.4,3c0.2,0.5,0.7,0.7,1.4,0.7c0.7,0,1.1-0.2,1.4-0.7c0.3-0.5,0.4-1.5,0.4-3.2V12z M279.2,10.2 c0-2.3,0.1-4,0.2-5.2c0.2-1.1,0.4-2,0.8-2.5c0.5-0.8,1-1.3,1.7-1.7s1.6-0.5,2.7-0.5c1.1,0,2,0.2,2.7,0.5c0.7,0.3,1.3,0.9,1.7,1.7 c0.3,0.5,0.6,1.4,0.7,2.5c0.2,1.1,0.2,2.9,0.2,5.2c0,2.4-0.1,4.1-0.2,5.3c-0.1,1.1-0.4,2-0.7,2.6c-0.5,0.8-1.1,1.4-1.8,1.8 c-0.7,0.4-1.6,0.6-2.7,0.6c-1.1,0-2-0.2-2.7-0.6c-0.7-0.4-1.3-1-1.8-1.8c-0.3-0.5-0.6-1.4-0.7-2.5C279.3,14.5,279.2,12.7,279.2,10.2 z"></path> <polygon class="st0" points="433.2,37.6 430.1,37.6 430.1,77 433.2,77 436.3,77 436.3,37.6 "></polygon> <polygon class="st0" points="479.9,49.7 476.8,49.7 476.8,89.4 479.9,89.4 483,89.4 483,49.7 "></polygon> <path class="st0" d="M498.1,87c0,2.1-0.8,3.9-2.3,5.4c-1.4,1.4-3.3,2.3-5.4,2.3h-10.5h-23.4h-23.3h-10.6c-2,0-3.9-0.8-5.4-2.3 c-1.4-1.4-2.3-3.3-2.3-5.4V40c0-2.1,0.9-4.1,2.3-5.4c1.4-1.4,3.3-2.3,5.4-2.3h10.6h23.3h23.4h10.5c2.1,0,3.9,0.8,5.4,2.3 c1.4,1.2,2.3,3.3,2.3,5.4V87z M499.4,30.9c-2.3-2.3-5.4-3.7-8.9-3.7h-10.5h-23.4h-23.3h-10.6c-3.5,0-6.6,1.4-8.9,3.7 c-2.5,2.3-3.9,5.6-3.9,9.1V87c0,3.5,1.5,6.6,3.9,9.1c2.3,2.3,5.3,3.7,8.9,3.7h10.6h23.3h23.4h10.5c3.5,0,6.6-1.4,8.9-3.7 c2.5-2.5,3.9-5.6,3.9-9.1V40C503.3,36.5,501.8,33.2,499.4,30.9z"></path> <path class="st0" d="M485.5,38.6h-5.6h-23.4h-9.3c-2.1,0-4.1,1.1-5.6,2.5h-0.2c-1.5,1.5-2.3,3.5-2.3,5.8v11.5c0,2.1,0.8,4.2,2.3,5.8 l0.2-0.2c1.4,1.6,3.5,2.5,5.6,2.5h3.5h5.8h9.3c0.4,0,1,0.2,1.4,0.6c0.2,0.4,0.7,0.8,0.7,1.5v11.6c0,0.6-0.4,1-0.7,1.4 c-0.4,0.4-1,0.6-1.4,0.6h-9.3h-23.3h-5.6c-0.4,0-1.1-0.2-1.5-0.6c-0.4-0.4-0.6-0.8-0.6-1.4v-7.7h-6v7.7c0,2.3,0.8,4.3,2.3,5.8 c1.7,1.4,3.5,2.3,5.8,2.3h5.6h23.3h9.3c2.1,0,4.1-0.8,5.8-2.3c1.4-1.7,2.3-3.5,2.3-5.8V68.6c0-2.3-0.8-4.4-2.3-5.8 c-1.6-1.5-3.7-2.3-5.8-2.3h-4.5h-4.8h-9.3c-0.4,0-1-0.4-1.5-0.6c-0.2-0.4-0.6-1.1-0.6-1.5V46.9c0-0.7,0.4-1.1,0.6-1.5 c0.4-0.4,1-0.6,1.5-0.6h9.3h23.4h5.6c0.4,0,1,0.2,1.5,0.6c0.4,0.4,0.6,0.8,0.6,1.5v7.6h6v-7.6c0-2.3-0.8-4.4-2.3-5.8 C489.8,39.6,487.8,38.6,485.5,38.6"></path> <rect x="411.5" y="0.5" class="st0" width="3.6" height="19.6"></rect> <path class="st0" d="M418.1,13.2h3.6v1.2c0,1.2,0.1,2,0.4,2.5c0.3,0.4,0.8,0.7,1.6,0.7c0.7,0,1.3-0.2,1.7-0.6c0.4-0.4,0.6-1,0.6-1.7 c0-0.6-0.1-1.1-0.4-1.5c-0.3-0.4-0.9-1-1.8-1.6l-1.9-1.3c-1.6-1.1-2.6-2-3.1-2.8c-0.4-0.7-0.6-1.7-0.6-2.8c0-1.6,0.5-2.9,1.4-3.9 c1-0.9,2.4-1.4,4.1-1.4c1.8,0,3.2,0.5,4.1,1.5c1,1,1.5,2.4,1.5,4.3c0,0.2,0,0.3,0,0.5v0.2h-3.5V5.9c0-1.1-0.2-1.8-0.5-2.3 C425,3.2,424.5,3,423.7,3c-0.6,0-1.1,0.2-1.4,0.5c-0.3,0.4-0.5,0.8-0.5,1.4c0,0.8,0.8,1.7,2.3,2.7c0,0,0,0,0,0l2,1.3 c1.4,1,2.4,1.9,2.9,2.7c0.5,0.9,0.7,1.9,0.7,3.2c0,1.8-0.5,3.2-1.5,4.1c-1,1-2.5,1.4-4.4,1.4c-2,0-3.5-0.5-4.4-1.5 c-1-1-1.4-2.6-1.4-4.6C418,14.2,418.1,13.8,418.1,13.2L418.1,13.2z"></path> <path class="st0" d="M439.5,20.1h3.3v-3.5h-3.3V20.1z M439.5,9.1h3.3V5.6h-3.3V9.1z"></path> <path class="st0" d="M452.3,20.1c0-0.1,0-0.2,0-0.3v-0.3c0-1.5,0.3-2.9,0.9-4.3c0.6-1.4,1.6-2.7,2.8-4c0.2-0.2,0.6-0.6,1-1 c0.9-0.8,1.4-1.4,1.7-1.8c0.2-0.4,0.4-0.8,0.5-1.2c0.1-0.4,0.2-1,0.2-1.5c0-0.8-0.1-1.5-0.4-1.9c-0.3-0.4-0.8-0.6-1.4-0.6 c-0.6,0-1.1,0.2-1.4,0.7c-0.3,0.5-0.4,1.3-0.4,2.3v0.5c0,0.1,0,0.2,0,0.3h-3.4c0-0.1,0-0.2,0-0.3V6.3c0-2,0.4-3.5,1.3-4.5 c0.9-0.9,2.3-1.4,4.1-1.4c1.8,0,3.1,0.4,4,1.3c0.9,0.8,1.4,2.1,1.4,3.7c0,0.7-0.1,1.5-0.2,2.1c-0.2,0.6-0.4,1.2-0.8,1.8 c-0.2,0.5-0.9,1.2-1.8,2.1c-0.5,0.5-0.9,0.9-1.2,1.2c-1.9,2.1-2.9,3.5-3.2,4.4h6.9v3.1H452.3z"></path> <path class="st0" d="M465.3,20.1v-0.3c0-0.1,0-0.2,0-0.3c0-1.5,0.3-2.9,1-4.3c0.6-1.4,1.5-2.7,2.8-4c0.2-0.2,0.6-0.6,1-1 c0.8-0.8,1.4-1.4,1.7-1.8c0.3-0.4,0.5-0.8,0.6-1.2c0.1-0.4,0.2-1,0.2-1.5c0-0.8-0.1-1.5-0.4-1.9c-0.3-0.4-0.8-0.6-1.4-0.6 c-0.7,0-1.1,0.2-1.4,0.7c-0.3,0.5-0.5,1.3-0.5,2.3c0,0.2,0,0.4,0,0.5c0,0.1,0,0.2,0,0.3h-3.4c0-0.1,0-0.2,0-0.3c0-0.2,0-0.3,0-0.3 c0-2.1,0.4-3.6,1.3-4.5c0.9-0.9,2.2-1.4,4.1-1.4c1.7,0,3.1,0.4,4,1.3c0.9,0.8,1.4,2.1,1.4,3.7c0,0.7-0.1,1.5-0.3,2.1 c-0.2,0.6-0.4,1.2-0.8,1.8c-0.3,0.5-0.9,1.2-1.8,2.1c-0.5,0.5-0.9,0.9-1.1,1.2h0c-1.9,2.1-2.9,3.5-3.2,4.4h6.9v3.1H465.3z"></path> <path class="st0" d="M485.5,12V6.7c0-1.6-0.1-2.5-0.4-3c-0.3-0.4-0.7-0.7-1.4-0.7c-0.7,0-1.1,0.2-1.4,0.7c-0.2,0.5-0.4,1.5-0.4,3.2 v1.9v5.4c0,1.5,0.1,2.5,0.4,3c0.3,0.5,0.7,0.7,1.4,0.7c0.6,0,1.1-0.2,1.4-0.7c0.2-0.5,0.4-1.5,0.4-3.2V12z M478.4,10.2 c0-2.3,0.1-4,0.2-5.2c0.2-1.1,0.4-2,0.7-2.5c0.5-0.8,1-1.3,1.7-1.7c0.7-0.3,1.6-0.5,2.7-0.5c1.1,0,2,0.2,2.7,0.5 c0.7,0.3,1.3,0.9,1.7,1.7c0.4,0.5,0.6,1.4,0.7,2.5c0.2,1.1,0.2,2.9,0.2,5.2c0,2.4-0.1,4.1-0.2,5.3c-0.2,1.1-0.4,2-0.7,2.6 c-0.5,0.8-1.1,1.4-1.8,1.8c-0.7,0.4-1.6,0.6-2.7,0.6c-1.1,0-2-0.2-2.7-0.6c-0.7-0.4-1.3-1-1.8-1.8c-0.4-0.5-0.6-1.4-0.7-2.5 C478.5,14.5,478.4,12.7,478.4,10.2z"></path> <path class="st0" d="M491.4,20.1c0-0.1,0-0.2,0-0.3v-0.3c0-1.5,0.3-2.9,0.9-4.3c0.6-1.4,1.6-2.7,2.8-4c0.2-0.2,0.6-0.6,1-1 c0.8-0.8,1.4-1.4,1.7-1.8c0.3-0.4,0.4-0.8,0.6-1.2c0.1-0.4,0.2-1,0.2-1.5c0-0.8-0.1-1.5-0.4-1.9c-0.3-0.4-0.8-0.6-1.4-0.6 c-0.7,0-1.1,0.2-1.4,0.7c-0.3,0.5-0.5,1.3-0.5,2.3c0,0.2,0,0.4,0,0.5c0,0.1,0,0.2,0,0.3h-3.4V6.6V6.3c0-2,0.4-3.5,1.3-4.5 c0.9-0.9,2.2-1.4,4.1-1.4c1.7,0,3.1,0.4,4,1.3c0.9,0.8,1.4,2.1,1.4,3.7c0,0.7-0.1,1.5-0.2,2.1c-0.2,0.6-0.4,1.2-0.8,1.8 c-0.3,0.5-0.9,1.2-1.8,2.1c-0.5,0.5-0.8,0.9-1.1,1.2c-1.9,2.1-2.9,3.5-3.2,4.4h6.9v3.1H491.4z"></path> <rect x="616.4" y="0.5" class="st0" width="3.7" height="19.6"></rect> <path class="st0" d="M623,13.2h3.6v1.2c0,1.2,0.1,2,0.4,2.5c0.3,0.4,0.8,0.7,1.6,0.7c0.8,0,1.4-0.2,1.8-0.6c0.4-0.4,0.6-1,0.6-1.7 c0-0.6-0.1-1.1-0.4-1.5c-0.3-0.4-0.9-1-1.8-1.6l-1.9-1.3c-1.6-1.1-2.7-2-3.1-2.8c-0.4-0.7-0.6-1.7-0.6-2.8c0-1.6,0.5-2.9,1.4-3.9 c1-0.9,2.3-1.4,4-1.4c1.8,0,3.2,0.5,4.2,1.5c1,1,1.5,2.4,1.5,4.3v0.5c0,0.1,0,0.2,0,0.2h-3.5V5.9c0-1.1-0.2-1.8-0.5-2.3 c-0.4-0.4-0.9-0.7-1.7-0.7c-0.6,0-1.1,0.2-1.4,0.5c-0.3,0.4-0.5,0.8-0.5,1.4c0,0.8,0.8,1.7,2.2,2.7c0.1,0,0.1,0,0.1,0l2,1.3 c1.4,1,2.4,1.9,2.9,2.7c0.5,0.9,0.8,1.9,0.8,3.2c0,1.8-0.5,3.2-1.5,4.1c-1,1-2.5,1.4-4.4,1.4c-2,0-3.4-0.5-4.4-1.5 c-0.9-1-1.4-2.6-1.4-4.6C623,14.2,623,13.8,623,13.2L623,13.2z"></path> <path class="st0" d="M644.4,20.1h3.2v-3.5h-3.2V20.1z M644.4,9.1h3.2V5.6h-3.2V9.1z"></path> <path class="st0" d="M661.6,20.1V6.3h-4.3V4c1.6-0.1,2.9-0.4,3.7-1c0.9-0.6,1.5-1.5,1.6-2.6h2.4v19.7H661.6z"></path> <path class="st0" d="M673.9,13.6c0,1.5,0.1,2.5,0.4,3.1c0.2,0.6,0.7,0.9,1.4,0.9c0.7,0,1.1-0.3,1.4-0.8c0.2-0.5,0.4-1.5,0.4-3.2 c0-1.6-0.1-2.7-0.4-3.2c-0.2-0.5-0.7-0.7-1.4-0.7c-0.6,0-1.1,0.3-1.4,0.9C674,11.2,673.9,12.2,673.9,13.6 M673.9,8.2 c0.3-0.5,0.6-0.8,1.1-1c0.5-0.2,1-0.3,1.7-0.3c1.5,0,2.6,0.5,3.3,1.5c0.7,1,1.1,2.6,1.1,4.7c0,2.7-0.4,4.6-1.2,5.7 c-0.8,1.1-2.2,1.7-4.2,1.7c-1.1,0-1.9-0.2-2.6-0.5c-0.7-0.4-1.3-0.9-1.7-1.7c-0.4-0.6-0.6-1.4-0.8-2.6c-0.2-1.2-0.2-2.9-0.2-5.1 c0-2.3,0.1-4,0.2-5.2c0.1-1.1,0.4-2,0.7-2.6c0.5-0.8,1.1-1.4,1.8-1.8c0.7-0.4,1.7-0.6,2.9-0.6c1.5,0,2.7,0.4,3.5,1.1 c0.8,0.7,1.2,1.7,1.2,3.1v0.3h-3.4V4.6c0-0.5-0.1-1-0.4-1.2c-0.2-0.2-0.6-0.4-1.2-0.4c-0.7,0-1.1,0.3-1.4,0.9 c-0.3,0.6-0.4,1.6-0.4,3.1v0.5C673.9,7.8,673.9,8,673.9,8.2z"></path> <path class="st0" d="M683.2,13.8h3.4v0.5c0,1.1,0.2,2,0.5,2.6c0.3,0.6,0.8,0.9,1.5,0.9c0.7,0,1.1-0.4,1.4-1c0.3-0.7,0.5-1.8,0.5-3.3 c0-1.4-0.2-2.4-0.5-3.1c-0.3-0.7-0.9-1-1.6-1c-0.5,0-0.9,0.2-1.3,0.5c-0.3,0.3-0.5,0.7-0.5,1.1h-3.2l0.5-10.3h9.3v3.1h-6.6l-0.2,3.9 c0.4-0.4,0.8-0.7,1.2-0.8c0.4-0.2,0.9-0.3,1.5-0.3c1.7,0,2.9,0.5,3.7,1.6c0.8,1.1,1.2,2.7,1.2,4.9c0,2.6-0.4,4.4-1.3,5.6 c-0.9,1.1-2.3,1.7-4.3,1.7c-1.8,0-3.1-0.5-4-1.5c-0.9-1-1.3-2.6-1.3-4.7V13.8z"></path> <path class="st0" d="M703.5,7.1c0-1.5-0.2-2.6-0.4-3.1c-0.2-0.5-0.7-0.8-1.4-0.8c-0.7,0-1.2,0.3-1.4,0.8c-0.3,0.5-0.4,1.6-0.4,3.2 c0,1.7,0.1,2.7,0.4,3.2c0.2,0.5,0.7,0.7,1.4,0.7c0.7,0,1.1-0.3,1.4-0.8C703.3,9.7,703.5,8.6,703.5,7.1 M703.5,12.6 c-0.3,0.5-0.7,0.8-1.1,1c-0.5,0.2-1,0.3-1.7,0.3c-1.5,0-2.6-0.5-3.3-1.5c-0.7-1-1.1-2.6-1.1-4.7c0-2.7,0.4-4.6,1.2-5.7 c0.8-1.1,2.2-1.7,4-1.7c1.1,0,2.1,0.2,2.8,0.5c0.7,0.4,1.3,0.9,1.8,1.7c0.3,0.6,0.6,1.4,0.8,2.6c0.1,1.2,0.2,2.9,0.2,5.2 c0,2.3-0.1,4.1-0.2,5.2c-0.2,1.1-0.4,2-0.7,2.5c-0.5,0.8-1.1,1.4-1.8,1.8c-0.7,0.4-1.6,0.6-2.6,0.6c-1.7,0-2.9-0.4-3.8-1.1 c-0.8-0.7-1.3-1.8-1.3-3.2V16h3.4v0.2c0,0.5,0.1,0.9,0.4,1.1c0.2,0.3,0.6,0.4,1.1,0.4c0.7,0,1.2-0.3,1.4-0.9 c0.3-0.6,0.4-1.7,0.4-3.3V12.6z"></path> <polygon class="st0" points="843,37.6 839.9,37.6 839.9,77 843,77 846.1,77 846.1,37.6 "></polygon> <polygon class="st0" points="889.7,49.7 886.6,49.7 886.6,89.4 889.7,89.4 892.9,89.4 892.9,49.7 "></polygon> <path class="st0" d="M907.9,87c0,2.1-0.8,3.9-2.3,5.4c-1.5,1.4-3.3,2.3-5.4,2.3h-10.5h-23.4H843h-10.5c-2.1,0-3.9-0.8-5.4-2.3 c-1.4-1.4-2.3-3.3-2.3-5.4V40c0-2.1,0.9-4.1,2.3-5.4c1.4-1.4,3.3-2.3,5.4-2.3H843h23.4h23.4h10.5c2.1,0,3.9,0.8,5.4,2.3 c1.4,1.2,2.3,3.3,2.3,5.4V87z M909.2,30.9c-2.3-2.3-5.4-3.7-8.9-3.7h-10.5h-23.4H843h-10.5c-3.5,0-6.6,1.4-8.9,3.7 c-2.5,2.3-3.9,5.6-3.9,9.1V87c0,3.5,1.4,6.6,3.9,9.1c2.2,2.3,5.4,3.7,8.9,3.7H843h23.4h23.4h10.5c3.5,0,6.6-1.4,8.9-3.7 c2.5-2.5,3.9-5.6,3.9-9.1V40C913.1,36.5,911.7,33.2,909.2,30.9z"></path> <path class="st0" d="M895.3,38.6h-5.6h-23.4h-9.3c-2.1,0-4.1,1.1-5.6,2.5h-0.2c-1.4,1.5-2.3,3.5-2.3,5.8v11.5c0,2.1,0.9,4.2,2.3,5.8 l0.2-0.2c1.5,1.6,3.5,2.5,5.6,2.5h3.5h5.8h9.3c0.4,0,1,0.2,1.4,0.6c0.2,0.4,0.6,0.8,0.6,1.5v11.6c0,0.6-0.4,1-0.6,1.4 c-0.4,0.4-1,0.6-1.4,0.6h-9.3H843h-5.6c-0.4,0-1-0.2-1.4-0.6c-0.4-0.4-0.6-0.8-0.6-1.4v-7.7h-6v7.7c0,2.3,0.8,4.3,2.3,5.8 c1.6,1.4,3.5,2.3,5.8,2.3h5.6h23.4h9.3c2,0,4.1-0.8,5.8-2.3c1.4-1.7,2.3-3.5,2.3-5.8V68.6c0-2.3-0.8-4.4-2.3-5.8 c-1.7-1.5-3.8-2.3-5.8-2.3h-4.6h-4.7h-9.3c-0.4,0-1-0.4-1.5-0.6c-0.2-0.4-0.6-1.1-0.6-1.5V46.9c0-0.7,0.4-1.1,0.6-1.5 c0.4-0.4,1-0.6,1.5-0.6h9.3h23.4h5.6c0.4,0,1,0.2,1.4,0.6c0.4,0.4,0.6,0.8,0.6,1.5v7.6h6v-7.6c0-2.3-0.8-4.4-2.3-5.8 C899.6,39.6,897.6,38.6,895.3,38.6"></path> <rect x="827" y="0.5" class="st0" width="3.6" height="19.6"></rect> <path class="st0" d="M833.6,13.2h3.7v1.2c0,1.2,0.1,2,0.5,2.5c0.3,0.4,0.8,0.7,1.6,0.7c0.8,0,1.3-0.2,1.8-0.6c0.4-0.4,0.6-1,0.6-1.7 c0-0.6-0.1-1.1-0.4-1.5c-0.3-0.4-0.9-1-1.8-1.6l-1.9-1.3c-1.6-1.1-2.6-2-3.1-2.8c-0.4-0.7-0.7-1.7-0.7-2.8c0-1.6,0.5-2.9,1.5-3.9 c1-0.9,2.3-1.4,4.1-1.4c1.8,0,3.2,0.5,4.1,1.5c1,1,1.4,2.4,1.4,4.3v0.5v0.2h-3.5V5.9c0-1.1-0.1-1.8-0.5-2.3C840.6,3.2,840,3,839.2,3 c-0.6,0-1.1,0.2-1.4,0.5c-0.3,0.4-0.5,0.8-0.5,1.4c0,0.8,0.8,1.7,2.3,2.7c0,0,0,0,0,0l2,1.3c1.4,1,2.4,1.9,2.9,2.7 c0.5,0.9,0.7,1.9,0.7,3.2c0,1.8-0.5,3.2-1.5,4.1c-1,1-2.5,1.4-4.4,1.4c-2,0-3.4-0.5-4.4-1.5c-1-1-1.4-2.6-1.4-4.6 C833.6,14.2,833.6,13.8,833.6,13.2L833.6,13.2z"></path> <path class="st0" d="M855,20.1h3.2v-3.5H855V20.1z M855,9.1h3.2V5.6H855V9.1z"></path> <path class="st0" d="M867.8,13.5h3.4v0.2c0,1.4,0.1,2.5,0.4,3.1c0.3,0.6,0.8,0.9,1.5,0.9c0.7,0,1.3-0.3,1.5-0.8 c0.3-0.5,0.4-1.4,0.4-2.8c0-1.3-0.2-2.2-0.5-2.6c-0.4-0.4-1.1-0.6-2.1-0.6c-0.2,0-0.4,0-0.6,0c-0.1,0-0.3,0-0.5,0V8.4h0.2 c1.2,0,2-0.2,2.4-0.6c0.4-0.4,0.7-1.1,0.7-2.2c0-0.9-0.1-1.6-0.4-2c-0.3-0.4-0.7-0.6-1.3-0.6c-0.6,0-1.1,0.2-1.4,0.6 c-0.2,0.4-0.4,1.1-0.4,2.1v0.5H868c0-0.1,0-0.2,0-0.3V5.4c0-1.7,0.5-2.9,1.3-3.8c0.9-0.9,2.2-1.3,3.9-1.3c1.6,0,2.9,0.4,3.8,1.3 c0.9,0.9,1.3,2.1,1.3,3.7c0,1.1-0.2,2-0.6,2.7c-0.4,0.7-0.9,1.2-1.7,1.4c0.9,0.2,1.6,0.7,2,1.5c0.4,0.8,0.7,1.8,0.7,3.2 c0,2.1-0.4,3.7-1.4,4.7c-0.9,1.1-2.4,1.6-4.3,1.6c-1.8,0-3.2-0.5-4-1.5c-0.9-1-1.3-2.6-1.3-4.7c0-0.1,0-0.2,0-0.4V13.5z"></path> <path class="st0" d="M888,12V6.7c0-1.6-0.1-2.5-0.4-3c-0.3-0.4-0.7-0.7-1.4-0.7c-0.6,0-1.1,0.2-1.3,0.7c-0.3,0.5-0.4,1.5-0.4,3.2 v1.9v5.4c0,1.5,0.1,2.5,0.4,3c0.2,0.5,0.7,0.7,1.3,0.7c0.7,0,1.1-0.2,1.4-0.7c0.2-0.5,0.4-1.5,0.4-3.2V12z M880.9,10.2 c0-2.3,0.1-4,0.2-5.2c0.1-1.1,0.4-2,0.7-2.5c0.5-0.8,1.1-1.3,1.8-1.7c0.7-0.3,1.6-0.5,2.6-0.5c1.1,0,2,0.2,2.7,0.5 c0.7,0.3,1.3,0.9,1.7,1.7c0.3,0.5,0.6,1.4,0.8,2.5c0.1,1.1,0.2,2.9,0.2,5.2c0,2.4-0.1,4.1-0.2,5.3c-0.1,1.1-0.4,2-0.7,2.6 c-0.5,0.8-1.1,1.4-1.8,1.8c-0.7,0.4-1.6,0.6-2.7,0.6c-1.1,0-2-0.2-2.7-0.6c-0.7-0.4-1.3-1-1.8-1.8c-0.4-0.5-0.6-1.4-0.7-2.5 C880.9,14.5,880.9,12.7,880.9,10.2z"></path> <path class="st0" d="M893.9,13.5h3.3v0.2c0,1.4,0.2,2.5,0.5,3.1c0.3,0.6,0.8,0.9,1.6,0.9c0.7,0,1.2-0.3,1.5-0.8 c0.3-0.5,0.4-1.4,0.4-2.8c0-1.3-0.2-2.2-0.5-2.6c-0.4-0.4-1.1-0.6-2.1-0.6c-0.3,0-0.4,0-0.6,0c-0.1,0-0.3,0-0.4,0V8.4h0.2 c1.2,0,2-0.2,2.4-0.6c0.5-0.4,0.7-1.1,0.7-2.2c0-0.9-0.2-1.6-0.4-2c-0.3-0.4-0.7-0.6-1.3-0.6c-0.6,0-1.1,0.2-1.3,0.6 c-0.3,0.4-0.4,1.1-0.4,2.1v0.5H894c0-0.1,0-0.2,0-0.3c0-0.1,0-0.3,0-0.5c0-1.7,0.4-2.9,1.3-3.8c0.9-0.9,2.2-1.3,4-1.3 c1.6,0,2.9,0.4,3.8,1.3c0.9,0.9,1.3,2.1,1.3,3.7c0,1.1-0.2,2-0.6,2.7c-0.4,0.7-1,1.2-1.7,1.4c0.9,0.2,1.6,0.7,2,1.5 c0.4,0.8,0.7,1.8,0.7,3.2c0,2.1-0.5,3.7-1.4,4.7c-0.9,1.1-2.3,1.6-4.2,1.6c-1.8,0-3.2-0.5-4-1.5c-0.8-1-1.3-2.6-1.3-4.7 c0-0.1,0-0.2,0-0.4C893.9,13.7,893.9,13.6,893.9,13.5"></path> <g> <path class="st0" d="M703,87c0,2.1-0.8,3.9-2.3,5.4c-1.4,1.4-3.3,2.3-5.4,2.3h-10.6h-23.4h-23.4h-10.5c-2.1,0-3.9-0.8-5.4-2.3 c-1.5-1.4-2.3-3.3-2.3-5.4V40c0-2.1,0.8-4.1,2.3-5.4c1.5-1.4,3.3-2.3,5.4-2.3h10.5h23.4h23.4h10.6c2.1,0,3.9,0.8,5.4,2.3 c1.5,1.2,2.3,3.3,2.3,5.4V87z M704.3,30.9c-2.3-2.3-5.4-3.7-8.9-3.7h-10.6h-23.4h-23.4h-10.5c-3.5,0-6.6,1.4-8.9,3.7 c-2.5,2.3-3.9,5.6-3.9,9.1V87c0,3.5,1.4,6.6,3.9,9.1c2.3,2.3,5.4,3.7,8.9,3.7h10.5h23.4h23.4h10.6c3.5,0,6.6-1.4,8.9-3.7 c2.5-2.5,3.9-5.6,3.9-9.1V40C708.2,36.5,706.8,33.2,704.3,30.9z"></path> <g> <polygon class="st0" points="638.1,37.6 635,37.6 635,77.1 638.1,77.1 641.2,77.1 641.2,37.6 "></polygon> <polygon class="st0" points="684.8,49.8 681.7,49.8 681.7,89.4 684.8,89.4 687.9,89.4 687.9,49.8 "></polygon> <path class="st0" d="M690.4,38.6h-5.6h-23.4h-9.3c-2.1,0-4.1,1.1-5.6,2.5h-0.2c-1.5,1.5-2.3,3.5-2.3,5.8v11.5 c0,2.1,0.8,4.2,2.3,5.8l0.2-0.2c1.4,1.6,3.5,2.5,5.6,2.5h3.5h5.8h9.3c0.4,0,1,0.2,1.4,0.6c0.2,0.4,0.7,0.8,0.7,1.5v11.6 c0,0.6-0.4,1-0.7,1.4c-0.4,0.4-1,0.6-1.4,0.6h-9.3h-23.3h-5.6c-0.4,0-1.1-0.2-1.5-0.6c-0.4-0.4-0.6-0.8-0.6-1.4v-7.7h-6v7.7 c0,2.3,0.8,4.3,2.3,5.8c1.7,1.4,3.5,2.3,5.8,2.3h5.6h23.3h9.3c2.1,0,4.1-0.8,5.8-2.3c1.4-1.7,2.3-3.5,2.3-5.8V68.6 c0-2.3-0.8-4.4-2.3-5.8c-1.6-1.5-3.7-2.3-5.8-2.3h-4.5h-4.8h-9.3c-0.4,0-1-0.4-1.5-0.6c-0.2-0.4-0.6-1.1-0.6-1.5V46.9 c0-0.7,0.4-1.1,0.6-1.5c0.4-0.4,1-0.6,1.5-0.6h9.3h23.4h5.6c0.4,0,1,0.2,1.5,0.6c0.4,0.4,0.6,0.8,0.6,1.5v7.6h6v-7.6 c0-2.3-0.8-4.4-2.3-5.8C694.8,39.6,692.7,38.6,690.4,38.6"></path> </g> </g> </svg> 