<?xml version="1.0" encoding="UTF-8"?> <svg xmlns="http://www.w3.org/2000/svg" id="Layer_1" data-name="Layer 1" width="2.68cm" height="2.86cm" viewBox="0 0 76.02 81.17"><polygon points="19 30.54 16.49 30.54 16.49 62.67 19 62.67 21.54 62.67 21.54 30.54 19 30.54" style="fill:#231f20"></polygon><polygon points="57.03 40.46 54.49 40.46 54.49 72.75 57.03 72.75 59.54 72.75 59.54 40.46 57.03 40.46" style="fill:#231f20"></polygon><path d="M72.76,82.2a6.32,6.32,0,0,1-6.24,6.23H11.35A6.1,6.1,0,0,1,7,86.58,6.1,6.1,0,0,1,5.11,82.2V44A5.84,5.84,0,0,1,7,39.63a6.13,6.13,0,0,1,4.37-1.84H66.52a6.22,6.22,0,0,1,4.39,1.84A5.89,5.89,0,0,1,72.76,44Zm1-45.6a10.14,10.14,0,0,0-7.22-3H11.35a10.25,10.25,0,0,0-7.25,3A10.13,10.13,0,0,0,.92,44V82.2A10.39,10.39,0,0,0,4.1,89.6a10.26,10.26,0,0,0,7.25,3H66.52A10.62,10.62,0,0,0,76.94,82.2V44A10,10,0,0,0,73.74,36.6Z" transform="translate(-0.92 -11.45)" style="fill:#231f20"></path><path d="M62.5,42.82H31.36a6.7,6.7,0,0,0-4.54,2h-.16a6.62,6.62,0,0,0-1.86,4.74V59a7.14,7.14,0,0,0,1.86,4.72l.16-.15a6,6,0,0,0,4.54,2H46.51a1.8,1.8,0,0,1,1.16.51,2.41,2.41,0,0,1,.52,1.2v9.41a2.46,2.46,0,0,1-.52,1.18,1.77,1.77,0,0,1-1.16.49H15.39a1.88,1.88,0,0,1-1.2-.49,1.6,1.6,0,0,1-.5-1.18V70.43H8.82v6.22a6.66,6.66,0,0,0,1.84,4.71,7,7,0,0,0,4.73,1.87H46.51a7.25,7.25,0,0,0,4.71-1.87,6.94,6.94,0,0,0,1.84-4.71V67.24a6.57,6.57,0,0,0-1.84-4.71,7.14,7.14,0,0,0-4.71-1.86H31.36a4.17,4.17,0,0,1-1.18-.49A3.92,3.92,0,0,1,29.67,59V49.59a2.58,2.58,0,0,1,.51-1.21,1.89,1.89,0,0,1,1.18-.5H62.5a1.82,1.82,0,0,1,1.16.5,1.55,1.55,0,0,1,.52,1.21v6.2h4.87v-6.2a6.66,6.66,0,0,0-1.85-4.74,6.83,6.83,0,0,0-4.7-2" transform="translate(-0.92 -11.45)" style="fill:#231f20"></path><rect x="5.99" y="0.36" width="2.96" height="15.97" style="fill:#231f20"></rect><path d="M12.27,22.18h3v1a3.76,3.76,0,0,0,.37,2,1.42,1.42,0,0,0,1.28.55,2,2,0,0,0,1.43-.47,1.88,1.88,0,0,0,.48-1.4,2.22,2.22,0,0,0-.34-1.23A6.1,6.1,0,0,0,17,21.3l-1.54-1.08A9.32,9.32,0,0,1,13,18a4.41,4.41,0,0,1-.52-2.25,4.19,4.19,0,0,1,1.18-3.14,4.56,4.56,0,0,1,3.29-1.13,4.6,4.6,0,0,1,3.4,1.21,4.83,4.83,0,0,1,1.16,3.47v.57H18.66v-.42a3.13,3.13,0,0,0-.44-1.86,1.71,1.71,0,0,0-1.39-.57,1.57,1.57,0,0,0-1.13.43,1.61,1.61,0,0,0-.43,1.18c0,.66.62,1.41,1.86,2.23l0,0,1.62,1.09A8,8,0,0,1,21.17,21a5.21,5.21,0,0,1,.62,2.64A4.48,4.48,0,0,1,20.55,27,5,5,0,0,1,17,28.14a4.61,4.61,0,0,1-3.58-1.24,5.29,5.29,0,0,1-1.18-3.78c0-.17,0-.47,0-.89Z" transform="translate(-0.92 -11.45)" style="fill:#231f20"></path><path d="M29.71,27.78h2.65V24.92H29.71Zm0-8.92h2.65V16H29.71Z" transform="translate(-0.92 -11.45)" style="fill:#231f20"></path><path d="M42,27.78a29.27,29.27,0,0,1,1.26-6.3,43.23,43.23,0,0,1,2.8-6.85h-6V12h8.82v2.32a29.35,29.35,0,0,0-2.57,6.39,34.37,34.37,0,0,0-1.24,7.07Z" transform="translate(-0.92 -11.45)" style="fill:#231f20"></path><path d="M54.29,27.78V16.54H50.78V14.66a5.85,5.85,0,0,0,3.06-.81,3,3,0,0,0,1.29-2.13h2V27.78Z" transform="translate(-0.92 -11.45)" style="fill:#231f20"></path><path d="M67.15,21.24V16.91a6,6,0,0,0-.32-2.45,1.11,1.11,0,0,0-1.1-.53,1.2,1.2,0,0,0-1.12.55,6.71,6.71,0,0,0-.31,2.57v5.86a6.06,6.06,0,0,0,.31,2.42,1.14,1.14,0,0,0,1.12.56,1.09,1.09,0,0,0,1.1-.57,6.51,6.51,0,0,0,.32-2.58Zm-5.8-1.47a36.89,36.89,0,0,1,.16-4.21,5.53,5.53,0,0,1,.62-2.06,3.27,3.27,0,0,1,1.42-1.37,6,6,0,0,1,4.36,0,3.27,3.27,0,0,1,1.42,1.37,5.22,5.22,0,0,1,.6,2.06,32.93,32.93,0,0,1,.2,4.21,39.37,39.37,0,0,1-.18,4.3,6.11,6.11,0,0,1-.57,2.08,3.76,3.76,0,0,1-1.45,1.46,5.41,5.41,0,0,1-4.41,0,3.83,3.83,0,0,1-1.45-1.46,5.32,5.32,0,0,1-.57-2A41.19,41.19,0,0,1,61.35,19.77Z" transform="translate(-0.92 -11.45)" style="fill:#231f20"></path></svg> 