<?xml version="1.0" encoding="UTF-8"?> <svg xmlns="http://www.w3.org/2000/svg" xmlns:xlink="http://www.w3.org/1999/xlink" id="Layer_1" data-name="Layer 1" width="876.21" height="681.92" viewBox="0 0 876.21 681.92"><defs><clipPath id="clip-path" transform="translate(139.32 34.47)"><path d="M17.87,17.53A17.66,17.66,0,0,0,.21,35.19V563a17.67,17.67,0,0,0,17.66,17.66H582.54A17.66,17.66,0,0,0,600.2,563V35.19a17.66,17.66,0,0,0-17.66-17.66Z" style="fill:none"></path></clipPath></defs><path d="M600.21,562.34A17.67,17.67,0,0,1,582.54,580H17.87A17.67,17.67,0,0,1,.21,562.34V34.52A17.66,17.66,0,0,1,17.87,16.86H582.54a17.66,17.66,0,0,1,17.67,17.66Z" transform="translate(139.32 34.47)" style="fill:#f4e000"></path><g style="clip-path:url(#clip-path)"><path d="M554,8.4c-8,8.32-20.51,5.14-31.16,2-7.55-2.19-14.13-4.45-17.31-2.64C511.18,7.15,516,23.6,513.17,28s-17,19.88-17,19.88c-1,3.56-30.82,16.27-32.84,20.79,8.66-2.31,30.4-1.29,39.15,2.62,8.91,4,10.08,11.36,8.14,15.8,16.44-9.91,36.32-8.25,40.16-6.77s3.75,1.59-7.71,8.78c-4.36,2.74-24.46,5.24-33.36,28.83,19.15-7.33,22.59,3,22.59,3,3.65,13-2.24,62.6-6.72,73.75l-4.38,10,7.42-8c8.52-8.56,51.77-33.34,65.21-35.15,0,0,10.8-.82,11.57,19.69,15.15-13.82,15-37.2,13.48-42s2.08-13.37,5-10.48,13.83,14.08,9.52,39.58c3.33-3.5,10.73-5.35,17.73,1.21s16.5,26.12,17.76,35c3.44-3.62,1.4-21.74,6.34-38.28,0,0,2.88-10.86,11.64-23.45,3-4.31,19.95-6.37,21.56-1,1-8.78-27.35-26.2-19.61-44.36,0,0,39.11-13.11,48.12,4.23-2.63-11.24-21.4-33.19-35.24-40.91s-20-10.16-20.27-18.27,17.41-5.56,18.38-4.84a51.22,51.22,0,0,0-11-7.11,64.24,64.24,0,0,0-46.16-5l-3.94,1.19-.46-4c-4.86-34.62-34.48-48.57-33.53-47.86S615.2-9.23,607.51-6.32,595.33-8.07,582.73-17.8s-40.08-18.38-51.36-16.38C550.78-32.73,554,8.4,554,8.4" transform="translate(139.32 34.47)" style="fill:#e78a0a"></path><path d="M527.06,197.89S627.67,52.51,636.92,39s34.23-48.79,41.81-52.72-2.58-15-7.23-10.18c-4.11,2.58-20.77,27.52-41.89,59.36C589.46,95.7,534.65,182,527.06,197.89" transform="translate(139.32 34.47)" style="fill:#e78a0a"></path><path d="M545,579.88c-1.46-7.11,4.34-12.58,9.79-17.08,4.23-3.45,8.27-6.24,8.49-8.85-1.89,3.31-12.41-.24-13.69-3.32s.36-25.8-7.47-37.73c-5.18,14.48-7.65,17.73-11.58,18.76-6.17,1.59-10.18-1.56-11.9-4.26-1.78,12.7-8.93,22.69-11.11,24.13s-3.5-4.49-1.91-7.41,4.74-17.83-3.19-28.51c-3.16,13-9.95,11-9.95,11-8.36-2.77-27.28-14.08-34.84-27.58l-4.84-12.06c1.28-2.7-3,9.25-3,9.25-3.59,10-3.23,19.87-2.33,28.19.95,9,2.49,16.2.4,20.36,0,0-3.47,6.09-14.79-1,1.79,13.24,14.48,21.82,17.58,22.66,3.21,1.08,6.39,6.15,3.86,6.61s-16.12.58-24.78-9.47c.62,3.08-.15,7.71-5.26,11.36-3.6,2.69-8.71,4.52-18-3.34,5,15.22,15.94,27.07,17.23,30.16s-3.93,13.08-7.45,11.89c4.33,3.9,24.19-4.94,31.15,5.88,0,0-7.4,25.87-20.08,24.36,7,2.72,25.7.71,35.07-3.93s12.74-7,17.26-4.15-3.47,11.43-4.18,11.68a36.86,36.86,0,0,0,10.86-5.08A40.78,40.78,0,0,0,503,621.18l.79-2.53,2.38,1.26c20.41,10.09,38.81-.7,38.08-.4s-12.4-.33-11.11-5.46,5.46-5.94,15.34-9.08,24.68-14.8,27.82-21.59c-8,9.88-31.31-3.5-31.31-3.5" transform="translate(139.32 34.47)" style="fill:#cb1d1b"></path><path d="M-22.68,319.28C-6.89,312.31,8.53,337,16.26,336c-4.83-1.4-3.16-16.35.57-18.78S52.1,312.83,67.57,304c-16.1.23-25.88-9.57-28.55-15.6-3.47-7.77-3.26-15.2-.26-18.19-4.83-3.35-32.14-5.46-34.65-8s4.89-5.76,9.08-4.46,24.74,1.24,36.55-12.09c-17.89-.49-17.11-10-17.11-10,1.3-11.75,24.14-45.41,30.1-57.26L68,167.72l-7,8.1c-11.17,8.84-53,9.55-64.3,6.47,0,0-9.12-2.93-2.8-19.7-16.88,5.95-23.32,25.28-24.95,29.35-4.86,11.79-6.24,10-7.61,6.78s-1.53-19.06,5.63-35.15c-3.82,1.8-10.34.75-13.87-6.81-3.51-7.73-5.46-12.14-3.48-19.64-4,1.66-19,26.14-34.37,29.24-4.43.82-18.11-1.58-17.75-6.57-1.66,2.8.49,8.57,2.47,15.08,2.91,9.33,5.76,20.29-1.46,27.34,0,0-33.77,8.32-36.09-15.12-5.78,14,4.82,29.54,13.47,40.46s12.68,14.78,10.07,21.49c-2.36,6.62-15.79-1.42-16.36-2.23s11.79,25,42,28.86l3.64.3-.94,3.53a55.78,55.78,0,0,0,4.55,40.12,48.09,48.09,0,0,0,6.36,9.69c-.59-.84-3-16.36,4.09-16.13s9.28,5.49,16.09,17.56,26.27,28.32,36.06,30.5c-15.21-7.71-4.05-42-4.05-42" transform="translate(139.32 34.47)" style="fill:#c9d500"></path><path d="M62.63,175.33S-67.3,259-79.35,266.77c-12,8-44.05,27.93-51.46,28.57-7.38.48-2.91,12.93,2.53,10.65,4.15-.75,26-15.26,53.66-33.95,52.52-35.22,125.79-86.33,137.25-96.71" transform="translate(139.32 34.47)" style="fill:#c9d500"></path><path d="M146.49,552.79c-1.6-11.57,17.29-17,18.06-22.36L152.3,526.7c-.91-3,6.29-32.19-.77-38.16-2.16,4.89-10.56,14.68-15.51,17.34s-9,.49-10.24-2L114.25,525l-1.33-6.72c1.76-2.46,5.37-15.87-1.27-26.1-3.54,11.73-9.57,9.46-9.57,9.46-7.52-3-28.3-23.86-31.94-30l-3-5.73,1.06,6.38c.8,7.11-3.41,36.36-7.51,43.19,0,0-3.62,5.28-13.37-1.81.75,12.14,11.88,20.56,14.7,21.66l3.06,6.08c-2.5.31-14-3.51-22-9.91.47,2.73-1.35,6.85-7,7.75s-18.22-1.85-22.8-4.44c.39,2.76,8.85,9.56,15.48,16.82,0,0,9.33,9.44,6.75,14.07L28.05,576c1.45,1.52,5.05,1.29,9.26,1.26,6.71-.32,15.12-.46,18.57,5.83,0,0-8.2,23.07-19.57,20.92,6.18,2.83,23.31,2.15,32-1.59s11.94-5.58,15.77-2.77c4,2.86-3.76,10.2-4.46,10.34s18.45-3.15,26.42-22.19l1-2.24,2.14,1.24a38.33,38.33,0,0,0,30.25,3.5,23.91,23.91,0,0,0,4.23-1.62c-.71.25-11.2-1-9.83-5.53s5.25-5.07,14.4-7.38,23.16-12,26.43-18c-7.8,8.46-28.17-5-28.17-5" transform="translate(139.32 34.47)" style="fill:#d46863"></path></g><path d="M509.57,298c0,114.59-92.89,207.48-207.48,207.48S94.61,412.58,94.61,298,187.5,90.52,302.09,90.52,509.57,183.41,509.57,298" transform="translate(139.32 34.47)" style="fill:#32473c"></path><path d="M168.31,249.73v4.53c0,.69,0,1.53,0,2.48s0,2.29,0,4v1.85a29.7,29.7,0,0,0,.14,3.42,2.7,2.7,0,0,0,.86,1.78,3.89,3.89,0,0,0,2.23.7c1,.07,2.44.11,4.28.11h6.48a25.7,25.7,0,0,0,4.2-.29,5.77,5.77,0,0,0,2.64-1.08,4,4,0,0,0,1.34-2.11,12.63,12.63,0,0,0,.37-3.34v-1.34c0-.49,0-.94-.06-1.34-.06-.88-.09-1.65-.12-2.3s0-1,0-1.18q0-3.27,2.75-3.27a2.62,2.62,0,0,1,3,3v.45a5,5,0,0,1-.07.7q-.07.48-.18,1.41c-.07.62-.19,1.5-.34,2.64-.05.39-.08.85-.11,1.37s0,1.2,0,2c0,.59,0,1.24,0,1.93s.09,1.38.18,2.07q.07.68.12,1.23c0,.37,0,.68,0,.92,0,2.23-1.27,3.34-3.79,3.34l-1.4,0-2.08-.12c-.41,0-1.13,0-2.2-.07s-2.2-.08-3.41-.11l-3.55-.07c-1.17,0-2,0-2.5,0q-8.44,0-13.27.11t-7.05.26a4.36,4.36,0,0,1-.67.07h-.52a3.41,3.41,0,0,1-2.23-.74,2.36,2.36,0,0,1,1.49-4.23c.24,0,.53,0,.85,0s.7.06,1.15.11a4.89,4.89,0,0,0,.78.11,7.15,7.15,0,0,0,.78,0,3.29,3.29,0,0,0,3.19-1.7,3.85,3.85,0,0,0,.33-1,14.42,14.42,0,0,0,.19-1.6c0-.67.08-1.51.11-2.52s0-2.29,0-3.82l-.08-6.54v-6.45l.15-7.27c0-1.53,0-2.8,0-3.82a20.12,20.12,0,0,0-.18-2.52,7.17,7.17,0,0,0-.37-1.56,5.53,5.53,0,0,0-.52-1,3.67,3.67,0,0,0-2.82-1.11l-.7,0-.86.12a12,12,0,0,1-2,.22,2.24,2.24,0,0,1-1.71-.71,2.45,2.45,0,0,1-.66-1.74,2.34,2.34,0,0,1,.88-1.86,3.51,3.51,0,0,1,2.3-.74h.38a5.71,5.71,0,0,1,.63.08q.48.07,1.41.15c.62,0,1.49.15,2.63.29.94.1,1.8.17,2.58.22s1.51.08,2.2.08h1.29a12.42,12.42,0,0,0,1.36-.08c.53-.05,1.22-.13,2.07-.26l3.48-.48a6.19,6.19,0,0,1,1.11-.07,3.58,3.58,0,0,1,2.3.7,2.28,2.28,0,0,1,.9,1.89,2.42,2.42,0,0,1-.67,1.75,2.27,2.27,0,0,1-1.71.71,12.13,12.13,0,0,1-2-.23c-.3,0-.58-.09-.85-.11a7.28,7.28,0,0,0-.78,0,3.3,3.3,0,0,0-3.2,1.71,8.69,8.69,0,0,0-.51,2.59c-.11,1.19-.15,3.1-.15,5.72l.15,7.27Z" transform="translate(139.32 34.47)" style="fill:#f1e000"></path><path d="M208.07,251.64c0-2.37,0-4.28-.07-5.73a24.92,24.92,0,0,0-.3-3.37,3,3,0,0,0-.67-1.6,1.7,1.7,0,0,0-1.19-.4,5,5,0,0,0-.7.07c-.32,0-.68.13-1.08.22a6.45,6.45,0,0,1-.73.11,4.81,4.81,0,0,1-.75.05,2.77,2.77,0,0,1-1.93-.68,2.29,2.29,0,0,1-.74-1.74,2.15,2.15,0,0,1,.89-1.8,3.75,3.75,0,0,1,2.37-.69h1a9.05,9.05,0,0,1,1.11.08,17.94,17.94,0,0,0,1.82.19l1.15,0H209a3.19,3.19,0,0,0,.82-.15l1.07-.11c.33,0,.61,0,.86,0,1.43,0,2.15,1,2.15,2.9l-.07,1.78c-.05.54-.09,1.29-.12,2.23s-.05,1.95-.07,3,0,2.14-.07,3.15,0,1.82,0,2.41V261a29.3,29.3,0,0,0,.41,6c.27,1.16.75,1.74,1.45,1.74a10.12,10.12,0,0,0,1.92-.37,6.28,6.28,0,0,1,1.12-.15,2.5,2.5,0,0,1,1.81.67,2.43,2.43,0,0,1-.14,3.56,3.12,3.12,0,0,1-2.11.74,12.74,12.74,0,0,1-1.34-.11l-2.08-.26a27.74,27.74,0,0,0-3.86-.22c-.74,0-1.44,0-2.11,0s-1.33.07-2,.11c-.88.11-1.69.18-2.41.23s-1.28.07-1.67.07a2.86,2.86,0,0,1-2-.67,2.16,2.16,0,0,1-.74-1.7,2.33,2.33,0,0,1,.7-1.78,2.53,2.53,0,0,1,1.82-.67,6.84,6.84,0,0,1,1.7.22,9.72,9.72,0,0,0,1.86.23,1.6,1.6,0,0,0,1.11-.41,2.89,2.89,0,0,0,.67-1.59,25.31,25.31,0,0,0,.3-3.41c0-1.47.07-3.4.07-5.77Zm1.78-28.24a3.88,3.88,0,0,1,2.9,1.22,4.08,4.08,0,0,1,1.18,2.94,4.14,4.14,0,1,1-4.08-4.16" transform="translate(139.32 34.47)" style="fill:#f1e000"></path><path d="M232,233.78q0-5.78,3.19-8.86t9.13-3.08a12.92,12.92,0,0,1,7.38,1.89,5.79,5.79,0,0,1,2.78,5,3.65,3.65,0,0,1-1,2.71,3.6,3.6,0,0,1-2.63,1,3.42,3.42,0,0,1-2.46-.93,3,3,0,0,1-1-2.26,3.19,3.19,0,0,1,.74-1.93,4.78,4.78,0,0,0-1.56-.85,7.29,7.29,0,0,0-2.14-.26,6.48,6.48,0,0,0-5.09,2,8,8,0,0,0-1.81,5.56v1.41a.84.84,0,0,0,1,.95h5.79a2.25,2.25,0,0,1,1.74.78,2.72,2.72,0,0,1,0,3.64,2.24,2.24,0,0,1-1.74.77h-5.42c-.89,0-1.33.47-1.33,1.42v11.46c0,1.31,0,2.68-.08,4.11s-.07,2.45-.07,3.49V264a10.45,10.45,0,0,0,.44,3.64,1.54,1.54,0,0,0,1.49,1,7.2,7.2,0,0,0,.85-.08c.37-.05.76-.13,1.15-.22a6.29,6.29,0,0,1,.74-.11,6.17,6.17,0,0,1,.75,0,2.61,2.61,0,0,1,1.88.67,2.27,2.27,0,0,1,.71,1.71,2.37,2.37,0,0,1-.85,1.85,3.13,3.13,0,0,1-2.12.74c-.24,0-.67,0-1.26-.11l-2-.26a36.11,36.11,0,0,0-4.53-.23,28.15,28.15,0,0,0-4.15.23l-2.53.26c-.69.07-1.15.11-1.4.11a3.35,3.35,0,0,1-2.15-.7,2.15,2.15,0,0,1-.9-1.75,2.37,2.37,0,0,1,.78-1.78,2.63,2.63,0,0,1,1.9-.74,7.57,7.57,0,0,1,1.71.22c.33.05.65.09.92.11a7,7,0,0,0,.77,0,2.36,2.36,0,0,0,1.27-.29c.29-.2.52-.87.67-2s.24-3,.29-5.49.1-6.08.15-10.69v-7.33c0-1-.49-1.42-1.48-1.42h-3.71a2.46,2.46,0,0,1-1.85-.74,2.59,2.59,0,0,1-.75-1.93,2.46,2.46,0,0,1,.7-1.81,2.57,2.57,0,0,1,1.9-.71H231a.85.85,0,0,0,1-1Z" transform="translate(139.32 34.47)" style="fill:#f1e000"></path><path d="M258.89,255.37q.08,6.76,3.15,10.51a10.44,10.44,0,0,0,8.5,3.74,9.74,9.74,0,0,0,8.16-3.86,9.2,9.2,0,0,0,.67-.85,7,7,0,0,0,.41-.78c.12-.3.25-.68.4-1.15s.35-1.13.59-2a2.4,2.4,0,0,1,2.45-1.85,2.84,2.84,0,0,1,2,.74,2.64,2.64,0,0,1,.78,2,8.35,8.35,0,0,1-.74,3.15,12,12,0,0,1-2,3.31,14.2,14.2,0,0,1-5.68,4.26,19,19,0,0,1-7.67,1.52,17.48,17.48,0,0,1-7.09-1.37,14.91,14.91,0,0,1-5.34-3.86,17.18,17.18,0,0,1-3.38-6.07,25.71,25.71,0,0,1-1.18-8.06,25.26,25.26,0,0,1,1.26-8.16,18.83,18.83,0,0,1,3.59-6.38,16,16,0,0,1,5.61-4.12,17.59,17.59,0,0,1,7.19-1.44A16.58,16.58,0,0,1,277,235.9a15.22,15.22,0,0,1,5.08,3.42,15.6,15.6,0,0,1,3.37,5.15,16.92,16.92,0,0,1,1.23,6.53c0,1,0,1.84-.07,2.41a3.71,3.71,0,0,1-.3,1.3,1,1,0,0,1-.74.56,7.57,7.57,0,0,1-1.41.1Zm22-5.19q-.45-5.12-3-7.86a9.27,9.27,0,0,0-7.05-2.75,11.45,11.45,0,0,0-5.42,1.34,9.76,9.76,0,0,0-3.93,3.71,8.55,8.55,0,0,0-1.1,2.33,29,29,0,0,0-.75,3.23Z" transform="translate(139.32 34.47)" style="fill:#f1e000"></path><path d="M301.85,260.79c0,2.82.41,4.85,1.26,6.09a4.56,4.56,0,0,0,4.08,1.85,4.88,4.88,0,0,0,3.92-1.74,7,7,0,0,0,1.49-4.72V260c0-1.24,0-2.1,0-2.57a7.16,7.16,0,0,1,.18-1.29,2.43,2.43,0,0,1,2.53-1.64c1.78,0,2.67,1.15,2.67,3.42a41.83,41.83,0,0,1-.37,5.93,15.54,15.54,0,0,1-1,4.08q-2.52,5.71-10.09,5.72-5.86,0-8.46-3.86a10.6,10.6,0,0,1-.85-1.63,10.76,10.76,0,0,1-.56-1.86,15.61,15.61,0,0,1-.3-2.45c-.05-.94-.07-2.1-.07-3.49V242.62a1.87,1.87,0,0,0-.3-1.23,1.35,1.35,0,0,0-1-.33h-2.52a2.49,2.49,0,0,1-1.85-.75,2.39,2.39,0,0,1-.75-1.78,2.61,2.61,0,0,1,.79-1.85,2.39,2.39,0,0,1,1.81-.82h2.82q1.26,0,1.26-1.41v-7.64a2.82,2.82,0,0,1,.75-2,2.61,2.61,0,0,1,2-.77c1.73,0,2.6.93,2.6,2.81v7.94a1.17,1.17,0,0,0,.25.89,1.79,1.79,0,0,0,1.08.22h8.16a3.19,3.19,0,0,1,2.12.67,2.68,2.68,0,0,1,0,3.82,3.09,3.09,0,0,1-2.08.71h-8.46c-.69,0-1,.52-1,1.56Z" transform="translate(139.32 34.47)" style="fill:#f1e000"></path><path d="M329.37,251.64c0-2.37,0-4.28-.07-5.73a24.92,24.92,0,0,0-.3-3.37,3,3,0,0,0-.67-1.6,1.7,1.7,0,0,0-1.19-.4,5,5,0,0,0-.7.07c-.33,0-.68.13-1.08.22a6.29,6.29,0,0,1-.74.11,4.6,4.6,0,0,1-.74.05,2.76,2.76,0,0,1-1.93-.68,2.25,2.25,0,0,1-.74-1.74,2.13,2.13,0,0,1,.89-1.8,3.75,3.75,0,0,1,2.37-.69h1a9.05,9.05,0,0,1,1.11.08,17.94,17.94,0,0,0,1.82.19l1.15,0h.81a3.19,3.19,0,0,0,.82-.15l1.07-.11c.33,0,.61,0,.86,0,1.43,0,2.15,1,2.15,2.9l-.07,1.78c-.06.54-.09,1.29-.12,2.23s-.05,1.95-.07,3-.05,2.14-.07,3.15,0,1.82,0,2.41V261a29.3,29.3,0,0,0,.41,6q.41,1.74,1.44,1.74a10.17,10.17,0,0,0,1.93-.37,6.19,6.19,0,0,1,1.11-.15,2.51,2.51,0,0,1,1.82.67,2.43,2.43,0,0,1-.14,3.56,3.14,3.14,0,0,1-2.11.74,12.89,12.89,0,0,1-1.35-.11l-2.07-.26a27.74,27.74,0,0,0-3.86-.22c-.74,0-1.45,0-2.11,0s-1.33.07-2,.11c-.89.11-1.69.18-2.42.23s-1.27.07-1.66.07a2.85,2.85,0,0,1-2-.67,2.17,2.17,0,0,1-.75-1.7,2.33,2.33,0,0,1,.71-1.78,2.53,2.53,0,0,1,1.82-.67,6.9,6.9,0,0,1,1.7.22,9.72,9.72,0,0,0,1.86.23,1.6,1.6,0,0,0,1.11-.41,2.89,2.89,0,0,0,.67-1.59,25.31,25.31,0,0,0,.3-3.41c0-1.47.07-3.4.07-5.77Zm1.78-28.24a3.88,3.88,0,0,1,2.9,1.22,4.08,4.08,0,0,1,1.18,2.94,4.14,4.14,0,1,1-4.08-4.16" transform="translate(139.32 34.47)" style="fill:#f1e000"></path><path d="M357.71,240.46c.84-1,1.45-1.64,1.86-2.07a11.32,11.32,0,0,1,1.33-1.23,10.29,10.29,0,0,1,3.38-1.7,14.31,14.31,0,0,1,4.26-.63q7.05,0,10.53,5.63a15.33,15.33,0,0,1,5.05-4.36,15,15,0,0,1,6.61-1.27q6.81,0,10.6,4.15a11,11,0,0,1,2.38,4.26,26.17,26.17,0,0,1,.66,6.72v6.9l-.07,5.93a19.29,19.29,0,0,0,.37,4.64c.25.86.71,1.3,1.41,1.3a11.87,11.87,0,0,0,2-.22,1.77,1.77,0,0,1,.63-.15h.63a2.76,2.76,0,0,1,1.86.63,2,2,0,0,1,.74,1.6,2.38,2.38,0,0,1-.85,1.85,3.09,3.09,0,0,1-2.11.74,21,21,0,0,1-2.83-.22,39.23,39.23,0,0,0-4.08-.23c-1.09,0-2.4.08-3.93.23a30.78,30.78,0,0,1-3.33.22,3.41,3.41,0,0,1-2.27-.71,2.31,2.31,0,0,1,1.45-4.11,6.53,6.53,0,0,1,1.56.22l.63.12a4.86,4.86,0,0,0,.56,0,1.36,1.36,0,0,0,1.36-.67,9.49,9.49,0,0,0,.56-2.81,3.24,3.24,0,0,1,0-.55c0-.18,0-.53,0-1.08s0-1.36,0-2.44,0-2.61,0-4.59v-4.66c0-1.08,0-2-.08-2.89s-.12-1.58-.22-2.22a12.93,12.93,0,0,0-.37-1.74,8,8,0,0,0-.6-1.51,6.59,6.59,0,0,0-2.85-2.77,8.84,8.84,0,0,0-4.34-1.08,9.86,9.86,0,0,0-4.33,1,6.56,6.56,0,0,0-2.94,2.67,10.44,10.44,0,0,0-1.25,3.77,38,38,0,0,0-.38,6.07v5c0,2.51,0,4.34,0,5.48a22.48,22.48,0,0,0,.18,2.73c.25,1.63.87,2.4,1.85,2.3a3.6,3.6,0,0,0,.64-.07c.27-.05.6-.13,1-.23a4,4,0,0,1,1-.15,2.44,2.44,0,0,1,1.74.67,2.23,2.23,0,0,1,.71,1.71q0,2.44-3.63,2.45c-.3,0-.68,0-1.15,0s-.93-.06-1.38-.11c-1-.15-1.91-.26-2.63-.34s-1.15-.11-1.3-.11a13.38,13.38,0,0,0-1.49.11l-2.07.27c-.64.09-1.26.17-1.85.22s-1.09.07-1.49.07a3.64,3.64,0,0,1-2.37-.71,2.19,2.19,0,0,1-.89-1.81A2.23,2.23,0,0,1,369,269a2.44,2.44,0,0,1,1.74-.67,5.54,5.54,0,0,1,1.41.23,7.27,7.27,0,0,0,1.63.22,1.42,1.42,0,0,0,1.37-.85,8.13,8.13,0,0,0,.48-2.92l.08-3.49c.05-1.28.08-2.33.11-3.14s0-1.29,0-1.44V251c0-1.33,0-2.45-.07-3.36a17.36,17.36,0,0,0-.26-2.3,7.31,7.31,0,0,0-.48-1.59,7.08,7.08,0,0,0-.81-1.33,7.6,7.6,0,0,0-6.17-2.66,9.49,9.49,0,0,0-4.11.92,8.77,8.77,0,0,0-3.23,2.55,7.89,7.89,0,0,0-1.08,1.71,8.5,8.5,0,0,0-.62,2,21.74,21.74,0,0,0-.34,2.63c-.08,1-.11,2.17-.11,3.55v9.55a22.07,22.07,0,0,0,.33,4.77c.22.81.66,1.22,1.3,1.22a5.45,5.45,0,0,0,1.48-.3,4,4,0,0,1,.89-.07,2.65,2.65,0,0,1,1.86.7,2.34,2.34,0,0,1,.74,1.75,2.17,2.17,0,0,1-.85,1.74,3.31,3.31,0,0,1-2.19.7c-.35,0-.78,0-1.3-.07s-1.08-.12-1.67-.22c-.79-.1-1.55-.17-2.26-.23s-1.42-.07-2.11-.07-1.06,0-1.53,0-1,.06-1.52.11l-2.41.26c-.71.07-1.22.11-1.52.11a3,3,0,0,1-2.08-.74,2.34,2.34,0,0,1-.81-1.78,2,2,0,0,1,.78-1.67,3.13,3.13,0,0,1,2-.63,4,4,0,0,1,.89.07c.64.15,1.16.27,1.56.34l.66.11c1.14.1,1.78-.87,1.93-2.89.05-.49.08-1.05.11-1.66s.05-1.35.08-2.19,0-1.83,0-3V250c0-2.08,0-3.74-.08-5a16.41,16.41,0,0,0-.3-2.86,2.2,2.2,0,0,0-.62-1.26,2,2,0,0,0-1.16-.29,2.61,2.61,0,0,0-.41,0c-.17,0-.7.13-1.59.34a6.86,6.86,0,0,1-1.19.07,2.46,2.46,0,0,1-1.78-.64,2.37,2.37,0,0,1-.67-1.77,2.42,2.42,0,0,1,.79-1.85,2.86,2.86,0,0,1,2-.71l.82,0,1.34.11c.39.06.79.09,1.18.12s.82,0,1.26,0a6.44,6.44,0,0,0,1.27-.08l1.33-.12.67,0c1.19,0,1.78.73,1.78,2.19Z" transform="translate(139.32 34.47)" style="fill:#f1e000"></path><path d="M421.36,255.37q.08,6.76,3.15,10.51a10.42,10.42,0,0,0,8.5,3.74,9.74,9.74,0,0,0,8.16-3.86,7.74,7.74,0,0,0,.67-.85,4.08,4.08,0,0,0,.4-.78c.13-.3.27-.68.42-1.15l.59-2a2.38,2.38,0,0,1,2.45-1.85,2.82,2.82,0,0,1,2,.74,2.64,2.64,0,0,1,.79,2,8.55,8.55,0,0,1-.74,3.15,12.27,12.27,0,0,1-2,3.31,14.13,14.13,0,0,1-5.68,4.26,19.08,19.08,0,0,1-7.68,1.52,17.5,17.5,0,0,1-7.08-1.37,15,15,0,0,1-5.35-3.86,17.32,17.32,0,0,1-3.37-6.07,25.71,25.71,0,0,1-1.18-8.06,25,25,0,0,1,1.26-8.16,18.68,18.68,0,0,1,3.6-6.38,15.9,15.9,0,0,1,5.6-4.12,17.6,17.6,0,0,1,7.2-1.44,16.6,16.6,0,0,1,6.41,1.22,15.12,15.12,0,0,1,5.08,3.42,15.78,15.78,0,0,1,3.38,5.15,17.1,17.1,0,0,1,1.23,6.53c0,1,0,1.84-.08,2.41a3.71,3.71,0,0,1-.3,1.3,1,1,0,0,1-.74.56,7.5,7.5,0,0,1-1.41.1Zm22-5.19q-.45-5.12-3-7.86a9.23,9.23,0,0,0-7-2.75,11.42,11.42,0,0,0-5.42,1.34,9.79,9.79,0,0,0-3.94,3.71,8.89,8.89,0,0,0-1.11,2.33,31.75,31.75,0,0,0-.74,3.23Z" transform="translate(139.32 34.47)" style="fill:#f1e000"></path><path d="M151.36,296.1c-.05-.35-.09-.67-.12-1s0-.54,0-.74a2.25,2.25,0,0,1,.67-1.74,2.47,2.47,0,0,1,1.78-.63c1.83,0,2.74,1.06,2.74,3.18v.52a5,5,0,0,1-.07.71c-.05.32-.13.78-.22,1.37s-.25,1.41-.45,2.45a16.24,16.24,0,0,0-.29,3.33v1c0,.24,0,.55,0,.92s.07.88.15,1.52.16,1.53.26,2.67a2.92,2.92,0,0,1,.08.82,3.35,3.35,0,0,1-.79,2.34,2.63,2.63,0,0,1-2,.85c-1.73,0-2.6-1.14-2.6-3.41l.08-2a14,14,0,0,0-.52-4.12,9.86,9.86,0,0,0-1.69-3.15,11.48,11.48,0,0,0-4.38-3,15.18,15.18,0,0,0-5.84-1.12,14.08,14.08,0,0,0-6.41,1.44,13.94,13.94,0,0,0-4.84,4.13,19.21,19.21,0,0,0-3,6.49,33.56,33.56,0,0,0-1,8.64q0,10,4.15,15.69A13.49,13.49,0,0,0,138.48,339a13.3,13.3,0,0,0,6.36-1.49,9.11,9.11,0,0,0,4.07-4,15.24,15.24,0,0,0,1.08-3.34,20.17,20.17,0,0,0,.4-4q0-4.61-3-4.6a11.36,11.36,0,0,0-1.15.07c-.47.05-1,.12-1.52.21-.34.05-.69.1-1,.12s-.63,0-.89,0c-2.12,0-3.18-.84-3.18-2.53s1-2.59,3-2.59l1,0,1.1.12,2.45.26c.69.08,1.33.13,1.9.18s1.1.09,1.62.11,1.05,0,1.6,0c1.24,0,2.45-.05,3.64-.15s2.55-.27,4.08-.52a10.88,10.88,0,0,1,2-.22,3.08,3.08,0,0,1,2.08.7,2.24,2.24,0,0,1,.81,1.75,2.63,2.63,0,0,1-.66,1.74,2,2,0,0,1-1.49.78,7.6,7.6,0,0,1-1.71-.29,2.25,2.25,0,0,0-.55-.09H160A2.69,2.69,0,0,0,157.4,323a15.56,15.56,0,0,0-.77,5.86v2.83q0,2.37,0,4.08c0,1.14.06,2,.11,2.52a12.93,12.93,0,0,1,.19,1.49c0,.44,0,.74,0,.88a3.3,3.3,0,0,1-.74,2.27,2.6,2.6,0,0,1-4.6-1.75c0-.19,0-.45,0-.78s.06-.65.11-1a7.27,7.27,0,0,0,.15-1.18v-1.12c-.64.89-1.15,1.55-1.52,2s-.76.83-1.15,1.23a14,14,0,0,1-5.2,2.82,22.66,22.66,0,0,1-6.82,1,20,20,0,0,1-8.68-1.86,19,19,0,0,1-6.71-5.26,24.74,24.74,0,0,1-4.31-8.13A34.11,34.11,0,0,1,116,318.43a36.45,36.45,0,0,1,1.56-11,24.85,24.85,0,0,1,4.45-8.42,19.87,19.87,0,0,1,6.94-5.38,21.18,21.18,0,0,1,9.09-1.89,18.17,18.17,0,0,1,7.19,1.3,21.79,21.79,0,0,1,6.23,4.26Z" transform="translate(139.32 34.47)" style="fill:#f1e000"></path><path d="M199,338.46a12.44,12.44,0,0,1-4.71,4.17,15.7,15.7,0,0,1-6.87,1.32,17.09,17.09,0,0,1-7.19-1.42,11.05,11.05,0,0,1-4.83-4,19.17,19.17,0,0,1-1-1.75,7.26,7.26,0,0,1-.56-2,26,26,0,0,1-.22-3.15c0-1.31,0-3.05,0-5.23v-6.15c0-.6,0-1.29,0-2.08s-.07-1.57-.12-2.34-.1-1.47-.15-2.11-.09-1.12-.14-1.42c-.3-1.48-.9-2.22-1.78-2.22a7,7,0,0,0-1.49.22l-.67.11a5.65,5.65,0,0,1-.59,0c-1.78,0-2.67-.82-2.67-2.45a1.86,1.86,0,0,1,.89-1.63,4.38,4.38,0,0,1,2.45-.6c.25,0,.53,0,.85,0s.63.06.93.11c1.34.15,2.22.23,2.67.23.1,0,.33,0,.71-.08s.82-.12,1.37-.22l1.41-.08a2.16,2.16,0,0,1,1.75.6,3.12,3.12,0,0,1,.48,1.92c0,.7,0,2.13-.08,4.31s-.12,4.73-.22,7.65v4.81a54.48,54.48,0,0,0,.26,5.53,15.11,15.11,0,0,0,.78,3.82,6,6,0,0,0,2.93,3.37,10.34,10.34,0,0,0,5.16,1.24,10.49,10.49,0,0,0,5.52-1.46,8.22,8.22,0,0,0,3.45-3.81c.2-.55.37-1.12.52-1.71a17.3,17.3,0,0,0,.37-2.12,25.94,25.94,0,0,0,.18-2.93c0-1.14,0-2.54,0-4.23v-4.07c0-1.83,0-3.31-.07-4.42a11.65,11.65,0,0,0-.34-2.56,1.82,1.82,0,0,0-.73-1.15,2.55,2.55,0,0,0-1.23-.26,4.58,4.58,0,0,0-.89.07,4.9,4.9,0,0,1-.78.08h-.56a2,2,0,0,1-1.52-.67,2.3,2.3,0,0,1-.63-1.63,2.11,2.11,0,0,1,.82-1.71,3.12,3.12,0,0,1,2.07-.67c.25,0,.54,0,.86,0s.65.06,1,.11a11,11,0,0,0,1.44.19c.42,0,.71,0,.86,0a18.33,18.33,0,0,0,2.23-.23c.24,0,.49-.08.74-.11s.47,0,.66,0c1.44,0,2.16.69,2.16,2.08,0,.15,0,.38,0,.7s-.06.68-.11,1.07c-.1,1.14-.19,2.38-.26,3.74S204,316.28,204,318v11.4c0,1.83,0,3.32.11,4.48a19.51,19.51,0,0,0,.33,2.74A2.9,2.9,0,0,0,205,338a1.37,1.37,0,0,0,1,.4,9.43,9.43,0,0,0,1.77-.22,5.43,5.43,0,0,1,1.49-.22,2.55,2.55,0,0,1,1.82.68,2.37,2.37,0,0,1,.7,1.8,2.32,2.32,0,0,1-.82,1.89,3.5,3.5,0,0,1-2.3.67,10.65,10.65,0,0,1-2.14-.22,15,15,0,0,0-2.3-.45,4.1,4.1,0,0,0-1.56.38,5.46,5.46,0,0,1-1.64.29,2,2,0,0,1-1.48-.64,2.15,2.15,0,0,1-.59-1.54Z" transform="translate(139.32 34.47)" style="fill:#f1e000"></path><path d="M254.56,336.38a6.73,6.73,0,0,1-2,5.2,7.87,7.87,0,0,1-5.55,1.85q-5.94,0-7.35-5.2a11.33,11.33,0,0,1-4.71,4.35,16.41,16.41,0,0,1-7.09,1.37,17.77,17.77,0,0,1-5.41-.78,12,12,0,0,1-4.16-2.23,10.16,10.16,0,0,1-3.63-7.9,10.38,10.38,0,0,1,1.37-5.27A10.17,10.17,0,0,1,219.9,324a15,15,0,0,1,1.71-.85,13,13,0,0,1,1.82-.59,17.83,17.83,0,0,1,2.38-.45c.91-.12,2-.26,3.37-.41,2.38-.24,4.09-.48,5.16-.7a9.69,9.69,0,0,0,2.55-.86,4.26,4.26,0,0,0,1.68-1.78,5.71,5.71,0,0,0,.62-2.67,7.08,7.08,0,0,0-.66-3.31,5.48,5.48,0,0,0-2.36-2.1,10.57,10.57,0,0,0-4.87-1.12,11.78,11.78,0,0,0-2.59.3,10.91,10.91,0,0,0-2.4.82,7.46,7.46,0,0,0-1.74,1.11,1.64,1.64,0,0,0-.66,1.19.48.48,0,0,0,.12.29,2.82,2.82,0,0,0,.55.52,2.94,2.94,0,0,1,.74,1,3.25,3.25,0,0,1,.3,1.44,3.15,3.15,0,0,1-1.08,2.45,4.06,4.06,0,0,1-2.81,1,4.46,4.46,0,0,1-3.26-1.3,4.36,4.36,0,0,1-1.31-3.22,7.5,7.5,0,0,1,1.11-3.93,10.7,10.7,0,0,1,3-3.23,15.34,15.34,0,0,1,4.53-2.16,19.87,19.87,0,0,1,5.64-.77,16.71,16.71,0,0,1,5.75.93,12.45,12.45,0,0,1,4.34,2.59,10.2,10.2,0,0,1,2.63,3.94,11.33,11.33,0,0,1,.63,5v.37l-.37,14.69v1.26a10.57,10.57,0,0,0,.6,4.34,2.19,2.19,0,0,0,2.15,1.15c1.78,0,2.67-1.55,2.67-4.67v-3.64a2.46,2.46,0,0,1,.59-1.74,2.15,2.15,0,0,1,1.64-.63A2.13,2.13,0,0,1,254,329a6.56,6.56,0,0,1,.52,3.11Zm-15.51-12.91a7,7,0,0,1-1.6,1.22,10.36,10.36,0,0,1-2,.86,18.76,18.76,0,0,1-2.71.6c-1,.14-2.27.29-3.71.43q-4.46.38-6.45,1.82a4.87,4.87,0,0,0-2,4.2,5.17,5.17,0,0,0,2.05,4.33,8.82,8.82,0,0,0,5.6,1.6,11.38,11.38,0,0,0,7.9-2.64,9.14,9.14,0,0,0,2.93-7.15Z" transform="translate(139.32 34.47)" style="fill:#f1e000"></path><path d="M268.36,309.89a14.43,14.43,0,0,1,4.71-4.11,12.85,12.85,0,0,1,5.74-1.15,14.55,14.55,0,0,1,4.71.73,10.74,10.74,0,0,1,3.64,2.12,9.77,9.77,0,0,1,2.38,3.31,10.43,10.43,0,0,1,.85,4.22,7.91,7.91,0,0,1-1.64,5.23,5.31,5.31,0,0,1-4.3,2,4.26,4.26,0,0,1-2.86-1,3.19,3.19,0,0,1-1.14-2.49,3,3,0,0,1,.85-2.15,2.73,2.73,0,0,1,2-.89,6.55,6.55,0,0,1,1,.15,6.39,6.39,0,0,0,.1-.78c0-.28,0-.46,0-.56a4.8,4.8,0,0,0-1.74-3.89,7.08,7.08,0,0,0-4.64-1.45,8.08,8.08,0,0,0-4.71,1.41,7.79,7.79,0,0,0-2.93,3.79,15.52,15.52,0,0,0-.92,3.89,48.16,48.16,0,0,0-.27,5.68v4.67c0,1.93,0,3.53.11,4.79a23.58,23.58,0,0,0,.34,3,3,3,0,0,0,.66,1.56,1.55,1.55,0,0,0,1.12.44,12,12,0,0,0,2-.22c.25-.05.47-.09.67-.11a4.55,4.55,0,0,1,.67,0,2.49,2.49,0,0,1,1.81.67,2.27,2.27,0,0,1,.71,1.71,2.39,2.39,0,0,1-.86,1.81,2.9,2.9,0,0,1-2,.78c-.2,0-.63,0-1.3-.11s-1.48-.18-2.41-.34c-.4,0-.9-.08-1.49-.11s-1.24,0-1.92,0a33.28,33.28,0,0,0-4.53.23l-2.64.25c-.77.07-1.32.11-1.66.11a2.87,2.87,0,0,1-2.08-.78,2.49,2.49,0,0,1-.82-1.89,2.13,2.13,0,0,1,.78-1.7,2.89,2.89,0,0,1,2-.67,6.46,6.46,0,0,1,1.19.15,14.65,14.65,0,0,0,2.22.37,1.43,1.43,0,0,0,1-.37,3.1,3.1,0,0,0,.55-1.6,33.53,33.53,0,0,0,.27-3.63c0-1.61.07-3.75.07-6.42v-4.67c0-.65,0-1.41,0-2.31s-.06-1.78-.12-2.66-.08-1.7-.1-2.41-.06-1.25-.11-1.6a4,4,0,0,0-.63-2.08,1.77,1.77,0,0,0-1.45-.6,7.44,7.44,0,0,0-1.63.23,6.37,6.37,0,0,1-.78.11,7,7,0,0,1-.78,0c-1.68,0-2.52-.79-2.52-2.38s1.14-2.29,3.41-2.29l.82,0c.29,0,.62.06,1,.11,1.24.15,2.05.23,2.45.23A12.23,12.23,0,0,0,265,306c.29,0,.57-.09.81-.11l.66,0a1.67,1.67,0,0,1,1.87,1.92Z" transform="translate(139.32 34.47)" style="fill:#f1e000"></path><path d="M333,336.38a6.73,6.73,0,0,1-2,5.2,7.88,7.88,0,0,1-5.56,1.85q-5.94,0-7.34-5.2a11.39,11.39,0,0,1-4.71,4.35,16.41,16.41,0,0,1-7.09,1.37,17.79,17.79,0,0,1-5.42-.78,12,12,0,0,1-4.15-2.23,10.07,10.07,0,0,1-3.63-7.9,10.37,10.37,0,0,1,1.36-5.27,10.2,10.2,0,0,1,3.9-3.78,14.26,14.26,0,0,1,1.71-.85,13,13,0,0,1,1.82-.59,18,18,0,0,1,2.37-.45c.92-.12,2-.26,3.38-.41,2.37-.24,4.09-.48,5.15-.7a9.77,9.77,0,0,0,2.56-.86,4.18,4.18,0,0,0,1.67-1.78,5.6,5.6,0,0,0,.63-2.67,7.08,7.08,0,0,0-.66-3.31,5.45,5.45,0,0,0-2.37-2.1,10.56,10.56,0,0,0-4.86-1.12,11.71,11.71,0,0,0-2.59.3,10.74,10.74,0,0,0-2.4.82,7.25,7.25,0,0,0-1.74,1.11,1.64,1.64,0,0,0-.66,1.19.53.53,0,0,0,.11.29,3.63,3.63,0,0,0,.55.52,2.84,2.84,0,0,1,.75,1,3.39,3.39,0,0,1,.29,1.44,3.14,3.14,0,0,1-1.07,2.45,4.08,4.08,0,0,1-2.81,1,4.42,4.42,0,0,1-3.26-1.3,4.32,4.32,0,0,1-1.31-3.22,7.5,7.5,0,0,1,1.11-3.93,10.7,10.7,0,0,1,3-3.23,15.22,15.22,0,0,1,4.53-2.16,19.87,19.87,0,0,1,5.64-.77,16.69,16.69,0,0,1,5.74.93,12.27,12.27,0,0,1,4.34,2.59,10.23,10.23,0,0,1,2.64,3.94,11.33,11.33,0,0,1,.63,5v.37l-.37,14.69v1.26a10.79,10.79,0,0,0,.59,4.34,2.2,2.2,0,0,0,2.15,1.15c1.78,0,2.68-1.55,2.68-4.67v-3.64a2.42,2.42,0,0,1,.59-1.74,2.14,2.14,0,0,1,1.63-.63,2.1,2.1,0,0,1,1.93.82,6.43,6.43,0,0,1,.52,3.11Zm-15.5-12.91a7,7,0,0,1-1.6,1.22,10.47,10.47,0,0,1-2,.86,18.3,18.3,0,0,1-2.7.6c-1,.14-2.28.29-3.72.43Q303,327,301,328.4a4.84,4.84,0,0,0-2,4.2,5.19,5.19,0,0,0,2,4.33,8.84,8.84,0,0,0,5.6,1.6,11.34,11.34,0,0,0,7.9-2.64,9.11,9.11,0,0,0,2.94-7.15Z" transform="translate(139.32 34.47)" style="fill:#f1e000"></path><path d="M346.92,310.19c.69-.84,1.27-1.49,1.74-2a10.31,10.31,0,0,1,1.6-1.3,13.92,13.92,0,0,1,4-1.67,18.53,18.53,0,0,1,4.75-.64,15.9,15.9,0,0,1,6.38,1.34,13.26,13.26,0,0,1,4.9,3.56q2.37,2.82,2.37,8.76v13.87a22.32,22.32,0,0,0,.37,5,1.55,1.55,0,0,0,1.56,1.3,9.23,9.23,0,0,0,1.78-.22l.93-.12.78,0a2.42,2.42,0,0,1,1.74.67,2.15,2.15,0,0,1,.7,1.63,2.27,2.27,0,0,1-.89,1.78,3.2,3.2,0,0,1-2.14.74c-.45,0-1,0-1.56-.07l-2-.22a37.23,37.23,0,0,0-4.39-.23c-.64,0-1.22,0-1.74,0s-1,.06-1.44.1c-1,.16-1.87.27-2.64.34s-1.27.11-1.52.11a3.1,3.1,0,0,1-2.11-.74,2.37,2.37,0,0,1-.85-1.85,2.13,2.13,0,0,1,.7-1.67,2.68,2.68,0,0,1,1.89-.63c.25,0,.49,0,.74,0s.49.07.74.12.77.17,1.12.22a5.56,5.56,0,0,0,.74.07,1.39,1.39,0,0,0,1.3-.74,7.24,7.24,0,0,0,.55-2.53c0-.39,0-.95,0-1.68s.05-1.51.08-2.37,0-1.75.06-2.64,0-1.72,0-2.46v-5.43a26.54,26.54,0,0,0-.4-5.42,6.8,6.8,0,0,0-1.52-3.06,8.23,8.23,0,0,0-3.12-2.15,10.62,10.62,0,0,0-4-.75,11.62,11.62,0,0,0-5.13,1.16,9.25,9.25,0,0,0-3.7,3.08,10.4,10.4,0,0,0-.9,1.72,11.26,11.26,0,0,0-.59,2,17.86,17.86,0,0,0-.3,2.56c0,1-.07,2.13-.07,3.47v5.87c0,1.44,0,2.55,0,3.35s0,1.41,0,1.85a8.37,8.37,0,0,0,0,1c0,.23.06.51.11.86.15,1.58.79,2.38,1.93,2.38a4.69,4.69,0,0,0,1.63-.3A5,5,0,0,1,353,338a2.14,2.14,0,0,1,1.67.71,2.63,2.63,0,0,1,.63,1.82,2.11,2.11,0,0,1-.85,1.7,3.32,3.32,0,0,1-2.12.67c-.34,0-.88,0-1.6-.07s-1.49-.13-2.33-.22a25.59,25.59,0,0,0-3.41-.23c-.7,0-1.37,0-2,.07s-1.35.13-2,.23l-2.26.26c-.67.07-1.15.1-1.45.1a3.32,3.32,0,0,1-2.27-.74,2.34,2.34,0,0,1-.85-1.85,2.28,2.28,0,0,1,.67-1.7,2.31,2.31,0,0,1,1.71-.67l.67,0c.25,0,.49.07.74.12a6.39,6.39,0,0,0,1.92.29,1.64,1.64,0,0,0,1.52-.78,6.32,6.32,0,0,0,.63-2.7v-1.94c0-.79,0-1.78,0-3s.06-2.58.11-4.16v-5.78q0-3-.06-5a18.32,18.32,0,0,0-.34-3.08,3.58,3.58,0,0,0-.67-1.56,1.41,1.41,0,0,0-1.07-.45,13.51,13.51,0,0,0-2,.38l-.63.11a5.66,5.66,0,0,1-.63,0c-1.73,0-2.6-.79-2.6-2.37s1.09-2.44,3.27-2.44h.82c1.13.09,2,.17,2.7.21l1,.09a2.88,2.88,0,0,0,.35,0l.6-.12a12.18,12.18,0,0,1,2.07-.22,1.86,1.86,0,0,1,1.41.63,2.24,2.24,0,0,1,.6,1.6Z" transform="translate(139.32 34.47)" style="fill:#f1e000"></path><path d="M393.14,330.59c0,2.82.41,4.85,1.25,6.09a4.6,4.6,0,0,0,4.09,1.86,4.92,4.92,0,0,0,3.93-1.75,7,7,0,0,0,1.48-4.71v-2.3c0-1.24,0-2.1.05-2.56a6.37,6.37,0,0,1,.18-1.3,2.41,2.41,0,0,1,2.52-1.64c1.78,0,2.67,1.15,2.67,3.42a41.83,41.83,0,0,1-.37,5.93,15.52,15.52,0,0,1-1,4.09q-2.52,5.7-10.09,5.71c-3.91,0-6.72-1.29-8.46-3.86a10.16,10.16,0,0,1-.85-1.63,11.27,11.27,0,0,1-.56-1.85,15.85,15.85,0,0,1-.29-2.46c0-.93-.08-2.1-.08-3.48V312.42a1.87,1.87,0,0,0-.3-1.23,1.33,1.33,0,0,0-1-.33h-2.52a2.49,2.49,0,0,1-1.85-.75,2.39,2.39,0,0,1-.74-1.78,2.6,2.6,0,0,1,.78-1.85,2.41,2.41,0,0,1,1.81-.82h2.82q1.26,0,1.26-1.41v-7.64a2.82,2.82,0,0,1,.75-2,2.61,2.61,0,0,1,2-.77c1.73,0,2.6.93,2.6,2.81v7.94a1.13,1.13,0,0,0,.26.89,1.73,1.73,0,0,0,1.07.22h8.16a3.19,3.19,0,0,1,2.12.67,2.41,2.41,0,0,1,.78,1.93,2.34,2.34,0,0,1-.82,1.89,3.07,3.07,0,0,1-2.08.71h-8.45c-.69,0-1,.52-1,1.56Z" transform="translate(139.32 34.47)" style="fill:#f1e000"></path><path d="M419.77,325.18q.08,6.75,3.15,10.5a10.42,10.42,0,0,0,8.49,3.74,9.75,9.75,0,0,0,8.17-3.86,9.2,9.2,0,0,0,.67-.85,5.53,5.53,0,0,0,.4-.77c.13-.31.26-.69.41-1.16s.35-1.12.59-2A2.4,2.4,0,0,1,444.1,329a2.8,2.8,0,0,1,2,.75,2.62,2.62,0,0,1,.78,2,8.44,8.44,0,0,1-.74,3.15,12.09,12.09,0,0,1-2,3.3,14.11,14.11,0,0,1-5.68,4.26,19.08,19.08,0,0,1-7.68,1.53,17.47,17.47,0,0,1-7.08-1.38,14.71,14.71,0,0,1-5.34-3.85,17.31,17.31,0,0,1-3.38-6.08,25.71,25.71,0,0,1-1.19-8.06,25.26,25.26,0,0,1,1.26-8.16,19,19,0,0,1,3.6-6.38,16,16,0,0,1,5.61-4.12,17.69,17.69,0,0,1,7.19-1.44,16.43,16.43,0,0,1,6.42,1.23,15.05,15.05,0,0,1,5.08,3.41,15.6,15.6,0,0,1,3.37,5.15,16.92,16.92,0,0,1,1.23,6.53c0,1,0,1.85-.08,2.42a4,4,0,0,1-.29,1.29,1,1,0,0,1-.74.56,7.44,7.44,0,0,1-1.41.11Zm22-5.2q-.45-5.12-3-7.86a9.26,9.26,0,0,0-7.05-2.74,11.44,11.44,0,0,0-5.42,1.33,9.76,9.76,0,0,0-3.93,3.71,9,9,0,0,0-1.11,2.34,30.85,30.85,0,0,0-.74,3.22Z" transform="translate(139.32 34.47)" style="fill:#f1e000"></path><path d="M459.16,325.18q.07,6.75,3.15,10.5a10.44,10.44,0,0,0,8.5,3.74,9.74,9.74,0,0,0,8.16-3.86,7.74,7.74,0,0,0,.67-.85,5.53,5.53,0,0,0,.41-.77c.12-.31.26-.69.41-1.16s.34-1.12.59-2a2.39,2.39,0,0,1,2.44-1.86,2.83,2.83,0,0,1,2.05.75,2.61,2.61,0,0,1,.77,2,8.44,8.44,0,0,1-.74,3.15,12.31,12.31,0,0,1-2,3.3,14.14,14.14,0,0,1-5.69,4.26,19,19,0,0,1-7.67,1.53,17.48,17.48,0,0,1-7.09-1.38,14.88,14.88,0,0,1-5.34-3.85,17.31,17.31,0,0,1-3.38-6.08,25.71,25.71,0,0,1-1.18-8.06,25.26,25.26,0,0,1,1.26-8.16,18.83,18.83,0,0,1,3.59-6.38,16,16,0,0,1,5.61-4.12,17.75,17.75,0,0,1,7.19-1.44,16.4,16.4,0,0,1,6.42,1.23,15.19,15.19,0,0,1,5.09,3.41,15.92,15.92,0,0,1,3.37,5.15A16.91,16.91,0,0,1,487,320.8c0,1,0,1.85-.07,2.42a3.71,3.71,0,0,1-.3,1.29,1,1,0,0,1-.73.56,7.63,7.63,0,0,1-1.42.11Zm22-5.2c-.29-3.41-1.31-6-3-7.86a9.23,9.23,0,0,0-7.05-2.74,11.44,11.44,0,0,0-5.42,1.33,9.89,9.89,0,0,0-3.93,3.71,8.61,8.61,0,0,0-1.1,2.34,30.5,30.5,0,0,0-.75,3.22Z" transform="translate(139.32 34.47)" style="fill:#f1e000"></path><path d="M254,388.32a12,12,0,0,0-.93-4.75,10.78,10.78,0,0,0-2.56-3.67,11.7,11.7,0,0,0-3.88-2.37,14,14,0,0,0-5-.85,14.36,14.36,0,0,0-6.51,1.44,13.74,13.74,0,0,0-4.93,4.2,19.8,19.8,0,0,0-3.1,6.64,35.89,35.89,0,0,0,.22,18.31,18.94,18.94,0,0,0,3.68,7.17q4,4.68,11.12,4.67a14.58,14.58,0,0,0,6.9-1.64A10.94,10.94,0,0,0,253.7,413a10.49,10.49,0,0,0,1.07-2.9,18.23,18.23,0,0,0,.34-3.86c0-2.27.93-3.41,2.81-3.41S261,404,261,406.27a17.9,17.9,0,0,1-1.45,7.31,16.26,16.26,0,0,1-4,5.67,18.41,18.41,0,0,1-6.22,3.72,22.89,22.89,0,0,1-7.94,1.33,21.92,21.92,0,0,1-9.09-1.81,19.31,19.31,0,0,1-6.92-5.23,24.45,24.45,0,0,1-4.45-8.17,33.78,33.78,0,0,1-1.57-10.68,36.14,36.14,0,0,1,1.59-11.05,24.94,24.94,0,0,1,4.53-8.5,20.13,20.13,0,0,1,7-5.45,21,21,0,0,1,9.12-1.93,20.55,20.55,0,0,1,5.38.7,14.64,14.64,0,0,1,4.41,2,12.36,12.36,0,0,1,1.71,1.41,26.33,26.33,0,0,1,1.92,2.23c-.09-.84-.14-1.36-.14-1.56v-.59a9.1,9.1,0,0,1-.11-.93c0-.33,0-.53,0-.63a2.47,2.47,0,0,1,.63-1.78,2.19,2.19,0,0,1,1.68-.67,2.34,2.34,0,0,1,1.92.82,3.36,3.36,0,0,1,.67,2.22c0,.25,0,.73-.08,1.45s-.12,1.42-.22,2.12c-.1.88-.18,1.76-.26,2.63s-.11,1.69-.11,2.48v1.22a10.19,10.19,0,0,0,.07,1.15q.07.67.15,1.71c.05.7.15,1.66.3,2.89v.75c0,2.17-.92,3.26-2.75,3.26s-2.74-1-2.74-3Z" transform="translate(139.32 34.47)" style="fill:#f1e000"></path><path d="M306,416.37a6.72,6.72,0,0,1-2,5.19,7.88,7.88,0,0,1-5.56,1.86q-5.93,0-7.34-5.2a11.3,11.3,0,0,1-4.71,4.34,16.27,16.27,0,0,1-7.09,1.37,17.73,17.73,0,0,1-5.41-.77,12,12,0,0,1-4.16-2.23,10.26,10.26,0,0,1-2.67-3.46,10.11,10.11,0,0,1-1-4.44,10.47,10.47,0,0,1,1.36-5.27,10.22,10.22,0,0,1,3.9-3.79,15,15,0,0,1,1.71-.85,14.42,14.42,0,0,1,1.82-.59,22,22,0,0,1,2.37-.45c.92-.12,2-.26,3.38-.4,2.37-.25,4.09-.48,5.16-.71a9.84,9.84,0,0,0,2.55-.85,4.3,4.3,0,0,0,1.67-1.78,5.6,5.6,0,0,0,.63-2.67,7,7,0,0,0-.66-3.31,5.43,5.43,0,0,0-2.36-2.11,10.76,10.76,0,0,0-4.87-1.11,11.71,11.71,0,0,0-2.59.3,10.73,10.73,0,0,0-2.4.81,8.17,8.17,0,0,0-1.74,1.11,1.66,1.66,0,0,0-.66,1.19.53.53,0,0,0,.11.3,4.23,4.23,0,0,0,.55.52,2.89,2.89,0,0,1,.75,1,3.47,3.47,0,0,1,.29,1.45,3.14,3.14,0,0,1-1.07,2.45,4.12,4.12,0,0,1-2.81,1,4.44,4.44,0,0,1-4.57-4.51,7.56,7.56,0,0,1,1.11-3.94,10.55,10.55,0,0,1,3-3.22,15.22,15.22,0,0,1,4.53-2.16,19.52,19.52,0,0,1,5.64-.78,16.65,16.65,0,0,1,5.74.93,12.57,12.57,0,0,1,4.35,2.6,10.17,10.17,0,0,1,2.63,3.93,11.4,11.4,0,0,1,.63,5v.36l-.37,14.7v1.26a10.57,10.57,0,0,0,.6,4.34,2.19,2.19,0,0,0,2.14,1.15c1.78,0,2.68-1.56,2.68-4.67v-3.64a2.46,2.46,0,0,1,.59-1.75,2.17,2.17,0,0,1,1.63-.62,2.12,2.12,0,0,1,1.93.81,6.51,6.51,0,0,1,.52,3.12Zm-15.5-12.91a7.63,7.63,0,0,1-1.6,1.22,10.21,10.21,0,0,1-2,.85,16.06,16.06,0,0,1-2.7.6c-1,.14-2.28.3-3.72.44q-4.44.38-6.44,1.82a4.84,4.84,0,0,0-2,4.19,5.21,5.21,0,0,0,2,4.34,8.9,8.9,0,0,0,5.6,1.59,11.34,11.34,0,0,0,7.9-2.63,9.11,9.11,0,0,0,2.94-7.15Z" transform="translate(139.32 34.47)" style="fill:#f1e000"></path><path d="M319.8,389.88a14.41,14.41,0,0,1,4.71-4.11,12.89,12.89,0,0,1,5.75-1.16,14.28,14.28,0,0,1,4.71.74,10.89,10.89,0,0,1,3.64,2.11,9.94,9.94,0,0,1,2.37,3.31,10.35,10.35,0,0,1,.86,4.23,7.91,7.91,0,0,1-1.64,5.23,5.31,5.31,0,0,1-4.3,2,4.24,4.24,0,0,1-2.86-1,3.21,3.21,0,0,1-1.15-2.49,3,3,0,0,1,.86-2.15,2.73,2.73,0,0,1,2-.89,6.49,6.49,0,0,1,1,.15,6.27,6.27,0,0,0,.11-.79,5.45,5.45,0,0,0,0-.55,4.79,4.79,0,0,0-1.74-3.89,7,7,0,0,0-4.64-1.45,8.08,8.08,0,0,0-4.71,1.41,7.81,7.81,0,0,0-2.93,3.78,15.08,15.08,0,0,0-.92,3.9,45.8,45.8,0,0,0-.27,5.67v4.67c0,1.94,0,3.53.11,4.79a22.05,22.05,0,0,0,.34,3,3,3,0,0,0,.66,1.56,1.55,1.55,0,0,0,1.12.44,13.15,13.15,0,0,0,2-.22l.67-.12a6.53,6.53,0,0,1,.67,0,2.56,2.56,0,0,1,1.81.67,2.27,2.27,0,0,1,.71,1.71,2.39,2.39,0,0,1-.86,1.82,2.9,2.9,0,0,1-2,.78c-.2,0-.64,0-1.3-.11s-1.48-.19-2.41-.34c-.4,0-.9-.08-1.49-.11s-1.24,0-1.93,0a35.34,35.34,0,0,0-4.53.22l-2.63.26c-.77.07-1.33.11-1.66.11a2.87,2.87,0,0,1-2.08-.78,2.51,2.51,0,0,1-.82-1.9,2.13,2.13,0,0,1,.78-1.7,2.92,2.92,0,0,1,2-.66,6.3,6.3,0,0,1,1.2.14,13.8,13.8,0,0,0,2.21.38,1.38,1.38,0,0,0,1-.38,3,3,0,0,0,.56-1.59,31.8,31.8,0,0,0,.26-3.64q.07-2.41.08-6.41v-4.67c0-.65,0-1.42,0-2.31s-.07-1.78-.12-2.67-.08-1.7-.1-2.41-.07-1.25-.12-1.6a4,4,0,0,0-.62-2.07,1.77,1.77,0,0,0-1.46-.6,7.91,7.91,0,0,0-1.62.22,6.37,6.37,0,0,1-.78.11,5.36,5.36,0,0,1-.78.05c-1.68,0-2.52-.8-2.52-2.38s1.14-2.3,3.41-2.3c.24,0,.51,0,.81,0s.63.06,1,.11c1.24.15,2,.22,2.45.22a11.67,11.67,0,0,0,1.85-.22c.3-.05.57-.09.82-.11s.47,0,.66,0c1.24,0,1.86.64,1.86,1.93Z" transform="translate(139.32 34.47)" style="fill:#f1e000"></path><path d="M372.62,382.61c0-1.29,0-2.15,0-2.6a9.39,9.39,0,0,0-.18-1.41c-.35-1.29-1-1.93-2-1.93a8.17,8.17,0,0,0-1.71.22,6,6,0,0,1-1.56.23,2.35,2.35,0,0,1-1.7-.66,2.42,2.42,0,0,1-.68-1.78,2,2,0,0,1,.9-1.71,3.81,3.81,0,0,1,2.37-.67c.3,0,.63,0,1,0s.76.06,1.15.11l1.49.11,1,0h.88a8.31,8.31,0,0,0,1-.08,8.7,8.7,0,0,1,1.11-.07h.9a1.82,1.82,0,0,1,1.62.63,4.3,4.3,0,0,1,.45,2.34c0,.39,0,1.32-.08,2.78s-.14,4-.3,7.68c0,1.08-.08,2.08-.1,3s0,1.77,0,2.56v7.19q.08,7.65.11,11.51c0,2.56,0,3.93,0,4.07a8.78,8.78,0,0,0,.52,3.3,1.68,1.68,0,0,0,1.64.86,6.86,6.86,0,0,0,1.49-.22,6.87,6.87,0,0,1,1.7-.23,2.42,2.42,0,0,1,2.45,2.45,2.22,2.22,0,0,1-.89,1.82,3.5,3.5,0,0,1-2.23.71,8.17,8.17,0,0,1-1-.08,9.58,9.58,0,0,1-1.19-.22c-.54-.1-1-.17-1.41-.22a8.34,8.34,0,0,0-1-.08c-.25,0-.5,0-.75,0l-.89.11a8,8,0,0,1-1.63.22c-1.33,0-2-.79-2-2.37l.08-1.64q-3.95,5.28-11.43,5.27a15.52,15.52,0,0,1-6.79-1.45,15.24,15.24,0,0,1-5.27-4,18.79,18.79,0,0,1-3.41-6.27,27.84,27.84,0,0,1,0-16.17,18.51,18.51,0,0,1,3.34-6.16,14.41,14.41,0,0,1,5.2-3.92,16.17,16.17,0,0,1,6.82-1.38,14.16,14.16,0,0,1,6.45,1.34,11.48,11.48,0,0,1,4.53,4.15Zm-10.42,6.83a9.58,9.58,0,0,0-8.14,3.83q-2.88,3.84-2.88,10.86c0,4.62,1,8.26,3,10.92a9.75,9.75,0,0,0,8.2,4,10.28,10.28,0,0,0,5.85-1.64,8.92,8.92,0,0,0,3.47-4.63,14.42,14.42,0,0,0,.59-3.28,47.18,47.18,0,0,0,.23-5c0-1.69,0-3.11-.11-4.25s-.2-2.14-.34-3a8.79,8.79,0,0,0-.63-2.16,7.6,7.6,0,0,0-1.07-1.71,8.86,8.86,0,0,0-3.59-2.91,10.94,10.94,0,0,0-4.61-1" transform="translate(139.32 34.47)" style="fill:#f1e000"></path><polygon points="356.61 164.29 361.01 173.21 370.86 174.64 363.73 181.58 365.41 191.38 356.61 186.75 347.81 191.38 349.49 181.58 342.38 174.64 352.21 173.21 356.61 164.29" style="fill:#f4e000"></polygon><polygon points="396.36 151.04 400.76 159.96 410.6 161.38 403.48 168.34 405.16 178.13 396.36 173.5 387.56 178.13 389.24 168.34 382.13 161.38 391.96 159.96 396.36 151.04" style="fill:#f4e000"></polygon><polygon points="436.11 144.41 440.51 153.34 450.35 154.76 443.23 161.71 444.91 171.5 436.11 166.88 427.31 171.5 428.99 161.71 421.88 154.76 431.71 153.34 436.11 144.41" style="fill:#f4e000"></polygon><polygon points="475.85 151.04 480.26 159.96 490.1 161.38 482.98 168.34 484.66 178.13 475.85 173.5 467.06 178.13 468.74 168.34 461.62 161.38 471.46 159.96 475.85 151.04" style="fill:#f4e000"></polygon><polygon points="515.6 164.29 520.01 173.21 529.84 174.64 522.73 181.58 524.41 191.38 515.6 186.75 506.81 191.38 508.49 181.58 501.38 174.64 511.2 173.21 515.6 164.29" style="fill:#f4e000"></polygon><polygon points="515.61 500.17 511.21 491.25 501.38 489.82 508.49 482.87 506.81 473.08 515.61 477.73 524.41 473.08 522.73 482.87 529.84 489.82 520.01 491.25 515.61 500.17" style="fill:#f4e000"></polygon><polygon points="475.86 513.43 471.46 504.5 461.62 503.08 468.74 496.12 467.06 486.34 475.86 490.98 484.66 486.34 482.98 496.12 490.1 503.08 480.26 504.5 475.86 513.43" style="fill:#f4e000"></polygon><polygon points="436.11 520.06 431.71 511.12 421.88 509.71 428.99 502.75 427.31 492.95 436.11 497.59 444.91 492.95 443.23 502.75 450.35 509.71 440.51 511.12 436.11 520.06" style="fill:#f4e000"></polygon><polygon points="396.36 513.43 391.96 504.5 382.13 503.08 389.24 496.12 387.56 486.34 396.36 490.98 405.16 486.34 403.48 496.12 410.6 503.08 400.76 504.5 396.36 513.43" style="fill:#f4e000"></polygon><polygon points="356.61 500.17 352.21 491.25 342.38 489.82 349.49 482.87 347.81 473.08 356.61 477.73 365.41 473.08 363.73 482.87 370.86 489.82 361.01 491.25 356.61 500.17" style="fill:#f4e000"></polygon><path d="M289,534c105.42,4.28,197.48-61.2,231.65-155.36l-7.27-.29C479.65,468.62,390.85,531.21,289.3,527.07S104.32,453.39,78,360.64l-7.24-.3C97.17,457,183.62,529.71,289,534" transform="translate(139.32 34.47)" style="fill:#32473c"></path><path d="M308.19,62c-100.08-4.07-188.14,54.79-226,141.35l7.43.29C127,121,211.71,65,307.92,68.91s176.15,66.57,206.65,152l7.46.3C491.3,131.87,408.29,66.06,308.19,62" transform="translate(139.32 34.47)" style="fill:#32473c"></path><polygon points="669.23 351.2 665.31 343.26 656.57 342 662.9 335.83 661.4 327.12 669.23 331.24 677.04 327.12 675.55 335.83 681.88 342 673.13 343.26 669.23 351.2" style="fill:#32473c"></polygon><polygon points="204.67 338.2 200.75 330.26 192 329 198.34 322.83 196.85 314.12 204.67 318.24 212.49 314.12 210.99 322.83 217.32 329 208.58 330.26 204.67 338.2" style="fill:#32473c"></polygon></svg> 