<?xml version="1.0" encoding="UTF-8"?> <svg xmlns="http://www.w3.org/2000/svg" id="Layer_1" data-name="Layer 1" width="50" height="50.32" viewBox="0 0 50 50.32"><path d="M26.89,22.54v-.08a.35.35,0,0,0-.05.08Z" transform="translate(0 0.16)"></path><path d="M46.3-.16H3.69A3.65,3.65,0,0,0,0,3.45v43.1a3.65,3.65,0,0,0,3.69,3.61H46.3A3.65,3.65,0,0,0,50,46.55V3.45A3.66,3.66,0,0,0,46.3-.16ZM15.16,42H7.6V19.24h7.56ZM11.38,16.14h-.05a3.94,3.94,0,1,1,.1-7.85,3.94,3.94,0,1,1,0,7.85ZM42.39,42H34.84V29.81c0-3.06-1.1-5.14-3.83-5.14a4.11,4.11,0,0,0-3.87,2.76,5.16,5.16,0,0,0-.25,1.84V42H19.34s.09-20.59,0-22.72h7.55v3.22a7.49,7.49,0,0,1,6.8-3.75c5,0,8.7,3.24,8.7,10.22V42Z" transform="translate(0 0.16)"></path></svg> 