<?xml version="1.0" encoding="UTF-8"?> <svg xmlns="http://www.w3.org/2000/svg" id="Layer_1" data-name="Layer 1" width="272.99" height="154.78" viewBox="0 0 272.99 154.78"><polygon points="132.7 20.8 100.12 51.33 100.12 30.53 132.7 0 132.7 20.8" style="fill:#188dcd;fill-rule:evenodd"></polygon><polygon points="100.13 51.28 67.55 81.81 67.55 61.03 100.13 30.48 100.13 51.28" style="fill:#19baed;fill-rule:evenodd"></polygon><polygon points="100.25 51.28 132.83 81.81 132.83 61.03 100.25 30.48 100.25 51.28" style="fill:#045ba7;fill-rule:evenodd"></polygon><polygon points="165.38 51.28 197.96 81.81 197.96 61.03 165.38 30.48 165.38 51.28" style="fill:#204496;fill-rule:evenodd"></polygon><polygon points="165.45 51.28 132.85 81.81 132.85 61.03 165.45 30.48 165.45 51.28" style="fill:#0e7dc1;fill-rule:evenodd"></polygon><polygon points="0 132.66 0 102.27 6.04 102.27 16.77 125.32 27.27 102.27 33.13 102.27 33.13 132.66 27.72 132.66 27.72 111.49 19.14 132.66 14.14 132.66 5.39 111.49 5.39 132.66 0 132.66" style="fill:#0e7dc1;fill-rule:evenodd"></polygon><polygon points="36.97 132.66 50.39 102.27 56.68 102.27 70.39 132.66 64.11 132.66 60.12 124.36 49.99 124.36 52.02 119.49 58.58 119.49 53.4 108.07 42.99 132.66 36.97 132.66" style="fill:#0e7dc1;fill-rule:evenodd"></polygon><path d="M93.61,103.35v30.39H87.76V103.35Zm20.89,0-13.9,14.16,15.77,16.23h-8.11L95.4,119.54v-3.66l11.95-12.53Z" transform="translate(-13.5 -1.08)" style="fill:#0e7dc1;fill-rule:evenodd"></path><path d="M262.53,134.27v-30.6h14.9c6,0,9.07,2.6,9.07,7.78q0,9.12-13.1,11.1l-.84-5.06q7.77-1.38,7.78-5.87c0-2-1.11-3-3.29-3h-8.63v25.6Zm-34-12V103.67h5.9v18.59c0,4.86,2.58,7.31,7.76,7.31s7.78-2.45,7.78-7.31V103.67h5.91v18.59q0,12.22-13.69,12.22T228.52,122.26ZM191.28,119q0-15.54,15.95-15.56Q223,103.46,223,119t-15.73,15.46Q192,134.48,191.28,119Zm15.95,10.55c6.42,0,9.61-3.56,9.61-10.67s-3.19-10.53-9.61-10.53-9.83,3.53-9.83,10.53S200.68,129.57,207.23,129.57Zm-45.4,4.65V103.67h14.44c6.5,0,9.74,2.75,9.74,8.2,0,3.69-2.52,6.76-7.59,9.19l10.09,13.21h-7.67l-9.66-13.33v-2.59q8.67-1.38,8.67-6.32,0-3.36-3.95-3.36h-8.09v25.55Zm-5.55-1.37a24.63,24.63,0,0,1-9.64,1.63q-16.83,0-16.83-15.94,0-15.08,17.11-15.08a27.47,27.47,0,0,1,9.36,1.5v5.14a23,23,0,0,0-8.91-1.73q-11.44,0-11.44,10.17,0,11,10.8,11a16,16,0,0,0,3.65-.52v-8.9h5.9Z" transform="translate(-13.5 -1.08)" style="fill:#204496;fill-rule:evenodd"></path><path d="M256.57,155.45v-1.53Q265,148.31,265,145c0-1.84-1.21-2.75-3.61-2.75a9.36,9.36,0,0,0-4.44,1.1v-1.62a9.78,9.78,0,0,1,4.44-1q5.56,0,5.56,4.3c0,2.51-2.51,5.5-7.6,8.92H267v1.53ZM248.93,154q3.52,0,3.53-2.86c0-1.72-1.21-2.57-3.66-2.57s-3.48.85-3.48,2.57Q245.32,154,248.93,154Zm0-7c2.07,0,3.11-.8,3.11-2.45s-1.09-2.35-3.24-2.35-3.06.78-3.06,2.35S246.81,147.05,248.93,147.05Zm-5.57,4a3.36,3.36,0,0,1,2.24-3.27,3.71,3.71,0,0,1-1.83-3.41c0-2.51,1.7-3.77,5.12-3.77s5.11,1.26,5.11,3.77a3.69,3.69,0,0,1-1.89,3.41,3.35,3.35,0,0,1,2.3,3.27c0,3-1.83,4.46-5.52,4.46S243.36,154.07,243.36,151.1Zm-3.47-4.76c0-2.77-1.22-4.15-3.63-4.15s-3.66,1.12-3.66,3.38,1.12,3.18,3.32,3.18a6.65,6.65,0,0,0,3.67-.81A5,5,0,0,0,239.89,146.34Zm1.86-.15c0,3.19-1.79,6.4-5.4,9.66L235,154.76a16.55,16.55,0,0,0,4-5,7.45,7.45,0,0,1-3.15.65c-3.43,0-5.16-1.61-5.16-4.83s1.9-4.92,5.68-4.92C240,140.65,241.75,142.51,241.75,146.19ZM228,155.45V140.81l-3.58,1v.91h1.61v12.72ZM209.21,149h5.72c.11-1.89-.79-2.82-2.65-2.82A2.71,2.71,0,0,0,209.21,149Zm3.38-4.34c3.4,0,4.79,2,4.14,5.93h-7.52c0,2.18,1.43,3.3,4.3,3.3a14,14,0,0,0,3-.31v1.54a17.54,17.54,0,0,1-3.6.3c-3.74,0-5.65-1.84-5.65-5.51C207.23,146.45,209,144.69,212.59,144.69Zm-7.21,8.92a12.6,12.6,0,0,1-2.78.31c-2.87,0-4.31-1.37-4.31-4.06,0-2.41,1.44-3.63,4.31-3.63a13.23,13.23,0,0,1,2.78.31V145a13.36,13.36,0,0,0-3-.31c-4.05,0-6.09,1.73-6.09,5.17,0,3.73,2,5.59,6.09,5.59a13.38,13.38,0,0,0,3-.3ZM184,155.45V144.69h1.32l.36,1.38a7.24,7.24,0,0,1,4.09-1.38c2.57,0,3.87,1.34,3.87,4v6.75h-2v-6.78a2.16,2.16,0,0,0-2.47-2.41,4.73,4.73,0,0,0-3.21,1.37v7.82Zm-3.18-10.76v10.76h-2V144.69Zm0-3.88v1.53h-2v-1.53Zm-15.71,14.13V153.3a17.81,17.81,0,0,0,5.27.72c2.55,0,3.82-1,3.82-3a2,2,0,0,0-2.25-2.26h-3.34c-2.83,0-4.25-1.28-4.25-3.79,0-2.87,2-4.3,6.11-4.3a19,19,0,0,1,5,.62V143a16.38,16.38,0,0,0-5-.7c-2.76,0-4.14.91-4.14,2.75a2,2,0,0,0,2.28,2.25H172c2.81,0,4.22,1.28,4.22,3.8,0,3-1.92,4.51-5.79,4.51A19.85,19.85,0,0,1,165.13,154.94Z" transform="translate(-13.5 -1.08)" style="fill:#231f20;fill-rule:evenodd"></path></svg> 