<?xml version="1.0" encoding="UTF-8"?> <svg xmlns="http://www.w3.org/2000/svg" id="Layer_1" data-name="Layer 1" width="59.93" height="33.98" viewBox="0 0 59.93 33.98"><polygon points="29.13 4.57 21.98 11.27 21.98 6.7 29.13 0 29.13 4.57" style="fill:#188dcd;fill-rule:evenodd"></polygon><polygon points="21.98 11.26 14.83 17.96 14.83 13.4 21.98 6.69 21.98 11.26" style="fill:#19baed;fill-rule:evenodd"></polygon><polygon points="22.01 11.26 29.16 17.96 29.16 13.4 22.01 6.69 22.01 11.26" style="fill:#045ba7;fill-rule:evenodd"></polygon><polygon points="36.3 11.26 43.46 17.96 43.46 13.4 36.3 6.69 36.3 11.26" style="fill:#204496;fill-rule:evenodd"></polygon><polygon points="36.32 11.26 29.16 17.96 29.16 13.4 36.32 6.69 36.32 11.26" style="fill:#0e7dc1;fill-rule:evenodd"></polygon><polygon points="0 29.12 0 22.45 1.33 22.45 3.68 27.51 5.99 22.45 7.27 22.45 7.27 29.12 6.08 29.12 6.08 24.47 4.2 29.12 3.1 29.12 1.18 24.47 1.18 29.12 0 29.12" style="fill:#0e7dc1;fill-rule:evenodd"></polygon><polygon points="8.12 29.12 11.06 22.45 12.44 22.45 15.45 29.12 14.07 29.12 13.2 27.3 10.97 27.3 11.42 26.23 12.86 26.23 11.72 23.72 9.44 29.12 8.12 29.12" style="fill:#0e7dc1;fill-rule:evenodd"></polygon><path d="M17.59,22.45v6.67H16.3V22.45Zm4.58,0-3.05,3.11,3.46,3.56H20.8L18,26v-.8l2.62-2.75Z" style="fill:#0e7dc1;fill-rule:evenodd"></path><path d="M54.67,29.24V22.52h3.27c1.32,0,2,.57,2,1.71,0,1.33-1,2.15-2.88,2.44l-.18-1.11q1.71-.31,1.71-1.29c0-.44-.25-.65-.73-.65H56v5.62ZM47.2,26.6V22.52h1.3V26.6c0,1.07.56,1.61,1.7,1.61s1.71-.54,1.71-1.61V22.52h1.3V26.6c0,1.79-1,2.69-3,2.69S47.2,28.39,47.2,26.6ZM39,25.89c0-2.27,1.16-3.42,3.5-3.42S46,23.62,46,25.89s-1.15,3.4-3.45,3.4S39.13,28.15,39,25.89Zm3.5,2.32c1.41,0,2.11-.78,2.11-2.35s-.7-2.31-2.11-2.31-2.16.78-2.16,2.31S41.09,28.21,42.53,28.21Zm-10,1V22.52h3.17c1.43,0,2.14.6,2.14,1.8,0,.81-.55,1.48-1.67,2l2.22,2.9H36.74l-2.13-2.93v-.57c1.27-.2,1.91-.66,1.91-1.38,0-.5-.29-.74-.87-.74H33.87v5.61Zm-1.22-.3a5.4,5.4,0,0,1-2.11.36q-3.7,0-3.7-3.5,0-3.32,3.76-3.32a6.21,6.21,0,0,1,2.05.33v1.13a5,5,0,0,0-1.95-.38c-1.68,0-2.51.75-2.51,2.24a2.11,2.11,0,0,0,2.37,2.42,3.79,3.79,0,0,0,.8-.12V26.14h1.29Z" style="fill:#204496;fill-rule:evenodd"></path><path d="M53.36,33.89v-.34c1.23-.82,1.85-1.47,1.85-2S55,31,54.42,31a2.08,2.08,0,0,0-1,.24v-.35a2.07,2.07,0,0,1,1-.23c.82,0,1.22.31,1.22.94s-.55,1.21-1.67,2h1.67v.34Zm-1.68-.32c.52,0,.78-.2.78-.62s-.27-.57-.81-.57-.76.19-.76.57S51.15,33.57,51.68,33.57Zm0-1.53c.46,0,.68-.17.68-.53s-.24-.52-.71-.52-.67.17-.67.52S51.22,32,51.68,32Zm-1.22.89a.72.72,0,0,1,.49-.71.84.84,0,0,1-.4-.75c0-.55.37-.83,1.12-.83s1.12.28,1.12.83a.82.82,0,0,1-.41.75.72.72,0,0,1,.5.71c0,.65-.4,1-1.21,1S50.46,33.58,50.46,32.93Zm-.76-1c0-.61-.27-.91-.8-.91s-.8.24-.8.74.24.7.73.7a1.41,1.41,0,0,0,.8-.18A1,1,0,0,0,49.7,31.89Zm.41,0A3,3,0,0,1,48.92,34l-.3-.24a3.66,3.66,0,0,0,.88-1.1,1.75,1.75,0,0,1-.7.14c-.75,0-1.13-.35-1.13-1.06s.42-1.08,1.25-1.08A1.07,1.07,0,0,1,50.11,31.86Zm-3,2V30.67l-.78.23v.2h.35v2.79ZM43,32.48h1.26c0-.42-.18-.62-.58-.62A.6.6,0,0,0,43,32.48Zm.74-.95c.75,0,1.06.43.91,1.3H43c0,.48.32.72.95.72a2.81,2.81,0,0,0,.65-.07v.34a3.56,3.56,0,0,1-.79.07,1.09,1.09,0,0,1-1.24-1.21A1,1,0,0,1,43.7,31.53Zm-1.58,1.95a2.54,2.54,0,0,1-.61.07c-.63,0-.94-.3-.94-.89s.31-.8.94-.8a3.17,3.17,0,0,1,.61.07v-.34a3.34,3.34,0,0,0-.65-.06c-.89,0-1.34.38-1.34,1.13s.45,1.23,1.34,1.23a2.7,2.7,0,0,0,.65-.07Zm-4.69.41V31.53h.29l.08.3a1.61,1.61,0,0,1,.9-.3.77.77,0,0,1,.85.88v1.48h-.43V32.4a.48.48,0,0,0-.55-.53,1,1,0,0,0-.7.3v1.72Zm-.7-2.36v2.36H36.3V31.53Zm0-.86V31H36.3v-.34Zm-3.44,3.11v-.37a3.63,3.63,0,0,0,1.15.16c.56,0,.84-.21.84-.65a.43.43,0,0,0-.49-.49h-.74q-.93,0-.93-.84c0-.63.45-.94,1.34-.94a4.11,4.11,0,0,1,1.09.14v.35A3.73,3.73,0,0,0,34.46,31c-.6,0-.91.2-.91.6a.44.44,0,0,0,.5.5h.74c.61,0,.92.28.92.83s-.42,1-1.27,1A4.39,4.39,0,0,1,33.29,33.78Z" style="fill:#231f20;fill-rule:evenodd"></path></svg> 