<?xml version="1.0" encoding="UTF-8"?> <svg xmlns="http://www.w3.org/2000/svg" id="Layer_1" data-name="Layer 1" width="2.75cm" height="3.67cm" viewBox="0 0 77.86 104.07"><path d="M38.58,0A21.24,21.24,0,0,0,17.34,21.24H59.82A21.24,21.24,0,0,0,38.58,0" style="fill:#32473c"></path><rect y="7.83" width="77.86" height="4.35" style="fill:#32473c"></rect><rect y="19.06" width="77.86" height="4.35" style="fill:#32473c"></rect><rect y="30.29" width="77.86" height="4.35" style="fill:#32473c"></rect><rect y="41.52" width="77.86" height="4.35" style="fill:#32473c"></rect><rect y="52.75" width="77.86" height="4.35" style="fill:#32473c"></rect><rect y="63.98" width="77.86" height="4.35" style="fill:#32473c"></rect><rect y="75.21" width="77.86" height="4.35" style="fill:#32473c"></rect><rect y="86.43" width="77.86" height="4.35" style="fill:#32473c"></rect><rect y="13.45" width="77.86" height="4.35" style="fill:#32473c"></rect><rect y="24.68" width="77.86" height="4.35" style="fill:#32473c"></rect><rect y="35.91" width="77.86" height="4.35" style="fill:#32473c"></rect><rect y="47.13" width="77.86" height="4.35" style="fill:#32473c"></rect><rect y="58.36" width="77.86" height="4.35" style="fill:#32473c"></rect><rect y="69.59" width="77.86" height="4.35" style="fill:#32473c"></rect><rect y="80.82" width="77.86" height="4.35" style="fill:#32473c"></rect><rect y="92.05" width="77.86" height="4.35" style="fill:#32473c"></rect><rect x="2.47" y="9.91" width="72.85" height="84.32" style="fill:#f4e000"></rect><path d="M38.58,104.07A21.24,21.24,0,0,0,59.82,82.83H17.34a21.24,21.24,0,0,0,21.24,21.24" style="fill:#32473c"></path><rect x="15.89" y="8.76" width="45.39" height="12.48" style="fill:#32473c"></rect><rect x="15.89" y="82.83" width="45.39" height="12.48" style="fill:#32473c"></rect><polygon points="24.41 17.03 23.29 15.09 22.17 13.15 24.41 13.15 26.64 13.15 25.52 15.09 24.41 17.03" style="fill:#f4e000"></polygon><polygon points="33.78 17.03 32.66 15.09 31.54 13.15 33.78 13.15 36.02 13.15 34.9 15.09 33.78 17.03" style="fill:#f4e000"></polygon><polygon points="43.16 17.03 42.04 15.09 40.92 13.15 43.16 13.15 45.4 13.15 44.28 15.09 43.16 17.03" style="fill:#f4e000"></polygon><polygon points="52.53 17.03 51.41 15.09 50.3 13.15 52.53 13.15 54.77 13.15 53.65 15.09 52.53 17.03" style="fill:#f4e000"></polygon><polygon points="52.53 87.22 53.65 89.16 54.77 91.1 52.53 91.1 50.3 91.1 51.41 89.16 52.53 87.22" style="fill:#f4e000"></polygon><polygon points="43.16 87.22 44.28 89.16 45.4 91.1 43.16 91.1 40.92 91.1 42.04 89.16 43.16 87.22" style="fill:#f4e000"></polygon><polygon points="33.78 87.22 34.9 89.16 36.02 91.1 33.78 91.1 31.54 91.1 32.66 89.16 33.78 87.22" style="fill:#f4e000"></polygon><polygon points="24.41 87.22 25.52 89.16 26.64 91.1 24.41 91.1 22.17 91.1 23.29 89.16 24.41 87.22" style="fill:#f4e000"></polygon><polygon points="17.55 78.49 17.49 70.7 15.86 70.71 15.85 70.11 19.87 70.08 19.87 70.68 18.23 70.69 18.29 78.48 17.55 78.49" style="fill:#32473c"></polygon><polygon points="20.47 78.46 20.41 70.08 23.33 70.06 23.33 70.65 21.15 70.67 21.17 73.84 22.73 73.83 22.74 74.39 21.18 74.41 21.2 77.86 23.39 77.85 23.39 78.44 20.47 78.46" style="fill:#32473c"></polygon><path d="M24.17,76l0-3.51a6.51,6.51,0,0,1,.05-.81,2.83,2.83,0,0,1,.21-.7,1.71,1.71,0,0,1,.37-.56,1.78,1.78,0,0,1,.6-.36,2.38,2.38,0,0,1,.84-.14c1.31,0,2,.84,2,2.54v.34h-.71V72.3a4.6,4.6,0,0,0-.07-.71,1.77,1.77,0,0,0-.21-.57,1,1,0,0,0-.39-.38,1.28,1.28,0,0,0-.61-.13,1.87,1.87,0,0,0-.56.1.87.87,0,0,0-.38.25,1.08,1.08,0,0,0-.24.39,2,2,0,0,0-.12.49,5,5,0,0,0,0,.58l0,3.84a3.73,3.73,0,0,0,.06.72,1.71,1.71,0,0,0,.21.56,1,1,0,0,0,.42.39,1.48,1.48,0,0,0,.67.13,1.21,1.21,0,0,0,.6-.14.92.92,0,0,0,.39-.39,1.75,1.75,0,0,0,.2-.57,3.84,3.84,0,0,0,.06-.71v-.58h.71V76a5,5,0,0,1,0,.81,2.67,2.67,0,0,1-.18.7,1.64,1.64,0,0,1-.36.57,1.51,1.51,0,0,1-.56.36,2.2,2.2,0,0,1-.8.14,2.45,2.45,0,0,1-.85-.13,1.58,1.58,0,0,1-.61-.35,1.71,1.71,0,0,1-.37-.56,2.75,2.75,0,0,1-.21-.69,5.17,5.17,0,0,1-.06-.82" style="fill:#32473c"></path><polygon points="29.37 78.4 29.31 70.01 30.05 70.01 30.08 73.8 32.66 73.78 32.63 69.99 33.37 69.98 33.43 78.37 32.69 78.37 32.66 74.3 30.08 74.32 30.11 78.39 29.37 78.4" style="fill:#32473c"></polygon><polygon points="34.85 78.36 34.79 69.97 35.36 69.97 38.07 76.59 38.02 69.95 38.65 69.94 38.71 78.33 38.15 78.33 35.45 71.85 35.49 78.35 34.85 78.36" style="fill:#32473c"></polygon><path d="M40,75.89l0-3.52a5.13,5.13,0,0,1,.06-.81,2.38,2.38,0,0,1,.22-.7,1.76,1.76,0,0,1,.39-.56,1.78,1.78,0,0,1,.6-.36,2.48,2.48,0,0,1,.85-.14,2.77,2.77,0,0,1,.85.12,1.73,1.73,0,0,1,.61.36,1.9,1.9,0,0,1,.4.55,2.74,2.74,0,0,1,.23.7,5,5,0,0,1,.07.81l0,3.51c0,1.71-.7,2.57-2.12,2.58S40,77.59,40,75.89M43.5,76l0-3.85c0-1.2-.48-1.79-1.41-1.79s-1.4.61-1.39,1.81l0,3.85c0,1.2.48,1.8,1.41,1.79s1.4-.61,1.39-1.81" style="fill:#32473c"></path><polygon points="45.52 78.28 45.46 69.89 46.2 69.89 46.26 77.67 48.6 77.66 48.6 78.25 45.52 78.28" style="fill:#32473c"></polygon><path d="M49.11,75.82l0-3.51a5.17,5.17,0,0,1,.06-.82,2.38,2.38,0,0,1,.22-.7,1.76,1.76,0,0,1,.39-.56,1.68,1.68,0,0,1,.6-.36,2.74,2.74,0,0,1,1.7,0,1.58,1.58,0,0,1,.61.35,1.9,1.9,0,0,1,.4.55,3.19,3.19,0,0,1,.23.7,5.09,5.09,0,0,1,.07.81l0,3.52c0,1.7-.69,2.56-2.12,2.57s-2.14-.84-2.15-2.54m3.53.14,0-3.85c0-1.2-.48-1.79-1.42-1.78s-1.39.6-1.38,1.8l0,3.85c0,1.2.48,1.8,1.41,1.79s1.39-.61,1.38-1.81" style="fill:#32473c"></path><path d="M54.5,75.86l0-3.55c0-1.74.71-2.61,2.19-2.62a2.48,2.48,0,0,1,.63.07,1.69,1.69,0,0,1,.49.21,1.41,1.41,0,0,1,.35.34,2.32,2.32,0,0,1,.24.43,3.11,3.11,0,0,1,.14.53c0,.2.06.39.08.58s0,.39,0,.62v.06h-.74v-.13c0-.24,0-.42,0-.54s0-.28,0-.48a1.47,1.47,0,0,0-.11-.46,2.21,2.21,0,0,0-.21-.33.71.71,0,0,0-.34-.24,1.52,1.52,0,0,0-.51-.08,1.81,1.81,0,0,0-.7.15,1.07,1.07,0,0,0-.45.39,1.83,1.83,0,0,0-.23.54,3.06,3.06,0,0,0-.06.63l0,4.19a2.58,2.58,0,0,0,.06.58,1.61,1.61,0,0,0,.21.49,1,1,0,0,0,.43.36,1.85,1.85,0,0,0,.71.12,1.49,1.49,0,0,0,.66-.14.92.92,0,0,0,.4-.38,1.84,1.84,0,0,0,.19-.49,2.48,2.48,0,0,0,.05-.56V74.74h-1v-.56h1.77l0,4h-.33l-.22-.82a1.43,1.43,0,0,1-.59.7,1.74,1.74,0,0,1-.93.26,2.36,2.36,0,0,1-.61,0,2,2,0,0,1-.49-.16,1.15,1.15,0,0,1-.37-.25,1.83,1.83,0,0,1-.27-.3,1.64,1.64,0,0,1-.18-.35,1.52,1.52,0,0,1-.12-.36,2.88,2.88,0,0,1-.07-.36q0-.21,0-.33v-.3" style="fill:#32473c"></path><path d="M60.93,78.16l0-2.6L59,69.79h.75c.06.24.16.57.29,1s.25.86.39,1.29l.38,1.26.31,1,.12.38c.2-.76.44-1.61.7-2.53s.49-1.73.68-2.41h.72l-1.73,5.79,0,2.6Z" style="fill:#32473c"></path><path d="M16.56,67.1V50h4.18a4.81,4.81,0,0,1,1.58.24,3.13,3.13,0,0,1,1.15.66,3.36,3.36,0,0,1,.76,1,4.67,4.67,0,0,1,.42,1.26,7.91,7.91,0,0,1,.12,1.42,9.44,9.44,0,0,1-.1,1.45,5.51,5.51,0,0,1-.39,1.32,3.75,3.75,0,0,1-.72,1.1,3.31,3.31,0,0,1-1.17.74,4.48,4.48,0,0,1-1.66.28H18.07V67.1Zm1.51-8.8h2.84a1.94,1.94,0,0,0,1.81-.88,5.5,5.5,0,0,0,.55-2.78,4.52,4.52,0,0,0-.59-2.59,2,2,0,0,0-1.77-.82H18.07Z" style="fill:#32473c"></path><path d="M26.6,67.1V50h4.55a4.63,4.63,0,0,1,1.52.23,3,3,0,0,1,1.06.63,3.11,3.11,0,0,1,.65,1,4.86,4.86,0,0,1,.34,1.2,9.47,9.47,0,0,1,.1,1.37q0,3.27-2.39,4.14l2.64,8.52h-1.6L31,58.77H28.11V67.1Zm1.51-9.54h3a2.21,2.21,0,0,0,1.1-.26,1.66,1.66,0,0,0,.67-.74,4.08,4.08,0,0,0,.31-1,6.91,6.91,0,0,0,.09-1.18,7.26,7.26,0,0,0-.06-1,3.51,3.51,0,0,0-.2-.85,2,2,0,0,0-.38-.7,1.61,1.61,0,0,0-.62-.45,2.14,2.14,0,0,0-.91-.17h-3Z" style="fill:#32473c"></path><polygon points="37.27 67.1 37.27 50.03 43.22 50.03 43.22 51.24 38.78 51.24 38.78 57.7 41.95 57.7 41.95 58.85 38.78 58.85 38.78 65.89 43.22 65.89 43.22 67.1 37.27 67.1" style="fill:#32473c"></polygon><path d="M44.46,63l1.33-.38a6.7,6.7,0,0,0,.28,1.32A5.07,5.07,0,0,0,46.62,65a2.51,2.51,0,0,0,.92.82,2.74,2.74,0,0,0,1.3.3,2.4,2.4,0,0,0,1.79-.65,2.46,2.46,0,0,0,.64-1.82,3.55,3.55,0,0,0-.58-1.9A14.65,14.65,0,0,0,49,59.69l-2.67-2.81A9.64,9.64,0,0,1,45,55.16a3.34,3.34,0,0,1-.47-1.69,3.46,3.46,0,0,1,1.1-2.68,4,4,0,0,1,2.83-1,3.77,3.77,0,0,1,2.7,1,4.88,4.88,0,0,1,1.36,2.75l0,.16L51.25,54l0-.13a4,4,0,0,0-.92-2.1A2.4,2.4,0,0,0,48.43,51a2.7,2.7,0,0,0-1.8.57,2.12,2.12,0,0,0-.67,1.7,2.74,2.74,0,0,0,.36,1.33,7.26,7.26,0,0,0,1,1.39l2.51,2.73.49.54c.27.28.44.48.53.57l.45.53a7.08,7.08,0,0,1,.46.6l.35.58a2.67,2.67,0,0,1,.31.65c.06.18.11.4.17.64a3.71,3.71,0,0,1,.08.73,3.59,3.59,0,0,1-1.13,2.82,4.24,4.24,0,0,1-2.91,1A3.78,3.78,0,0,1,47,67a3.58,3.58,0,0,1-1.25-1,5.72,5.72,0,0,1-.84-1.39A7.41,7.41,0,0,1,44.46,63" style="fill:#32473c"></path><path d="M54,63l1.33-.38a6.06,6.06,0,0,0,.28,1.32A4.66,4.66,0,0,0,56.11,65a2.43,2.43,0,0,0,.92.82,2.73,2.73,0,0,0,1.29.3,2.42,2.42,0,0,0,1.8-.65,2.5,2.5,0,0,0,.63-1.82,3.46,3.46,0,0,0-.58-1.9,13.39,13.39,0,0,0-1.71-2.1l-2.67-2.81a9.64,9.64,0,0,1-1.34-1.72A3.33,3.33,0,0,1,54,53.47a3.43,3.43,0,0,1,1.1-2.68,4,4,0,0,1,2.83-1,3.76,3.76,0,0,1,2.69,1A4.82,4.82,0,0,1,62,53.49l0,.16L60.73,54l0-.13a4,4,0,0,0-.91-2.1A2.4,2.4,0,0,0,57.92,51a2.71,2.71,0,0,0-1.81.57,2.15,2.15,0,0,0-.67,1.7,2.76,2.76,0,0,0,.37,1.33,7.17,7.17,0,0,0,1,1.39l2.51,2.73.5.54.52.57.46.53a6.44,6.44,0,0,1,.45.6l.35.58a2.75,2.75,0,0,1,.32.65c0,.18.11.4.16.64a3.71,3.71,0,0,1,.08.73,3.56,3.56,0,0,1-1.13,2.82,4.24,4.24,0,0,1-2.91,1A3.7,3.7,0,0,1,56.5,67a3.53,3.53,0,0,1-1.26-1,5.39,5.39,0,0,1-.83-1.39A6.93,6.93,0,0,1,54,63" style="fill:#32473c"></path><path d="M16.11,40V31.39a11,11,0,0,1,.16-2,7,7,0,0,1,.54-1.71,4.51,4.51,0,0,1,1-1.35,4.27,4.27,0,0,1,1.49-.88,6.25,6.25,0,0,1,2.07-.32,6.34,6.34,0,0,1,2.07.32,4.2,4.2,0,0,1,1.48.87,4.58,4.58,0,0,1,1,1.36,6.89,6.89,0,0,1,.54,1.7,12.25,12.25,0,0,1,.16,2V40q0,4.27-2.43,5.64c.3.27.55.48.74.64a4.91,4.91,0,0,0,.8.49,3.07,3.07,0,0,0,1,.33v1.35a4.26,4.26,0,0,1-1.86-.74A10.7,10.7,0,0,1,23,46a6.76,6.76,0,0,1-1.64.2q-5.22,0-5.22-6.26m8.63.41V31q0-4.39-3.41-4.39c-2.28,0-3.41,1.46-3.41,4.39v9.38c0,2.93,1.14,4.4,3.41,4.39s3.42-1.46,3.41-4.39" style="fill:#32473c"></path><path d="M28.52,40.86V25.43h1.81V41.28a3.75,3.75,0,0,0,.8,2.62,3.56,3.56,0,0,0,2.69.86,3.24,3.24,0,0,0,2.54-.87,3.86,3.86,0,0,0,.76-2.61V25.43H38.9V40.86q0,5.36-5.1,5.35a7.4,7.4,0,0,1-2.16-.28,4.42,4.42,0,0,1-1.52-.77,3.83,3.83,0,0,1-1-1.18,4.73,4.73,0,0,1-.51-1.45,8.6,8.6,0,0,1-.14-1.67" style="fill:#32473c"></path><path d="M42,45.89H40.21l4-20.46H46.6l4,20.46H48.81l-1-5.33H43.07Zm1.26-6.53h4.28l-2.15-12Z" style="fill:#32473c"></path><path d="M52,45.89V25.43h4.6a6.25,6.25,0,0,1,2.07.32,4.22,4.22,0,0,1,1.49.85,4.49,4.49,0,0,1,1,1.33,6.72,6.72,0,0,1,.54,1.66,10.65,10.65,0,0,1,.16,1.94v8.32q0,6-5.21,6Zm1.8-1.46h2.8q3.4,0,3.41-4.18V31.12c0-2.83-1.13-4.25-3.41-4.25H53.84Z" style="fill:#32473c"></path></svg> 