<?xml version="1.0" encoding="UTF-8"?> <!-- Generator: Adobe Illustrator 24.1.3, SVG Export Plug-In . SVG Version: 6.00 Build 0) --> <svg xmlns="http://www.w3.org/2000/svg" xmlns:xlink="http://www.w3.org/1999/xlink" version="1.1" id="Layer_1" x="0px" y="0px" viewBox="0 0 1000 1000" style="enable-background:new 0 0 1000 1000;" xml:space="preserve"> <style type="text/css"> .st0{fill:#F9EC21;} .st1{fill:#004866;} .st2{fill:#231F20;} .st3{fill:#FFFFFF;} </style> <g> <rect x="82.1" y="237.4" class="st0" width="835.8" height="523.9"></rect> <rect x="82.1" y="471.4" class="st1" width="835.7" height="291.3"></rect> <path class="st2" d="M581.7,377.8L581.7,377.8z"></path> <path class="st2" d="M572.8,422L572.8,422V296.1l6.6,5.9C615,332.6,638,375.3,644,421.8l0.6,4.5h-13l-0.5-3.5 c-1-7.4-2.4-14.8-4.3-22.1c-1.6-6.4-3.6-12.6-5.9-18.7h-34.7v44.3h-13.3V422z M586.1,325.8v43h29.2 C607.7,353.1,597.8,338.7,586.1,325.8z"></path> <path class="st2" d="M259,302c14.5,0,28.6,5.2,39.6,14.6l3,2.5l-2.6,3l-3.2,3.8l-2.5,3l-3.1-2.7c-4-3.4-8.6-6.2-13.5-8.1 c-3.6-1.4-7.4-2.4-11.2-3v110.8h-12.9V315.3c-9.1,1.2-17.7,5-24.7,11l-3,2.7l-2.7-2.7l-3.1-3.7l-2.6-3l3.1-2.6 c11-9.5,25-14.7,39.5-14.6"></path> <path class="st2" d="M718.3,393.3c-2.8-31.8-21.6-59.9-49.8-74.8v107.5h-13V299.1l5.4,2c24.4,8.8,44.8,26.2,57.4,48.9v-49.1h13 v125.2h-13V393.3z"></path> <path class="st2" d="M547.2,414.4c-8.3,8.5-19.5,13.6-31.4,14.3h-4v-4l-0.4-4.9v-4h4c8.7-0.6,17-4.3,23.1-10.5 c6.1-6.2,9.7-14.3,10.4-22.9v-81.6h12.9v82c-0.7,11.9-5.7,23.1-14.1,31.5"></path> <path class="st2" d="M325.2,381.3L325.2,381.3v44.8h-12.9V303.2l3.4-0.5c19.1-2.8,37.5,8.4,43.7,26.7l0,0 c6.5,19.5-2.7,40.7-21.4,49.3c5.6,16.1,17,29.5,32,37.6l3.6,2l-1.9,3.5l-2.3,4.3l-1.9,3.6l-3.6-2c-10.3-5.5-19.3-13.2-26.3-22.5 c-5.4-7.2-9.6-15.2-12.4-23.7 M325.3,315.6v53.7h1.2l0,0c14.6-2.8,24.3-16.8,21.6-31.5l0,0c-1.9-11.7-11.2-20.7-22.9-22.4 L325.3,315.6z"></path> <path class="st2" d="M385.1,363.5c0.1-27.9,18.8-52.4,45.8-59.6l0,0h0.8v13.7c-20.8,6.8-34.5,26.6-33.6,48.5 c0.1,3.4,0.6,6.9,1.5,10.2l1.7,4.1h-0.4c3.9,10.9,11.5,20.1,21.5,25.9c10.1,5.9,21.9,8,33.4,5.9l3.7-1c22.1-6,37.2-26.4,36.2-49.3 c-0.2-3-0.6-6.1-1.3-9h13.3c0.7,3.6,1.2,7.3,1.2,11c0,27.9-18.8,52.4-45.8,59.6l0,0c-31.5,8.5-64.2-9.1-74.6-40.1l0,0l-0.4-1.5 c0-0.8-0.4-1.5-0.6-2.3c-1.4-5.3-2.2-10.7-2.1-16.2"></path> <path class="st2" d="M581.9,379.6L581.9,379.6z"></path> <polygon class="st2" points="464.4,337.8 464.5,337.8 464.4,337.8 "></polygon> <path class="st2" d="M468.3,335.6L468.3,335.6c0-1.5,2.3-2.3,2.4-3c0,0.4-1.5,0-1.7-0.5s0.8-4.3,0-5.1c-0.5,0.9-1.3,1.7-2.1,2.3 c-0.4,0.4-1,0.4-1.3,0c0,0,0,0,0,0c-0.4,0-1.2,2.7-1.5,2.8c-0.3,0.1-0.4-0.5,0-0.8c0.6-1.1,0.6-2.4,0-3.6c-0.4,1.5-1.2,1.3-1.2,1.3 c-1.7-1.1-3.1-2.5-4.3-4.1l-0.4-0.8c0,0.3,0,0.6,0,0.9c0.1,2-0.3,4-1,5.9c0,0-0.5,0.7-1.8,0c0.2,1.2,0.9,2.3,2,2.9 c0.4,0,0.7,0.8,0.4,0.8c-1.1-0.2-2.1-0.6-3-1.3c0,0.3,0,0.9-0.9,1c-1,0-2.1-0.2-3-0.6c0,0.4,1.2,1.3,2.1,2.3c0,0,1.2,1.2,0.9,1.9 c-0.4,0.7-0.6,1.5-0.9,1.4c-0.4-0.1,3-0.5,3.7,0.9c0,0-1.1,3.1-2.6,2.8c1.4,0.4,2.9,0.4,4.3,0c1.1-0.5,1.6-0.8,2.1-0.4 s-0.5,1.4-0.7,1.4c1.6-0.3,3-1.4,3.6-3v-0.3l0,0c1.5,0.7,3.2,0.7,4.6,0c0,0-1.5,0-1.3-0.8s0.7-0.7,2-0.9c1.4-0.4,2.6-1.3,3.6-2.4 c-1.1,1.1-3.8-0.7-3.8-0.7 M464.8,301.3L464.8,301.3c-0.9-2.1,2.4-4.2,2.3-5.3c0,0.7-2.3,0.4-2.6,0c-0.3-2.3-0.9-4.6-1.7-6.8 c0.1,1.6-0.7,3-2.1,3.9c-0.8,0.4-1.7,0.4-2.5,0c-0.4,0.7-0.7,4.3-1.1,4.7c-0.4,0.4-0.8-0.7-0.6-1.2c0.2-1.8-0.3-3.6-1.6-4.9 c0,2.4-1.3,2.3-1.3,2.3c-2.7-1.1-5.3-2.5-7.8-4l-1.4-0.7l1.1,0.9c1,2.8,1.3,5.7,0.8,8.7c0,0-0.4,1.2-2.6,0.4 c0.8,1.6,2.2,2.8,3.9,3.4c1.6,0.7,1.4,0.8,0.9,0.9c-1.6,0.3-3.3,0-4.8-0.8c0.2,0.8-0.2,1.6-0.9,1.8c-0.8,0.5-1.7,0.6-2.6,0.4 c0,0.6,3.5,2.5,3.9,4.7c0,0.5,0,2.4-0.9,2.4c0.9,0.5,4.1-1.8,5.9,0c0,0,1.1,4.5-2,4.8c1.8,0.8,4-0.7,5.5-1.8c1.5-1.2,2-1.7,2.8-1.3 c0.9,0.4,0,2.1-0.3,2.2c2-1.1,3.4-3,3.8-5.2c1.1,1.6,2,3.3,2.7,5.2c0,1,1.7,0.4,1.4-0.3c-1-2.1-2.2-4.1-3.6-5.9 c2.4,0.5,4.8,0,6.8-1.5c0,0-2.3,0.4-2.2-0.6c0.1-0.9,0.8-1.2,2.4-2.1c1.8-1.2,3.3-2.9,4.1-4.9c-1.1,2.1-5.7,0.5-5.7,0.5 L464.8,301.3z M506.3,332.2L506.3,332.2c-2.8,0-3.5,0-4-0.8c-0.5-0.7-0.5-1.6,0-2.3c-1.6,0.3-3.2,0.2-4.7-0.4 c-0.4-0.3,0.5-0.9,1.1-0.8c1.8,0,3.6-0.9,4.7-2.3c-2.4,0-2.5-1-2.5-1c0-2.7,0.9-5.4,2.5-7.6l1.8-1.5h-1.8c-4,0-6.8,2.8-8.4,2.6 c0,0-1.2,0-0.7-2.5c-1.6,1-2.6,2.6-2.8,4.4c0,0.6-0.7,1.5-0.9,1c-0.8-1.5-0.8-3.3,0-4.8c-0.7,0.5-1.6,0.5-2.3,0 c-0.7-0.4-1.2-1.2-0.5-3.3c-1.6,1.4-2.9,3-4.1,4.8c-0.4,0.4-2.4,0-2.4-0.5c-0.5,0.9,2.3,3.9,0.8,5.9c0,0-4.9,0.4-5.3-1.9 c0.3,2.2,1.3,4.3,2.8,5.9c1.4,1.3,2,1.7,1.7,2.7c-0.2,1-2.1,0-2.3,0c1.4,1.8,3.6,2.9,5.9,3c-1.5,1.4-3.1,2.5-4.8,3.5 c-1,0,0,1.8,0.5,1.4c1.8-1.3,3.6-2.7,5.2-4.3c-0.2,2.4,0.7,4.8,2.5,6.5c0,0-0.8-2.1,0-2.3c0.8-0.1,1.4,0.6,2.5,2.1 c1.4,1.6,3.3,2.8,5.5,3.4c-2.2-0.7-1.4-5.5-1.4-5.5c2-1.2,4.6,1.8,5.6,1.5c-0.7,0-0.7-2.2,0-2.5c0.7-0.4,4.3-2.7,5.8-4.7 L506.3,332.2z M518.2,289.8c-0.4,0.8-5.2,2.8-5.3,3.4c-0.2,0.6-2.3,2.5-2.7,3.2s0.3,3.3,1.2,3.3c-1.2,0.7-5.9-2.4-7.8,0 c0,0,0.5,6.6,3.7,6.9c-3,0-5.9-0.9-8.3-2.6c-2.1-1.6-2.8-2.4-4-1.9s0.3,3,0.5,3c-2.9-1.6-4.9-4.4-5.4-7.6c-1.6,2.6-3.4,5.1-5.4,7.5 c-0.8,0.8-2.4-1-1.2-1.7c2-1.8,3.7-3.8,5.2-5.9c-3,0.6-6.2-0.1-8.6-2.1c0,0,3,0.6,2.9-0.8s-0.9-1.7-3.2-3c-2.6-1.5-4.7-3.8-5.9-6.6 c1.4,2.8,7.8,0.7,7.8,0.7c1.2-2.9-3.4-5.9-3.2-7.2c0.3,0.9,3,0.5,3.5,0c0.8-1.2,1.5-2.5,1.9-3.9c0.8-2.7,0.5-5.6,1-5.9 c0.4,2.2,1.4,4.2,2.9,5.9c0.7,0.8,2,0.8,2.8,0.1c0,0,0.1-0.1,0.1-0.1c-0.7,2.3-0.1,4.7,1.5,6.4c0.5,0.4,1.1-0.9,0.8-1.7 c-0.4-2.5,0.4-5,2.2-6.8c0,3.3,1.9,3.1,1.9,3.1c3.8-1.3,7.4-3.3,10.6-5.9l1.2-1.2c-0.2,0.5-0.4,1.1-0.7,1.6 c-1,3.9-1.4,7.9-1.1,11.9c0,0,0.5,1.7,3.7,0.5c-1,2.3-3,4.1-5.4,4.7c-1.8,1.2-1.8,1.2-1.2,1.4c2.2,0.4,4.6,0,6.5-1.1 c-0.4,1,0.1,2.1,1.1,2.5c0.1,0,0.2,0.1,0.3,0.1c2.2,0.4,4.5,0.3,6.6-0.5L518.2,289.8z"></path> <path class="st2" d="M462.6,338.9L462.6,338.9z"></path> <path class="st2" d="M462.6,338.9L462.6,338.9z"></path> <path class="st2" d="M462.6,338.9L462.6,338.9z"></path> <path class="st2" d="M462.6,338.9L462.6,338.9z"></path> <path class="st2" d="M462.6,338.9L462.6,338.9z"></path> <path class="st2" d="M462.6,338.9L462.6,338.9z"></path> <path class="st2" d="M746.7,306.3h1.2c0.4,0,0.8-0.1,1.2-0.3c0.1-0.2,0.1-0.4,0-0.7c0-0.4-0.2-0.7-0.5-0.8h-1h-1.2L746.7,306.3z M745.7,309.8L745.7,309.8v-5.9h2.1c0.5-0.1,1-0.1,1.5,0c0.3,0.1,0.7,0.3,0.8,0.6c0.1,0.3,0.1,0.6,0,0.9c0,0.5-0.2,0.9-0.5,1.2 c-0.4,0.3-0.8,0.5-1.3,0.5l0.6,0.3l0.9,1.2l0.7,1.2h-1.2l-0.5-0.9c-0.2-0.6-0.6-1-1.1-1.4c-0.2-0.1-0.5-0.1-0.8,0h-0.6v2.6 L745.7,309.8z M748.2,301.8L748.2,301.8c-0.8,0-1.7,0.2-2.4,0.7c-0.8,0.4-1.4,1-1.8,1.8c-0.4,0.7-0.6,1.5-0.7,2.4 c0,0.8,0.2,1.6,0.7,2.4c0.4,0.8,1,1.4,1.8,1.8c1.5,0.9,3.3,0.9,4.7,0c0.7-0.4,1.4-1,1.8-1.8c0.4-0.7,0.6-1.5,0.7-2.4 c0-0.8-0.2-1.7-0.7-2.4c-0.4-0.8-1.1-1.4-1.8-1.8C749.8,302,749,301.8,748.2,301.8z M748.2,300.9c2.1,0,4,1.1,5,2.8 c0.5,0.9,0.8,1.9,0.8,2.9c0,1-0.3,2-0.8,2.8c-0.5,0.9-1.3,1.6-2.1,2.1c-1.8,1.1-4.1,1.1-5.9,0c-0.9-0.5-1.7-1.2-2.1-2.1 c-1.2-1.8-1.2-4.1,0-5.9c0.5-0.9,1.2-1.6,2.1-2.1C746.1,301,747.1,300.8,748.2,300.9z"></path> <path class="st3" d="M262.1,676.1V705c-25,0.7-49-10-65.2-29.1c-16.9-19.3-26-44.2-25.4-69.8c-0.5-25.6,8.5-50.5,25.4-69.8 c16.2-19.1,40.2-29.8,65.2-29.2v29c-16.9-0.4-33.1,7.2-43.6,20.5c-11.5,14-17.5,31.6-17,49.7c-0.5,18,5.5,35.7,17,49.6 C229,669.1,245.2,676.6,262.1,676.1z"></path> <path class="st3" d="M310.3,507.4v168.7h36.2V705h-66.3V507.4H310.3z"></path> <path class="st3" d="M455.1,545.9V628h11.9v29h-11.9v48.2h-30.2V657h-17.8v48.2h-30.5V657h-11.9v-29h11.9v-82.1 c-0.1-10.2,4-20.1,11.4-27.2c15.4-15.3,40.2-15.3,55.6,0C451.1,525.9,455.2,535.7,455.1,545.9z M406.8,545.9V628h17.8v-82.1 c0-2.6-1-5-2.8-6.8c-3.1-3.5-8.5-3.7-12-0.6c-0.2,0.2-0.4,0.4-0.6,0.6C407.6,541,406.7,543.4,406.8,545.9z"></path> <path class="st3" d="M532.7,601.9c11.6,10.4,18.3,25.1,18.7,40.6c0.2,16.7-6.5,32.7-18.5,44.3c-12.7,12.4-29.9,19.1-47.7,18.4 v-29.1c9.8,0.5,19.3-3,26.4-9.8c6.4-6.2,9.9-14.8,9.8-23.7c0.2-8.5-3.1-16.8-9-23l-8.6-8.7c-11.6-10.4-18.3-25.2-18.7-40.7 c-0.2-16.7,6.5-32.7,18.5-44.3c12.7-12.5,30.1-19.2,47.9-18.5v29c-9.8-0.5-19.3,3.1-26.4,9.8c-12.8,12.9-13.2,33.5-0.9,46.9 L532.7,601.9z"></path> <path class="st3" d="M617.3,601.9c11.6,10.4,18.3,25.1,18.7,40.6c0.2,16.7-6.4,32.7-18.4,44.3c-12.8,12.4-30.1,19.1-47.9,18.4 v-29.1c9.7,0.5,19.3-3,26.3-9.8c12.7-12.9,13.2-33.6,0.9-47l-8.6-8.4c-11.5-10.4-18.3-25.1-18.7-40.6c-0.3-16.7,6.4-32.7,18.4-44.3 c12.7-12.5,30.1-19.2,47.9-18.5v29c-9.7-0.5-19.2,3-26.3,9.7c-12.8,12.9-13.2,33.5-1,46.9L617.3,601.9z"></path> <path class="st3" d="M654.1,507.4h30.2v197.8h-30.2V507.4z"></path> <path class="st3" d="M792.8,676.1V705c-25,0.7-49-10-65.2-29.1c-16.9-19.2-26-44.1-25.5-69.8c-0.5-25.6,8.5-50.5,25.5-69.8 c16.2-19.2,40.2-29.9,65.2-29.2v29c-16.8-0.4-32.8,7.1-43.3,20.3c-11.5,14-17.5,31.6-17,49.7c-0.5,18,5.5,35.7,17,49.6 C760,668.9,776,676.5,792.8,676.1z"></path> </g> </svg> 