<?xml version="1.0" encoding="UTF-8"?> <!-- Generator: Adobe Illustrator 24.1.2, SVG Export Plug-In . SVG Version: 6.00 Build 0) --> <svg xmlns="http://www.w3.org/2000/svg" xmlns:xlink="http://www.w3.org/1999/xlink" version="1.1" id="Layer_1" x="0px" y="0px" viewBox="0 0 199.7 184.9" style="enable-background:new 0 0 199.7 184.9;" xml:space="preserve"> <style type="text/css"> .st0{fill:#F9EC21;} .st1{fill:#231F20;} </style> <g> <g> <rect class="st0" width="199.7" height="184.9"></rect> </g> <g> <path class="st1" d="M124.9,129.7L124.9,129.7v-36v-2.7l2,1.7c5.5,4.7,10,10.3,13.3,16.5c3.4,6.2,5.6,13.1,6.5,20.2l0.2,1.4h-1.4 H144h-1.1l-0.1-1.1c-0.3-2.3-0.8-4.5-1.3-6.8c-0.5-1.9-1.1-3.9-1.9-5.8h-10.7v12.4v1.2h-1.2h-1.5h-1.2V129.7z M128.9,100.2v13.2h9 c-1.2-2.6-2.7-5-4.3-7.4C132.1,104,130.5,102.1,128.9,100.2"></path> <path class="st1" d="M28.6,92.9c4.3,0,8.7,1.5,12.1,4.5l0.9,0.8l-0.8,0.9l-1,1.1l-0.8,0.9l-0.9-0.8c-1.2-1.1-2.6-1.9-4.1-2.5 c-1.1-0.4-2.3-0.7-3.4-0.9v32.7v1.2h-1.2h-1.5h-1.2v-1.2V97c-1.2,0.2-2.3,0.5-3.4,0.9c-1.5,0.6-2.9,1.4-4.1,2.5l-0.9,0.8l-0.8-0.9 l-1-1.1l-0.8-0.9l0.9-0.8C19.9,94.4,24.2,92.9,28.6,92.9"></path> <path class="st1" d="M169.5,120.9c-0.5-5.2-2.3-10.1-5.3-14.2c-2.6-3.6-6-6.6-10-8.8v31.8v1.2H153h-1.5h-1.2v-1.2v-36V92l1.7,0.6 c4.7,1.7,8.9,4.5,12.4,8c2,2.1,3.8,4.5,5.2,7.1V93.8v-1.2h1.2h1.5h1.2v1.2v36v1.2h-1.2h-1.5h-1.2v-1.2V120.9z"></path> <path class="st1" d="M117,127.4c-2.5,2.5-5.9,4.1-9.6,4.4l-1.2,0.1l-0.1-1.2l-0.1-1.5l-0.1-1.2l1.2-0.1c2.8-0.2,5.2-1.4,7.1-3.2 c1.8-1.8,3-4.3,3.2-7V93.8v-1.2h1.2h1.5h1.2v1.2v23.9l0,0.1C121.1,121.5,119.5,124.9,117,127.4"></path> <path class="st1" d="M48.9,117.2L48.9,117.2v12.5v1.2h-1.2h-1.5h-1.2v-1.2V94.3v-1.1l1.1-0.2c2.9-0.4,5.8,0.2,8.2,1.7 c2.4,1.5,4.3,3.7,5.2,6.5v0l0,0c1.1,3.2,0.8,6.5-0.6,9.4c-1.2,2.5-3.3,4.6-6,5.8c0.8,2.3,2,4.4,3.5,6.3c1.7,2.1,3.9,3.9,6.4,5.3 l1.1,0.6l-0.6,1.1l-0.7,1.3l-0.6,1.1l-1.1-0.6c-3.2-1.7-5.9-4.1-8.1-6.9C51.1,122.4,49.8,119.9,48.9,117.2 M48.9,97v16.5l0.4-0.1 l0,0l0,0c2.2-0.4,4.1-1.7,5.3-3.5c1.2-1.7,1.7-4,1.3-6.2l0,0l0,0h0c-0.4-2-1.4-3.7-2.9-4.9C51.9,97.9,50.5,97.2,48.9,97"></path> <path class="st1" d="M67.3,111.8c0-3.4,0.9-6.6,2.5-9.5c2.4-4.2,6.5-7.5,11.5-8.8h0c0.1,0,0.2,0,0.2-0.1v4.2 c-3.6,1.2-6.5,3.7-8.3,6.8c-1.4,2.4-2.1,5.2-2,8.2c0,1,0.2,2.1,0.5,3.1l0.5,1.3l-0.1,0c1.2,3.4,3.6,6.2,6.6,7.9 c3,1.7,6.6,2.4,10.2,1.8l1.2-0.3c4-1.1,7.2-3.7,9.1-7c1.4-2.4,2.1-5.2,2-8.2c0-0.9-0.2-1.8-0.4-2.8h4.1c0.2,1.2,0.3,2.3,0.3,3.5 c0,3.4-0.9,6.6-2.5,9.5c-2.4,4.2-6.5,7.5-11.5,8.8l0,0c-5.1,1.4-10.2,0.5-14.4-1.9c-3.9-2.2-7-5.9-8.5-10.4l0,0l-0.1-0.5 c-0.1-0.2-0.1-0.4-0.2-0.7C67.5,115.1,67.3,113.4,67.3,111.8"></path> <polygon class="st1" points="91.6,103.9 91.6,103.9 91.6,103.9 "></polygon> <path class="st1" d="M92.8,103.2L92.8,103.2c-0.1-0.5,0.7-0.7,0.7-0.9c-0.1,0.1-0.5,0-0.5-0.2c0-0.1,0.3-1.3,0-1.6 c-0.1,0.2-0.4,0.6-0.6,0.7c-0.2,0.1-0.4,0-0.4-0.1c-0.1,0.1-0.4,0.8-0.5,0.9c-0.1,0-0.1-0.2,0-0.3c0.1-0.1,0.2-0.7-0.1-1.1 c-0.1,0.5-0.4,0.4-0.4,0.4c-0.3-0.1-1.2-1-1.3-1.2c0,0-0.1-0.3-0.1-0.2c0,0,0,0.3,0,0.3c0,0.3-0.1,1.5-0.3,1.8 c0,0-0.1,0.2-0.6-0.1c0,0.5,0.5,0.8,0.6,0.9c0.1,0,0.2,0.2,0.1,0.3c-0.1,0-0.6-0.1-0.9-0.4c0,0.1-0.1,0.3-0.3,0.3 c-0.2,0-0.7-0.1-0.9-0.2c0,0.1,0.4,0.4,0.6,0.7c0,0,0.4,0.4,0.3,0.6c-0.1,0.1-0.2,0.5-0.3,0.4c0.2,0.2,0.9-0.1,1.1,0.3 c0,0-0.3,0.9-0.8,0.9c0.3,0.1,1,0.1,1.3-0.1c0.4-0.2,0.5-0.2,0.7-0.1c0.2,0.1-0.2,0.4-0.2,0.4c0,0,0.8-0.1,1.1-0.9l0-0.1l0.1,0 c0.7,0.4,1.5,0.1,1.4,0.1c0,0-0.5,0-0.4-0.2c0.1-0.2,0.2-0.2,0.6-0.3c0.4-0.1,1-0.5,1.1-0.7C93.6,103.8,92.8,103.2,92.8,103.2 M91.7,92.6L91.7,92.6c-0.3-0.7,0.7-1.3,0.7-1.6c-0.1,0.2-0.7,0.1-0.8,0c-0.1-0.2-0.2-1.4-0.5-2.1c0,0.7-0.4,1.1-0.6,1.2 c-0.3,0.1-0.6,0.1-0.7,0c-0.1,0.2-0.2,1.3-0.3,1.4c-0.1,0.1-0.2-0.2-0.2-0.4c0.1-0.2,0.1-1-0.5-1.5c0,0.7-0.4,0.7-0.4,0.7 c-0.5-0.1-1.9-1-2.4-1.2c0,0-0.5-0.2-0.4-0.2c0,0,0.3,0.3,0.3,0.3c0.4,0.5,0.4,2.2,0.3,2.7c0,0-0.1,0.4-0.8,0.1c0.2,0.7,1,1,1.2,1 c0.5,0.2,0.4,0.3,0.3,0.3c-0.1,0.1-0.8,0.1-1.5-0.2c0.1,0.2,0,0.4-0.3,0.6c-0.3,0.1-0.5,0.2-0.8,0.1c0.1,0.2,1.1,0.8,1.2,1.4 c0,0.2-0.1,0.8-0.3,0.7c0.3,0.2,1.3-0.5,1.7,0c0,0,0.3,1.4-0.6,1.5c0.6,0.2,1.2-0.2,1.7-0.6c0.4-0.3,0.6-0.5,0.9-0.4 c0.3,0.1-0.1,0.7-0.1,0.7c0,0,0.9-0.4,1.2-1.6c0.4,0.6,0.8,1.4,0.8,1.6c0,0.3,0.5,0.1,0.4-0.1c0-0.1-0.5-0.8-1.1-1.7 c1.2,0.3,2.1-0.5,2-0.5c0,0-0.7,0.1-0.7-0.2c0-0.3,0.2-0.4,0.7-0.7c0.5-0.3,1.2-1.1,1.3-1.5C93.2,93,91.7,92.6,91.7,92.6 M104.5,102.1L104.5,102.1c-0.9,0-1.1-0.1-1.2-0.3c-0.2-0.3-0.1-0.6,0-0.7c-0.7,0.2-1.4,0-1.5-0.1c-0.1-0.1,0.2-0.3,0.4-0.2 c0.2,0,1-0.1,1.4-0.7c-0.7,0.1-0.8-0.3-0.8-0.3c0-0.5,0.2-1.7,0.8-2.3c0,0,0.5-0.4,0.5-0.5c-0.1,0-0.5,0-0.5,0 c-1.2,0-2.1,0.9-2.6,0.8c0,0-0.4-0.1-0.2-0.8c-0.7,0.3-0.9,1.2-0.9,1.4c0,0.2-0.2,0.4-0.3,0.3c-0.1-0.1-0.3-0.8,0-1.5 c-0.1,0.1-0.4,0.1-0.7-0.1c-0.2-0.1-0.4-0.4-0.2-1c-0.7,0.6-1.1,1.3-1.3,1.5c-0.1,0.1-0.8,0-0.8-0.2c-0.1,0.3,0.7,1.2,0.3,1.7 c0,0-1.5,0.1-1.7-0.6c0,0.4,0.4,1.4,0.9,1.8c0.4,0.4,0.6,0.5,0.5,0.8c-0.1,0.3-0.7,0-0.7,0c0,0,0.6,0.9,1.8,0.9 c-0.5,0.4-1.3,1-1.5,1.1c-0.3,0.1,0,0.5,0.2,0.4c0.1,0,0.8-0.6,1.6-1.3c-0.1,1.3,0.8,2,0.7,2c0,0-0.2-0.7,0.1-0.7 c0.3,0,0.4,0.2,0.8,0.6c0.3,0.5,1.2,1,1.7,1.1c-0.7-0.2-0.4-1.7-0.4-1.7c0.6-0.4,1.4,0.6,1.7,0.5c-0.2,0-0.2-0.7-0.1-0.8 C102.8,103,104,102.7,104.5,102.1 M104.2,96.9L104.2,96.9C104.2,96.9,104.2,96.9,104.2,96.9C104.2,96.9,104.2,96.9,104.2,96.9 M108.1,89.1c-0.1,0.2-1.6,0.9-1.6,1c0,0-0.7,0.8-0.9,1c-0.1,0.2,0.1,1,0.4,1c-0.4,0.2-1.7-0.7-2.4,0c0,0,0.2,2,1.1,2.1 c-0.6,0.1-1.9-0.3-2.6-0.8c-0.6-0.5-0.8-0.7-1.2-0.6c-0.4,0.1,0.1,0.9,0.1,0.9c0.1,0-1.4-0.7-1.7-2.4c-0.8,1.3-1.5,2.2-1.7,2.3 c-0.2,0.2-0.7-0.3-0.4-0.5c0.3-0.1,1-1.1,1.6-1.9c-1.6,0.3-2.7-0.7-2.6-0.6c0,0,0.9,0.2,0.9-0.2c0-0.4-0.3-0.5-1-0.9 c-0.7-0.4-1.6-1.5-1.7-2c0.4,0.9,2.4,0.2,2.4,0.2c0.4-0.9-1-1.8-1-2.2c0.1,0.3,0.9,0.2,1.1,0c0.4-0.6,0.6-1.2,0.6-1.2 c0.2-0.8,0.2-1.7,0.3-1.9c0.1,0.4,0.5,1.4,0.9,1.7c0.3,0.3,0.7,0.2,0.9,0.1c-0.2,1.3,0.3,1.8,0.5,2c0.1,0.1,0.3-0.3,0.2-0.5 c-0.1-0.2-0.1-1.4,0.7-2.1c0,1,0.6,1,0.6,1c0.7-0.1,2.8-1.3,3.2-1.7c0,0,0.4-0.4,0.4-0.4c0,0-0.2,0.5-0.2,0.5 c-0.2,0.6-0.5,3-0.3,3.7c0,0,0.2,0.5,1.1,0.1c-0.4,1.2-1.4,1.3-1.7,1.4c-0.6,0.4-0.6,0.4-0.4,0.4c0.2,0.1,1.2,0.2,2-0.3 c-0.1,0.2,0,0.6,0.4,0.8C106.6,89.1,107.7,89.2,108.1,89.1"></path> <path class="st1" d="M91,104.2C91,104.2,91.1,104.2,91,104.2L91,104.2L91,104.2z"></path> <path class="st1" d="M91,104.2C91,104.2,91.1,104.2,91,104.2L91,104.2L91,104.2z"></path> <path class="st1" d="M91,104.2C91,104.2,91.1,104.2,91,104.2L91,104.2L91,104.2z"></path> <path class="st1" d="M91.1,104.2L91.1,104.2C91,104.2,91,104.2,91.1,104.2L91.1,104.2z"></path> <path class="st1" d="M91.1,104.2L91.1,104.2C91,104.2,91,104.2,91.1,104.2L91.1,104.2z"></path> <path class="st1" d="M91.1,104.2L91.1,104.2C91,104.2,91,104.2,91.1,104.2L91.1,104.2z"></path> <path class="st1" d="M178.2,94.2L178.2,94.2h0.4c0.2,0,0.3,0,0.4-0.1c0.1-0.1,0.1-0.1,0.1-0.2c0-0.1,0-0.1,0-0.1 c0,0-0.1-0.1-0.1-0.1c-0.1,0-0.2,0-0.3,0h-0.4V94.2z M177.9,95.3L177.9,95.3v-1.9h0.7c0.2,0,0.4,0,0.5,0c0.1,0,0.2,0.1,0.2,0.2 c0.1,0.1,0.1,0.2,0.1,0.3c0,0.1-0.1,0.3-0.1,0.4c-0.1,0.1-0.2,0.2-0.4,0.2c0.1,0,0.1,0.1,0.2,0.1c0.1,0.1,0.2,0.2,0.3,0.4l0.2,0.4 h-0.4L179,95c-0.1-0.2-0.2-0.4-0.3-0.4c-0.1,0-0.1-0.1-0.3-0.1h-0.2v0.8H177.9z M178.7,92.8L178.7,92.8c-0.2,0-0.5,0.1-0.7,0.2 c-0.2,0.1-0.4,0.3-0.6,0.5c-0.1,0.2-0.2,0.5-0.2,0.7c0,0.3,0.1,0.5,0.2,0.7c0.1,0.2,0.3,0.4,0.5,0.5c0.2,0.1,0.5,0.2,0.7,0.2 c0.3,0,0.5-0.1,0.7-0.2c0.2-0.1,0.4-0.3,0.5-0.5c0.1-0.2,0.2-0.5,0.2-0.7c0-0.3-0.1-0.5-0.2-0.7c-0.1-0.2-0.3-0.4-0.5-0.5 C179.2,92.9,178.9,92.8,178.7,92.8 M178.7,92.6c0.3,0,0.6,0.1,0.9,0.2c0.3,0.1,0.5,0.4,0.7,0.6c0.2,0.3,0.2,0.6,0.2,0.9 c0,0.3-0.1,0.6-0.2,0.9c-0.1,0.3-0.4,0.5-0.7,0.7c-0.3,0.2-0.6,0.2-0.9,0.2c-0.3,0-0.6-0.1-0.9-0.2c-0.3-0.2-0.5-0.4-0.7-0.7 c-0.1-0.3-0.2-0.6-0.2-0.9c0-0.3,0.1-0.6,0.2-0.9c0.2-0.3,0.4-0.5,0.7-0.6C178.1,92.6,178.4,92.6,178.7,92.6"></path> <path class="st1" d="M49.6,140.2L49.6,140.2c-0.3-0.2-0.7-0.4-1-0.4c-0.3,0-0.6-0.1-0.9-0.1h-3.7v13h1.8V147h1.7 c1.2,0,2-0.3,2.5-1c0.5-0.6,0.7-1.6,0.7-2.9c0-0.8-0.1-1.4-0.3-1.8C50.2,140.7,49.9,140.4,49.6,140.2 M45.7,141.3h1.7 c0.2,0,0.5,0,0.7,0c0.2,0,0.3,0.1,0.4,0.2c0.1,0.1,0.2,0.3,0.3,0.5c0.1,0.3,0.1,0.7,0.1,1.1c0,0.4,0,0.8-0.1,1.1 c-0.1,0.3-0.2,0.5-0.3,0.6c-0.1,0.1-0.3,0.2-0.4,0.3c-0.2,0.1-0.4,0.1-0.7,0.1h-1.7V141.3z"></path> <polygon class="st1" points="60.1,139.7 58.4,139.7 58.4,152.7 64.2,152.7 64.2,151.1 60.1,151.1 "></polygon> <polygon class="st1" points="74.3,145.4 71.7,139.7 69.7,139.7 73.4,147.3 73.4,152.7 75.1,152.7 75.1,147.3 78.9,139.7 77,139.7 "></polygon> <polygon class="st1" points="95.7,149.4 93.5,139.7 91.5,139.7 89.2,149.5 87,139.7 85.1,139.7 88.2,152.7 90.1,152.7 92.4,142.8 94.7,152.7 96.6,152.7 99.9,139.7 98.1,139.7 "></polygon> <path class="st1" d="M115.1,143L115.1,143c-0.1-0.5-0.2-1-0.4-1.4c-0.2-0.5-0.4-0.8-0.7-1.2c-0.3-0.3-0.7-0.6-1.2-0.7 c-0.5-0.2-1-0.3-1.7-0.3c-0.7,0-1.2,0.1-1.7,0.3c-0.5,0.2-0.9,0.4-1.2,0.7l0,0c-0.3,0.3-0.5,0.7-0.7,1.2c-0.2,0.4-0.3,0.9-0.4,1.4 c-0.1,0.5-0.1,1-0.1,1.6v0c0,0.2,0,0.5,0,0.7c0,0.3,0,0.6,0,0.9c0,0.3,0,0.6,0,0.9c0,0.2,0,0.5,0,0.7v0c0,0.6,0.1,1.1,0.1,1.6 c0.1,0.5,0.2,1,0.4,1.4c0.2,0.4,0.4,0.8,0.7,1.1l0,0c0.3,0.3,0.7,0.6,1.2,0.8c0.5,0.2,1,0.3,1.7,0.3c0.6,0,1.2-0.1,1.7-0.3 c0.5-0.2,0.8-0.4,1.2-0.8c0.3-0.3,0.5-0.7,0.7-1.2c0.2-0.4,0.3-0.9,0.4-1.4c0.1-0.5,0.1-1,0.1-1.6c0-0.5,0-1,0-1.6 c0-0.7,0-1.2,0-1.6C115.2,144,115.2,143.5,115.1,143 M113.5,146.2c0,0.8,0,1.5,0,2.2c0,0.6-0.1,1.2-0.3,1.6 c-0.2,0.4-0.4,0.7-0.7,1c-0.3,0.2-0.7,0.3-1.3,0.3c-0.6,0-1-0.1-1.3-0.3c-0.3-0.2-0.5-0.5-0.7-1c-0.2-0.5-0.2-1-0.3-1.6 c0-0.7,0-1.4,0-2.2c0-0.8,0-1.6,0-2.2c0-0.6,0.1-1.2,0.3-1.6c0.2-0.4,0.4-0.7,0.7-1c0.3-0.2,0.7-0.3,1.3-0.3c0.6,0,1,0.1,1.3,0.3 c0.3,0.2,0.5,0.5,0.7,1c0.2,0.5,0.3,1,0.3,1.6C113.4,144.7,113.5,145.4,113.5,146.2"></path> <path class="st1" d="M131.4,143c-0.1-0.5-0.2-1-0.3-1.4c-0.2-0.4-0.4-0.8-0.7-1.2c-0.3-0.3-0.7-0.6-1.2-0.8 c-0.5-0.2-1-0.3-1.7-0.3c-0.7,0-1.2,0.1-1.7,0.3c-0.5,0.2-0.8,0.4-1.2,0.7l0,0c-0.3,0.3-0.6,0.7-0.7,1.2c-0.2,0.4-0.3,0.9-0.3,1.4 c-0.1,0.5-0.1,1-0.1,1.6c0,0.5,0,1.1,0,1.6c0,0.5,0,1.1,0,1.6c0,0.5,0.1,1,0.1,1.6c0.1,0.5,0.2,1,0.3,1.4c0.2,0.4,0.4,0.8,0.7,1.1 l0,0c0.3,0.3,0.7,0.6,1.2,0.8c0.5,0.2,1,0.3,1.7,0.3c0.6,0,1.2-0.1,1.7-0.3c0.5-0.2,0.9-0.4,1.2-0.8c0.3-0.3,0.6-0.7,0.7-1.2 c0.2-0.4,0.3-0.9,0.3-1.4c0.1-0.5,0.1-1,0.1-1.6c0-0.5,0-1.1,0-1.6c0-0.5,0-1.1,0-1.6C131.5,144,131.5,143.5,131.4,143 M129.8,146.2c0,0.8,0,1.6,0,2.2c0,0.7-0.1,1.2-0.3,1.6c-0.2,0.4-0.4,0.7-0.7,1c-0.3,0.2-0.7,0.3-1.3,0.3c-0.6,0-1-0.1-1.3-0.3 c-0.3-0.2-0.5-0.6-0.7-1c-0.2-0.4-0.2-1-0.3-1.6c0-0.6,0-1.3,0-2.2c0-1,0-1.6,0-2.2c0-0.6,0.1-1.2,0.3-1.6c0.1-0.4,0.4-0.7,0.7-1 c0.3-0.2,0.7-0.3,1.3-0.3c0.6,0,1,0.1,1.3,0.3l0,0c0.3,0.2,0.5,0.5,0.7,1c0.2,0.4,0.3,1,0.3,1.6 C129.8,144.6,129.8,145.4,129.8,146.2"></path> <path class="st1" d="M147.7,143.5c-0.1-0.8-0.3-1.5-0.6-2.1c-0.3-0.6-0.7-1-1.3-1.3c-0.6-0.3-1.3-0.4-2.2-0.4H140v13h3.2 c1,0,1.8-0.1,2.4-0.4c0.6-0.3,1.1-0.7,1.5-1.3c0.3-0.5,0.6-1.2,0.7-2c0.1-0.8,0.2-1.6,0.2-2.7 C147.8,145.2,147.8,144.3,147.7,143.5L147.7,143.5z M141.8,141.3h1.1c0.7,0,1.3,0.1,1.7,0.2c0.4,0.1,0.7,0.3,0.9,0.6 c0.2,0.3,0.4,0.7,0.4,1.3c0.1,0.6,0.1,1.3,0.1,2.2c0,1.3,0,2.3-0.1,3c-0.1,0.7-0.2,1.3-0.4,1.7c-0.2,0.3-0.5,0.6-0.9,0.7 c-0.5,0.1-1.1,0.2-1.9,0.2h-1V141.3z"></path> </g> </g> </svg> 