<?xml version="1.0" encoding="UTF-8"?> <!-- Generator: Adobe Illustrator 24.1.3, SVG Export Plug-In . SVG Version: 6.00 Build 0) --> <svg xmlns="http://www.w3.org/2000/svg" xmlns:xlink="http://www.w3.org/1999/xlink" version="1.1" id="Layer_1" x="0px" y="0px" viewBox="0 0 1086.3 247.3" style="enable-background:new 0 0 1086.3 247.3;" xml:space="preserve"> <style type="text/css"> .st0{enable-background:new ;} </style> <g> <g> <g class="st0"> <g> <g> <g> <path d="M83.7,16.8C59.6-3.8,24.1-3.8,0,16.8l3.6,4.2C13.5,12.5,26,7.6,39.1,7v125.8h5.5V7c13,0.6,25.5,5.5,35.4,14L83.7,16.8 z"></path> <path d="M401.6,0.1v132.6h5.5V82.6h47.1c6.5,16.1,11,33,13.2,50.2h5.6C466.5,81.2,441,33.9,401.6,0.1 M407.1,77V12.6 C426.1,31,441.3,52.9,451.9,77H407.1z"></path> <path d="M566.2,100.1c-3.6-40.2-28.6-75.3-65.5-91.8v124.4h-5.5V0.1c33.6,12.2,59.7,39,71,72.9V0.1h5.5v132.6h-5.5V100"></path> <path d="M332.1,135.8c25.5-1.7,45.8-22.1,47.3-47.7v-88h-5.5V88c-1.4,22.7-19.4,40.8-42.1,42.3L332.1,135.8z"></path> <path d="M112.3,132.8V7.2c17.1-0.2,31.9,12,35,28.9c3.5,19.1-9.1,37.5-28.3,41c5.5,24.8,21.5,46,43.9,58.1l2.6-4.9 c-19.3-10.4-33.7-28.1-39.8-49.2c21.3-7.2,32.8-30.4,25.5-51.7c-6.3-18.6-25-30.1-44.5-27.3v130.6H112.3z"></path> <path d="M886.2,132.8V7.2c17.1-0.2,31.9,12,35,28.9c3.5,19.1-9.1,37.5-28.3,41c5.5,24.8,21.5,46,43.9,58.1l2.6-4.9 c-19.3-10.4-33.7-28.1-39.8-49.2c21.3-7.2,32.8-30.4,25.5-51.7c-6.3-18.6-25-30.1-44.5-27.3v130.6H886.2z"></path> <polygon points="967.1,63.7 967.1,5.6 1038.1,5.6 1038.1,0.1 961.6,0.1 961.6,132.8 1038.1,132.8 1038.1,127.2 967.1,127.2 967.1,69.2 1021,69.2 1021,63.7 "></polygon> <path d="M756.5,95.3l2.8,25.9l-25.8-2.9l9.6-9.6c-23.2-27.7-19.6-68.9,8.1-92.1C766,4.1,785.6-1.1,804.7,2.3l-1,5.5 c-17.3-3.1-35.1,1.6-48.7,12.8c-25.5,21.1-29.1,58.8-8,84.3L756.5,95.3z"></path> <path d="M765.1,125.8c28.9,13.7,63.4,4.5,81.7-21.7c20.7-29.6,13.4-70.4-16.3-91.1l6.8-11.7l-25.7,3.9l9.4,24.2l6.7-11.6 c27,19.1,33.4,56.5,14.3,83.5c-16.8,23.7-48.2,32-74.5,19.5L765.1,125.8z"></path> <path d="M291.1,95.3l-2.8,25.9l25.8-2.9l-9.6-9.6c23.2-27.7,19.6-68.9-8.1-92.1C281.6,4.1,262-1.1,242.9,2.3l1,5.5 c17.3-3.1,35.1,1.6,48.7,12.8c25.5,21.1,29.1,58.8,8,84.3L291.1,95.3z"></path> <path d="M282.5,125.8c-28.9,13.7-63.4,4.5-81.7-21.7c-20.7-29.6-13.4-70.4,16.3-91.1l-6.8-11.7L236,5.2l-9.5,24.2l-6.7-11.6 c-27,19.1-33.4,56.5-14.3,83.5c16.8,23.7,48.2,32,74.5,19.5L282.5,125.8z"></path> <path d="M701.7,109c-23.4,23.4-61.3,23.4-84.7,0c-23.4-23.4-23.4-61.3,0-84.7c23.4-23.4,61.3-23.4,84.7,0l3.9-3.9 c-25.5-25.5-67-25.5-92.5,0c-25.5,25.5-25.5,67,0,92.5c25.5,25.5,67,25.5,92.5,0L701.7,109z"></path> <path d="M7,179.4c0-1.6-0.8-2.3-2.3-2.3H0.2v-4h5.1c4.3,0,6.1,1.8,6.1,5.7c0,2.4-0.1,4.2-0.1,4.2h0.2c0,0,4.1-11.2,18.6-11.2 c14,0,22.5,11.2,22.5,27.3c0,16.6-9.7,27.3-23.2,27.3c-13.8,0-18.1-11.3-18.1-11.3h-0.2c0,0,0.2,1.9,0.2,4.6v26.3H7V179.4z M29.4,222.4c10.2,0,18.6-8.6,18.6-23.2c0-14.1-7.5-23.1-18.2-23.1c-9.6,0-18.6,6.8-18.6,23.2C11.3,211,17.5,222.4,29.4,222.4 "></path> <path d="M66.7,179.4c0-1.6-0.8-2.3-2.3-2.3h-4.5v-4H65c4.3,0,6.1,1.8,6.1,5.7v3.7c0,2.4-0.2,4.3-0.2,4.3h0.2 c2.6-8,8.2-14.1,16.5-14.1c1.6,0,3,0.3,3,0.3v4.4c0,0-1.2-0.2-2.4-0.2c-8.1,0-13.3,6.9-15.6,14.6c-1.2,3.7-1.6,7.5-1.6,10.9 v22.6h-4.4V179.4z"></path> <path d="M122.3,171.9c14.9,0,27,11.8,27,27c0,15.6-12.1,27.7-27,27.7c-14.9,0-27-12.1-27-27.7 C95.3,183.7,107.4,171.9,122.3,171.9 M122.3,222.4c12.4,0,22.4-10.1,22.4-23.4c0-12.9-10-22.8-22.4-22.8 c-12.4,0-22.4,9.8-22.4,22.8C99.9,212.2,109.9,222.4,122.3,222.4"></path> <path d="M164,177.2h-6.9v-4h6.9v-14.5h4.4v14.5h13.7v4h-13.7v29c0,13.8,8.2,15.6,12.4,15.6c1.5,0,2.4-0.2,2.4-0.2v4.1 c0,0-1,0.2-2.6,0.2c-5.4,0-16.6-2-16.6-19.3V177.2z"></path> <path d="M216.2,171.9c14.2,0,21.3,11.2,21.3,23.8c0,1.1-0.2,2.8-0.2,2.8h-41.9c0,15.1,10.2,23.8,22.3,23.8 c10,0,16.2-6.6,16.2-6.6l2.4,3.7c0,0-7.3,7.2-18.6,7.2c-14.7,0-26.9-10.6-26.9-27.2C190.8,181.7,202.8,171.9,216.2,171.9 M232.9,194.5c-0.5-12.7-8.1-18.5-16.8-18.5c-9.6,0-18.5,6.3-20.4,18.5H232.9z"></path> <path d="M274.5,171.9c5.6,0,18.4,2.4,18.4,10.9v4h-4.4v-3c0-5.1-9-7.5-14-7.5c-12.2,0-22.3,9.1-22.3,23.2 c0,13.9,10.1,23,22.3,23c11.5,0,17.4-7.5,17.4-7.5l2.3,3.7c0,0-6.8,8.1-19.7,8.1c-14.7,0-26.9-10.6-26.9-27.2 C247.6,182.8,260,171.9,274.5,171.9"></path> <path d="M307.7,177.2h-6.9v-4h6.9v-14.5h4.4v14.5h13.7v4h-13.7v29c0,13.8,8.2,15.6,12.4,15.6c1.5,0,2.4-0.2,2.4-0.2v4.1 c0,0-1,0.2-2.6,0.2c-5.4,0-16.6-2-16.6-19.3V177.2z"></path> <path d="M341,179.4c0-1.6-0.8-2.3-2.3-2.3h-4.5v-4h5.1c4.3,0,6.1,1.8,6.1,6.1v39.9c0,1.6,0.8,2.3,2.3,2.3h4.5v4h-5.1 c-4.3,0-6.1-1.8-6.1-6.1V179.4z M340.4,152.3h4.8v7.6h-4.8V152.3z"></path> <path d="M386.7,171.9c14.9,0,27,11.8,27,27c0,15.6-12.1,27.7-27,27.7c-14.9,0-27-12.1-27-27.7 C359.7,183.7,371.8,171.9,386.7,171.9 M386.7,222.4c12.4,0,22.4-10.1,22.4-23.4c0-12.9-10-22.8-22.4-22.8 c-12.4,0-22.4,9.8-22.4,22.8C364.3,212.2,374.3,222.4,386.7,222.4"></path> <path d="M427.7,179.4c0-1.6-0.8-2.3-2.3-2.3h-4.5v-4h5.1c4.3,0,6.1,1.8,6.1,5.7v2.9c0,2.4-0.2,4.3-0.2,4.3h0.2 c1.8-4.9,8.9-14.2,21.9-14.2c13.6,0,17.2,8,17.2,20.3v26.8c0,1.6,0.8,2.3,2.3,2.3h4.5v4h-5.1c-4.3,0-6.1-1.8-6.1-6.1v-25.5 c0-9.1-1.1-17.6-12.8-17.6c-9.8,0-18.5,6.9-21.1,16.6c-0.6,2.2-0.8,4.6-0.8,7.1v25.5h-4.4V179.4z"></path> <path d="M519,177.2h-6.9v-4h6.9v-14.5h4.4v14.5h13.7v4h-13.7v29c0,13.8,8.2,15.6,12.4,15.6c1.5,0,2.4-0.2,2.4-0.2v4.1 c0,0-1,0.2-2.6,0.2c-5.4,0-16.6-2-16.6-19.3V177.2z"></path> <path d="M571.2,171.9c14.2,0,21.3,11.2,21.3,23.8c0,1.1-0.2,2.8-0.2,2.8h-41.9c0,15.1,10.2,23.8,22.3,23.8 c10,0,16.2-6.6,16.2-6.6l2.4,3.7c0,0-7.3,7.2-18.6,7.2c-14.7,0-26.9-10.6-26.9-27.2C545.8,181.7,557.8,171.9,571.2,171.9 M587.9,194.5c-0.5-12.7-8.1-18.5-16.8-18.5c-9.6,0-18.5,6.3-20.4,18.5H587.9z"></path> <path d="M629.5,171.9c5.6,0,18.4,2.4,18.4,10.9v4h-4.4v-3c0-5.1-9-7.5-14-7.5c-12.2,0-22.3,9.1-22.3,23.2 c0,13.9,10.1,23,22.3,23c11.5,0,17.4-7.5,17.4-7.5l2.3,3.7c0,0-6.8,8.1-19.7,8.1c-14.7,0-26.9-10.6-26.9-27.2 C602.6,182.8,615,171.9,629.5,171.9"></path> <path d="M661.4,158.6c0-1.6-0.8-2.3-2.3-2.3h-4.5v-4h5.1c4.3,0,6.1,1.8,6.1,5.8v23.8c0,2.4-0.2,4.3-0.2,4.3h0.2 c1.8-4.9,8.9-14.2,21.9-14.2c13.6,0,17.2,8,17.2,20.3v26.8c0,1.6,0.8,2.3,2.3,2.3h4.5v4h-5.1c-4.3,0-6.1-1.8-6.1-6.1v-25.5 c0-9.1-1.1-17.6-12.8-17.6c-9.8,0-18.5,6.9-21.1,16.6c-0.6,2.2-0.8,4.6-0.8,7.1v25.5h-4.4V158.6z"></path> <path d="M723.3,179.4c0-1.6-0.8-2.3-2.3-2.3h-4.5v-4h5.1c4.3,0,6.1,1.8,6.1,5.7v2.9c0,2.4-0.2,4.3-0.2,4.3h0.2 c1.8-4.9,8.9-14.2,21.9-14.2c13.6,0,17.2,8,17.2,20.3v26.8c0,1.6,0.8,2.3,2.3,2.3h4.5v4h-5.1c-4.3,0-6-1.8-6-6.1v-25.5 c0-9.1-1.2-17.6-12.8-17.6c-9.8,0-18.5,6.9-21.1,16.6c-0.6,2.2-0.8,4.6-0.8,7.1v25.5h-4.4V179.4z"></path> <path d="M807.5,171.9c14.9,0,27,11.8,27,27c0,15.6-12.1,27.7-27,27.7c-14.9,0-27-12.1-27-27.7 C780.5,183.7,792.6,171.9,807.5,171.9 M807.5,222.4c12.4,0,22.4-10.1,22.4-23.4c0-12.9-10-22.8-22.4-22.8 c-12.4,0-22.4,9.8-22.4,22.8C785.1,212.2,795.1,222.4,807.5,222.4"></path> <path d="M847.4,158.6c0-1.6-0.8-2.3-2.3-2.3h-4.5v-4h5.1c4.3,0,6.1,1.8,6.1,6.1v60.8c0,1.6,0.8,2.3,2.3,2.3h4.5v4h-5.1 c-4.3,0-6.1-1.8-6.1-6.1V158.6z"></path> <path d="M893.1,171.9c14.9,0,27,11.8,27,27c0,15.6-12.1,27.7-27,27.7c-14.9,0-27-12.1-27-27.7 C866.1,183.7,878.2,171.9,893.1,171.9 M893.1,222.4c12.4,0,22.5-10.1,22.5-23.4c0-12.9-10-22.8-22.5-22.8 c-12.4,0-22.4,9.8-22.4,22.8C870.7,212.2,880.7,222.4,893.1,222.4"></path> <path d="M952,171.9c14.8,0,18,9.7,18,9.7h0.2c0,0-0.1-1.1-0.1-2.4c0-4.3,1.8-6.1,6.1-6.1h5.1v4h-4.5c-1.5,0-2.3,0.7-2.3,2.3 v45.6c0,16-11.5,22.2-23.9,22.2c-5.8,0-11.3-1.5-16.4-4.1l2.1-3.9c0,0,6.5,3.7,14,3.7c11.2,0,19.8-5.3,19.8-18v-5.5 c0-2.4,0.2-4.3,0.2-4.3H970c-3.1,6.4-8.7,10.1-17.3,10.1c-13.6,0-23.2-10.7-23.2-26.9S938.4,171.9,952,171.9 M970.1,198.4 c0-16.8-7.9-22.2-18.2-22.2c-11.2,0-17.9,8.1-17.9,22.2c0,14.1,7.7,22.7,18.9,22.7C962.2,221.1,970.1,215.4,970.1,198.4"></path> <path d="M995.3,243.1c5,0,8.1-4.5,10.2-9.4l3.8-8.7l-18.9-45.4c-0.8-2-2-2.5-4-2.5h-0.8v-4h0.7c5.2,0,6.5,0.9,8.6,6.1 l14.8,35.6c1,2.5,1.8,4.9,1.8,4.9h0.2c0,0,0.7-2.4,1.8-4.9l14.7-35.6c2.1-5.1,3.3-6.1,8.6-6.1h0.7v4h-0.8c-2,0-3.1,0.5-4,2.5 l-24.1,57.9c-2.3,5.4-6.7,9.7-13.3,9.7c-6.8,0-10.4-4.9-10.4-4.9l2.6-3.3C987.5,239.2,990.8,243.1,995.3,243.1"></path> <path d="M1062,2.2h-2.1c-0.3,0-0.4,0.2-0.4,0.4v0.8h-2.3V1.3c0-0.9,0.3-1.3,1.3-1.3h9.7c0.9,0,1.3,0.3,1.3,1.3v2.2h-2.3V2.6 c0-0.3-0.2-0.4-0.4-0.4h-2.1V14h-2.6V2.2z"></path> <path d="M1069.9,11.8h0.6c0.3,0,0.4-0.2,0.4-0.4l0.9-11.4h2.7l2.9,6.6c0.3,0.8,0.7,1.9,0.7,1.9h0c0,0,0.4-1.1,0.7-1.9l2.9-6.6 h2.7l0.9,11.4c0,0.3,0.2,0.4,0.4,0.4h0.6V14h-2.2c-0.9,0-1.2-0.4-1.3-1.3l-0.5-6.2c-0.1-0.9,0-2.2,0-2.2h0 c0,0-0.4,1.4-0.8,2.2l-2.3,5.1h-2.1l-2.3-5.1c-0.4-0.8-0.8-2.2-0.8-2.2h0c0,0,0.1,1.3,0,2.2l-0.5,6.2c-0.1,1-0.4,1.3-1.3,1.3 h-2.2V11.8z"></path> </g> </g> </g> </g> </g> </g> </svg> 