<?xml version="1.0" encoding="UTF-8"?> <svg xmlns="http://www.w3.org/2000/svg" id="Layer_1" data-name="Layer 1" width="546.55" height="300.52" viewBox="0 0 546.55 300.52"><path d="M127,116.84l.18.16c-15.47,3-31.76,9.68-49.37,19.85,2.82,3.84,4,6.34,4,7.84,0,3.17-3.66,6.17-11,9.35-6.31,2.83-11.47,4.17-15.13,4.17a10.07,10.07,0,0,1-3.48-.51c-3,.51-5,1-6,.67-1.66-.16-1.83-.83-1-2.16,2-2.51,9.48-8.18,22.44-17.19l-5.33-7.17c-2.32-3.17-3.65-6-4-9-1-7.34,6.65-15.68,22.59-25.2,15.8-9.34,30.09-14,42.4-13.84a2.29,2.29,0,0,1,1.82,1c.49,1,.49,1.67,0,2.17-1.49,2.17-6,5.16-7.48,4.67-5-1.67-8.64-2.34-11-2.34a21.32,21.32,0,0,0-3.66.34c-6.15,1.5-13.46,5.18-21.94,11.17-10.47,7.18-15.46,13.52-14.62,19,.32,2.51,1.65,5.34,3.65,8.52,2.16,3.16,4,5.33,5.65,6.17C93.57,124.51,110.52,119.67,127,116.84ZM54.35,156.37c2,.5,5.49-.16,10.15-1.84,4.47-1.66,7.47-3,8.63-4.67A3,3,0,0,0,73.8,148c0-1.83-1.33-3.83-3.83-6.18-1.65,1-4.32,2.84-8.15,5.68-4.3,3.17-7.13,5.34-8.14,7C52.86,155.54,53.19,156.21,54.35,156.37Z" style="fill:#50c5d9"></path><path d="M119.16,153.37c-2.48,1.16-12.62-1.84-12.45-10,.16-10.84,17.6-42.37,18.12-45.21.81-5.34,10.79-4,6.47,4.17-22.61,42.89-10.47,20-18.44,36.55-5.5,11.17,1,11.17,5.3,10.17,8.32-2,14.31-6.17,20.29-11.85,3.81-3.83,3.49-.49,1,2A62,62,0,0,1,119.16,153.37Zm18.46-67.91c-2.5,2.34-4.5,3.34-6.16,3C129,88,127.8,87,127.8,85.63c0-1.5,1.17-3.5,3.83-6.17,2.5-2.67,4.49-4.17,6.15-4.51,2.32-.49,5.16,2,4.48,4C141.94,80.8,140.43,83,137.62,85.46Z" style="fill:#50c5d9"></path><path d="M197.61,104.66c1.83.66,3.48,2.33,3.48,4a8.39,8.39,0,0,1-1.82,4c-3.49,10.51-8.47,25.86-15.28,45.71a277.1,277.1,0,0,1,48-4.52,78.54,78.54,0,0,1,12.63.85c5,1,10.8,6.68,10.8,12.35a8.43,8.43,0,0,1-.83,3.66c-1.5,2.84-5.15,6.52-10.8,11-1.17,1-1.82,1.34-2.49,1.34-.16,0-.33,0-.33-.17,0-.66.49-1.33,1.65-2.16,6.65-6.18,9.81-11.68,9.81-16.52,0-4-2.65-6.18-8.13-6.68-3.16-.17-7.16-.33-12.31-.33-19.94,0-36.4,1.16-49.19,4C150.08,254.82,110.69,297.55,64,300.39q-23.7,1.49-43.87-14.52C6.82,275.36,0,269.16,0,256a32.35,32.35,0,0,1,2.66-12.51c8.48-20,35.07-38.71,79.6-56.39a522.16,522.16,0,0,1,95.41-27.7c2.49-5.68,5.48-14.69,9-27.19,1.17-3.84,1.82-7,2.65-9.69C185.64,126,178.66,131,168.85,138c-12.46,8.84-21.76,14.52-28.25,17.35a9.05,9.05,0,0,1-3.15.5c-4,0-6-2-6-6a10.68,10.68,0,0,1,1.5-5.17c5.32-10.84,14.46-20.18,27.24-28.36q19.45-12.27,36.41-12A1.69,1.69,0,0,1,197.61,104.66Zm-193,154c0,11.68,5.81,16.55,17.45,25.56a62,62,0,0,0,41.55,13.17c26.93-1,52.36-15.53,76.45-54.75A370.53,370.53,0,0,0,177,161.88c-39.73,8.34-74.78,19.19-105,33.2Q17.61,220.12,6.64,248A29.85,29.85,0,0,0,4.65,258.65Zm186.47-146c0-.17-.16-.17-.16-.33a1,1,0,0,1,.16-.67c0-2-.32-3-1.15-3.16-1-.35-3.66-.18-7.66.83-8,1.83-16.11,5.83-24.08,12-8.48,6.67-13.79,13.34-16.13,20.35a13.45,13.45,0,0,0-.33,2.67c0,3.5,1.16,5.33,4,5.33,2.33,0,9.31-4.16,20.44-12.17,9-6.5,15.62-11.85,20.28-15.69A12.91,12.91,0,0,0,191.12,112.66Z" style="fill:#50c5d9"></path><path d="M199.26,147.53c-.49-.5-.32-1.33.34-2.67,2.66-5.67,7-13,13-22.18,5.8-8.85,11-15.85,15.28-21.19.67-1,1.83-1.84,4.16-2.18.67-.17,1-.17,1.16,0a1.74,1.74,0,0,1-.49,1.17,117.18,117.18,0,0,0-18.78,29.37,3.56,3.56,0,0,0-.67,2.16c0,1.34.49,1.84,1.33,1.84a2.89,2.89,0,0,0,2-1.16c6.15-6,13-11.85,20.1-17.69,8.48-6.85,14.13-10.68,16.79-11.68a12.86,12.86,0,0,1,4.15-2.67c2.5-1.17,4.5-1.34,5.82-.67,1.51.5,1.51,1.84-.17,3.83A185.19,185.19,0,0,0,242,138.86c-6,13-9.15,23.53-9.8,31.36-.34,5.18.65,9.18,3.15,11.84a11.75,11.75,0,0,0,9.14,3.68,16,16,0,0,0,4.82-.67c6.31-1.83,14.29-6.83,23.77-14.85,10.47-9,15.79-16.18,15.79-21.68,0-4.68-5-3-5-4.18,0-1.33,2.49-2.34,4-2.34,1.84,0,2.83,1.33,2.83,3.84a17,17,0,0,1-1,4.84c-2,6.51-7.16,13.52-15,21.35-10.8,10.68-22.27,16.53-34.56,17.86a12.78,12.78,0,0,1-11-3.67c-3.15-3.51-4.32-8.68-3.81-15.69.66-7.84,4.31-18,10.47-30.2A200.56,200.56,0,0,1,253,111.83a3.34,3.34,0,0,0,.49-1.67c0-1.84-1-2.66-3-2.66a5.08,5.08,0,0,0-2.66.82c-12.47,8.84-25.09,21-38.06,36.21-1.15,1.49-4,2.67-8.48,3.66C200.1,148.36,199.43,148.19,199.26,147.53Z" style="fill:#50c5d9"></path><path d="M299.32,147.86c-1,6.34.17,9.51,5,8.18a27.3,27.3,0,0,0,7.16-3.34c3-2.17,3,1,1,2.84-2.32,2.16-7.81,5.33-10.13,5a7.69,7.69,0,0,1-6.65-8.51c0-11,10.64-30.53,17.62-40.87.83-1.34.83-1.83-.18-1.83-.16,0-.32.15-.49.33-5.32,6.34-12.8,13.51-22.43,21.85-9.64,8.18-17.95,14.35-25.1,18.52a7.16,7.16,0,0,1-3.82,1.34c-2.83,0-4.16-1.84-4.16-5.84,0-7.85,6.15-18,18.45-30.37,11.3-11.17,21.27-18.35,29.91-21.68a17.68,17.68,0,0,1,6.82-1.35,26.91,26.91,0,0,1,8,1.51,11.58,11.58,0,0,0,3.16.17,7.21,7.21,0,0,0,4.31-2.17,1.78,1.78,0,0,1,1-.33c.83,0,1.67,1.49,1.5,2-6.32,9.84-14.45,19.86-20,29.53C303.47,134.85,300.47,140.19,299.32,147.86Zm-32.25-8.17c0,2.84,1,4,3,4a5.62,5.62,0,0,0,2.49-.83c12.3-7.84,26.09-21.18,41.72-39.88a1.52,1.52,0,0,0,.5-1.16c0-2.51-3.17-5-7.65-5a15.06,15.06,0,0,0-3.82.5c-5.33,1.34-12,6.5-19.78,15.18-7.49,8.35-12.65,16.19-15.8,23.37A10.84,10.84,0,0,0,267.07,139.69Z" style="fill:#50c5d9"></path><path d="M309.78,235c-5.82-6.52-6.81-14.69-6.81-24.2,0-15.85,6.48-38.37,19.12-67.42C333.21,117.66,344.68,97,356,80.62a6.91,6.91,0,0,0,2-5A4.94,4.94,0,0,0,355,71c-4.14-1.67-5.48-3.51-4.64-5.18.67-1.33,6.8-2,17.28-2,.83,0-.49-.84,0-1.51,10.47-16.51,25.26-33,40.39-50.72.83-1,4-2.33,9.3-4.34,5.31-1.83,6.82-2.83,9.47-2.83,1.34,0,1.83.66,1.83,1.5,0,.66-.49.83-1.67,1.17-10.45,2.17-27.58,19.68-51.68,52.89-1.66,2.33-1.33,3.84,1.17,3.84h24.1c13,0,20.11.16,21.94.16,1.16,0,1.66.17,2,.5,0,.33-1.34,3.17-3.34,3.34-12.63.5-28.91,1.67-49.52,2.67a6,6,0,0,0-4.15,2.67c-11.63,17.35-22.11,33.71-31.91,53.73-15.46,31.52-24.27,57.72-26.1,78.25-.16,2.83-.16,5.34-.16,8q0,29,20.44,29a39.56,39.56,0,0,0,13-2.18c13.79-4.34,27.42-14,41.71-29.19s22.28-28.71,24.1-40.55c0-10.34-3.82-15-11.13-13.85-3.32.5-5.82,2.68-7,2.68a1.22,1.22,0,0,1-1.34-1.51c1-1.84,2.5-2.84,8.32-5.19a9,9,0,0,1,2-.15c3.66,0,6.82,2.17,10.14,7.18,3.16,4.84,5,8.84,4.66,11.33-2,14.69-12.8,30.71-31.75,47.9C363.3,236,346.51,245,331.72,245,322.92,245,315.6,241.31,309.78,235Z" style="fill:#50c5d9"></path><path d="M402.52,140c-1.33,8,2.49,6.67,5.64,5.84,1.51-.51,15.47-10.17,16.81-11,3.47-2.34,3.81.17,1.15,2.83C423.8,140,409,150.36,406.18,151.37c-2.83.83-8.32-4-8.32-8.34,0-8.67,4.66-18.69,7.82-26.19,1.32-3.34,0-6.68-4-2.67-10.81,10.67-36.57,35.69-43.55,38-6,2-10.13-3-9.81-8.51,1.17-15.68,22.11-45.38,30.43-55.22,2.32-2.67,8.63-2.17,4.48,3-10,12.52-23.94,34.38-27.26,46.21-2.66,9,.82,11.52,6.32,8.34,17.46-10.5,39.55-37.87,53-49.71,4.15-3.84,6.31,4.17,4.82,6.34C414,112,404,131,402.52,140Z" style="fill:#50c5d9"></path><path d="M415,154.37a2,2,0,0,1,.16-1.67q16.2-25,21.93-38.53a11.55,11.55,0,0,0,1-4.17,7.55,7.55,0,0,0-.51-1.85,1.37,1.37,0,0,1,0-1.16q2-.76,12.47-7a.67.67,0,0,1,.66-.33,1.34,1.34,0,0,1,1.34.83,1.55,1.55,0,0,1-.17,1.83c-7.15,9.7-12.13,17-14.62,21.86a3.7,3.7,0,0,0-.51,1.68c0,.49.51.66,1.83.15a4.59,4.59,0,0,0,2-1.33,122,122,0,0,1,16.8-16.17C464.51,102.65,470,99,474,97.31c3.49-.16,6,.17,7.65,1,.15.17.15.17.15.34,0,1.5-3.48,5.16-4.8,4.33-2.33-1-5.16-.5-9,1.5-16.29,9-30.92,24-43.87,45.38,0,.17-.33.67-1.34,1.17a48,48,0,0,0-6.82,3.34C415.47,155,415.15,155,415,154.37Z" style="fill:#50c5d9"></path><path d="M531.65,113.5c-7.49,1.16-32.24,1.16-45.54,1.16-5,6.68-11.8,16.68-12.46,27.19-.5,9.84,5.49,12.19,11.13,11.52,7.31-.83,16.45-4.51,22.44-8,1.83-1,3.16-.15,1.33,1.17-4.66,3.34-14.13,9-22.28,10.52-6.64,1.17-16.94-6.51-16.61-15.19,1.16-24.35,27.58-51.38,43-57.23,8.31-3.15,13.63,8.35,10,14.86-3.49,6.18-12.79,10.68-23.76,12.35,12.13,0,25.59,0,32.74-.83,4.65-.5,10-3.5,12.63-5.85,1-1.5,2.33-.83,1.16.67C543.28,108.15,537.79,112.66,531.65,113.5ZM512.38,90.64c-8.16,4.67-17,13-24.44,21.19,11.64,0,25.42-5.84,30.74-13.85C523.33,90.8,519,87,512.38,90.64Z" style="fill:#50c5d9"></path><path d="M532.34,87.54h-2.52a1.84,1.84,0,0,1,0-.29c0-.1,0-.2,0-.31s0-.2,0-.31a2.7,2.7,0,0,1,0-.28h6.41a1.37,1.37,0,0,1,0,.28c0,.11,0,.2,0,.3s0,.2,0,.32a1.16,1.16,0,0,1,0,.29h-2.52v8.54c-.2,0-.43,0-.66,0s-.5,0-.71,0Z" style="fill:#50c5d9"></path><path d="M538,86.35l.37,0h.81l.37,0,2.51,6.09,2.52-6.09.33,0h.78l.38,0,.45,9.73-.34,0h-.68l-.32,0-.31-7.56-2.37,5.55a5.09,5.09,0,0,1-.55,0,4.21,4.21,0,0,1-.51,0l-2.3-5.59-.3,7.6-.32,0h-.64l-.31,0Z" style="fill:#50c5d9"></path><g id="LINE"><line x1="284.53" y1="38.75" x2="300.86" y2="38.75" style="fill:#572b0e"></line></g><path d="M282.61,10.08V56.2h1.92V38.75h16.33a71.5,71.5,0,0,1,4.58,17.45h1.94A73.07,73.07,0,0,0,282.61,10.08Zm1.92,26.74V14.45A70.77,70.77,0,0,1,300,36.82Z" style="fill:#572b0e"></path><g id="LINE-2" data-name="LINE"><path d="M172.5,15.88a22.21,22.21,0,0,0-29,0l1.26,1.46a20.34,20.34,0,0,1,12.29-4.9V56.2H159V12.47a20.24,20.24,0,0,1,12.27,4.87Z" style="fill:#572b0e"></path></g><g id="LINE-3" data-name="LINE"><path d="M339.65,44.85A38.71,38.71,0,0,0,317,12.93V56.2h-1.91V10.08a40.56,40.56,0,0,1,24.58,25.35V10.08h1.92V56.2h-1.92V44.8" style="fill:#572b0e"></path></g><g id="LINE-4" data-name="LINE"><path d="M258.57,57.26a17.6,17.6,0,0,0,16.37-16.57V10.08H273V40.63a15.72,15.72,0,0,1-14.59,14.72Z" style="fill:#572b0e"></path></g><g id="LINE-5" data-name="LINE"><path d="M182.42,56.2V12.56a12.25,12.25,0,0,1,2.33,24.3A30.29,30.29,0,0,0,200,57l.89-1.69a28.32,28.32,0,0,1-13.75-17.12,14.17,14.17,0,0,0-6.58-27.44V56.2Z" style="fill:#572b0e"></path></g><g id="ARC"><path d="M253.56,27.34a22.66,22.66,0,1,1-27.74-16.08l.49,1.86a20.81,20.81,0,1,0,25.41,14.72v0Z" style="fill:#572b0e"></path></g><path d="M457.92,63.4c-.3-1.52-1.68.3-4-2.44-1-1.17-.41-2.61,0-4.31,1.2.74,2.1-.4,3.94,2.5.68,1.32,4,2.07,4.21-.93.13-2.27-2.47-3.8-3.79-5.26,2.24-.06,2.21-.73,2.48-2.89.18-1.41.2-4.65,1-5.77,1.65,1.37,2.35,2.89,3.77,4.52l.74.73c.32.24.5,2,2.57,1.09-.46.81-.68,4.75,0,5.42,2.05,2,3.39-1.55,3.44-2.3.11-1.44-.47-2.43-.53-3.92-.07-1.8-.35-3.42-.28-5.26,1.45,1.19,2.46,2.81,3.86.63l2.37-2.77c1.11-1,3.34-2.62,4.44-3.69l1.29,10.56c.41,1.26.49,3,2,2.47-.85.63-6.45,2.53-4.24,4.63-2.73.87-3.82,2.54-3.35,5a5.36,5.36,0,0,0,5.14-4c1.48.71,2.61-1.14,3.57-2,.93,1.13,2.11.79,3.14.3l2.76-.61c1.9-.06,3.45-1.22,4.93-2.35L492.14,62c.31.23.56.73.89,1-1,.78-2.36-.2-3.49.58s-1.68,2.08-.44,2.89c-1.47.43-5.65-.8-6.14,1.64-.59,3,5.52,2.68,7.09,2.25a26.35,26.35,0,0,1,2.46,2.38c-1.64,1.89-4.13,1.12-4.43,3.72-1.17-1-2.44-2.4-3.76-1.31s-.31,2.54,0,3.84c-.84-.81-2.19-1.78-3.22-1.75s-5.57.29-6.38-1.07-1.5-3-3.62-3.66c-1.22-.37-4.18-.44-5,.7l-.26.28c1.76-2.45-1-4.57-1.15-4.59C462.14,68.36,458.31,65.46,457.92,63.4Z" style="fill:#aad05b"></path><path d="M466,71.58c.18,1.82-3.25,5.83-7.58,9.07-1.4,1-2.73,2.23-4.06,3.37.53.87.83.64,1.36,1.45,0-1.4,5.24-6,7.33-8,1.6-1.59,3.3-3.18,3.95-5.38.24-.81,1.22-3.52.24-3.91C465.85,67.58,465.92,70.82,466,71.58Z" style="fill:#aad05b"></path><path d="M242.54,17.85c-.68,0-.07.74-1.46,1.4-.6.31-1.13-.1-1.79-.47.43-.43.06-.94,1.46-1.4.64-.14,1.3-1.48.07-1.88-.95-.3-1.86.64-2.61,1,.21-1-.08-1-.94-1.36a7.23,7.23,0,0,1-2.32-1A14.45,14.45,0,0,1,237.26,13l.38-.23c.13-.1.91,0,.72-1a3.82,3.82,0,0,0,2.28.58c1.05-.66-.29-1.61-.59-1.71a15.31,15.31,0,0,0-1.69-.2,21.66,21.66,0,0,1-2.24-.45c.65-.48,1.44-.73.68-1.56l-.91-1.29c-.31-.59-.74-1.7-1.07-2.28l4.57.6c.57,0,1.29.1,1.24-.57.18.43.37,3,1.49,2.28.06,1.26.65,1.9,1.73,2a2.36,2.36,0,0,0-1.12-2.6c.46-.54-.19-1.22-.46-1.72.57-.26.56-.8.47-1.29l0-1.24A4,4,0,0,0,242.33,0l3.3,3.24c.12-.12.36-.16.49-.27.21.52-.34,1-.13,1.53s.69.93,1.15.49c0,.68-.94,2.31,0,2.78,1.2.57,1.72-2,1.71-2.75a13.38,13.38,0,0,1,1.26-.79c.61.89,0,1.87,1.09,2.28-.54.39-1.28.77-1,1.44s1,.4,1.61.42a2.4,2.4,0,0,0-1.09,1.17c-.1.44-.47,2.38-1.13,2.59a2.8,2.8,0,0,0-1.93,1.13c-.28.48-.62,1.72-.24,2.2l.08.14c-.83-1-2-.06-2,0C245.06,16.61,243.44,17.9,242.54,17.85Z" style="fill:#f5d52e"></path><path d="M247.71,15.72c.74.27,2.2,1.9,2.47,4.64a11.17,11.17,0,0,0,.57,2.17c.44-.06.14-.15.54-.21-.54-.27-.95-3.31-1.39-4.52a6.3,6.3,0,0,0-1.82-2.38c-.28-.24-1.17-1.13-1.51-.81S247.39,15.62,247.71,15.72Z" style="fill:#f5d52e"></path></svg> 