<?xml version="1.0" encoding="UTF-8"?> <svg xmlns="http://www.w3.org/2000/svg" id="Layer_1" data-name="Layer 1" width="300" height="88.6" viewBox="0 0 300 88.6"><rect width="140.97" height="88.37" style="fill:#f9ec21"></rect><rect y="39.47" width="140.96" height="49.13" style="fill:#004866"></rect><path d="M84.26,23.68h0Z" style="fill:#231f20"></path><path d="M82.76,31.15h0V9.91l1.12,1a32,32,0,0,1,10.89,20.2l.1.76h-2.2l-.08-.59a29.81,29.81,0,0,0-.73-3.72,27.73,27.73,0,0,0-1-3.16H85v7.47H82.76ZM85,14.92v7.25h4.93A30.28,30.28,0,0,0,85,14.92Z" style="fill:#231f20"></path><path d="M29.83,10.9a10.3,10.3,0,0,1,6.68,2.46l.51.43-.44.51-.54.64-.43.51L35.09,15a7.88,7.88,0,0,0-2.28-1.36,8.1,8.1,0,0,0-1.89-.5V31.83H28.74V13.15A8.2,8.2,0,0,0,24.57,15l-.51.45L23.61,15l-.53-.63-.44-.51.52-.44a10.18,10.18,0,0,1,6.67-2.47" style="fill:#231f20"></path><path d="M107.3,26.31A15.85,15.85,0,0,0,98.9,13.7V31.83H96.71V10.42l.91.33A18,18,0,0,1,107.3,19V10.71h2.19V31.83H107.3V26.31Z" style="fill:#231f20"></path><path d="M78.44,29.86a8.14,8.14,0,0,1-5.3,2.42l-.68,0,0-.68-.06-.82,0-.68.68,0a6.05,6.05,0,0,0,3.9-1.77,6.15,6.15,0,0,0,1.75-3.86V10.71h2.18V24.54a8.22,8.22,0,0,1-2.38,5.32" style="fill:#231f20"></path><path d="M41,24.27h0v7.56H38.83V11.1l.58-.08a6.75,6.75,0,0,1,7.37,4.51h0a6.78,6.78,0,0,1-3.61,8.31,11.5,11.5,0,0,0,5.4,6.34l.6.33-.32.59-.39.72-.32.61-.6-.33a13.81,13.81,0,0,1-4.44-3.8,13.61,13.61,0,0,1-2.09-4m0-11.1v9.06l.2,0h0a4.57,4.57,0,0,0,3.65-5.31h0A4.58,4.58,0,0,0,41,13.17Z" style="fill:#231f20"></path><path d="M51.1,21.27a10.44,10.44,0,0,1,7.73-10.06h0l.13,0v2.31a8.25,8.25,0,0,0-5.67,8.18,7.69,7.69,0,0,0,.26,1.72l.28.69h-.06a8.2,8.2,0,0,0,3.63,4.37,8.33,8.33,0,0,0,5.63,1l.63-.17a8.27,8.27,0,0,0,6.11-8.32,8.7,8.7,0,0,0-.22-1.52h2.24A10.28,10.28,0,0,1,72,21.32a10.42,10.42,0,0,1-7.73,10.05h0a10.42,10.42,0,0,1-12.58-6.76h0l-.07-.25c0-.13-.07-.25-.1-.38a10.3,10.3,0,0,1-.36-2.73" style="fill:#231f20"></path><path d="M84.3,24h0Z" style="fill:#231f20"></path><polygon points="64.48 16.94 64.49 16.94 64.48 16.94 64.48 16.94" style="fill:#231f20"></polygon><path d="M65.13,16.57h0c0-.26.39-.39.41-.51,0,.07-.26,0-.28-.09s.14-.73,0-.86a1.22,1.22,0,0,1-.36.39.16.16,0,0,1-.23,0c-.07,0-.21.45-.26.47s-.07-.09,0-.14a.65.65,0,0,0,0-.6c-.07.26-.21.22-.21.22a2.78,2.78,0,0,1-.72-.69l-.07-.13a.89.89,0,0,0,0,.15,2.56,2.56,0,0,1-.17,1s-.08.12-.3,0a.67.67,0,0,0,.33.49c.07,0,.12.14.07.14a1.16,1.16,0,0,1-.5-.22c0,.05,0,.15-.16.17a1.13,1.13,0,0,1-.51-.1c0,.06.2.22.35.38,0,0,.21.21.15.32s-.1.26-.16.24.5-.08.62.15c0,0-.18.52-.44.48a1.31,1.31,0,0,0,.73,0c.19-.09.27-.13.36-.07s-.09.23-.11.23a.81.81,0,0,0,.6-.5l0-.05,0,0a.86.86,0,0,0,.78,0s-.25,0-.22-.13.12-.11.33-.16a1.23,1.23,0,0,0,.6-.41c-.18.19-.64-.11-.64-.11m-.57-5.85h0c-.16-.36.4-.71.38-.89,0,.11-.38.07-.44,0a5.55,5.55,0,0,0-.29-1.15.72.72,0,0,1-.35.65.43.43,0,0,1-.42,0c-.07.11-.12.73-.18.79s-.13-.12-.1-.21a1,1,0,0,0-.27-.83c0,.41-.22.39-.22.39a8.19,8.19,0,0,1-1.31-.68l-.24-.12.19.16a2.81,2.81,0,0,1,.14,1.46s-.06.2-.44.06a1.09,1.09,0,0,0,.66.57c.27.11.23.14.15.16A1.26,1.26,0,0,1,61,11a.25.25,0,0,1-.16.31.58.58,0,0,1-.44.07c0,.1.59.43.66.79,0,.09,0,.41-.15.4.15.08.69-.31,1,0,0,0,.19.76-.34.81.31.13.67-.11.92-.31s.33-.28.48-.22,0,.35-.05.37a1.28,1.28,0,0,0,.64-.87,3.73,3.73,0,0,1,.46.87c0,.17.29.07.24-.05a5.7,5.7,0,0,0-.6-1,1.36,1.36,0,0,0,1.14-.25s-.38.06-.37-.1.13-.21.4-.36a1.77,1.77,0,0,0,.69-.82C65.33,11,64.56,10.72,64.56,10.72Zm7,5.22h0c-.48,0-.59,0-.67-.14a.36.36,0,0,1,0-.39,1.37,1.37,0,0,1-.8-.07c-.07-.05.09-.15.19-.13a1,1,0,0,0,.79-.39c-.4,0-.42-.17-.42-.17a2.27,2.27,0,0,1,.43-1.29l.3-.26h-.3c-.67,0-1.15.48-1.42.44,0,0-.21,0-.12-.43a1,1,0,0,0-.47.75c0,.1-.11.25-.15.17a.91.91,0,0,1,0-.81.34.34,0,0,1-.38,0c-.11-.07-.21-.2-.09-.55a4.37,4.37,0,0,0-.69.81c-.07.07-.41,0-.41-.09-.08.16.39.65.14,1,0,0-.82.06-.9-.32a1.79,1.79,0,0,0,.47,1c.23.22.33.29.29.46s-.36,0-.38,0a1.36,1.36,0,0,0,1,.51,4.15,4.15,0,0,1-.81.59c-.17,0,0,.3.09.23a6.19,6.19,0,0,0,.87-.73,1.29,1.29,0,0,0,.42,1.09s-.13-.36,0-.38.23.1.42.36a1.88,1.88,0,0,0,.92.57c-.37-.12-.23-.93-.23-.93.34-.21.77.3.94.26-.11,0-.12-.37,0-.43S71.3,16.28,71.56,15.94Zm-.18-2.84Zm2.19-4.32c-.06.13-.87.48-.9.58s-.38.42-.46.54.05.56.2.55c-.2.12-1-.41-1.32,0,0,0,.09,1.12.62,1.16a2.47,2.47,0,0,1-1.4-.44c-.35-.27-.47-.4-.68-.32s.05.5.08.51a1.76,1.76,0,0,1-.91-1.29,10.26,10.26,0,0,1-.91,1.26c-.13.13-.41-.17-.2-.28a5.94,5.94,0,0,0,.88-1,1.76,1.76,0,0,1-1.45-.35s.51.1.49-.13-.16-.29-.54-.5a2.43,2.43,0,0,1-1-1.11c.24.47,1.31.11,1.31.11.21-.49-.57-1-.54-1.21.05.15.51.09.59,0a2.35,2.35,0,0,0,.32-.65c.14-.45.08-.94.17-1a2.2,2.2,0,0,0,.49,1,.33.33,0,0,0,.48,0,1.12,1.12,0,0,0,.26,1.08c.08.07.18-.16.13-.28a1.37,1.37,0,0,1,.37-1.15c0,.56.32.53.32.53a5.67,5.67,0,0,0,1.78-1l.2-.21a2.86,2.86,0,0,1-.12.27,6.11,6.11,0,0,0-.19,2s.09.28.62.08a1.34,1.34,0,0,1-.91.79c-.31.2-.31.2-.21.24a1.56,1.56,0,0,0,1.1-.19.32.32,0,0,0,.22.43A2.17,2.17,0,0,0,73.57,8.78Z" style="fill:#231f20"></path><path d="M64.17,17.12h0Z" style="fill:#231f20"></path><path d="M64.17,17.12h0Z" style="fill:#231f20"></path><path d="M64.17,17.12h0Z" style="fill:#231f20"></path><path d="M64.18,17.12h0Z" style="fill:#231f20"></path><path d="M64.18,17.12h0Z" style="fill:#231f20"></path><path d="M64.18,17.12h0Z" style="fill:#231f20"></path><path d="M112.09,11.63h.21a.32.32,0,0,0,.2-.05.16.16,0,0,0,0-.11.14.14,0,0,0-.09-.14l-.17,0h-.2Zm-.16.58h0v-1h.36a.77.77,0,0,1,.25,0,.21.21,0,0,1,.14.1.3.3,0,0,1,0,.15.34.34,0,0,1-.08.21.37.37,0,0,1-.22.09l.1.05.15.2.12.21h-.21l-.09-.16a.65.65,0,0,0-.18-.24.17.17,0,0,0-.13,0h-.1v.44Zm.42-1.34h0a.76.76,0,0,0-.4.11.72.72,0,0,0-.3.3.8.8,0,0,0-.11.4.83.83,0,0,0,.11.4.72.72,0,0,0,.3.3.78.78,0,0,0,.8,0,.79.79,0,0,0,.3-.3.83.83,0,0,0,.11-.4.8.8,0,0,0-.11-.4.69.69,0,0,0-.31-.3A.7.7,0,0,0,112.35,10.87Zm0-.16a.94.94,0,0,1,.84.48,1.05,1.05,0,0,1,.13.49.94.94,0,0,1-.13.48,1,1,0,0,1-.36.36,1,1,0,0,1-1,0,.83.83,0,0,1-.36-.36.91.91,0,0,1,0-1,.89.89,0,0,1,.36-.36A1.07,1.07,0,0,1,112.35,10.71Z" style="fill:#231f20"></path><path d="M30.35,74v4.88a13.91,13.91,0,0,1-11-4.91,17.29,17.29,0,0,1-4.29-11.77,17.29,17.29,0,0,1,4.29-11.77,13.92,13.92,0,0,1,11-4.92v4.89A9.09,9.09,0,0,0,23,53.85a12.64,12.64,0,0,0-2.86,8.38A12.61,12.61,0,0,0,23,70.6,9.07,9.07,0,0,0,30.35,74Z" style="fill:#fff"></path><path d="M38.49,45.54V74h6.1v4.88H33.41V45.54Z" style="fill:#fff"></path><path d="M62.91,52.05V65.89h2v4.89h-2v8.13H57.82V70.78h-3v8.13H49.68V70.78h-2V65.89h2V52.05a6.24,6.24,0,0,1,1.92-4.58,6.66,6.66,0,0,1,9.38,0A6.21,6.21,0,0,1,62.91,52.05Zm-8.14,0V65.89h3V52.05a1.58,1.58,0,0,0-.47-1.15,1.43,1.43,0,0,0-2.12,0A1.57,1.57,0,0,0,54.77,52.05Z" style="fill:#fff"></path><path d="M76,61.48a9.54,9.54,0,0,1,3.16,6.85,10.21,10.21,0,0,1-3.12,7.47A10.94,10.94,0,0,1,68,78.91V74a6,6,0,0,0,4.45-1.65,5.55,5.55,0,0,0,1.66-4,5.49,5.49,0,0,0-1.51-3.88L71.15,63A9.54,9.54,0,0,1,68,56.13a10.16,10.16,0,0,1,3.12-7.47,10.93,10.93,0,0,1,8.08-3.12v4.89a6,6,0,0,0-4.45,1.66A5.74,5.74,0,0,0,74.59,60Z" style="fill:#fff"></path><path d="M90.27,61.48a9.54,9.54,0,0,1,3.16,6.85,10.2,10.2,0,0,1-3.11,7.47,11,11,0,0,1-8.08,3.11V74a6,6,0,0,0,4.44-1.65,5.77,5.77,0,0,0,.16-7.93L85.39,63a9.57,9.57,0,0,1-3.15-6.85,10.15,10.15,0,0,1,3.11-7.47,10.91,10.91,0,0,1,8.08-3.12v4.89A6,6,0,0,0,89,52.09,5.74,5.74,0,0,0,88.83,60Z" style="fill:#fff"></path><path d="M96.48,45.54h5.09V78.91H96.48Z" style="fill:#fff"></path><path d="M119.88,74v4.88a13.86,13.86,0,0,1-11-4.91,17.25,17.25,0,0,1-4.3-11.77,17.25,17.25,0,0,1,4.3-11.77,13.87,13.87,0,0,1,11-4.92v4.89a9.09,9.09,0,0,0-7.31,3.42,12.64,12.64,0,0,0-2.86,8.38,12.61,12.61,0,0,0,2.86,8.37A9.07,9.07,0,0,0,119.88,74Z" style="fill:#fff"></path><path d="M201.16,21.21l-1.25-.3.31-.88,1.15.57-.18-1.29h.95L202,20.6l1.13-.57.29.88-1.23.3.86,1-.77.51-.6-1.17-.59,1.17-.78-.51Z" style="fill:#231f20"></path><rect x="146.41" width="153.59" height="88.34" style="fill:#fbed21"></rect><rect x="146.43" y="35.08" width="153.55" height="53.52" style="fill:#231f20"></rect><path d="M238.31,22.62h0Z" style="fill:#231f20"></path><path d="M237,29h0V10.88l.95.81a27.25,27.25,0,0,1,9.29,17.23l.08.65h-1.87l-.07-.5a23.22,23.22,0,0,0-.63-3.18,26.49,26.49,0,0,0-.87-2.7h-5v6.38H237Zm1.86-13.84v6.18h4.21a25.92,25.92,0,0,0-2-3.45A25.17,25.17,0,0,0,238.89,15.15Z" style="fill:#231f20"></path><path d="M191.87,11.71a8.69,8.69,0,0,1,5.69,2.11l.44.37-.37.43-.46.54-.37.44-.44-.37a7,7,0,0,0-1.94-1.17,6.94,6.94,0,0,0-1.61-.42V29.57h-1.87V13.64a6.94,6.94,0,0,0-1.61.42,7.17,7.17,0,0,0-2,1.17l-.43.39-.38-.45-.45-.53-.38-.44.44-.38a8.78,8.78,0,0,1,5.69-2.11" style="fill:#231f20"></path><path d="M258,24.86a13.58,13.58,0,0,0-2.46-6.65,13.74,13.74,0,0,0-4.71-4.11V29.57h-1.86V11.31l.78.28A15.32,15.32,0,0,1,258,18.65V11.56h1.86v18H258V24.86Z" style="fill:#231f20"></path><path d="M233.34,27.9A7,7,0,0,1,228.82,30l-.58,0,0-.58,0-.7,0-.57.59,0a5.16,5.16,0,0,0,4.8-4.8V11.56h1.87v11.8a7.07,7.07,0,0,1-2,4.54" style="fill:#231f20"></path><path d="M201.41,23.13h0v6.44h-1.86V11.89l.5-.07a5.74,5.74,0,0,1,6.28,3.85h0a5.74,5.74,0,0,1-3.08,7.08,9.87,9.87,0,0,0,1.64,2.94,9.65,9.65,0,0,0,3,2.48l.52.27-.28.51-.33.62-.27.51-.51-.27a11.71,11.71,0,0,1-5.58-6.69m0-9.47v7.73l.18,0h0a3.91,3.91,0,0,0,3.13-4.54h0a3.88,3.88,0,0,0-3.3-3.14Z" style="fill:#231f20"></path><path d="M210,20.56A8.86,8.86,0,0,1,216.61,12h0l.12,0v2a7,7,0,0,0-4.85,7,7.49,7.49,0,0,0,.23,1.47l.24.59h-.06a7,7,0,0,0,3.11,3.72,6.93,6.93,0,0,0,4.79.83l.54-.15a7,7,0,0,0,5.21-7.1,7.17,7.17,0,0,0-.18-1.28h1.9a8.87,8.87,0,0,1-6.45,10.2h0a8.91,8.91,0,0,1-10.73-5.76h0l-.06-.22-.09-.31a8.59,8.59,0,0,1-.3-2.34" style="fill:#231f20"></path><path d="M238.33,22.87h0Z" style="fill:#231f20"></path><polygon points="221.43 16.88 221.44 16.87 221.43 16.87 221.43 16.88" style="fill:#231f20"></polygon><path d="M222,16.56h0c0-.24.33-.34.35-.44,0,.06-.23,0-.24-.08s.12-.61,0-.73a.89.89,0,0,1-.3.34.15.15,0,0,1-.2-.05c-.06.05-.18.39-.22.41s-.06-.07,0-.13a.53.53,0,0,0,0-.5c-.06.22-.18.18-.18.18a2.59,2.59,0,0,1-.61-.58l-.06-.11a.6.6,0,0,0,0,.12,2.7,2.7,0,0,1-.15.84s-.06.11-.26,0a.55.55,0,0,0,.29.41c.05,0,.1.11.05.13a.9.9,0,0,1-.41-.21.14.14,0,0,1-.14.15.83.83,0,0,1-.44-.08,2.21,2.21,0,0,0,.3.33s.17.18.13.27-.08.22-.15.2c.08.07.44-.06.54.13,0,0-.16.45-.38.41a1,1,0,0,0,.62,0c.17-.07.24-.11.31-.05s-.07.19-.09.19a.7.7,0,0,0,.52-.42v-.05l0,0a.83.83,0,0,0,.67,0s-.22,0-.19-.12.1-.1.28-.14a1.07,1.07,0,0,0,.51-.34c-.15.16-.54-.09-.54-.09m-.49-5h0c-.14-.31.34-.6.32-.75,0,.09-.32,0-.37,0a4.77,4.77,0,0,0-.25-1,.59.59,0,0,1-.3.56.37.37,0,0,1-.36,0c-.06.1-.1.62-.15.68s-.11-.1-.08-.19a.87.87,0,0,0-.24-.71c0,.36-.19.34-.19.34a7,7,0,0,1-1.11-.58,1.24,1.24,0,0,0-.2-.1,1.53,1.53,0,0,1,.15.13,2.32,2.32,0,0,1,.13,1.25s-.06.17-.38.05a.89.89,0,0,0,.56.48c.23.1.2.12.14.15a1.47,1.47,0,0,1-.69-.1c0,.07,0,.19-.12.27a.59.59,0,0,1-.39.05c0,.08.51.37.56.67,0,.09,0,.35-.12.34.13.07.59-.25.82,0,0,0,.17.65-.29.69.27.11.57-.09.78-.26s.28-.24.42-.2,0,.31,0,.33a1.14,1.14,0,0,0,.55-.75,3,3,0,0,1,.39.75c0,.14.25.06.21,0a6,6,0,0,0-.51-.83,1.13,1.13,0,0,0,1-.21s-.32.06-.31-.08.11-.18.34-.32a1.48,1.48,0,0,0,.59-.69C222.15,11.77,221.5,11.56,221.5,11.56Zm6,4.46h0c-.4,0-.5,0-.56-.13a.24.24,0,0,1,0-.32,1.13,1.13,0,0,1-.7-.07c-.05,0,.08-.12.16-.1a.87.87,0,0,0,.68-.34c-.34,0-.36-.15-.36-.15a1.94,1.94,0,0,1,.38-1.09l.25-.22h-.25c-.58,0-1,.41-1.22.38,0,0-.18,0-.11-.37a.85.85,0,0,0-.4.63c0,.08-.09.21-.12.15a.78.78,0,0,1,0-.7.29.29,0,0,1-.33,0c-.1-.06-.18-.18-.08-.48a3.94,3.94,0,0,0-.58.69c-.07.06-.36,0-.36-.08-.06.14.33.56.13.82,0,0-.7.05-.78-.27a1.61,1.61,0,0,0,.4.82c.2.2.29.26.26.39s-.31,0-.32,0a1.08,1.08,0,0,0,.82.44,3.52,3.52,0,0,1-.7.5c-.14,0,0,.26.08.2a6.86,6.86,0,0,0,.74-.62,1.13,1.13,0,0,0,.35.93s-.1-.31,0-.33.19.09.36.3a1.54,1.54,0,0,0,.78.5c-.32-.11-.19-.81-.19-.81.28-.17.65.27.79.23-.09,0-.1-.31,0-.37S227.24,16.31,227.47,16Zm-.14-2.43Zm1.85-3.67c0,.1-.74.4-.76.48s-.33.36-.4.46,0,.49.18.47c-.18.11-.81-.34-1.13,0,0,0,.08,1,.53,1a2,2,0,0,1-1.19-.38c-.3-.23-.4-.34-.58-.27s0,.42.06.43a1.51,1.51,0,0,1-.78-1.1,9.36,9.36,0,0,1-.77,1.08c-.11.1-.35-.14-.17-.24a4.51,4.51,0,0,0,.74-.9,1.43,1.43,0,0,1-1.22-.3s.43.08.42-.11-.15-.25-.48-.42a2.06,2.06,0,0,1-.81-.95c.2.4,1.11.1,1.11.1.19-.43-.48-.83-.46-1,0,.13.44.08.51,0a1.7,1.7,0,0,0,.27-.54c.12-.4.07-.81.15-.9a2,2,0,0,0,.41.82.27.27,0,0,0,.41,0,1,1,0,0,0,.23.92c.06.08.15-.13.11-.23a1.16,1.16,0,0,1,.32-1c0,.47.26.45.26.45a4.74,4.74,0,0,0,1.52-.82s.19-.2.18-.18l-.11.23a5.19,5.19,0,0,0-.15,1.72s.08.24.52.07a1.13,1.13,0,0,1-.77.67c-.27.16-.27.16-.18.21a1.38,1.38,0,0,0,.93-.16.3.3,0,0,0,.19.37A2.17,2.17,0,0,0,229.18,9.92Z" style="fill:#231f20"></path><path d="M221.17,17Z" style="fill:#231f20"></path><path d="M221.17,17Z" style="fill:#231f20"></path><path d="M221.17,17Z" style="fill:#231f20"></path><polygon points="221.17 17.02 221.17 17.02 221.17 17.02 221.17 17.02" style="fill:#231f20"></polygon><polygon points="221.17 17.02 221.17 17.02 221.17 17.02 221.17 17.02" style="fill:#231f20"></polygon><polygon points="221.17 17.02 221.17 17.02 221.17 17.02 221.17 17.02" style="fill:#231f20"></polygon><path d="M262.05,12.34h.17a.29.29,0,0,0,.17,0,.16.16,0,0,0,.05-.1.19.19,0,0,0,0-.08l-.06-.05h-.31Zm-.15.5h0V12h.31a.67.67,0,0,1,.23,0,.16.16,0,0,1,.11.07.25.25,0,0,1,0,.14.23.23,0,0,1-.07.17.28.28,0,0,1-.19.08l.09,0,.12.18.11.18h-.17l-.08-.15-.15-.2a.18.18,0,0,0-.11,0h-.09v.38Zm.37-1.15h0a.61.61,0,0,0-.34.1.57.57,0,0,0-.26.25.67.67,0,0,0-.09.34.69.69,0,0,0,.09.34.59.59,0,0,0,.26.26.74.74,0,0,0,.34.08.81.81,0,0,0,.34-.08.57.57,0,0,0,.25-.26.61.61,0,0,0,.1-.34.67.67,0,0,0-.1-.34.55.55,0,0,0-.25-.25A.66.66,0,0,0,262.27,11.69Zm0-.13a.91.91,0,0,1,.41.1A.84.84,0,0,1,263,12a.82.82,0,0,1,0,.82.92.92,0,0,1-.31.31.87.87,0,0,1-.41.11.83.83,0,0,1-.72-.42.82.82,0,0,1,0-.82.84.84,0,0,1,.31-.31A.86.86,0,0,1,262.27,11.56Z" style="fill:#231f20"></path><path d="M185.24,73.44A19.21,19.21,0,0,1,173.5,77.1c-10,0-17.13-5.21-17.13-15.53,0-8.77,7.49-15.58,17.56-15.58a16.62,16.62,0,0,1,10.88,3.81c2.91,2.61-1.29,6.47-4.15,4.17a10.59,10.59,0,0,0-6.73-2.73c-5.77,0-11.35,4.21-11.35,10.33,0,6.42,4.67,10.32,10.92,10.32a13.12,13.12,0,0,0,7.16-2V64.6H173.5c-4.25,0-3.82-5.29,0-5.29H183c1.77,0,3.39,1.22,3.39,2.56V71.1A3.34,3.34,0,0,1,185.24,73.44Z" style="fill:#e7c352"></path><path d="M210.15,77.22c-8.82.36-18-5-18-15.61s9.17-15.93,18-15.93c8.35.4,17.08,5.64,17.08,15.93S218.5,77.22,210.15,77.22Zm-.53-25.9c-5.34,0-11.16,3.43-11.16,10.29s5.82,10.28,11.16,10.28c5.49,0,11.36-3.48,11.36-10.28S215.11,51.32,209.62,51.32Z" style="fill:#e7c352"></path><path d="M233.06,49.38a2.85,2.85,0,0,1,3-2.65,2.77,2.77,0,0,1,2.82,2.65V71.1h13c4.68,0,4.77,5.69,0,5.69H236.06a2.76,2.76,0,0,1-3-2.64Z" style="fill:#e7c352"></path><path d="M263.6,76.79c-1.58,0-3.3-.78-3.3-2.69V49.47c0-1.57,1.72-2.69,3.3-2.69h10.92c21.81,0,21.33,30,.43,30Zm3-24.73V71.5h7.92c12.88,0,13.45-19.44,0-19.44Z" style="fill:#e7c352"></path></svg> 