<?xml version="1.0" encoding="UTF-8"?> <svg xmlns="http://www.w3.org/2000/svg" id="Layer_1" data-name="Layer 1" width="505" height="600" viewBox="0 0 505 600"><rect width="505" height="600" style="fill:#f9ec21"></rect><path d="M315.79,460.58h0V362.85l5.13,4.42A146.87,146.87,0,0,1,371,460.19l.46,3.52h-10.1L361,461a138.35,138.35,0,0,0-3.38-17.11,134.44,134.44,0,0,0-4.73-14.57H325.83v34.41h-10Zm10-74.67v33.33h22.7a136.91,136.91,0,0,0-10.89-18.61,139.38,139.38,0,0,0-11.81-14.72" style="fill:#231f20"></path><path d="M72.21,367.39a47.16,47.16,0,0,1,30.72,11.31l2.37,2-2,2.36L100.83,386l-2,2.39-2.38-2A36.59,36.59,0,0,0,86,380.05a37.47,37.47,0,0,0-8.69-2.28v85.94h-10V377.77a37.58,37.58,0,0,0-8.72,2.28A36.92,36.92,0,0,0,48,386.37l-2.37,2-2-2.37-2.47-2.88-2-2.37,2.37-2a47.13,47.13,0,0,1,30.69-11.36" style="fill:#231f20"></path><path d="M428.68,438.32A73.1,73.1,0,0,0,390,380.26v83.45H380v-98.5l4.2,1.5a83.08,83.08,0,0,1,44.5,38.06V366.52h10.05v97.19H428.68V438.32Z" style="fill:#231f20"></path><path d="M295.88,454.68a37.74,37.74,0,0,1-24.39,11.11l-3.09.22-.22-3.12-.26-3.79-.21-3.12,3.14-.2a27.83,27.83,0,0,0,25.94-25.89V366.52h10.06v63.65a37.87,37.87,0,0,1-11,24.51" style="fill:#231f20"></path><path d="M123.69,428.94h0v34.77h-10V368.34l2.69-.4a31,31,0,0,1,33.89,20.78v0l0,0A31.07,31.07,0,0,1,133.6,427a53,53,0,0,0,8.84,15.83,52.24,52.24,0,0,0,16.07,13.34l2.74,1.48-1.47,2.75L158,463.74l-1.48,2.75L153.76,465a62.75,62.75,0,0,1-30.07-36.07m0-51.09v41.68l.94-.16h0a21,21,0,0,0,16.83-24.46v-.06h0a21,21,0,0,0-17.79-17" style="fill:#231f20"></path><path d="M170.08,415.1a48,48,0,0,1,35.57-46.27h0l.63-.17v10.58a37.95,37.95,0,0,0-26.11,37.7,37.36,37.36,0,0,0,1.22,7.9l1.26,3.17-.29.08a38,38,0,0,0,42.6,24.5l2.92-.78a38,38,0,0,0,28.1-38.3,37.07,37.07,0,0,0-1-6.95h10.28a48,48,0,0,1-34.78,55.05v0a48,48,0,0,1-57.9-31.1l-.05,0-.32-1.16c-.16-.57-.34-1.13-.49-1.71a48.06,48.06,0,0,1-1.64-12.59" style="fill:#231f20"></path><polygon points="231.66 395.2 231.69 395.19 231.65 395.19 231.66 395.2" style="fill:#231f20"></polygon><path d="M234.65,393.48h0c-.2-1.21,1.8-1.79,1.87-2.34-.18.3-1.17-.09-1.26-.4s.63-3.35-.1-4a5.29,5.29,0,0,1-1.61,1.82.78.78,0,0,1-1.08-.21c-.32.26-1,2.07-1.2,2.19s-.3-.42-.12-.69a3.06,3.06,0,0,0-.15-2.73c-.37,1.22-1,1-1,1a13.09,13.09,0,0,1-3.32-3.14s-.33-.63-.32-.59.11.67.11.67a13.65,13.65,0,0,1-.78,4.52s-.37.56-1.39-.19a3,3,0,0,0,1.53,2.24c.3.12.56.62.32.65a5,5,0,0,1-2.3-1c.05.29-.13.72-.74.81a5.51,5.51,0,0,1-2.37-.46c0,.28.93,1,1.62,1.74,0,0,1,1,.71,1.47-.17.28-.45,1.21-.77,1.09.38.38,2.31-.34,2.89.74,0,0-.85,2.39-2,2.17a5.71,5.71,0,0,0,3.32-.16c.9-.38,1.26-.58,1.67-.28s-.41,1.05-.48,1.07a4,4,0,0,0,2.76-2.32l.09-.23.21.13a4.07,4.07,0,0,0,3.62.2c-.09,0-1.18-.1-1-.58s.54-.54,1.49-.77a5.66,5.66,0,0,0,2.77-1.87c-.82.88-2.93-.52-2.93-.52M232,366.55h0c-.73-1.65,1.86-3.26,1.76-4.06-.15.5-1.71.32-2-.07s-.45-3.66-1.38-5.28a3.22,3.22,0,0,1-1.62,3c-.82.36-1.58.35-1.89,0-.36.51-.58,3.35-.83,3.62s-.61-.52-.48-.95a4.46,4.46,0,0,0-1.27-3.83c0,1.88-1,1.79-1,1.79-1.22-.13-4.73-2.51-6-3.13,0,0-1.14-.61-1.11-.55l.85.73c.92,1.17,1,5.54.67,6.73,0,0-.3.93-2.05.28.61,1.75,2.64,2.43,3.05,2.61,1.23.5,1.05.64.71.77a6.35,6.35,0,0,1-3.67-.56,1.1,1.1,0,0,1-.7,1.44,2.75,2.75,0,0,1-2.06.36c.2.43,2.74,2,3.05,3.57.08.47-.16,1.91-.68,1.86.71.39,3.17-1.39,4.42-.1,0,0,.88,3.51-1.57,3.76,1.46.59,3.08-.51,4.21-1.41s1.55-1.33,2.26-1.06-.17,1.66-.25,1.71a5.9,5.9,0,0,0,2.94-4,20.19,20.19,0,0,1,2.13,4c.05.79,1.33.31,1.1-.25a32.42,32.42,0,0,0-2.74-4.42,6,6,0,0,0,5.18-1.15c-.08.07-1.71.32-1.67-.43s.58-1,1.81-1.68a8.3,8.3,0,0,0,3.2-3.76c-.81,1.57-4.39.43-4.39.43m32.24,24.05h0c-2.2,0-2.74-.19-3.06-.67a1.46,1.46,0,0,1,0-1.77,6,6,0,0,1-3.73-.33c-.29-.23.43-.68.89-.6a4.48,4.48,0,0,0,3.64-1.78c-1.87.21-2-.8-2-.8a10.57,10.57,0,0,1,2-5.93l1.36-1.2H262c-3.09,0-5.3,2.23-6.52,2.06,0,0-1-.16-.59-2a4.48,4.48,0,0,0-2.17,3.41c0,.48-.5,1.14-.68.82a4.22,4.22,0,0,1,.07-3.74,1.58,1.58,0,0,1-1.76-.15c-.53-.36-1-.94-.42-2.57a20.32,20.32,0,0,0-3.18,3.73c-.34.32-1.91.1-1.92-.42-.32.76,1.8,3,.69,4.41,0,0-3.78.25-4.17-1.5a8.53,8.53,0,0,0,2.17,4.48c1.06,1,1.53,1.35,1.38,2.08s-1.69.09-1.77,0a6.14,6.14,0,0,0,4.43,2.38,19.91,19.91,0,0,1-3.76,2.7c-.77.17-.11,1.38.41,1.06a32.39,32.39,0,0,0,4.05-3.34,6.07,6.07,0,0,0,1.86,5c-.07-.08-.56-1.68.19-1.73s1.06.44,1.94,1.59a8.52,8.52,0,0,0,4.19,2.67c-1.69-.58-1-4.33-1-4.33,1.57-.94,3.51,1.41,4.31,1.21-.52-.1-.57-1.67-.21-2s3.45-1.18,4.68-2.78m-.81-13.1h0l0,0c.08,0,.12,0,0,0m10-19.82c-.24.56-4,2.16-4.09,2.61,0,0-1.79,2-2.16,2.5s.26,2.6,1,2.54c-1,.56-4.38-1.88-6.09-.09,0,0,.41,5.17,2.86,5.36-1.42.25-4.91-.84-6.46-2.06s-2.14-1.82-3.12-1.46.23,2.28.35,2.37a8.18,8.18,0,0,1-4.19-6,48,48,0,0,1-4.18,5.83c-.59.61-1.86-.78-.91-1.27.7-.37,2.6-2.89,4-4.85a8.2,8.2,0,0,1-6.66-1.61c.13.09,2.36.43,2.3-.6s-.79-1.33-2.53-2.3-4.11-3.72-4.42-5.12c1.12,2.16,6,.52,6,.52,1-2.28-2.62-4.46-2.48-5.58.21.68,2.33.43,2.7-.12a9.69,9.69,0,0,0,1.47-2.95c.61-2.07.38-4.34.8-4.81a10.23,10.23,0,0,0,2.24,4.41,1.53,1.53,0,0,0,2.21.15c-.53,3.2.83,4.61,1.22,5s.8-.71.6-1.31a6.09,6.09,0,0,1,1.7-5.27c.1,2.57,1.46,2.45,1.46,2.45,1.69-.2,7.12-3.34,8.17-4.41,0,0,1-1.08,1-1l-.57,1.26c-.58,1.39-1.31,7.64-.84,9.26,0,0,.44,1.3,2.83.38-1.12,2.95-3.65,3.27-4.18,3.62-1.45.91-1.45.91-1,1.1a7.24,7.24,0,0,0,5-.86,1.55,1.55,0,0,0,1,2,10.48,10.48,0,0,0,4.92.34" style="fill:#231f20"></path><path d="M230.24,396l0,0h0Z" style="fill:#231f20"></path><path d="M230.24,396l0,0h0Z" style="fill:#231f20"></path><path d="M230.24,396l0,0h0Z" style="fill:#231f20"></path><path d="M230.25,396v0a.06.06,0,0,1,0,0Z" style="fill:#231f20"></path><path d="M230.25,396v0a.06.06,0,0,1,0,0Z" style="fill:#231f20"></path><path d="M230.25,396v0a.06.06,0,0,1,0,0Z" style="fill:#231f20"></path><path d="M450.73,370.74h.95a1.48,1.48,0,0,0,.9-.19.69.69,0,0,0,.26-.54.85.85,0,0,0-.12-.38.78.78,0,0,0-.32-.25,2.78,2.78,0,0,0-.78-.08h-.89Zm-.78,2.7h0v-4.78h1.65a4.17,4.17,0,0,1,1.23.11,1.26,1.26,0,0,1,.62.47,1.3,1.3,0,0,1-.16,1.62,1.44,1.44,0,0,1-1,.44,1.87,1.87,0,0,1,.44.25,10.67,10.67,0,0,1,.69.95l.58.94H453l-.41-.75a4.48,4.48,0,0,0-.81-1.12,1,1,0,0,0-.63-.16h-.46v2Zm2-6.18h0a3.81,3.81,0,0,0-1.82.48,3.48,3.48,0,0,0-1.4,1.37,3.76,3.76,0,0,0-.5,1.88,3.61,3.61,0,0,0,.5,1.84,3.43,3.43,0,0,0,1.37,1.38,3.78,3.78,0,0,0,1.85.48,3.68,3.68,0,0,0,1.85-.48,3.55,3.55,0,0,0,1.39-1.38,3.8,3.8,0,0,0,.48-1.84,3.86,3.86,0,0,0-.5-1.88,3.4,3.4,0,0,0-1.39-1.37,3.82,3.82,0,0,0-1.83-.48m0-.74a4.55,4.55,0,0,1,2.2.58,4,4,0,0,1,1.66,1.65,4.56,4.56,0,0,1,.6,2.24,4.32,4.32,0,0,1-.6,2.2,4,4,0,0,1-1.65,1.66,4.31,4.31,0,0,1-2.21.59,4.5,4.5,0,0,1-2.22-.59,4.31,4.31,0,0,1-1.65-1.66,4.75,4.75,0,0,1-.6-2.2,4.58,4.58,0,0,1,.62-2.24,3.91,3.91,0,0,1,1.67-1.65,4.45,4.45,0,0,1,2.18-.58" style="fill:#231f20"></path><path d="M125.35,486.93h0a5.85,5.85,0,0,0-2.62-1.05,15.6,15.6,0,0,0-2.28-.18H111V518.6h4.49V504.08h4.4c3,0,5.11-.85,6.4-2.54s1.85-4.12,1.85-7.44a10.64,10.64,0,0,0-.8-4.6,6.45,6.45,0,0,0-2-2.57m-9.83,2.83h4.23a11.12,11.12,0,0,1,1.67.12,2.44,2.44,0,0,1,1.11.53,3.32,3.32,0,0,1,.81,1.36,9.49,9.49,0,0,1,.35,2.86,10.26,10.26,0,0,1-.32,2.78,4.18,4.18,0,0,1-.79,1.61,2.56,2.56,0,0,1-1.1.76,5.58,5.58,0,0,1-1.7.24h-4.26Z" style="fill:#231f20"></path><polygon points="152.1 485.69 147.6 485.69 147.6 518.6 162.43 518.6 162.43 514.54 152.1 514.54 152.1 485.69" style="fill:#231f20"></polygon><polygon points="187.79 500.03 181.21 485.69 176.16 485.69 185.49 504.97 185.49 518.6 189.97 518.6 189.97 504.97 199.4 485.69 194.71 485.69 187.79 500.03" style="fill:#231f20"></polygon><polygon points="242 510.32 236.36 485.69 231.27 485.69 225.57 510.42 219.9 485.69 215.18 485.69 223.11 518.6 227.94 518.6 233.72 493.68 239.35 518.6 244.35 518.6 252.5 485.69 248.01 485.69 242 510.32" style="fill:#231f20"></polygon><path d="M291,494.06h0a18.69,18.69,0,0,0-.89-3.49,8.55,8.55,0,0,0-1.82-2.92,7.91,7.91,0,0,0-2.95-1.89,11.87,11.87,0,0,0-4.25-.68,11.66,11.66,0,0,0-4.22.68,8,8,0,0,0-3,1.89h0a8.51,8.51,0,0,0-1.78,2.91,16.25,16.25,0,0,0-.89,3.5,31,31,0,0,0-.35,3.93v0c0,.57,0,1.16,0,1.75,0,.78,0,1.58,0,2.38s0,1.58,0,2.36c0,.6,0,1.18,0,1.76v0a31,31,0,0,0,.35,3.92,16.09,16.09,0,0,0,.89,3.5,8.28,8.28,0,0,0,1.78,2.9l0,0a8.14,8.14,0,0,0,3,1.9,13.69,13.69,0,0,0,8.46,0,8,8,0,0,0,3-1.91,8.64,8.64,0,0,0,1.81-2.91,18.6,18.6,0,0,0,.89-3.5,28.28,28.28,0,0,0,.32-3.93c0-1.18.05-2.46.05-4.14s0-3-.05-4.14a30.21,30.21,0,0,0-.32-3.95m-4.12,8.09c0,1.91,0,3.81-.1,5.61a15,15,0,0,1-.7,4.14,5.16,5.16,0,0,1-1.7,2.41,6.88,6.88,0,0,1-6.57,0,5.12,5.12,0,0,1-1.7-2.42,15.29,15.29,0,0,1-.71-4.13c-.06-1.68-.09-3.57-.09-5.62s0-3.95.09-5.62a15.06,15.06,0,0,1,.71-4.14,5,5,0,0,1,1.7-2.42,7,7,0,0,1,6.57,0,5.18,5.18,0,0,1,1.69,2.42,14.78,14.78,0,0,1,.71,4.13c.07,1.81.1,3.7.1,5.63" style="fill:#231f20"></path><path d="M332.3,494.06a16.78,16.78,0,0,0-.89-3.49,8.27,8.27,0,0,0-1.81-2.92,7.82,7.82,0,0,0-3-1.9,13.65,13.65,0,0,0-8.48,0,8.42,8.42,0,0,0-3,1.89l0,0a8.49,8.49,0,0,0-1.79,2.91,18.45,18.45,0,0,0-.87,3.48,28,28,0,0,0-.35,4c0,1.38,0,2.77,0,4.14s0,2.74,0,4.13a26.1,26.1,0,0,0,.35,3.94,18.28,18.28,0,0,0,.87,3.5,8.64,8.64,0,0,0,1.79,2.9l0,0a8.42,8.42,0,0,0,3,1.89,13.72,13.72,0,0,0,8.47,0,7.85,7.85,0,0,0,3-1.91,8.32,8.32,0,0,0,1.81-2.91,17.78,17.78,0,0,0,.89-3.49,27.55,27.55,0,0,0,.34-3.94c0-1.38,0-2.81,0-4.14s0-2.77,0-4.15a27.42,27.42,0,0,0-.34-3.94m-4.11,8.09c0,2.06,0,4-.11,5.61a14,14,0,0,1-.71,4.14,5,5,0,0,1-1.69,2.42,5.47,5.47,0,0,1-3.28.83,5.64,5.64,0,0,1-3.28-.82,5.14,5.14,0,0,1-1.69-2.43,14.5,14.5,0,0,1-.71-4.14c-.06-1.47-.09-3.2-.09-5.61s0-4.15.09-5.62a14.56,14.56,0,0,1,.71-4.14,4.92,4.92,0,0,1,1.69-2.42,7,7,0,0,1,6.55,0h0a4.86,4.86,0,0,1,1.68,2.43,13.58,13.58,0,0,1,.71,4.12c.07,1.66.11,3.55.11,5.63" style="fill:#231f20"></path><path d="M373.55,495.24a15.11,15.11,0,0,0-1.43-5.21,7.54,7.54,0,0,0-3.33-3.28,12.46,12.46,0,0,0-5.62-1.06h-9.12V518.6h8a15,15,0,0,0,6-1,8,8,0,0,0,3.69-3.24,13.18,13.18,0,0,0,1.68-5.17,51.5,51.5,0,0,0,.39-6.9c0-2.63-.1-5-.29-7Zm-15-5.48h2.76a15.38,15.38,0,0,1,4.39.5A4.1,4.1,0,0,1,368,491.8a7.3,7.3,0,0,1,1.11,3.16,42.25,42.25,0,0,1,.29,5.46c0,3.26-.08,5.76-.26,7.66a10.19,10.19,0,0,1-1.08,4.2,3.64,3.64,0,0,1-2.25,1.75,17.25,17.25,0,0,1-4.69.51h-2.51Z" style="fill:#231f20"></path></svg> 