<?xml version="1.0" encoding="UTF-8"?> <svg xmlns="http://www.w3.org/2000/svg" id="Layer_1" data-name="Layer 1" width="835.75" height="525.27" viewBox="0 0 835.75 525.27"><rect width="835.75" height="523.91" style="fill:#f9ec21"></rect><rect y="234" width="835.69" height="291.27" style="fill:#004866"></rect><path d="M581.67,377.75Z" transform="translate(-82.12 -237.36)" style="fill:#231f20"></path><path d="M572.77,422h0V296.12l6.64,5.92A189.75,189.75,0,0,1,644,421.8l.59,4.51h-13l-.48-3.5a175.69,175.69,0,0,0-4.33-22.05A163.69,163.69,0,0,0,620.79,382H586.05v44.29H572.77Zm13.28-96.22v43h29.23A179.15,179.15,0,0,0,586.05,325.82Z" transform="translate(-82.12 -237.36)" style="fill:#231f20"></path><path d="M259,302a61.09,61.09,0,0,1,39.61,14.58l3,2.55-2.61,3-3.2,3.8-2.55,3-3.08-2.67a46.73,46.73,0,0,0-13.52-8.06,47.71,47.71,0,0,0-11.2-3v110.8H252.51V315.32a48.69,48.69,0,0,0-24.72,11l-3,2.67-2.67-2.67L219,322.56l-2.61-3,3.08-2.6A60.35,60.35,0,0,1,259,302.28" transform="translate(-82.12 -237.36)" style="fill:#231f20"></path><path d="M718.26,393.34a93.93,93.93,0,0,0-49.8-74.75V426.07h-13V299.14l5.39,2A106.64,106.64,0,0,1,718.26,350V300.86h13V426.07h-13Z" transform="translate(-82.12 -237.36)" style="fill:#231f20"></path><path d="M547.16,414.39a48.21,48.21,0,0,1-31.42,14.35h-4v-4l-.36-4.86v-4h4a35.88,35.88,0,0,0,23.13-10.49,36.48,36.48,0,0,0,10.37-22.88V300.86h12.93v82a48.8,48.8,0,0,1-14.11,31.54" transform="translate(-82.12 -237.36)" style="fill:#231f20"></path><path d="M325.2,381.25h0v44.82H312.33V303.17l3.44-.47a40,40,0,0,1,43.69,26.73h0a40.19,40.19,0,0,1-21.4,49.27,68.16,68.16,0,0,0,32,37.59l3.55,1.95-1.89,3.5L369.42,426l-1.89,3.62-3.56-2a81.75,81.75,0,0,1-26.32-22.53,80.4,80.4,0,0,1-12.39-23.71m0-65.81v53.71h1.18a27.09,27.09,0,0,0,21.64-31.48h0a27.15,27.15,0,0,0-22.88-22.41Z" transform="translate(-82.12 -237.36)" style="fill:#231f20"></path><path d="M385.07,363.46a61.91,61.91,0,0,1,45.83-59.64h.77v13.7A48.9,48.9,0,0,0,398.06,366a45.09,45.09,0,0,0,1.54,10.2l1.66,4.09h-.36a48.63,48.63,0,0,0,21.52,25.91,49.44,49.44,0,0,0,33.38,5.93l3.74-1a49,49,0,0,0,36.22-49.33,51.77,51.77,0,0,0-1.3-9h13.28a60.05,60.05,0,0,1-44.59,70.55h0a61.77,61.77,0,0,1-74.58-40.07h0l-.41-1.49a10.42,10.42,0,0,0-.6-2.25,61,61,0,0,1-2.13-16.18" transform="translate(-82.12 -237.36)" style="fill:#231f20"></path><path d="M581.9,379.65Z" transform="translate(-82.12 -237.36)" style="fill:#231f20"></path><polygon points="382.27 100.43 382.33 100.43 382.27 100.43 382.27 100.43" style="fill:#231f20"></polygon><path d="M468.25,335.6h0c0-1.54,2.31-2.31,2.43-3,0,.41-1.54,0-1.66-.54s.83-4.32,0-5.1a7.27,7.27,0,0,1-2.13,2.32,1,1,0,0,1-1.34,0l0,0c-.42,0-1.25,2.66-1.55,2.78s-.41-.53,0-.83a3.84,3.84,0,0,0,0-3.55c-.41,1.54-1.24,1.3-1.24,1.3a16.29,16.29,0,0,1-4.27-4.09l-.41-.77a4.41,4.41,0,0,0,0,.89,15.22,15.22,0,0,1-1,5.93s-.48.71-1.78,0a4,4,0,0,0,2,2.9c.41,0,.71.83.41.83a6.86,6.86,0,0,1-3-1.3c0,.29,0,.89-.95,1a6.74,6.74,0,0,1-3-.6c0,.36,1.19,1.31,2.08,2.26,0,0,1.24,1.24.89,1.89s-.59,1.54-.95,1.43,3-.48,3.68.88c0,0-1.07,3.09-2.61,2.85a7.74,7.74,0,0,0,4.32,0c1.13-.53,1.61-.77,2.14-.41s-.53,1.36-.65,1.36a4.79,4.79,0,0,0,3.55-3v-.29h0a5.11,5.11,0,0,0,4.63,0s-1.48,0-1.31-.77.72-.65,2-.95a7.32,7.32,0,0,0,3.56-2.43c-1.07,1.12-3.8-.65-3.8-.65m-3.38-34.69h0c-.94-2.13,2.38-4.21,2.26-5.27,0,.65-2.26.41-2.61,0a33.26,33.26,0,0,0-1.72-6.82,4.25,4.25,0,0,1-2.08,3.85,2.51,2.51,0,0,1-2.49,0c-.41.66-.71,4.33-1.06,4.69s-.77-.71-.6-1.25a5.92,5.92,0,0,0-1.6-4.92c0,2.43-1.3,2.31-1.3,2.31a47.29,47.29,0,0,1-7.77-4l-1.42-.71,1.13.95a16.78,16.78,0,0,1,.83,8.65s-.36,1.19-2.61.36a6.43,6.43,0,0,0,3.91,3.38c1.6.65,1.36.83.89,1a7.48,7.48,0,0,1-4.8-.83,1.49,1.49,0,0,1-.95,1.84,3.42,3.42,0,0,1-2.61.41c0,.59,3.5,2.55,3.91,4.68,0,.54,0,2.44-.89,2.38.89.47,4.09-1.84,5.93,0,0,0,1.13,4.5-2,4.8,1.83.77,4-.65,5.45-1.84s2-1.66,2.85-1.3,0,2.07-.3,2.19a7.59,7.59,0,0,0,3.79-5.16,22,22,0,0,1,2.73,5.16c0,1,1.72.41,1.42-.3a34.22,34.22,0,0,0-3.55-5.93A8,8,0,0,0,466.3,308s-2.26.36-2.2-.59.77-1.25,2.37-2.13a10.4,10.4,0,0,0,4.09-4.87c-1.12,2.14-5.69.48-5.69.48Zm41.5,31h0c-2.84,0-3.49,0-4-.83a2.15,2.15,0,0,1,0-2.31,8.09,8.09,0,0,1-4.74-.42c-.42-.29.53-.89,1.13-.77a5.9,5.9,0,0,0,4.68-2.31c-2.37,0-2.49-1-2.49-1a13.43,13.43,0,0,1,2.55-7.64l1.78-1.55h-1.78c-4,0-6.82,2.85-8.42,2.61,0,0-1.25,0-.71-2.55a5.94,5.94,0,0,0-2.79,4.45c0,.59-.65,1.48-.89,1a5.4,5.4,0,0,1,0-4.8,2,2,0,0,1-2.25,0c-.65-.42-1.25-1.19-.53-3.27a25.73,25.73,0,0,0-4.09,4.81c-.42.41-2.44,0-2.44-.54-.47.95,2.32,3.86.83,5.93,0,0-4.86.36-5.33-1.9a10.52,10.52,0,0,0,2.79,5.93c1.36,1.31,1.95,1.72,1.71,2.73s-2.13,0-2.25,0a8.05,8.05,0,0,0,5.93,3,24.59,24.59,0,0,1-4.8,3.5c-1,0,0,1.78.53,1.37a36.87,36.87,0,0,0,5.16-4.33,7.64,7.64,0,0,0,2.49,6.46s-.77-2.13,0-2.25,1.36.59,2.49,2.13a11.14,11.14,0,0,0,5.45,3.38c-2.19-.71-1.36-5.51-1.36-5.51,2-1.25,4.57,1.78,5.57,1.54-.65,0-.71-2.2,0-2.55a23.73,23.73,0,0,0,5.81-4.68Zm11.92-42.45c-.36.77-5.16,2.85-5.34,3.44s-2.25,2.49-2.72,3.2.29,3.32,1.18,3.26c-1.18.71-5.93-2.43-7.82,0,0,0,.53,6.64,3.67,6.88a14.68,14.68,0,0,1-8.3-2.61c-2.07-1.6-2.78-2.37-4-1.9s.3,3,.48,3a10.44,10.44,0,0,1-5.4-7.65,61.84,61.84,0,0,1-5.39,7.47c-.77.77-2.43-1-1.19-1.66a34.67,34.67,0,0,0,5.22-5.93,10.44,10.44,0,0,1-8.6-2.07s3,.59,2.91-.77-.95-1.72-3.21-3a14.37,14.37,0,0,1-5.92-6.58c1.42,2.79,7.76.65,7.76.65,1.25-2.9-3.38-5.93-3.2-7.17.3.89,3,.53,3.5,0a14,14,0,0,0,1.9-3.85c.83-2.67.47-5.58,1-5.93a13.17,13.17,0,0,0,2.91,5.93,2,2,0,0,0,2.76.08l.08-.08a6.66,6.66,0,0,0,1.55,6.4c.47.41,1.06-.95.77-1.66a8.1,8.1,0,0,1,2.19-6.82c0,3.32,1.9,3.14,1.9,3.14a33.63,33.63,0,0,0,10.55-5.93l1.19-1.24a16.32,16.32,0,0,1-.72,1.6,36.45,36.45,0,0,0-1.12,11.86s.53,1.66,3.67.47a7.93,7.93,0,0,1-5.39,4.69c-1.84,1.18-1.84,1.18-1.25,1.42a9.27,9.27,0,0,0,6.53-1.13,1.89,1.89,0,0,0,1,2.47l.25.08a12.91,12.91,0,0,0,6.64-.47Z" transform="translate(-82.12 -237.36)" style="fill:#231f20"></path><path d="M462.56,338.86Z" transform="translate(-82.12 -237.36)" style="fill:#231f20"></path><path d="M462.56,338.86Z" transform="translate(-82.12 -237.36)" style="fill:#231f20"></path><path d="M462.56,338.86Z" transform="translate(-82.12 -237.36)" style="fill:#231f20"></path><path d="M462.62,338.86Z" transform="translate(-82.12 -237.36)" style="fill:#231f20"></path><path d="M462.62,338.86Z" transform="translate(-82.12 -237.36)" style="fill:#231f20"></path><path d="M462.62,338.86Z" transform="translate(-82.12 -237.36)" style="fill:#231f20"></path><path d="M746.66,306.31h1.24a1.91,1.91,0,0,0,1.19-.29.94.94,0,0,0,0-.66.84.84,0,0,0-.53-.83h-2.2Zm-.95,3.44h0v-5.93h2.13a4.66,4.66,0,0,1,1.49,0,1.24,1.24,0,0,1,.83.6,1.91,1.91,0,0,1,0,.89,2,2,0,0,1-.48,1.24,2.15,2.15,0,0,1-1.3.53l.59.3.89,1.19.71,1.24h-1.24l-.54-.95a3.82,3.82,0,0,0-1.06-1.42,1,1,0,0,0-.77,0h-.6v2.61Zm2.49-7.94h0a4.47,4.47,0,0,0-2.37.65,4.24,4.24,0,0,0-1.78,1.78,4.72,4.72,0,0,0-.65,2.37,4.93,4.93,0,0,0,.65,2.37,4.24,4.24,0,0,0,1.78,1.78,4.63,4.63,0,0,0,4.74,0,4.68,4.68,0,0,0,1.78-1.78,4.93,4.93,0,0,0,.65-2.37,4.72,4.72,0,0,0-.65-2.37,4.06,4.06,0,0,0-1.84-1.78A4.11,4.11,0,0,0,748.2,301.81Zm0-.95a5.57,5.57,0,0,1,5,2.84,6.32,6.32,0,0,1,.77,2.91,5.62,5.62,0,0,1-.77,2.85,6,6,0,0,1-2.13,2.13,5.93,5.93,0,0,1-5.93,0,5,5,0,0,1-2.14-2.13,5.41,5.41,0,0,1,0-5.93,5.25,5.25,0,0,1,2.14-2.14A6.36,6.36,0,0,1,748.2,300.86Z" transform="translate(-82.12 -237.36)" style="fill:#231f20"></path><path d="M262.06,676.08V705a82.48,82.48,0,0,1-65.22-29.11,108.45,108.45,0,0,1,0-139.56,82.58,82.58,0,0,1,65.22-29.17v29a53.92,53.92,0,0,0-43.58,20.46,81.19,81.19,0,0,0,0,99.3A53.77,53.77,0,0,0,262.06,676.08Z" transform="translate(-82.12 -237.36)" style="fill:#fff"></path><path d="M310.31,507.35V676.08h36.17V705H280.2V507.35Z" transform="translate(-82.12 -237.36)" style="fill:#fff"></path><path d="M455.09,546v82H467v29H455.09v48.2H424.91V657H407.13v48.2H376.66V657H364.8V628h11.86V546A37,37,0,0,1,388,518.79a39.5,39.5,0,0,1,55.61,0A36.84,36.84,0,0,1,455.09,546Zm-48.26,0v82h17.79V546a9.38,9.38,0,0,0-2.79-6.82,8.48,8.48,0,0,0-12-.6q-.32.29-.6.6A9.35,9.35,0,0,0,406.83,546Z" transform="translate(-82.12 -237.36)" style="fill:#fff"></path><path d="M532.7,601.85a56.56,56.56,0,0,1,18.73,40.61,60.52,60.52,0,0,1-18.5,44.29,64.83,64.83,0,0,1-47.66,18.44V676.08a35.62,35.62,0,0,0,26.38-9.78,32.9,32.9,0,0,0,9.84-23.72,32.54,32.54,0,0,0-9-23l-8.6-8.72a56.55,56.55,0,0,1-18.67-40.72,60.23,60.23,0,0,1,18.49-44.29,64.82,64.82,0,0,1,47.91-18.5v29a35.54,35.54,0,0,0-26.38,9.84,34,34,0,0,0-.95,46.9Z" transform="translate(-82.12 -237.36)" style="fill:#fff"></path><path d="M617.3,601.85A56.56,56.56,0,0,1,636,642.46a60.48,60.48,0,0,1-18.44,44.29,65.18,65.18,0,0,1-47.9,18.44V676.08A35.55,35.55,0,0,0,596,666.3a34.21,34.21,0,0,0,1-47l-8.59-8.42a56.74,56.74,0,0,1-18.68-40.61A60.15,60.15,0,0,1,588.13,526a64.68,64.68,0,0,1,47.9-18.5v29a35.57,35.57,0,0,0-26.26,9.72,34,34,0,0,0-1,46.9Z" transform="translate(-82.12 -237.36)" style="fill:#fff"></path><path d="M654.11,507.35h30.18V705.19H654.11Z" transform="translate(-82.12 -237.36)" style="fill:#fff"></path><path d="M792.84,676.08V705a82.16,82.16,0,0,1-65.21-29.11,108.26,108.26,0,0,1,0-139.56,82.24,82.24,0,0,1,65.21-29.17v29a53.92,53.92,0,0,0-43.34,20.28,81.19,81.19,0,0,0,0,99.3A53.79,53.79,0,0,0,792.84,676.08Z" transform="translate(-82.12 -237.36)" style="fill:#fff"></path></svg> 