<?xml version="1.0" encoding="UTF-8"?> <svg xmlns="http://www.w3.org/2000/svg" id="Layer_1" data-name="Layer 1" width="300" height="48.16" viewBox="0 0 300 48.16"><rect x="87.38" width="212.62" height="48.16" style="fill:#3c3e3f"></rect><rect width="87.38" height="48.16" style="fill:#fbed21"></rect><path d="M141.71,32.5a3.88,3.88,0,0,1-3.88-3.88V11.83h-3.7V28.62a7.59,7.59,0,0,0,7.58,7.57h3.15C144.86,32.62,142.58,32.5,141.71,32.5Z" style="fill:#fff"></path><rect x="190.03" y="11.83" width="3.69" height="24.36" style="fill:#fff"></rect><path d="M216.21,29.47,201.43,12.38a1.8,1.8,0,0,0-1.4-.64h-1.84V36.18h3.69V18.53l15.33,17.75h.84a1.86,1.86,0,0,0,1.85-1.85V11.83h-3.69Z" style="fill:#fff"></path><path d="M123.55,11.88H112.66v24.3h3.68V15.57h7.21a4.84,4.84,0,1,1,0,9.68h-2.63c-3,0-3.11,3.7-3.11,3.7h5.74a8.54,8.54,0,0,0,0-17.07Z" style="fill:#fff"></path><path d="M167.69,15.52h7.15v17a3.54,3.54,0,0,0,3.69,3.69V15.52h7.16V11.83h-18Z" style="fill:#fff"></path><path d="M241.67,25.42a7.17,7.17,0,0,1-14.33,0V15.51a3.54,3.54,0,0,0-3.69-3.68V25.42a10.85,10.85,0,1,0,21.7,0V11.83h-3.68Z" style="fill:#fff"></path><path d="M273.32,11.68a1.61,1.61,0,0,0-.44-.06h-1.11l-9.65,18.05L253,12.6a1.9,1.9,0,0,0-1.62-1h-1.86V36.21h3.69V20.82L261,35.43h1.11a1.84,1.84,0,0,0,1.62-1L271,20.82V32.49a3.54,3.54,0,0,0,3.69,3.69V13.47A1.83,1.83,0,0,0,273.32,11.68Z" style="fill:#fff"></path><path d="M157.92,11.77h-1.21l-10.6,24.42h4l7.79-17.94s6.71,15.46,7,16a3.53,3.53,0,0,0,4.84,1.92L159.61,12.88A1.84,1.84,0,0,0,157.92,11.77Z" style="fill:#fff"></path><path d="M54.71,33h0V17.57l.81.7a23.34,23.34,0,0,1,5.32,6.61,22.9,22.9,0,0,1,2.58,8.05l.07.56H61.9l0-.43a22.63,22.63,0,0,0-.54-2.7,18.56,18.56,0,0,0-.75-2.29H56.3v5.42H54.71ZM56.3,21.21v5.26h3.58a22.34,22.34,0,0,0-3.58-5.26Z" style="fill:#1a171a"></path><path d="M16.29,18.29a7.46,7.46,0,0,1,4.85,1.78l.36.32-.3.38-.4.45-.32.38-.37-.32a6.29,6.29,0,0,0-1.65-1,6,6,0,0,0-1.38-.36V33.49H15.5V19.93a6,6,0,0,0-1.37.36,5.92,5.92,0,0,0-1.65,1l-.38.31-.32-.37-.39-.45-.31-.38.36-.32a7.49,7.49,0,0,1,4.85-1.79" style="fill:#1a171a"></path><path d="M72.52,29.48a11.55,11.55,0,0,0-6.1-9.16V33.49H64.84V18l.66.23a13.09,13.09,0,0,1,4.92,3.19,12.86,12.86,0,0,1,2.1,2.82v-6h1.59V33.49H72.52v-4Z" style="fill:#1a171a"></path><path d="M51.57,32.06a5.91,5.91,0,0,1-3.85,1.75l-.49,0,0-.5,0-.6,0-.49.5,0A4.31,4.31,0,0,0,50.44,31a4.39,4.39,0,0,0,1.27-2.81v-10H53.3v10a6,6,0,0,1-1.73,3.86" style="fill:#1a171a"></path><path d="M24.41,28h0v5.49H22.83v-15l.42-.06a4.87,4.87,0,0,1,5.34,3.28h0a4.85,4.85,0,0,1-.24,3.73A5,5,0,0,1,26,27.7a8.51,8.51,0,0,0,3.93,4.6l.43.23L30.1,33l-.28.53-.23.43-.43-.23a9.66,9.66,0,0,1-3.22-2.76A9.43,9.43,0,0,1,24.41,28m0-8.06v6.58l.15,0h0a3.3,3.3,0,0,0,2.66-3.86h0a3.32,3.32,0,0,0-2.81-2.69Z" style="fill:#1a171a"></path><path d="M31.73,25.82a7.56,7.56,0,0,1,5.61-7.3h0l.1,0v1.67a6,6,0,0,0-3.32,2.7,5.89,5.89,0,0,0-.8,3.25,6,6,0,0,0,.19,1.25l.2.5h-.05a6,6,0,0,0,6.73,3.86l.46-.12a6,6,0,0,0,3.63-2.79,5.88,5.88,0,0,0,.79-3.25,5.2,5.2,0,0,0-.15-1.1h1.62a7.27,7.27,0,0,1,.13,1.39,7.68,7.68,0,0,1-1,3.77,7.5,7.5,0,0,1-4.59,3.52h0a7.56,7.56,0,0,1-9.14-4.91h0l0-.18A2.29,2.29,0,0,1,32,27.8a7.14,7.14,0,0,1-.26-2" style="fill:#1a171a"></path><polygon points="41.45 22.68 41.45 22.68 41.44 22.68 41.45 22.68" style="fill:#1a171a"></polygon><path d="M41.91,22.41h0c0-.19.29-.28.3-.37S42,22,42,22s.1-.53,0-.62a1,1,0,0,1-.26.27.12.12,0,0,1-.17,0s-.16.33-.19.35-.05-.07,0-.11a.47.47,0,0,0,0-.43c0,.19-.15.16-.15.16a2.26,2.26,0,0,1-.52-.5l0-.1,0,.11a2.17,2.17,0,0,1-.13.71s-.06.09-.23,0a.51.51,0,0,0,.25.35s.09.09,0,.1a.72.72,0,0,1-.36-.17c0,.05,0,.12-.12.14a1,1,0,0,1-.37-.08,1.74,1.74,0,0,0,.26.28s.15.15.1.23-.06.19-.1.18.35-.06.44.1c0,0-.14.38-.33.35a1.11,1.11,0,0,0,.54,0c.14-.07.19-.09.25-.05s-.06.16-.07.17a.67.67,0,0,0,.44-.37v0l0,0a.65.65,0,0,0,.58,0s-.19,0-.16-.1.08-.08.22-.12a.91.91,0,0,0,.44-.28c-.11.13-.46-.09-.46-.09m-.42-4.25h0c-.11-.26.3-.51.28-.64,0,.07-.26.05-.31,0a5.17,5.17,0,0,0-.21-.83.55.55,0,0,1-.26.48.34.34,0,0,1-.3,0c0,.08-.09.53-.13.57s-.09-.08-.07-.15a.79.79,0,0,0-.21-.61c0,.3-.16.29-.16.29a6.53,6.53,0,0,1-.94-.49,1.51,1.51,0,0,0-.18-.09,1.34,1.34,0,0,1,.14.11,1.93,1.93,0,0,1,.1,1.06s-.05.15-.32.05c.09.27.42.38.48.41s.17.1.12.12a.89.89,0,0,1-.59-.09c0,.06,0,.17-.11.23a.43.43,0,0,1-.33.05c0,.08.44.32.49.57,0,.07,0,.31-.11.29.12.07.51-.22.7,0,0,0,.14.55-.25.59.23.09.49-.08.67-.22s.24-.21.35-.17,0,.27,0,.27a.93.93,0,0,0,.46-.63,2.92,2.92,0,0,1,.34.64c0,.12.21,0,.18,0a5.1,5.1,0,0,0-.43-.7,1,1,0,0,0,.82-.18s-.28.05-.28-.07.1-.15.3-.26a1.35,1.35,0,0,0,.5-.6C42.06,18.34,41.49,18.16,41.49,18.16ZM46.57,22h0c-.33,0-.42,0-.47-.1a.22.22,0,0,1,0-.28,1,1,0,0,1-.59-.06s.06-.1.14-.09a.72.72,0,0,0,.58-.28c-.31,0-.31-.13-.31-.13a1.58,1.58,0,0,1,.32-.93l.21-.19h-.21c-.5,0-.84.35-1,.33,0,0-.15,0-.09-.32a.71.71,0,0,0-.34.54c0,.07-.08.17-.11.12a.66.66,0,0,1,0-.59.26.26,0,0,1-.28,0c-.08-.06-.17-.15-.07-.41a3.08,3.08,0,0,0-.51.59s-.29,0-.29-.08c-.05.13.27.48.11.71,0,0-.6,0-.67-.23a1.34,1.34,0,0,0,.35.69c.17.17.24.22.22.34s-.27,0-.28,0a1,1,0,0,0,.7.37,3.06,3.06,0,0,1-.59.42c-.13,0,0,.23.06.17a4.23,4.23,0,0,0,.64-.52.94.94,0,0,0,.29.79s-.09-.27,0-.27.17.07.3.24a1.4,1.4,0,0,0,.67.43c-.27-.09-.16-.69-.16-.69.24-.15.55.23.67.19-.07,0-.08-.26,0-.3S46.39,22.21,46.57,22Zm-.12-2.06Zm1.6-3.13c0,.09-.65.34-.66.41a4.46,4.46,0,0,0-.34.4c0,.08,0,.41.15.4-.15.09-.7-.3-1,0,0,0,.06.82.45.85a1.84,1.84,0,0,1-1-.32c-.25-.2-.34-.29-.49-.23s0,.35,0,.36a1.29,1.29,0,0,1-.66-.93,9.19,9.19,0,0,1-.65.91c-.1.1-.3-.12-.14-.2a5.24,5.24,0,0,0,.63-.76,1.3,1.3,0,0,1-1.06-.26s.38.08.37-.09-.13-.21-.4-.36a1.82,1.82,0,0,1-.7-.81c.17.34,1,.08,1,.08.15-.36-.42-.7-.39-.88,0,.11.36.07.41,0a1.35,1.35,0,0,0,.23-.47c.11-.32.07-.68.14-.75a1.56,1.56,0,0,0,.35.69.24.24,0,0,0,.35,0,.83.83,0,0,0,.19.78c0,.06.13-.11.09-.2a1,1,0,0,1,.27-.83c0,.4.23.38.23.38a4.44,4.44,0,0,0,1.29-.69s.15-.18.15-.16l-.08.2a4.15,4.15,0,0,0-.14,1.46s.07.2.44,0a.94.94,0,0,1-.65.57c-.23.15-.23.15-.16.18a1.13,1.13,0,0,0,.8-.13.24.24,0,0,0,.16.31A1.91,1.91,0,0,0,48.05,16.76Z" style="fill:#1a171a"></path><path d="M41.22,22.82h0Z" style="fill:#1a171a"></path><path d="M41.22,22.82h0Z" style="fill:#1a171a"></path><path d="M41.22,22.82h0Z" style="fill:#1a171a"></path><path d="M41.22,22.82Z" style="fill:#1a171a"></path><path d="M41.22,22.82Z" style="fill:#1a171a"></path><path d="M41.22,22.82Z" style="fill:#1a171a"></path><path d="M76,18.82h.16a.23.23,0,0,0,.13,0,.1.1,0,0,0,0-.09.06.06,0,0,0,0-.05l0,0H76Zm-.12.43h0v-.76h.26a.5.5,0,0,1,.19,0,.22.22,0,0,1,.09.07.18.18,0,0,1,0,.12.19.19,0,0,1,0,.14.26.26,0,0,1-.16.07l.07,0a.73.73,0,0,1,.11.15l.09.15h-.14l-.07-.12a.93.93,0,0,0-.13-.18.15.15,0,0,0-.1,0H76v.33Zm.3-1h0a.48.48,0,0,0-.28.08.5.5,0,0,0-.22.21.54.54,0,0,0-.08.3.53.53,0,0,0,.08.29.45.45,0,0,0,.22.21.43.43,0,0,0,.28.09.66.66,0,0,0,.51-.3.53.53,0,0,0,.08-.29.55.55,0,0,0-.09-.3.43.43,0,0,0-.21-.21A.51.51,0,0,0,76.18,18.27Zm0-.11a.63.63,0,0,1,.35.09.61.61,0,0,1,.27.26.82.82,0,0,1,.09.35.86.86,0,0,1-.09.35.68.68,0,0,1-.27.26.7.7,0,0,1-.35.09.79.79,0,0,1-.35-.09.63.63,0,0,1-.25-.26.64.64,0,0,1-.1-.35.62.62,0,0,1,.1-.35.53.53,0,0,1,.25-.26A.68.68,0,0,1,76.18,18.16Z" style="fill:#1a171a"></path></svg> 