<?xml version="1.0" encoding="UTF-8"?> <svg xmlns="http://www.w3.org/2000/svg" id="Layer_1" data-name="Layer 1" width="50" height="40.63" viewBox="0 0 50 40.63"><path d="M50,9.49a20.48,20.48,0,0,1-5.89,1.62,10.29,10.29,0,0,0,4.51-5.68A20.42,20.42,0,0,1,42.1,7.92a10.26,10.26,0,0,0-17.74,7,10.06,10.06,0,0,0,.27,2.34A29.13,29.13,0,0,1,3.48,6.56a10.27,10.27,0,0,0,3.18,13.7A10.3,10.3,0,0,1,2,19v.13a10.26,10.26,0,0,0,8.23,10.06,10.47,10.47,0,0,1-2.7.36,10.29,10.29,0,0,1-1.94-.18,10.28,10.28,0,0,0,9.59,7.12A20.6,20.6,0,0,1,2.45,40.85,21.94,21.94,0,0,1,0,40.71a29,29,0,0,0,15.72,4.61c18.87,0,29.19-15.63,29.19-29.19,0-.44,0-.89,0-1.33A20.52,20.52,0,0,0,50,9.49Z" transform="translate(0 -4.68)"></path></svg> 